M48
;GenerationSoftware,Autodesk,EAGLE,9.6.2*%
;CreationDate,2024-03-02T22:10:31Z*%
FMAT,2
ICI,OFF
METRIC,TZ,000.000
T2C0.350
T1C1.016
%
G90
M71
T1
X8636Y-20574
X11176Y-20574
X13716Y-20574
X16256Y-20574
X18796Y-20574
X21336Y-20574
X23876Y-20574
T2
X21741Y11430
X18415Y13716
X20066Y12319
X18395Y11684
X22733Y11430
X10922Y15367
X23876Y15748
X23832Y18888
X9525Y19685
X9164Y14443
X8311Y17780
X9906Y14986
X23146Y16637
X23225Y17994
X8918Y18796
X13208Y14478
X17399Y10414
X11676Y9136
X13462Y11303
X15153Y14351
X14084Y14999
X15171Y10737
X12065Y10033
X14366Y13447
X13081Y15387
X9144Y10414
X12954Y16296
X10130Y17556
X12045Y16637
X11430Y17851
X15367Y-8255
X9779Y-8001
X11557Y-5969
X15367Y-6731
X18542Y12700
X14859Y-13335
X12065Y15113
X10228Y-2608
X9652Y-889
X14262Y10387
X22860Y10414
M30