G04 EAGLE Gerber RS-274X export*
G75*
%MOMM*%
%FSLAX34Y34*%
%LPD*%
%INBottom Copper*%
%IPPOS*%
%AMOC8*
5,1,8,0,0,1.08239X$1,22.5*%
G01*
%ADD10C,1.524000*%
%ADD11C,0.756400*%
%ADD12C,0.152400*%

G36*
X109360Y-224779D02*
X109360Y-224779D01*
X109424Y-224779D01*
X109481Y-224759D01*
X109540Y-224750D01*
X109596Y-224720D01*
X109657Y-224699D01*
X109704Y-224662D01*
X109757Y-224634D01*
X109801Y-224588D01*
X109852Y-224549D01*
X109885Y-224499D01*
X109927Y-224456D01*
X109954Y-224398D01*
X109989Y-224345D01*
X110005Y-224287D01*
X110030Y-224233D01*
X110037Y-224169D01*
X110054Y-224108D01*
X110051Y-224048D01*
X110057Y-223989D01*
X110044Y-223926D01*
X110040Y-223862D01*
X110018Y-223807D01*
X110005Y-223748D01*
X109972Y-223693D01*
X109948Y-223634D01*
X109910Y-223588D01*
X109879Y-223537D01*
X109830Y-223496D01*
X109789Y-223447D01*
X109737Y-223416D01*
X109692Y-223377D01*
X109633Y-223353D01*
X109578Y-223320D01*
X109495Y-223298D01*
X109464Y-223285D01*
X109439Y-223283D01*
X109416Y-223276D01*
X109381Y-223271D01*
X107860Y-222776D01*
X106435Y-222050D01*
X105141Y-221110D01*
X104010Y-219979D01*
X103070Y-218685D01*
X102344Y-217260D01*
X101849Y-215739D01*
X101599Y-214160D01*
X101599Y-207263D01*
X110998Y-207263D01*
X111018Y-207260D01*
X111037Y-207262D01*
X111139Y-207240D01*
X111241Y-207223D01*
X111258Y-207214D01*
X111278Y-207210D01*
X111367Y-207157D01*
X111458Y-207108D01*
X111472Y-207094D01*
X111489Y-207084D01*
X111556Y-207005D01*
X111627Y-206930D01*
X111636Y-206912D01*
X111649Y-206897D01*
X111687Y-206801D01*
X111731Y-206707D01*
X111733Y-206687D01*
X111741Y-206669D01*
X111759Y-206502D01*
X111759Y-205739D01*
X111761Y-205739D01*
X111761Y-206502D01*
X111764Y-206522D01*
X111762Y-206541D01*
X111784Y-206643D01*
X111801Y-206745D01*
X111810Y-206762D01*
X111814Y-206782D01*
X111867Y-206871D01*
X111916Y-206962D01*
X111930Y-206976D01*
X111940Y-206993D01*
X112019Y-207060D01*
X112094Y-207131D01*
X112112Y-207140D01*
X112127Y-207153D01*
X112223Y-207192D01*
X112317Y-207235D01*
X112337Y-207237D01*
X112355Y-207245D01*
X112522Y-207263D01*
X121921Y-207263D01*
X121921Y-214160D01*
X121671Y-215739D01*
X121176Y-217260D01*
X120450Y-218685D01*
X119510Y-219979D01*
X118379Y-221110D01*
X117085Y-222050D01*
X115660Y-222776D01*
X114139Y-223271D01*
X114104Y-223276D01*
X114043Y-223296D01*
X113980Y-223307D01*
X113927Y-223335D01*
X113870Y-223353D01*
X113819Y-223392D01*
X113763Y-223422D01*
X113722Y-223465D01*
X113674Y-223501D01*
X113637Y-223554D01*
X113593Y-223600D01*
X113568Y-223654D01*
X113534Y-223703D01*
X113517Y-223765D01*
X113490Y-223823D01*
X113483Y-223882D01*
X113467Y-223940D01*
X113470Y-224004D01*
X113463Y-224067D01*
X113475Y-224126D01*
X113478Y-224186D01*
X113501Y-224245D01*
X113515Y-224308D01*
X113546Y-224359D01*
X113567Y-224415D01*
X113608Y-224464D01*
X113641Y-224519D01*
X113687Y-224558D01*
X113725Y-224604D01*
X113779Y-224637D01*
X113828Y-224679D01*
X113884Y-224701D01*
X113934Y-224733D01*
X113997Y-224747D01*
X114056Y-224771D01*
X114142Y-224780D01*
X114174Y-224788D01*
X114199Y-224787D01*
X114223Y-224789D01*
X251768Y-224789D01*
X251788Y-224786D01*
X251807Y-224788D01*
X251909Y-224766D01*
X252011Y-224750D01*
X252028Y-224740D01*
X252048Y-224736D01*
X252137Y-224683D01*
X252228Y-224634D01*
X252242Y-224620D01*
X252259Y-224610D01*
X252326Y-224531D01*
X252398Y-224456D01*
X252406Y-224438D01*
X252419Y-224423D01*
X252458Y-224327D01*
X252501Y-224233D01*
X252503Y-224213D01*
X252511Y-224195D01*
X252529Y-224028D01*
X252529Y226875D01*
X252526Y226895D01*
X252528Y226914D01*
X252506Y227016D01*
X252490Y227118D01*
X252480Y227135D01*
X252476Y227155D01*
X252423Y227244D01*
X252374Y227335D01*
X252360Y227349D01*
X252350Y227366D01*
X252271Y227433D01*
X252196Y227504D01*
X252178Y227513D01*
X252163Y227526D01*
X252067Y227564D01*
X251973Y227608D01*
X251953Y227610D01*
X251935Y227618D01*
X251768Y227636D01*
X76200Y227636D01*
X76180Y227633D01*
X76161Y227635D01*
X76059Y227613D01*
X75957Y227596D01*
X75940Y227587D01*
X75920Y227583D01*
X75831Y227530D01*
X75740Y227481D01*
X75726Y227467D01*
X75709Y227457D01*
X75642Y227378D01*
X75570Y227303D01*
X75562Y227285D01*
X75549Y227270D01*
X75510Y227173D01*
X75467Y227080D01*
X75465Y227060D01*
X75457Y227042D01*
X75439Y226875D01*
X75439Y-224028D01*
X75442Y-224048D01*
X75440Y-224067D01*
X75462Y-224169D01*
X75478Y-224271D01*
X75488Y-224288D01*
X75492Y-224308D01*
X75545Y-224397D01*
X75594Y-224488D01*
X75608Y-224502D01*
X75618Y-224519D01*
X75697Y-224586D01*
X75772Y-224658D01*
X75790Y-224666D01*
X75805Y-224679D01*
X75901Y-224718D01*
X75995Y-224761D01*
X76015Y-224763D01*
X76033Y-224771D01*
X76200Y-224789D01*
X109297Y-224789D01*
X109360Y-224779D01*
G37*
%LPC*%
G36*
X113303Y83009D02*
X113303Y83009D01*
X108409Y87903D01*
X108409Y106755D01*
X129570Y127916D01*
X129616Y127980D01*
X129638Y128003D01*
X129642Y128012D01*
X129683Y128060D01*
X129695Y128090D01*
X129714Y128116D01*
X129741Y128203D01*
X129775Y128288D01*
X129779Y128329D01*
X129786Y128351D01*
X129785Y128383D01*
X129793Y128455D01*
X129793Y137422D01*
X129782Y137492D01*
X129780Y137564D01*
X129762Y137613D01*
X129754Y137664D01*
X129720Y137728D01*
X129695Y137795D01*
X129663Y137836D01*
X129638Y137882D01*
X129586Y137931D01*
X129542Y137987D01*
X129498Y138015D01*
X129460Y138051D01*
X129395Y138081D01*
X129335Y138120D01*
X129284Y138133D01*
X129237Y138155D01*
X129166Y138163D01*
X129096Y138180D01*
X129044Y138176D01*
X128993Y138182D01*
X128922Y138167D01*
X128851Y138161D01*
X128803Y138141D01*
X128752Y138130D01*
X128691Y138093D01*
X128625Y138065D01*
X128569Y138020D01*
X128541Y138003D01*
X128526Y137986D01*
X128494Y137960D01*
X126736Y136202D01*
X96970Y106436D01*
X96917Y106362D01*
X96857Y106292D01*
X96845Y106262D01*
X96826Y106236D01*
X96799Y106149D01*
X96765Y106064D01*
X96761Y106023D01*
X96754Y106001D01*
X96755Y105969D01*
X96747Y105897D01*
X96747Y101942D01*
X93638Y98833D01*
X89242Y98833D01*
X86133Y101942D01*
X86133Y106338D01*
X89242Y109447D01*
X93197Y109447D01*
X93288Y109461D01*
X93378Y109469D01*
X93408Y109481D01*
X93440Y109486D01*
X93521Y109529D01*
X93605Y109565D01*
X93637Y109591D01*
X93658Y109602D01*
X93680Y109625D01*
X93736Y109670D01*
X123502Y139436D01*
X123555Y139510D01*
X123615Y139580D01*
X123627Y139610D01*
X123646Y139636D01*
X123673Y139723D01*
X123707Y139808D01*
X123711Y139849D01*
X123718Y139871D01*
X123717Y139903D01*
X123725Y139975D01*
X123725Y148241D01*
X125791Y150306D01*
X125802Y150322D01*
X125818Y150335D01*
X125874Y150422D01*
X125934Y150506D01*
X125940Y150525D01*
X125951Y150542D01*
X125976Y150642D01*
X126006Y150741D01*
X126006Y150761D01*
X126011Y150780D01*
X126003Y150883D01*
X126000Y150987D01*
X125993Y151006D01*
X125992Y151025D01*
X125951Y151120D01*
X125916Y151218D01*
X125903Y151233D01*
X125895Y151252D01*
X125791Y151383D01*
X125503Y151670D01*
X125503Y156066D01*
X126676Y157239D01*
X126687Y157255D01*
X126703Y157267D01*
X126759Y157355D01*
X126819Y157438D01*
X126825Y157457D01*
X126836Y157474D01*
X126861Y157575D01*
X126892Y157674D01*
X126891Y157693D01*
X126896Y157713D01*
X126888Y157816D01*
X126885Y157919D01*
X126879Y157938D01*
X126877Y157958D01*
X126836Y158053D01*
X126801Y158150D01*
X126788Y158166D01*
X126781Y158184D01*
X126676Y158315D01*
X125983Y159009D01*
X125966Y159020D01*
X125954Y159036D01*
X125867Y159092D01*
X125783Y159152D01*
X125764Y159158D01*
X125747Y159169D01*
X125647Y159194D01*
X125548Y159224D01*
X125528Y159224D01*
X125509Y159229D01*
X125406Y159221D01*
X125302Y159218D01*
X125283Y159211D01*
X125263Y159210D01*
X125168Y159169D01*
X125071Y159134D01*
X125055Y159121D01*
X125037Y159113D01*
X124906Y159009D01*
X123913Y158015D01*
X116991Y158015D01*
X104660Y170347D01*
X104644Y170358D01*
X104631Y170374D01*
X104544Y170430D01*
X104460Y170490D01*
X104441Y170496D01*
X104424Y170507D01*
X104324Y170532D01*
X104225Y170563D01*
X104205Y170562D01*
X104186Y170567D01*
X104083Y170559D01*
X103979Y170556D01*
X103960Y170549D01*
X103940Y170548D01*
X103846Y170508D01*
X103748Y170472D01*
X103732Y170459D01*
X103714Y170452D01*
X103583Y170347D01*
X103494Y170257D01*
X99098Y170257D01*
X98814Y170541D01*
X98756Y170583D01*
X98704Y170632D01*
X98657Y170654D01*
X98614Y170685D01*
X98546Y170706D01*
X98481Y170736D01*
X98429Y170742D01*
X98379Y170757D01*
X98308Y170755D01*
X98236Y170763D01*
X98185Y170752D01*
X98133Y170751D01*
X98066Y170726D01*
X97996Y170711D01*
X97951Y170684D01*
X97902Y170666D01*
X97846Y170621D01*
X97785Y170585D01*
X97751Y170545D01*
X97710Y170512D01*
X97672Y170452D01*
X97625Y170398D01*
X97605Y170349D01*
X97577Y170306D01*
X97560Y170236D01*
X97533Y170170D01*
X97525Y170098D01*
X97517Y170067D01*
X97519Y170044D01*
X97515Y170003D01*
X97515Y168925D01*
X97529Y168835D01*
X97536Y168744D01*
X97549Y168714D01*
X97554Y168682D01*
X97597Y168601D01*
X97633Y168517D01*
X97658Y168485D01*
X97669Y168465D01*
X97693Y168442D01*
X97738Y168386D01*
X106924Y159200D01*
X106998Y159147D01*
X107068Y159087D01*
X107098Y159075D01*
X107124Y159056D01*
X107211Y159029D01*
X107296Y158995D01*
X107337Y158991D01*
X107359Y158984D01*
X107391Y158985D01*
X107463Y158977D01*
X111418Y158977D01*
X114527Y155868D01*
X114527Y151472D01*
X111418Y148363D01*
X107022Y148363D01*
X105666Y149719D01*
X105608Y149761D01*
X105556Y149810D01*
X105509Y149832D01*
X105467Y149862D01*
X105398Y149884D01*
X105333Y149914D01*
X105281Y149919D01*
X105231Y149935D01*
X105160Y149933D01*
X105089Y149941D01*
X105038Y149930D01*
X104986Y149928D01*
X104918Y149904D01*
X104848Y149889D01*
X104803Y149862D01*
X104755Y149844D01*
X104699Y149799D01*
X104637Y149762D01*
X104603Y149723D01*
X104563Y149690D01*
X104524Y149630D01*
X104477Y149575D01*
X104458Y149527D01*
X104430Y149483D01*
X104412Y149414D01*
X104385Y149347D01*
X104377Y149276D01*
X104369Y149245D01*
X104371Y149222D01*
X104367Y149181D01*
X104367Y147662D01*
X101258Y144553D01*
X97704Y144553D01*
X97685Y144550D01*
X97665Y144552D01*
X97564Y144530D01*
X97462Y144514D01*
X97444Y144504D01*
X97425Y144500D01*
X97336Y144447D01*
X97244Y144398D01*
X97231Y144384D01*
X97213Y144374D01*
X97146Y144295D01*
X97075Y144220D01*
X97066Y144202D01*
X97054Y144187D01*
X97015Y144091D01*
X96971Y143997D01*
X96969Y143977D01*
X96962Y143959D01*
X96943Y143792D01*
X96943Y142233D01*
X93835Y139125D01*
X89438Y139125D01*
X86330Y142233D01*
X86330Y146189D01*
X86315Y146279D01*
X86308Y146370D01*
X86295Y146400D01*
X86290Y146431D01*
X86247Y146512D01*
X86211Y146596D01*
X86186Y146628D01*
X86175Y146649D01*
X86151Y146671D01*
X86107Y146727D01*
X80827Y152006D01*
X80827Y172267D01*
X80813Y172357D01*
X80805Y172448D01*
X80793Y172477D01*
X80788Y172509D01*
X80745Y172590D01*
X80709Y172674D01*
X80683Y172706D01*
X80672Y172727D01*
X80649Y172749D01*
X80604Y172805D01*
X77807Y175602D01*
X77807Y179998D01*
X80916Y183107D01*
X84693Y183107D01*
X84763Y183118D01*
X84835Y183120D01*
X84884Y183138D01*
X84935Y183146D01*
X84999Y183180D01*
X85066Y183205D01*
X85107Y183237D01*
X85153Y183262D01*
X85202Y183314D01*
X85258Y183358D01*
X85286Y183402D01*
X85322Y183440D01*
X85352Y183505D01*
X85391Y183565D01*
X85404Y183616D01*
X85426Y183663D01*
X85434Y183734D01*
X85451Y183804D01*
X85447Y183856D01*
X85453Y183907D01*
X85438Y183978D01*
X85432Y184049D01*
X85412Y184097D01*
X85401Y184148D01*
X85364Y184209D01*
X85336Y184275D01*
X85291Y184331D01*
X85274Y184359D01*
X85257Y184374D01*
X85231Y184406D01*
X83875Y185762D01*
X83875Y190158D01*
X86984Y193267D01*
X89491Y193267D01*
X89561Y193278D01*
X89633Y193280D01*
X89682Y193298D01*
X89733Y193306D01*
X89797Y193340D01*
X89864Y193365D01*
X89905Y193397D01*
X89951Y193422D01*
X90000Y193473D01*
X90056Y193518D01*
X90084Y193562D01*
X90120Y193600D01*
X90150Y193665D01*
X90189Y193725D01*
X90202Y193776D01*
X90224Y193823D01*
X90232Y193894D01*
X90249Y193964D01*
X90245Y194016D01*
X90251Y194067D01*
X90236Y194138D01*
X90230Y194209D01*
X90210Y194257D01*
X90199Y194308D01*
X90162Y194369D01*
X90134Y194435D01*
X90089Y194491D01*
X90072Y194519D01*
X90055Y194534D01*
X90029Y194566D01*
X89943Y194652D01*
X89943Y199048D01*
X93052Y202157D01*
X97448Y202157D01*
X100557Y199048D01*
X100557Y194652D01*
X97760Y191855D01*
X97707Y191781D01*
X97647Y191711D01*
X97635Y191681D01*
X97616Y191655D01*
X97589Y191568D01*
X97555Y191483D01*
X97551Y191442D01*
X97544Y191420D01*
X97545Y191388D01*
X97537Y191317D01*
X97537Y181148D01*
X97548Y181077D01*
X97550Y181005D01*
X97568Y180956D01*
X97576Y180905D01*
X97610Y180842D01*
X97635Y180774D01*
X97667Y180734D01*
X97692Y180688D01*
X97744Y180638D01*
X97788Y180582D01*
X97832Y180554D01*
X97870Y180518D01*
X97935Y180488D01*
X97995Y180449D01*
X98046Y180437D01*
X98093Y180415D01*
X98164Y180407D01*
X98234Y180389D01*
X98286Y180393D01*
X98337Y180388D01*
X98408Y180403D01*
X98479Y180408D01*
X98527Y180429D01*
X98578Y180440D01*
X98639Y180477D01*
X98705Y180505D01*
X98761Y180550D01*
X98789Y180566D01*
X98804Y180584D01*
X98836Y180610D01*
X99098Y180871D01*
X103494Y180871D01*
X106603Y177762D01*
X106603Y175187D01*
X106617Y175097D01*
X106624Y175006D01*
X106637Y174976D01*
X106642Y174944D01*
X106685Y174864D01*
X106721Y174780D01*
X106746Y174748D01*
X106757Y174727D01*
X106781Y174705D01*
X106825Y174649D01*
X110714Y170761D01*
X110772Y170719D01*
X110824Y170669D01*
X110871Y170648D01*
X110913Y170617D01*
X110982Y170596D01*
X111047Y170566D01*
X111099Y170560D01*
X111149Y170545D01*
X111220Y170547D01*
X111291Y170539D01*
X111342Y170550D01*
X111394Y170551D01*
X111462Y170576D01*
X111532Y170591D01*
X111577Y170618D01*
X111625Y170636D01*
X111681Y170680D01*
X111743Y170717D01*
X111777Y170757D01*
X111817Y170789D01*
X111856Y170850D01*
X111903Y170904D01*
X111922Y170952D01*
X111950Y170996D01*
X111968Y171066D01*
X111995Y171132D01*
X112003Y171204D01*
X112011Y171235D01*
X112009Y171258D01*
X112013Y171299D01*
X112013Y172973D01*
X111999Y173063D01*
X111991Y173154D01*
X111979Y173183D01*
X111974Y173215D01*
X111931Y173296D01*
X111895Y173380D01*
X111869Y173412D01*
X111858Y173433D01*
X111835Y173455D01*
X111790Y173511D01*
X108993Y176308D01*
X108993Y180704D01*
X112102Y183813D01*
X116498Y183813D01*
X119607Y180704D01*
X119607Y176308D01*
X117216Y173917D01*
X117204Y173901D01*
X117188Y173888D01*
X117132Y173801D01*
X117072Y173717D01*
X117066Y173698D01*
X117055Y173681D01*
X117030Y173581D01*
X117000Y173482D01*
X117000Y173462D01*
X116995Y173443D01*
X117003Y173340D01*
X117006Y173236D01*
X117013Y173217D01*
X117015Y173198D01*
X117055Y173103D01*
X117091Y173005D01*
X117103Y172989D01*
X117111Y172971D01*
X117216Y172840D01*
X118156Y171900D01*
X118230Y171847D01*
X118300Y171787D01*
X118330Y171775D01*
X118356Y171756D01*
X118443Y171729D01*
X118528Y171695D01*
X118569Y171691D01*
X118591Y171684D01*
X118623Y171685D01*
X118695Y171677D01*
X122650Y171677D01*
X125759Y168568D01*
X125759Y168517D01*
X125770Y168447D01*
X125772Y168375D01*
X125790Y168326D01*
X125798Y168275D01*
X125832Y168211D01*
X125857Y168144D01*
X125889Y168103D01*
X125914Y168057D01*
X125966Y168008D01*
X126010Y167952D01*
X126054Y167924D01*
X126092Y167888D01*
X126157Y167858D01*
X126217Y167819D01*
X126268Y167806D01*
X126315Y167784D01*
X126386Y167776D01*
X126456Y167759D01*
X126508Y167763D01*
X126559Y167757D01*
X126630Y167772D01*
X126701Y167778D01*
X126749Y167798D01*
X126800Y167809D01*
X126861Y167846D01*
X126927Y167874D01*
X126983Y167919D01*
X127011Y167936D01*
X127026Y167953D01*
X127058Y167979D01*
X127342Y168263D01*
X131738Y168263D01*
X134847Y165154D01*
X134847Y160758D01*
X133674Y159585D01*
X133663Y159569D01*
X133647Y159557D01*
X133591Y159469D01*
X133531Y159386D01*
X133525Y159367D01*
X133514Y159350D01*
X133489Y159249D01*
X133458Y159150D01*
X133459Y159131D01*
X133454Y159111D01*
X133462Y159008D01*
X133465Y158905D01*
X133471Y158886D01*
X133473Y158866D01*
X133513Y158771D01*
X133549Y158674D01*
X133562Y158658D01*
X133569Y158640D01*
X133674Y158509D01*
X136117Y156066D01*
X136117Y154600D01*
X136128Y154530D01*
X136130Y154458D01*
X136148Y154409D01*
X136156Y154358D01*
X136190Y154294D01*
X136215Y154227D01*
X136247Y154186D01*
X136272Y154140D01*
X136324Y154091D01*
X136368Y154035D01*
X136412Y154007D01*
X136450Y153971D01*
X136515Y153941D01*
X136575Y153902D01*
X136626Y153889D01*
X136673Y153867D01*
X136744Y153859D01*
X136814Y153842D01*
X136866Y153846D01*
X136917Y153840D01*
X136988Y153855D01*
X137059Y153861D01*
X137107Y153881D01*
X137158Y153892D01*
X137219Y153929D01*
X137285Y153957D01*
X137341Y154002D01*
X137369Y154019D01*
X137384Y154036D01*
X137416Y154062D01*
X138646Y155292D01*
X143043Y155292D01*
X146247Y152088D01*
X146321Y152035D01*
X146391Y151975D01*
X146421Y151963D01*
X146447Y151944D01*
X146534Y151917D01*
X146619Y151883D01*
X146660Y151879D01*
X146682Y151872D01*
X146714Y151873D01*
X146785Y151865D01*
X154993Y151865D01*
X156555Y150302D01*
X158324Y148533D01*
X159887Y146971D01*
X159887Y130752D01*
X154218Y125083D01*
X154164Y125009D01*
X154105Y124940D01*
X154093Y124909D01*
X154074Y124883D01*
X154047Y124796D01*
X154013Y124711D01*
X154009Y124671D01*
X154002Y124648D01*
X154002Y124616D01*
X153995Y124545D01*
X153995Y112906D01*
X154009Y112816D01*
X154016Y112725D01*
X154029Y112695D01*
X154034Y112663D01*
X154077Y112582D01*
X154113Y112498D01*
X154138Y112466D01*
X154149Y112445D01*
X154173Y112423D01*
X154218Y112367D01*
X157015Y109570D01*
X157015Y107188D01*
X157018Y107168D01*
X157016Y107149D01*
X157038Y107047D01*
X157054Y106945D01*
X157064Y106928D01*
X157068Y106908D01*
X157121Y106819D01*
X157169Y106728D01*
X157184Y106714D01*
X157194Y106697D01*
X157273Y106630D01*
X157348Y106558D01*
X157366Y106550D01*
X157381Y106537D01*
X157477Y106498D01*
X157571Y106455D01*
X157591Y106453D01*
X157609Y106445D01*
X157776Y106427D01*
X168457Y106427D01*
X168547Y106441D01*
X168638Y106449D01*
X168667Y106461D01*
X168699Y106466D01*
X168780Y106509D01*
X168864Y106545D01*
X168896Y106571D01*
X168917Y106582D01*
X168939Y106605D01*
X168995Y106650D01*
X171792Y109447D01*
X176188Y109447D01*
X178985Y106650D01*
X179059Y106597D01*
X179129Y106537D01*
X179159Y106525D01*
X179185Y106506D01*
X179272Y106479D01*
X179357Y106445D01*
X179398Y106441D01*
X179420Y106434D01*
X179452Y106435D01*
X179523Y106427D01*
X196611Y106427D01*
X196682Y106438D01*
X196753Y106440D01*
X196802Y106458D01*
X196854Y106466D01*
X196917Y106500D01*
X196984Y106525D01*
X197025Y106557D01*
X197071Y106582D01*
X197120Y106634D01*
X197176Y106678D01*
X197205Y106722D01*
X197240Y106760D01*
X197271Y106825D01*
X197309Y106885D01*
X197322Y106936D01*
X197344Y106983D01*
X197352Y107054D01*
X197370Y107124D01*
X197365Y107176D01*
X197371Y107227D01*
X197356Y107298D01*
X197350Y107369D01*
X197330Y107417D01*
X197319Y107468D01*
X197282Y107529D01*
X197254Y107595D01*
X197209Y107651D01*
X197193Y107679D01*
X197175Y107694D01*
X197149Y107726D01*
X190545Y114330D01*
X190471Y114383D01*
X190402Y114443D01*
X190372Y114455D01*
X190345Y114474D01*
X190259Y114501D01*
X190174Y114535D01*
X190133Y114539D01*
X190110Y114546D01*
X190078Y114545D01*
X190007Y114553D01*
X189485Y114553D01*
X189395Y114539D01*
X189304Y114531D01*
X189275Y114519D01*
X189243Y114514D01*
X189162Y114471D01*
X189078Y114435D01*
X189046Y114409D01*
X189025Y114398D01*
X189003Y114375D01*
X188947Y114330D01*
X186150Y111533D01*
X181754Y111533D01*
X178645Y114642D01*
X178645Y119038D01*
X181723Y122116D01*
X181734Y122132D01*
X181750Y122144D01*
X181806Y122232D01*
X181866Y122315D01*
X181872Y122334D01*
X181883Y122351D01*
X181908Y122452D01*
X181939Y122551D01*
X181938Y122570D01*
X181943Y122590D01*
X181935Y122693D01*
X181932Y122796D01*
X181926Y122815D01*
X181924Y122835D01*
X181884Y122930D01*
X181848Y123027D01*
X181835Y123043D01*
X181828Y123061D01*
X181723Y123192D01*
X180113Y124802D01*
X180113Y129198D01*
X181822Y130907D01*
X181833Y130923D01*
X181849Y130935D01*
X181905Y131023D01*
X181965Y131106D01*
X181971Y131125D01*
X181982Y131142D01*
X182007Y131243D01*
X182038Y131342D01*
X182037Y131361D01*
X182042Y131381D01*
X182034Y131484D01*
X182031Y131587D01*
X182025Y131606D01*
X182023Y131626D01*
X181983Y131721D01*
X181947Y131818D01*
X181934Y131834D01*
X181927Y131852D01*
X181822Y131983D01*
X178843Y134962D01*
X178843Y139358D01*
X181952Y142467D01*
X186348Y142467D01*
X189457Y139358D01*
X189457Y135403D01*
X189471Y135312D01*
X189479Y135222D01*
X189491Y135192D01*
X189496Y135160D01*
X189539Y135079D01*
X189575Y134995D01*
X189601Y134963D01*
X189612Y134942D01*
X189635Y134920D01*
X189680Y134864D01*
X196716Y127828D01*
X196732Y127816D01*
X196745Y127800D01*
X196832Y127744D01*
X196916Y127684D01*
X196935Y127678D01*
X196952Y127667D01*
X197052Y127642D01*
X197151Y127612D01*
X197171Y127612D01*
X197190Y127607D01*
X197293Y127615D01*
X197397Y127618D01*
X197416Y127625D01*
X197436Y127627D01*
X197530Y127667D01*
X197628Y127703D01*
X197644Y127715D01*
X197662Y127723D01*
X197793Y127828D01*
X198462Y128497D01*
X202858Y128497D01*
X205967Y125388D01*
X205967Y120992D01*
X202861Y117886D01*
X202819Y117828D01*
X202770Y117776D01*
X202748Y117729D01*
X202718Y117687D01*
X202696Y117618D01*
X202666Y117553D01*
X202661Y117501D01*
X202645Y117451D01*
X202647Y117380D01*
X202639Y117309D01*
X202650Y117258D01*
X202652Y117206D01*
X202676Y117138D01*
X202691Y117068D01*
X202718Y117023D01*
X202736Y116975D01*
X202781Y116919D01*
X202818Y116857D01*
X202857Y116823D01*
X202890Y116783D01*
X202950Y116744D01*
X203005Y116697D01*
X203053Y116678D01*
X203097Y116650D01*
X203166Y116632D01*
X203233Y116605D01*
X203304Y116597D01*
X203335Y116589D01*
X203358Y116591D01*
X203399Y116587D01*
X211881Y116587D01*
X211971Y116601D01*
X212062Y116609D01*
X212092Y116621D01*
X212124Y116626D01*
X212204Y116669D01*
X212288Y116705D01*
X212320Y116731D01*
X212341Y116742D01*
X212363Y116765D01*
X212419Y116810D01*
X215216Y119607D01*
X219613Y119607D01*
X221834Y117385D01*
X221850Y117374D01*
X221863Y117358D01*
X221950Y117302D01*
X222034Y117242D01*
X222053Y117236D01*
X222069Y117225D01*
X222170Y117200D01*
X222269Y117169D01*
X222289Y117170D01*
X222308Y117165D01*
X222411Y117173D01*
X222515Y117176D01*
X222533Y117183D01*
X222553Y117184D01*
X222648Y117225D01*
X222746Y117260D01*
X222761Y117273D01*
X222780Y117281D01*
X222910Y117385D01*
X225132Y119607D01*
X229528Y119607D01*
X232637Y116498D01*
X232637Y112102D01*
X230928Y110393D01*
X230917Y110377D01*
X230901Y110365D01*
X230845Y110277D01*
X230785Y110194D01*
X230779Y110175D01*
X230768Y110158D01*
X230743Y110057D01*
X230712Y109958D01*
X230713Y109939D01*
X230708Y109919D01*
X230716Y109816D01*
X230719Y109713D01*
X230725Y109694D01*
X230727Y109674D01*
X230767Y109579D01*
X230803Y109482D01*
X230816Y109466D01*
X230823Y109448D01*
X230928Y109317D01*
X233907Y106338D01*
X233907Y101942D01*
X230798Y98833D01*
X226402Y98833D01*
X223605Y101630D01*
X223531Y101683D01*
X223461Y101743D01*
X223431Y101755D01*
X223405Y101774D01*
X223318Y101801D01*
X223233Y101835D01*
X223192Y101839D01*
X223170Y101846D01*
X223138Y101845D01*
X223067Y101853D01*
X179523Y101853D01*
X179433Y101839D01*
X179342Y101831D01*
X179313Y101819D01*
X179281Y101814D01*
X179200Y101771D01*
X179116Y101735D01*
X179084Y101709D01*
X179063Y101698D01*
X179041Y101675D01*
X178985Y101630D01*
X176188Y98833D01*
X171792Y98833D01*
X168995Y101630D01*
X168921Y101683D01*
X168851Y101743D01*
X168821Y101755D01*
X168795Y101774D01*
X168708Y101801D01*
X168623Y101835D01*
X168582Y101839D01*
X168560Y101846D01*
X168528Y101845D01*
X168457Y101853D01*
X158320Y101853D01*
X158230Y101839D01*
X158139Y101831D01*
X158109Y101819D01*
X158077Y101814D01*
X157996Y101771D01*
X157912Y101735D01*
X157880Y101709D01*
X157860Y101698D01*
X157837Y101675D01*
X157781Y101630D01*
X139160Y83009D01*
X113303Y83009D01*
G37*
%LPD*%
%LPC*%
G36*
X160741Y-222505D02*
X160741Y-222505D01*
X157380Y-221113D01*
X154807Y-218540D01*
X153415Y-215179D01*
X153415Y-196301D01*
X154807Y-192940D01*
X157380Y-190367D01*
X160741Y-188975D01*
X164379Y-188975D01*
X167740Y-190367D01*
X170313Y-192940D01*
X171705Y-196301D01*
X171705Y-215179D01*
X170313Y-218540D01*
X167740Y-221113D01*
X164379Y-222505D01*
X160741Y-222505D01*
G37*
%LPD*%
%LPC*%
G36*
X135341Y-222505D02*
X135341Y-222505D01*
X131980Y-221113D01*
X129407Y-218540D01*
X128015Y-215179D01*
X128015Y-196301D01*
X129407Y-192940D01*
X131980Y-190367D01*
X135341Y-188975D01*
X138979Y-188975D01*
X142340Y-190367D01*
X144913Y-192940D01*
X146305Y-196301D01*
X146305Y-215179D01*
X144913Y-218540D01*
X142340Y-221113D01*
X138979Y-222505D01*
X135341Y-222505D01*
G37*
%LPD*%
%LPC*%
G36*
X84541Y-222505D02*
X84541Y-222505D01*
X81180Y-221113D01*
X78607Y-218540D01*
X77215Y-215179D01*
X77215Y-196301D01*
X78607Y-192940D01*
X81180Y-190367D01*
X84541Y-188975D01*
X88179Y-188975D01*
X91540Y-190367D01*
X94113Y-192940D01*
X95505Y-196301D01*
X95505Y-215179D01*
X94113Y-218540D01*
X91540Y-221113D01*
X88179Y-222505D01*
X84541Y-222505D01*
G37*
%LPD*%
%LPC*%
G36*
X211541Y-222505D02*
X211541Y-222505D01*
X208180Y-221113D01*
X205607Y-218540D01*
X204215Y-215179D01*
X204215Y-196301D01*
X205607Y-192940D01*
X208180Y-190367D01*
X211541Y-188975D01*
X215179Y-188975D01*
X218540Y-190367D01*
X221113Y-192940D01*
X222505Y-196301D01*
X222505Y-215179D01*
X221113Y-218540D01*
X218540Y-221113D01*
X215179Y-222505D01*
X211541Y-222505D01*
G37*
%LPD*%
%LPC*%
G36*
X186141Y-222505D02*
X186141Y-222505D01*
X182780Y-221113D01*
X180207Y-218540D01*
X178815Y-215179D01*
X178815Y-196301D01*
X180207Y-192940D01*
X182780Y-190367D01*
X186141Y-188975D01*
X189779Y-188975D01*
X193140Y-190367D01*
X195713Y-192940D01*
X197105Y-196301D01*
X197105Y-215179D01*
X195713Y-218540D01*
X193140Y-221113D01*
X189779Y-222505D01*
X186141Y-222505D01*
G37*
%LPD*%
%LPC*%
G36*
X236941Y-222505D02*
X236941Y-222505D01*
X233580Y-221113D01*
X231007Y-218540D01*
X229615Y-215179D01*
X229615Y-196301D01*
X231007Y-192940D01*
X233580Y-190367D01*
X236941Y-188975D01*
X240579Y-188975D01*
X243940Y-190367D01*
X246513Y-192940D01*
X247905Y-196301D01*
X247905Y-215179D01*
X246513Y-218540D01*
X243940Y-221113D01*
X240579Y-222505D01*
X236941Y-222505D01*
G37*
%LPD*%
%LPC*%
G36*
X236562Y152173D02*
X236562Y152173D01*
X233453Y155282D01*
X233453Y159678D01*
X233539Y159764D01*
X233581Y159822D01*
X233630Y159874D01*
X233652Y159921D01*
X233682Y159963D01*
X233704Y160032D01*
X233734Y160097D01*
X233739Y160149D01*
X233755Y160199D01*
X233753Y160270D01*
X233761Y160341D01*
X233750Y160392D01*
X233748Y160444D01*
X233724Y160512D01*
X233709Y160582D01*
X233682Y160627D01*
X233664Y160675D01*
X233619Y160731D01*
X233582Y160793D01*
X233543Y160827D01*
X233510Y160867D01*
X233450Y160906D01*
X233395Y160953D01*
X233347Y160972D01*
X233303Y161000D01*
X233234Y161018D01*
X233167Y161045D01*
X233096Y161053D01*
X233065Y161061D01*
X233042Y161059D01*
X233001Y161063D01*
X229259Y161063D01*
X226151Y164172D01*
X226151Y168568D01*
X228948Y171365D01*
X229001Y171439D01*
X229060Y171509D01*
X229073Y171539D01*
X229091Y171565D01*
X229118Y171652D01*
X229152Y171737D01*
X229157Y171778D01*
X229164Y171800D01*
X229163Y171832D01*
X229171Y171903D01*
X229171Y175195D01*
X229156Y175285D01*
X229149Y175376D01*
X229136Y175406D01*
X229131Y175438D01*
X229088Y175518D01*
X229053Y175602D01*
X229027Y175634D01*
X229016Y175655D01*
X228993Y175677D01*
X228948Y175733D01*
X226941Y177740D01*
X226941Y182137D01*
X230049Y185245D01*
X232612Y185245D01*
X232683Y185257D01*
X232755Y185259D01*
X232804Y185277D01*
X232855Y185285D01*
X232918Y185318D01*
X232986Y185343D01*
X233026Y185376D01*
X233072Y185400D01*
X233122Y185452D01*
X233178Y185497D01*
X233206Y185541D01*
X233242Y185578D01*
X233272Y185643D01*
X233311Y185704D01*
X233323Y185754D01*
X233345Y185801D01*
X233353Y185873D01*
X233371Y185942D01*
X233367Y185994D01*
X233372Y186046D01*
X233357Y186116D01*
X233352Y186187D01*
X233331Y186235D01*
X233320Y186286D01*
X233283Y186348D01*
X233255Y186414D01*
X233210Y186470D01*
X233194Y186497D01*
X233176Y186513D01*
X233150Y186545D01*
X233009Y186686D01*
X233009Y191083D01*
X236117Y194191D01*
X240514Y194191D01*
X243622Y191083D01*
X243622Y186686D01*
X241270Y184334D01*
X241217Y184260D01*
X241157Y184190D01*
X241145Y184160D01*
X241126Y184134D01*
X241099Y184047D01*
X241065Y183962D01*
X241061Y183921D01*
X241054Y183899D01*
X241055Y183867D01*
X241047Y183795D01*
X241047Y163013D01*
X241061Y162923D01*
X241069Y162832D01*
X241081Y162803D01*
X241086Y162771D01*
X241129Y162690D01*
X241165Y162606D01*
X241191Y162574D01*
X241202Y162553D01*
X241225Y162531D01*
X241270Y162475D01*
X244067Y159678D01*
X244067Y155282D01*
X240958Y152173D01*
X236562Y152173D01*
G37*
%LPD*%
%LPC*%
G36*
X151472Y-87857D02*
X151472Y-87857D01*
X148363Y-84748D01*
X148363Y-83058D01*
X148360Y-83038D01*
X148362Y-83019D01*
X148340Y-82917D01*
X148324Y-82815D01*
X148314Y-82798D01*
X148310Y-82778D01*
X148257Y-82689D01*
X148208Y-82598D01*
X148194Y-82584D01*
X148184Y-82567D01*
X148105Y-82500D01*
X148030Y-82428D01*
X148012Y-82420D01*
X147997Y-82407D01*
X147901Y-82368D01*
X147807Y-82325D01*
X147787Y-82323D01*
X147769Y-82315D01*
X147602Y-82297D01*
X103323Y-82297D01*
X103233Y-82311D01*
X103142Y-82319D01*
X103113Y-82331D01*
X103081Y-82336D01*
X103000Y-82379D01*
X102916Y-82415D01*
X102884Y-82441D01*
X102863Y-82452D01*
X102841Y-82475D01*
X102785Y-82520D01*
X99988Y-85317D01*
X95592Y-85317D01*
X92483Y-82208D01*
X92483Y-77812D01*
X95592Y-74703D01*
X99988Y-74703D01*
X102785Y-77500D01*
X102859Y-77553D01*
X102929Y-77613D01*
X102959Y-77625D01*
X102985Y-77644D01*
X103072Y-77671D01*
X103157Y-77705D01*
X103198Y-77709D01*
X103220Y-77716D01*
X103252Y-77715D01*
X103323Y-77723D01*
X150677Y-77723D01*
X150767Y-77709D01*
X150858Y-77701D01*
X150887Y-77689D01*
X150919Y-77684D01*
X151000Y-77641D01*
X151084Y-77605D01*
X151116Y-77579D01*
X151137Y-77568D01*
X151159Y-77545D01*
X151215Y-77500D01*
X151472Y-77243D01*
X155868Y-77243D01*
X158977Y-80352D01*
X158977Y-84748D01*
X155868Y-87857D01*
X151472Y-87857D01*
G37*
%LPD*%
%LPC*%
G36*
X151472Y-72617D02*
X151472Y-72617D01*
X148675Y-69820D01*
X148601Y-69767D01*
X148531Y-69707D01*
X148501Y-69695D01*
X148475Y-69676D01*
X148388Y-69649D01*
X148303Y-69615D01*
X148262Y-69611D01*
X148240Y-69604D01*
X148208Y-69605D01*
X148137Y-69597D01*
X122243Y-69597D01*
X117866Y-65220D01*
X117792Y-65167D01*
X117722Y-65107D01*
X117692Y-65095D01*
X117666Y-65076D01*
X117579Y-65049D01*
X117494Y-65015D01*
X117453Y-65011D01*
X117431Y-65004D01*
X117399Y-65005D01*
X117327Y-64997D01*
X113372Y-64997D01*
X110263Y-61888D01*
X110263Y-57492D01*
X113372Y-54383D01*
X117768Y-54383D01*
X120877Y-57492D01*
X120877Y-61447D01*
X120891Y-61538D01*
X120899Y-61628D01*
X120911Y-61658D01*
X120916Y-61690D01*
X120959Y-61771D01*
X120995Y-61855D01*
X121021Y-61887D01*
X121032Y-61908D01*
X121055Y-61930D01*
X121100Y-61986D01*
X123914Y-64800D01*
X123988Y-64853D01*
X124058Y-64913D01*
X124088Y-64925D01*
X124114Y-64944D01*
X124201Y-64971D01*
X124286Y-65005D01*
X124327Y-65009D01*
X124349Y-65016D01*
X124381Y-65015D01*
X124453Y-65023D01*
X148137Y-65023D01*
X148227Y-65009D01*
X148318Y-65001D01*
X148347Y-64989D01*
X148379Y-64984D01*
X148460Y-64941D01*
X148544Y-64905D01*
X148576Y-64879D01*
X148597Y-64868D01*
X148619Y-64845D01*
X148675Y-64800D01*
X151472Y-62003D01*
X155868Y-62003D01*
X158977Y-65112D01*
X158977Y-69508D01*
X155868Y-72617D01*
X151472Y-72617D01*
G37*
%LPD*%
%LPC*%
G36*
X100078Y-31382D02*
X100078Y-31382D01*
X96969Y-28274D01*
X96969Y-24318D01*
X96954Y-24228D01*
X96947Y-24137D01*
X96935Y-24107D01*
X96929Y-24076D01*
X96887Y-23995D01*
X96851Y-23911D01*
X96825Y-23879D01*
X96814Y-23858D01*
X96791Y-23836D01*
X96746Y-23780D01*
X94233Y-21267D01*
X94233Y-14423D01*
X94219Y-14333D01*
X94211Y-14242D01*
X94199Y-14213D01*
X94194Y-14181D01*
X94151Y-14100D01*
X94115Y-14016D01*
X94089Y-13984D01*
X94078Y-13963D01*
X94055Y-13941D01*
X94010Y-13885D01*
X91213Y-11088D01*
X91213Y-6692D01*
X94322Y-3583D01*
X98718Y-3583D01*
X101827Y-6692D01*
X101827Y-11088D01*
X99030Y-13885D01*
X98977Y-13959D01*
X98917Y-14029D01*
X98905Y-14059D01*
X98886Y-14085D01*
X98859Y-14172D01*
X98825Y-14257D01*
X98821Y-14298D01*
X98814Y-14320D01*
X98815Y-14352D01*
X98807Y-14423D01*
X98807Y-19057D01*
X98821Y-19148D01*
X98829Y-19238D01*
X98841Y-19268D01*
X98846Y-19300D01*
X98889Y-19381D01*
X98925Y-19465D01*
X98951Y-19497D01*
X98962Y-19518D01*
X98985Y-19540D01*
X99030Y-19596D01*
X99980Y-20546D01*
X100054Y-20599D01*
X100123Y-20659D01*
X100154Y-20671D01*
X100180Y-20690D01*
X100267Y-20716D01*
X100352Y-20751D01*
X100392Y-20755D01*
X100415Y-20762D01*
X100447Y-20761D01*
X100518Y-20769D01*
X104474Y-20769D01*
X107582Y-23878D01*
X107582Y-28274D01*
X104474Y-31382D01*
X100078Y-31382D01*
G37*
%LPD*%
%LPC*%
G36*
X113283Y-204217D02*
X113283Y-204217D01*
X113283Y-188074D01*
X114139Y-188209D01*
X115660Y-188704D01*
X117085Y-189430D01*
X118379Y-190370D01*
X119510Y-191501D01*
X120450Y-192795D01*
X121176Y-194220D01*
X121671Y-195741D01*
X121921Y-197320D01*
X121921Y-204217D01*
X113283Y-204217D01*
G37*
%LPD*%
%LPC*%
G36*
X101599Y-204217D02*
X101599Y-204217D01*
X101599Y-197320D01*
X101849Y-195741D01*
X102344Y-194220D01*
X103070Y-192795D01*
X104010Y-191501D01*
X105141Y-190370D01*
X106435Y-189430D01*
X107860Y-188704D01*
X109381Y-188209D01*
X110237Y-188074D01*
X110237Y-204217D01*
X101599Y-204217D01*
G37*
%LPD*%
D10*
X238760Y-198120D02*
X238760Y-213360D01*
X213360Y-213360D02*
X213360Y-198120D01*
X187960Y-198120D02*
X187960Y-213360D01*
X162560Y-213360D02*
X162560Y-198120D01*
X137160Y-198120D02*
X137160Y-213360D01*
X111760Y-213360D02*
X111760Y-198120D01*
X86360Y-198120D02*
X86360Y-213360D01*
D11*
X116764Y91364D03*
D12*
X130117Y91364D01*
X142620Y103867D01*
D11*
X142620Y103867D03*
X96520Y-8890D03*
D12*
X96520Y-20320D01*
X102276Y-26076D01*
D11*
X102276Y-26076D03*
X120650Y151130D03*
X148590Y-133350D03*
X185420Y127000D03*
D12*
X198120Y114300D01*
X217414Y114300D01*
D11*
X217414Y114300D03*
X184150Y137160D03*
D12*
X198120Y123190D01*
X200660Y123190D01*
D11*
X200660Y123190D03*
X183952Y116840D03*
X227330Y114300D03*
D12*
X191269Y116840D02*
X183952Y116840D01*
X225996Y114300D02*
X227330Y114300D01*
X225996Y114300D02*
X219928Y108232D01*
X199877Y108232D02*
X191269Y116840D01*
X199877Y108232D02*
X219928Y108232D01*
D11*
X109220Y153670D03*
X238760Y157480D03*
D12*
X238760Y188440D01*
X238316Y188884D01*
D11*
X238316Y188884D03*
X95250Y196850D03*
D12*
X95250Y178100D02*
X95228Y178078D01*
X95250Y178100D02*
X95250Y196850D01*
X95228Y167662D02*
X109220Y153670D01*
X95228Y167662D02*
X95228Y178078D01*
D11*
X91636Y144431D03*
D12*
X83114Y152954D01*
X83114Y177800D01*
D11*
X83114Y177800D03*
X99060Y149860D03*
X231458Y166370D03*
D12*
X231458Y179148D01*
X232248Y179938D01*
D11*
X232248Y179938D03*
D12*
X99060Y149860D02*
X89182Y159738D01*
X89182Y187960D01*
D11*
X89182Y187960D03*
X132080Y144780D03*
X173990Y104140D03*
D12*
X114250Y85296D02*
X110696Y88850D01*
X132080Y127192D02*
X132080Y144780D01*
X157057Y104140D02*
X173990Y104140D01*
X110696Y105808D02*
X110696Y88850D01*
X110696Y105808D02*
X132080Y127192D01*
X157057Y104140D02*
X138213Y85296D01*
X114250Y85296D01*
X221942Y104140D02*
X222018Y104216D01*
X221942Y104140D02*
X173990Y104140D01*
D11*
X228600Y104140D03*
D12*
X222094Y104140D01*
X222018Y104216D01*
D11*
X134620Y113030D03*
D12*
X151532Y129942D01*
X151532Y143510D01*
D11*
X151532Y143510D03*
X140845Y149986D03*
X151708Y107372D03*
D12*
X157600Y146024D02*
X154046Y149578D01*
X151708Y125807D02*
X151708Y107372D01*
X141252Y149578D02*
X140845Y149986D01*
X141252Y149578D02*
X154046Y149578D01*
X157600Y146024D02*
X157600Y131699D01*
X151708Y125807D01*
D11*
X120650Y100330D03*
X143664Y134466D03*
D12*
X120650Y111452D01*
X120650Y100330D01*
D11*
X130810Y153868D03*
X91440Y104140D03*
D12*
X130810Y152092D02*
X130810Y153868D01*
X126012Y138712D02*
X91440Y104140D01*
X126012Y147294D02*
X130810Y152092D01*
X126012Y147294D02*
X126012Y138712D01*
D11*
X129540Y162956D03*
D12*
X125620Y162956D01*
X122966Y160302D01*
D11*
X101296Y175564D03*
D12*
X117939Y160302D02*
X122966Y160302D01*
X102676Y175564D02*
X101296Y175564D01*
X102676Y175564D02*
X117939Y160302D01*
D11*
X120452Y166370D03*
D12*
X114300Y172522D02*
X114300Y178506D01*
D11*
X114300Y178506D03*
D12*
X114300Y172522D02*
X120452Y166370D01*
D11*
X153670Y-82550D03*
X97790Y-80010D03*
D12*
X151130Y-80010D01*
X153670Y-82550D01*
D11*
X115570Y-59690D03*
X153670Y-67310D03*
D12*
X123190Y-67310D01*
X115570Y-59690D01*
M02*
