G04 EAGLE Gerber RS-274X export*
G75*
%MOMM*%
%FSLAX34Y34*%
%LPD*%
%INTop Copper*%
%IPPOS*%
%AMOC8*
5,1,8,0,0,1.08239X$1,22.5*%
G01*
%ADD10C,0.130000*%
%ADD11C,0.152400*%
%ADD12R,1.100000X1.000000*%
%ADD13R,1.000000X1.100000*%
%ADD14R,0.800000X1.200000*%
%ADD15C,0.200000*%
%ADD16R,0.900000X0.240000*%
%ADD17R,0.240000X0.900000*%
%ADD18R,1.900000X0.900000*%
%ADD19R,0.900000X1.900000*%
%ADD20R,1.340000X0.440000*%
%ADD21C,0.300000*%
%ADD22C,0.295000*%
%ADD23R,1.300000X1.600000*%
%ADD24R,1.600000X1.300000*%
%ADD25R,0.300000X1.300000*%
%ADD26R,1.800000X2.200000*%
%ADD27C,1.524000*%
%ADD28C,0.756400*%

G36*
X109360Y-224779D02*
X109360Y-224779D01*
X109424Y-224779D01*
X109481Y-224759D01*
X109540Y-224750D01*
X109596Y-224720D01*
X109657Y-224699D01*
X109704Y-224662D01*
X109757Y-224634D01*
X109801Y-224588D01*
X109852Y-224549D01*
X109885Y-224499D01*
X109927Y-224456D01*
X109954Y-224398D01*
X109989Y-224345D01*
X110005Y-224287D01*
X110030Y-224233D01*
X110037Y-224169D01*
X110054Y-224108D01*
X110051Y-224048D01*
X110057Y-223989D01*
X110044Y-223926D01*
X110040Y-223862D01*
X110018Y-223807D01*
X110005Y-223748D01*
X109972Y-223693D01*
X109948Y-223634D01*
X109910Y-223588D01*
X109879Y-223537D01*
X109830Y-223496D01*
X109789Y-223447D01*
X109737Y-223416D01*
X109692Y-223377D01*
X109633Y-223353D01*
X109578Y-223320D01*
X109494Y-223298D01*
X109464Y-223285D01*
X109439Y-223283D01*
X109416Y-223276D01*
X109381Y-223271D01*
X107860Y-222776D01*
X106435Y-222050D01*
X105141Y-221110D01*
X104010Y-219979D01*
X103070Y-218685D01*
X102344Y-217260D01*
X101849Y-215739D01*
X101599Y-214160D01*
X101599Y-207263D01*
X110998Y-207263D01*
X111018Y-207260D01*
X111037Y-207262D01*
X111139Y-207240D01*
X111241Y-207223D01*
X111258Y-207214D01*
X111278Y-207210D01*
X111367Y-207157D01*
X111458Y-207108D01*
X111472Y-207094D01*
X111489Y-207084D01*
X111556Y-207005D01*
X111627Y-206930D01*
X111636Y-206912D01*
X111649Y-206897D01*
X111687Y-206801D01*
X111731Y-206707D01*
X111733Y-206687D01*
X111741Y-206669D01*
X111759Y-206502D01*
X111759Y-205739D01*
X111761Y-205739D01*
X111761Y-206502D01*
X111764Y-206522D01*
X111762Y-206541D01*
X111784Y-206643D01*
X111801Y-206745D01*
X111810Y-206762D01*
X111814Y-206782D01*
X111867Y-206871D01*
X111916Y-206962D01*
X111930Y-206976D01*
X111940Y-206993D01*
X112019Y-207060D01*
X112094Y-207131D01*
X112112Y-207140D01*
X112127Y-207153D01*
X112223Y-207192D01*
X112317Y-207235D01*
X112337Y-207237D01*
X112355Y-207245D01*
X112522Y-207263D01*
X121921Y-207263D01*
X121921Y-214160D01*
X121671Y-215739D01*
X121176Y-217260D01*
X120450Y-218685D01*
X119510Y-219979D01*
X118379Y-221110D01*
X117085Y-222050D01*
X115660Y-222776D01*
X114139Y-223271D01*
X114104Y-223276D01*
X114043Y-223296D01*
X113980Y-223307D01*
X113927Y-223334D01*
X113870Y-223353D01*
X113819Y-223392D01*
X113763Y-223422D01*
X113722Y-223465D01*
X113674Y-223501D01*
X113637Y-223554D01*
X113593Y-223600D01*
X113568Y-223654D01*
X113534Y-223704D01*
X113517Y-223765D01*
X113490Y-223823D01*
X113483Y-223882D01*
X113467Y-223940D01*
X113470Y-224004D01*
X113463Y-224067D01*
X113475Y-224126D01*
X113478Y-224186D01*
X113501Y-224245D01*
X113515Y-224308D01*
X113546Y-224359D01*
X113567Y-224415D01*
X113608Y-224464D01*
X113641Y-224519D01*
X113687Y-224558D01*
X113725Y-224604D01*
X113779Y-224637D01*
X113828Y-224679D01*
X113884Y-224701D01*
X113935Y-224733D01*
X113997Y-224747D01*
X114056Y-224771D01*
X114142Y-224780D01*
X114174Y-224788D01*
X114199Y-224787D01*
X114223Y-224789D01*
X251768Y-224789D01*
X251788Y-224786D01*
X251807Y-224788D01*
X251909Y-224766D01*
X252011Y-224750D01*
X252028Y-224740D01*
X252048Y-224736D01*
X252137Y-224683D01*
X252228Y-224634D01*
X252242Y-224620D01*
X252259Y-224610D01*
X252326Y-224531D01*
X252398Y-224456D01*
X252406Y-224438D01*
X252419Y-224423D01*
X252458Y-224327D01*
X252501Y-224233D01*
X252503Y-224213D01*
X252511Y-224195D01*
X252529Y-224028D01*
X252529Y-177223D01*
X252518Y-177152D01*
X252516Y-177081D01*
X252498Y-177032D01*
X252490Y-176980D01*
X252456Y-176917D01*
X252431Y-176850D01*
X252399Y-176809D01*
X252374Y-176763D01*
X252323Y-176714D01*
X252278Y-176658D01*
X252234Y-176629D01*
X252196Y-176594D01*
X252131Y-176563D01*
X252071Y-176525D01*
X252020Y-176512D01*
X251973Y-176490D01*
X251902Y-176482D01*
X251832Y-176464D01*
X251780Y-176469D01*
X251729Y-176463D01*
X251658Y-176478D01*
X251587Y-176484D01*
X251539Y-176504D01*
X251488Y-176515D01*
X251427Y-176552D01*
X251361Y-176580D01*
X251305Y-176625D01*
X251277Y-176641D01*
X251262Y-176659D01*
X251230Y-176685D01*
X250787Y-177127D01*
X241270Y-186645D01*
X241217Y-186719D01*
X241157Y-186788D01*
X241145Y-186818D01*
X241126Y-186845D01*
X241099Y-186931D01*
X241065Y-187016D01*
X241061Y-187057D01*
X241054Y-187080D01*
X241055Y-187112D01*
X241047Y-187183D01*
X241047Y-188660D01*
X241066Y-188775D01*
X241083Y-188891D01*
X241085Y-188897D01*
X241086Y-188903D01*
X241141Y-189006D01*
X241194Y-189111D01*
X241199Y-189115D01*
X241202Y-189120D01*
X241286Y-189200D01*
X241370Y-189283D01*
X241376Y-189286D01*
X241380Y-189290D01*
X241397Y-189298D01*
X241517Y-189364D01*
X243940Y-190367D01*
X246513Y-192940D01*
X247905Y-196301D01*
X247905Y-215179D01*
X246513Y-218540D01*
X243940Y-221113D01*
X240579Y-222505D01*
X236941Y-222505D01*
X233580Y-221113D01*
X231007Y-218540D01*
X229615Y-215179D01*
X229615Y-196301D01*
X230684Y-193721D01*
X230706Y-193626D01*
X230735Y-193533D01*
X230734Y-193507D01*
X230740Y-193482D01*
X230731Y-193385D01*
X230728Y-193287D01*
X230719Y-193263D01*
X230717Y-193237D01*
X230677Y-193148D01*
X230644Y-193056D01*
X230628Y-193036D01*
X230617Y-193012D01*
X230551Y-192941D01*
X230490Y-192864D01*
X230468Y-192850D01*
X230451Y-192831D01*
X230365Y-192784D01*
X230283Y-192731D01*
X230258Y-192725D01*
X230235Y-192712D01*
X230139Y-192695D01*
X230045Y-192671D01*
X230019Y-192673D01*
X229993Y-192669D01*
X229896Y-192683D01*
X229800Y-192691D01*
X229776Y-192701D01*
X229750Y-192705D01*
X229663Y-192749D01*
X229573Y-192787D01*
X229548Y-192807D01*
X229530Y-192816D01*
X229507Y-192840D01*
X229442Y-192892D01*
X222728Y-199606D01*
X222675Y-199680D01*
X222615Y-199750D01*
X222603Y-199780D01*
X222584Y-199806D01*
X222557Y-199893D01*
X222523Y-199978D01*
X222519Y-200019D01*
X222512Y-200041D01*
X222513Y-200073D01*
X222505Y-200144D01*
X222505Y-215179D01*
X221113Y-218540D01*
X218540Y-221113D01*
X215179Y-222505D01*
X211541Y-222505D01*
X208180Y-221113D01*
X205607Y-218540D01*
X204215Y-215179D01*
X204215Y-196301D01*
X205284Y-193721D01*
X205306Y-193626D01*
X205335Y-193533D01*
X205334Y-193507D01*
X205340Y-193482D01*
X205331Y-193385D01*
X205328Y-193288D01*
X205319Y-193263D01*
X205317Y-193237D01*
X205277Y-193148D01*
X205244Y-193057D01*
X205228Y-193036D01*
X205217Y-193012D01*
X205151Y-192940D01*
X205090Y-192864D01*
X205068Y-192850D01*
X205050Y-192831D01*
X204965Y-192784D01*
X204883Y-192731D01*
X204858Y-192725D01*
X204835Y-192712D01*
X204739Y-192695D01*
X204645Y-192671D01*
X204619Y-192673D01*
X204593Y-192669D01*
X204496Y-192683D01*
X204400Y-192691D01*
X204376Y-192701D01*
X204350Y-192705D01*
X204263Y-192749D01*
X204173Y-192787D01*
X204148Y-192807D01*
X204130Y-192816D01*
X204107Y-192840D01*
X204042Y-192892D01*
X197328Y-199606D01*
X197275Y-199680D01*
X197215Y-199750D01*
X197203Y-199780D01*
X197184Y-199806D01*
X197157Y-199893D01*
X197123Y-199978D01*
X197119Y-200019D01*
X197112Y-200041D01*
X197113Y-200073D01*
X197105Y-200145D01*
X197105Y-215179D01*
X195713Y-218540D01*
X193140Y-221113D01*
X189779Y-222505D01*
X186141Y-222505D01*
X182780Y-221113D01*
X180207Y-218540D01*
X178815Y-215179D01*
X178815Y-196301D01*
X180207Y-192940D01*
X182780Y-190367D01*
X186141Y-188975D01*
X189779Y-188975D01*
X193140Y-190367D01*
X195713Y-192940D01*
X195808Y-193170D01*
X195832Y-193209D01*
X195848Y-193252D01*
X195896Y-193313D01*
X195937Y-193379D01*
X195973Y-193408D01*
X196001Y-193444D01*
X196067Y-193486D01*
X196127Y-193536D01*
X196170Y-193552D01*
X196208Y-193577D01*
X196284Y-193596D01*
X196356Y-193624D01*
X196402Y-193626D01*
X196447Y-193637D01*
X196524Y-193631D01*
X196602Y-193634D01*
X196646Y-193621D01*
X196692Y-193618D01*
X196764Y-193587D01*
X196838Y-193566D01*
X196876Y-193540D01*
X196918Y-193522D01*
X197025Y-193436D01*
X197040Y-193425D01*
X197043Y-193421D01*
X197049Y-193417D01*
X241123Y-149343D01*
X241176Y-149269D01*
X241235Y-149200D01*
X241247Y-149170D01*
X241266Y-149144D01*
X241293Y-149057D01*
X241327Y-148972D01*
X241332Y-148931D01*
X241339Y-148909D01*
X241338Y-148876D01*
X241346Y-148805D01*
X241346Y136559D01*
X241342Y136578D01*
X241345Y136598D01*
X241323Y136700D01*
X241306Y136802D01*
X241297Y136819D01*
X241292Y136839D01*
X241239Y136928D01*
X241191Y137019D01*
X241176Y137033D01*
X241166Y137050D01*
X241087Y137117D01*
X241012Y137188D01*
X240994Y137197D01*
X240979Y137210D01*
X240883Y137248D01*
X240789Y137292D01*
X240770Y137294D01*
X240751Y137302D01*
X240584Y137320D01*
X237608Y137320D01*
X237608Y141060D01*
X237605Y141080D01*
X237607Y141100D01*
X237585Y141201D01*
X237568Y141303D01*
X237559Y141321D01*
X237555Y141340D01*
X237501Y141429D01*
X237453Y141521D01*
X237439Y141534D01*
X237428Y141551D01*
X237350Y141619D01*
X237275Y141690D01*
X237257Y141698D01*
X237241Y141711D01*
X237145Y141750D01*
X237052Y141794D01*
X237032Y141796D01*
X237013Y141803D01*
X236847Y141822D01*
X236846Y141822D01*
X236827Y141819D01*
X236807Y141821D01*
X236706Y141799D01*
X236603Y141782D01*
X236586Y141773D01*
X236566Y141768D01*
X236477Y141715D01*
X236386Y141667D01*
X236372Y141652D01*
X236355Y141642D01*
X236288Y141564D01*
X236217Y141489D01*
X236208Y141470D01*
X236195Y141455D01*
X236157Y141359D01*
X236113Y141265D01*
X236111Y141246D01*
X236103Y141227D01*
X236085Y141060D01*
X236085Y137320D01*
X234281Y137320D01*
X234211Y137308D01*
X234139Y137307D01*
X234090Y137289D01*
X234038Y137280D01*
X233975Y137247D01*
X233908Y137222D01*
X233867Y137190D01*
X233821Y137165D01*
X233772Y137113D01*
X233716Y137068D01*
X233688Y137025D01*
X233652Y136987D01*
X233621Y136922D01*
X233583Y136862D01*
X233570Y136811D01*
X233548Y136764D01*
X233540Y136693D01*
X233523Y136623D01*
X233527Y136571D01*
X233521Y136519D01*
X233536Y136449D01*
X233542Y136378D01*
X233562Y136330D01*
X233573Y136279D01*
X233610Y136217D01*
X233638Y136151D01*
X233683Y136095D01*
X233699Y136068D01*
X233717Y136053D01*
X233743Y136020D01*
X234071Y135692D01*
X234071Y125429D01*
X232963Y124321D01*
X232952Y124305D01*
X232936Y124293D01*
X232880Y124206D01*
X232820Y124122D01*
X232814Y124103D01*
X232803Y124086D01*
X232778Y123985D01*
X232747Y123887D01*
X232748Y123867D01*
X232743Y123847D01*
X232751Y123744D01*
X232754Y123641D01*
X232761Y123622D01*
X232762Y123602D01*
X232803Y123507D01*
X232838Y123410D01*
X232851Y123394D01*
X232859Y123376D01*
X232963Y123245D01*
X237313Y118895D01*
X237313Y109619D01*
X235751Y108057D01*
X235750Y108056D01*
X234130Y106436D01*
X234077Y106362D01*
X234017Y106292D01*
X234005Y106262D01*
X233986Y106236D01*
X233959Y106149D01*
X233925Y106064D01*
X233921Y106023D01*
X233914Y106001D01*
X233915Y105969D01*
X233907Y105898D01*
X233907Y101942D01*
X230798Y98833D01*
X226402Y98833D01*
X223293Y101942D01*
X223293Y106338D01*
X225002Y108047D01*
X225013Y108063D01*
X225029Y108075D01*
X225085Y108163D01*
X225145Y108246D01*
X225151Y108265D01*
X225162Y108282D01*
X225187Y108383D01*
X225218Y108482D01*
X225217Y108501D01*
X225222Y108521D01*
X225214Y108624D01*
X225211Y108727D01*
X225205Y108746D01*
X225203Y108766D01*
X225163Y108861D01*
X225127Y108958D01*
X225114Y108974D01*
X225107Y108992D01*
X225002Y109123D01*
X222911Y111215D01*
X222894Y111226D01*
X222882Y111242D01*
X222795Y111298D01*
X222711Y111358D01*
X222692Y111364D01*
X222675Y111375D01*
X222575Y111400D01*
X222476Y111431D01*
X222456Y111430D01*
X222436Y111435D01*
X222333Y111427D01*
X222230Y111424D01*
X222211Y111417D01*
X222191Y111416D01*
X222096Y111375D01*
X221999Y111340D01*
X221983Y111327D01*
X221965Y111319D01*
X221834Y111215D01*
X219613Y108993D01*
X216118Y108993D01*
X216048Y108982D01*
X215976Y108980D01*
X215927Y108962D01*
X215876Y108954D01*
X215812Y108920D01*
X215745Y108895D01*
X215704Y108863D01*
X215658Y108838D01*
X215609Y108786D01*
X215553Y108742D01*
X215525Y108698D01*
X215489Y108660D01*
X215459Y108595D01*
X215420Y108535D01*
X215407Y108484D01*
X215385Y108437D01*
X215377Y108366D01*
X215360Y108296D01*
X215364Y108244D01*
X215358Y108193D01*
X215373Y108122D01*
X215379Y108051D01*
X215399Y108003D01*
X215410Y107952D01*
X215447Y107891D01*
X215475Y107825D01*
X215520Y107769D01*
X215537Y107741D01*
X215554Y107726D01*
X215580Y107694D01*
X219164Y104110D01*
X220727Y102547D01*
X220727Y37280D01*
X216057Y32610D01*
X216030Y32610D01*
X215959Y32599D01*
X215887Y32597D01*
X215838Y32579D01*
X215787Y32570D01*
X215724Y32537D01*
X215656Y32512D01*
X215616Y32480D01*
X215570Y32455D01*
X215520Y32403D01*
X215464Y32359D01*
X215436Y32315D01*
X215400Y32277D01*
X215370Y32212D01*
X215331Y32152D01*
X215318Y32101D01*
X215297Y32054D01*
X215289Y31983D01*
X215271Y31913D01*
X215275Y31861D01*
X215269Y31809D01*
X215285Y31739D01*
X215290Y31668D01*
X215311Y31620D01*
X215322Y31569D01*
X215358Y31507D01*
X215387Y31442D01*
X215431Y31386D01*
X215448Y31358D01*
X215466Y31343D01*
X215491Y31311D01*
X216566Y30236D01*
X216566Y24730D01*
X214794Y22958D01*
X208240Y22958D01*
X208220Y22955D01*
X208200Y22957D01*
X208099Y22935D01*
X207997Y22918D01*
X207979Y22909D01*
X207960Y22905D01*
X207871Y22852D01*
X207779Y22803D01*
X207766Y22789D01*
X207749Y22779D01*
X207681Y22700D01*
X207610Y22625D01*
X207602Y22607D01*
X207589Y22592D01*
X207550Y22496D01*
X207506Y22402D01*
X207504Y22382D01*
X207497Y22364D01*
X207478Y22197D01*
X207478Y20069D01*
X207481Y20049D01*
X207479Y20029D01*
X207501Y19928D01*
X207518Y19826D01*
X207527Y19809D01*
X207532Y19789D01*
X207585Y19700D01*
X207633Y19609D01*
X207648Y19595D01*
X207658Y19578D01*
X207736Y19511D01*
X207811Y19439D01*
X207829Y19431D01*
X207845Y19418D01*
X207941Y19379D01*
X208035Y19336D01*
X208054Y19334D01*
X208073Y19326D01*
X208240Y19308D01*
X214794Y19308D01*
X216566Y17536D01*
X216566Y12030D01*
X214794Y10258D01*
X195589Y10258D01*
X193817Y12030D01*
X193817Y17536D01*
X195589Y19308D01*
X202144Y19308D01*
X202163Y19311D01*
X202183Y19309D01*
X202284Y19331D01*
X202386Y19347D01*
X202404Y19357D01*
X202423Y19361D01*
X202512Y19414D01*
X202604Y19462D01*
X202617Y19477D01*
X202634Y19487D01*
X202702Y19566D01*
X202773Y19641D01*
X202781Y19659D01*
X202794Y19674D01*
X202833Y19770D01*
X202877Y19864D01*
X202879Y19884D01*
X202886Y19902D01*
X202905Y20069D01*
X202905Y22197D01*
X202902Y22217D01*
X202904Y22236D01*
X202882Y22337D01*
X202865Y22440D01*
X202856Y22457D01*
X202852Y22477D01*
X202798Y22566D01*
X202750Y22657D01*
X202736Y22671D01*
X202725Y22688D01*
X202647Y22755D01*
X202572Y22826D01*
X202554Y22835D01*
X202538Y22848D01*
X202442Y22886D01*
X202349Y22930D01*
X202329Y22932D01*
X202310Y22940D01*
X202144Y22958D01*
X195589Y22958D01*
X193817Y24730D01*
X193817Y30236D01*
X195589Y32008D01*
X206167Y32008D01*
X206257Y32022D01*
X206348Y32029D01*
X206378Y32042D01*
X206410Y32047D01*
X206490Y32090D01*
X206574Y32126D01*
X206607Y32151D01*
X206627Y32162D01*
X206649Y32186D01*
X206705Y32231D01*
X208833Y34359D01*
X208875Y34417D01*
X208925Y34469D01*
X208947Y34516D01*
X208977Y34558D01*
X208998Y34627D01*
X209028Y34692D01*
X209034Y34744D01*
X209049Y34793D01*
X209047Y34865D01*
X209055Y34936D01*
X209044Y34987D01*
X209043Y35039D01*
X209018Y35107D01*
X209003Y35177D01*
X208976Y35221D01*
X208958Y35270D01*
X208914Y35326D01*
X208877Y35388D01*
X208837Y35422D01*
X208805Y35462D01*
X208744Y35501D01*
X208690Y35548D01*
X208642Y35567D01*
X208598Y35595D01*
X208528Y35613D01*
X208462Y35640D01*
X208390Y35648D01*
X208359Y35655D01*
X208336Y35654D01*
X208295Y35658D01*
X195589Y35658D01*
X193979Y37268D01*
X193962Y37280D01*
X193950Y37295D01*
X193863Y37351D01*
X193779Y37412D01*
X193760Y37418D01*
X193743Y37428D01*
X193643Y37454D01*
X193544Y37484D01*
X193524Y37484D01*
X193505Y37488D01*
X193402Y37480D01*
X193298Y37478D01*
X193279Y37471D01*
X193259Y37469D01*
X193165Y37429D01*
X193067Y37393D01*
X193051Y37381D01*
X193033Y37373D01*
X192902Y37268D01*
X190470Y34836D01*
X190417Y34762D01*
X190357Y34692D01*
X190345Y34662D01*
X190326Y34636D01*
X190299Y34549D01*
X190265Y34464D01*
X190261Y34423D01*
X190254Y34401D01*
X190255Y34369D01*
X190247Y34297D01*
X190247Y-16677D01*
X190261Y-16768D01*
X190269Y-16858D01*
X190281Y-16888D01*
X190286Y-16920D01*
X190329Y-17001D01*
X190365Y-17085D01*
X190391Y-17117D01*
X190402Y-17138D01*
X190425Y-17160D01*
X190470Y-17216D01*
X198186Y-24932D01*
X198260Y-24985D01*
X198330Y-25045D01*
X198360Y-25057D01*
X198386Y-25076D01*
X198473Y-25103D01*
X198558Y-25137D01*
X198599Y-25141D01*
X198621Y-25148D01*
X198653Y-25147D01*
X198725Y-25155D01*
X211832Y-25155D01*
X212725Y-26048D01*
X212725Y-30132D01*
X212728Y-30152D01*
X212726Y-30171D01*
X212748Y-30273D01*
X212764Y-30375D01*
X212774Y-30392D01*
X212778Y-30412D01*
X212831Y-30501D01*
X212880Y-30592D01*
X212894Y-30606D01*
X212904Y-30623D01*
X212983Y-30690D01*
X213058Y-30762D01*
X213076Y-30770D01*
X213091Y-30783D01*
X213187Y-30822D01*
X213281Y-30865D01*
X213301Y-30867D01*
X213319Y-30875D01*
X213486Y-30893D01*
X217004Y-30893D01*
X217024Y-30890D01*
X217043Y-30892D01*
X217145Y-30870D01*
X217247Y-30854D01*
X217264Y-30844D01*
X217284Y-30840D01*
X217373Y-30787D01*
X217464Y-30738D01*
X217478Y-30724D01*
X217495Y-30714D01*
X217562Y-30635D01*
X217634Y-30560D01*
X217642Y-30542D01*
X217655Y-30527D01*
X217694Y-30431D01*
X217737Y-30337D01*
X217739Y-30317D01*
X217747Y-30299D01*
X217765Y-30132D01*
X217765Y-26998D01*
X218658Y-26105D01*
X230922Y-26105D01*
X231815Y-26998D01*
X231815Y-38262D01*
X230922Y-39155D01*
X218658Y-39155D01*
X217765Y-38262D01*
X217765Y-36228D01*
X217762Y-36208D01*
X217764Y-36189D01*
X217742Y-36087D01*
X217726Y-35985D01*
X217716Y-35968D01*
X217712Y-35948D01*
X217659Y-35859D01*
X217610Y-35768D01*
X217596Y-35754D01*
X217586Y-35737D01*
X217507Y-35670D01*
X217432Y-35598D01*
X217414Y-35590D01*
X217399Y-35577D01*
X217303Y-35538D01*
X217209Y-35495D01*
X217189Y-35493D01*
X217171Y-35485D01*
X217004Y-35467D01*
X213486Y-35467D01*
X213466Y-35470D01*
X213447Y-35468D01*
X213345Y-35490D01*
X213243Y-35506D01*
X213226Y-35516D01*
X213206Y-35520D01*
X213117Y-35573D01*
X213026Y-35622D01*
X213012Y-35636D01*
X212995Y-35646D01*
X212928Y-35725D01*
X212856Y-35800D01*
X212848Y-35818D01*
X212835Y-35833D01*
X212796Y-35929D01*
X212753Y-36023D01*
X212751Y-36043D01*
X212743Y-36061D01*
X212725Y-36228D01*
X212725Y-40312D01*
X211832Y-41205D01*
X194568Y-41205D01*
X193675Y-40312D01*
X193675Y-36228D01*
X193672Y-36208D01*
X193674Y-36189D01*
X193652Y-36087D01*
X193636Y-35985D01*
X193626Y-35968D01*
X193622Y-35948D01*
X193569Y-35859D01*
X193520Y-35768D01*
X193506Y-35754D01*
X193496Y-35737D01*
X193417Y-35670D01*
X193342Y-35598D01*
X193324Y-35590D01*
X193309Y-35577D01*
X193213Y-35538D01*
X193119Y-35495D01*
X193099Y-35493D01*
X193081Y-35485D01*
X192914Y-35467D01*
X192483Y-35467D01*
X192393Y-35481D01*
X192302Y-35489D01*
X192272Y-35501D01*
X192240Y-35506D01*
X192159Y-35549D01*
X192075Y-35585D01*
X192043Y-35611D01*
X192022Y-35622D01*
X192000Y-35645D01*
X191944Y-35690D01*
X191778Y-35856D01*
X191724Y-35930D01*
X191665Y-36000D01*
X191653Y-36030D01*
X191634Y-36056D01*
X191607Y-36143D01*
X191573Y-36228D01*
X191569Y-36269D01*
X191562Y-36291D01*
X191563Y-36323D01*
X191555Y-36394D01*
X191555Y-45502D01*
X190662Y-46395D01*
X179398Y-46395D01*
X178505Y-45502D01*
X178505Y-33238D01*
X179398Y-32345D01*
X188506Y-32345D01*
X188596Y-32331D01*
X188687Y-32323D01*
X188716Y-32311D01*
X188748Y-32306D01*
X188829Y-32263D01*
X188913Y-32227D01*
X188945Y-32201D01*
X188966Y-32190D01*
X188988Y-32167D01*
X189044Y-32122D01*
X190273Y-30893D01*
X192914Y-30893D01*
X192934Y-30890D01*
X192953Y-30892D01*
X193055Y-30870D01*
X193157Y-30854D01*
X193174Y-30844D01*
X193194Y-30840D01*
X193283Y-30787D01*
X193374Y-30738D01*
X193388Y-30724D01*
X193405Y-30714D01*
X193472Y-30635D01*
X193544Y-30560D01*
X193552Y-30542D01*
X193565Y-30527D01*
X193604Y-30431D01*
X193647Y-30337D01*
X193649Y-30317D01*
X193657Y-30299D01*
X193675Y-30132D01*
X193675Y-27205D01*
X193661Y-27114D01*
X193653Y-27024D01*
X193641Y-26994D01*
X193636Y-26962D01*
X193593Y-26881D01*
X193557Y-26797D01*
X193531Y-26765D01*
X193520Y-26744D01*
X193497Y-26722D01*
X193452Y-26666D01*
X185673Y-18887D01*
X185673Y36507D01*
X191636Y42470D01*
X193056Y42470D01*
X193075Y42473D01*
X193095Y42471D01*
X193196Y42493D01*
X193298Y42509D01*
X193316Y42519D01*
X193335Y42523D01*
X193424Y42576D01*
X193516Y42624D01*
X193529Y42639D01*
X193546Y42649D01*
X193614Y42728D01*
X193685Y42803D01*
X193686Y42805D01*
X195589Y44708D01*
X214794Y44708D01*
X214854Y44648D01*
X214912Y44606D01*
X214964Y44557D01*
X215011Y44535D01*
X215053Y44505D01*
X215122Y44484D01*
X215187Y44453D01*
X215239Y44448D01*
X215289Y44432D01*
X215360Y44434D01*
X215431Y44426D01*
X215482Y44437D01*
X215534Y44439D01*
X215602Y44463D01*
X215672Y44479D01*
X215717Y44505D01*
X215765Y44523D01*
X215821Y44568D01*
X215883Y44605D01*
X215917Y44644D01*
X215957Y44677D01*
X215996Y44737D01*
X216043Y44792D01*
X216062Y44840D01*
X216090Y44884D01*
X216108Y44953D01*
X216135Y45020D01*
X216143Y45091D01*
X216151Y45122D01*
X216149Y45146D01*
X216153Y45187D01*
X216153Y46907D01*
X216134Y47024D01*
X216116Y47142D01*
X216114Y47146D01*
X216114Y47150D01*
X216058Y47254D01*
X216003Y47361D01*
X216000Y47364D01*
X215998Y47367D01*
X215913Y47449D01*
X215827Y47532D01*
X215823Y47534D01*
X215820Y47537D01*
X215713Y47587D01*
X215605Y47638D01*
X215601Y47639D01*
X215597Y47640D01*
X215481Y47653D01*
X215361Y47668D01*
X215356Y47667D01*
X215353Y47668D01*
X215339Y47665D01*
X215195Y47643D01*
X214073Y47342D01*
X206691Y47342D01*
X206691Y52145D01*
X206688Y52164D01*
X206690Y52184D01*
X206668Y52285D01*
X206651Y52387D01*
X206642Y52405D01*
X206638Y52424D01*
X206584Y52513D01*
X206536Y52605D01*
X206522Y52618D01*
X206511Y52636D01*
X206433Y52703D01*
X206358Y52774D01*
X206340Y52783D01*
X206324Y52795D01*
X206228Y52834D01*
X206135Y52878D01*
X206115Y52880D01*
X206097Y52887D01*
X206172Y52900D01*
X206190Y52909D01*
X206209Y52913D01*
X206298Y52966D01*
X206390Y53015D01*
X206403Y53029D01*
X206420Y53039D01*
X206488Y53118D01*
X206559Y53193D01*
X206567Y53211D01*
X206580Y53226D01*
X206619Y53322D01*
X206663Y53416D01*
X206665Y53436D01*
X206672Y53454D01*
X206691Y53621D01*
X206691Y58424D01*
X214073Y58424D01*
X215195Y58123D01*
X215314Y58111D01*
X215431Y58098D01*
X215436Y58099D01*
X215440Y58099D01*
X215555Y58125D01*
X215672Y58150D01*
X215675Y58153D01*
X215679Y58153D01*
X215781Y58215D01*
X215883Y58277D01*
X215886Y58280D01*
X215889Y58282D01*
X215965Y58373D01*
X216043Y58463D01*
X216044Y58467D01*
X216047Y58471D01*
X216089Y58578D01*
X216135Y58692D01*
X216135Y58697D01*
X216137Y58700D01*
X216137Y58713D01*
X216153Y58858D01*
X216153Y65968D01*
X216138Y66062D01*
X216129Y66157D01*
X216118Y66183D01*
X216114Y66211D01*
X216069Y66295D01*
X216031Y66382D01*
X216012Y66403D01*
X215998Y66428D01*
X215929Y66494D01*
X215865Y66564D01*
X215841Y66578D01*
X215820Y66598D01*
X215734Y66638D01*
X215650Y66684D01*
X215623Y66689D01*
X215597Y66701D01*
X215502Y66712D01*
X215409Y66729D01*
X215381Y66725D01*
X215353Y66728D01*
X215259Y66708D01*
X215165Y66695D01*
X215133Y66680D01*
X215112Y66676D01*
X215084Y66659D01*
X215011Y66627D01*
X214769Y66487D01*
X214123Y66314D01*
X210311Y66314D01*
X210311Y73593D01*
X210308Y73612D01*
X210310Y73632D01*
X210288Y73733D01*
X210271Y73835D01*
X210262Y73853D01*
X210258Y73873D01*
X210205Y73962D01*
X210156Y74053D01*
X210142Y74067D01*
X210132Y74084D01*
X210053Y74151D01*
X209978Y74222D01*
X209960Y74231D01*
X209945Y74244D01*
X209849Y74282D01*
X209755Y74326D01*
X209735Y74328D01*
X209717Y74335D01*
X209550Y74354D01*
X208787Y74354D01*
X208787Y74356D01*
X209550Y74356D01*
X209570Y74359D01*
X209589Y74357D01*
X209691Y74379D01*
X209793Y74395D01*
X209810Y74405D01*
X209830Y74409D01*
X209919Y74462D01*
X210010Y74510D01*
X210024Y74525D01*
X210041Y74535D01*
X210108Y74614D01*
X210179Y74689D01*
X210188Y74707D01*
X210201Y74722D01*
X210240Y74818D01*
X210283Y74912D01*
X210285Y74932D01*
X210293Y74950D01*
X210311Y75117D01*
X210311Y82396D01*
X214123Y82396D01*
X214769Y82222D01*
X215011Y82082D01*
X215100Y82049D01*
X215187Y82008D01*
X215215Y82005D01*
X215241Y81995D01*
X215337Y81992D01*
X215431Y81981D01*
X215459Y81987D01*
X215487Y81986D01*
X215579Y82013D01*
X215672Y82034D01*
X215696Y82048D01*
X215723Y82056D01*
X215801Y82111D01*
X215883Y82160D01*
X215901Y82181D01*
X215924Y82197D01*
X215981Y82274D01*
X216043Y82347D01*
X216053Y82373D01*
X216070Y82396D01*
X216099Y82486D01*
X216125Y82550D01*
X216125Y82551D01*
X216135Y82575D01*
X216139Y82610D01*
X216145Y82630D01*
X216145Y82663D01*
X216153Y82742D01*
X216153Y84226D01*
X216142Y84297D01*
X216140Y84368D01*
X216122Y84417D01*
X216114Y84469D01*
X216080Y84532D01*
X216055Y84599D01*
X216023Y84640D01*
X215998Y84686D01*
X215947Y84735D01*
X215902Y84791D01*
X215858Y84820D01*
X215820Y84855D01*
X215755Y84886D01*
X215695Y84924D01*
X215644Y84937D01*
X215597Y84959D01*
X215526Y84967D01*
X215456Y84984D01*
X215404Y84980D01*
X215353Y84986D01*
X215282Y84971D01*
X215211Y84965D01*
X215163Y84945D01*
X215112Y84934D01*
X215051Y84897D01*
X214985Y84869D01*
X214929Y84824D01*
X214901Y84808D01*
X214886Y84790D01*
X214854Y84764D01*
X214420Y84330D01*
X203156Y84330D01*
X202263Y85223D01*
X202263Y88307D01*
X202260Y88327D01*
X202262Y88346D01*
X202240Y88448D01*
X202224Y88550D01*
X202214Y88567D01*
X202210Y88587D01*
X202157Y88676D01*
X202108Y88767D01*
X202094Y88781D01*
X202084Y88798D01*
X202005Y88865D01*
X201930Y88936D01*
X201912Y88945D01*
X201897Y88958D01*
X201801Y88996D01*
X201707Y89040D01*
X201687Y89042D01*
X201669Y89050D01*
X201502Y89068D01*
X185828Y89068D01*
X176286Y98610D01*
X176212Y98663D01*
X176142Y98723D01*
X176112Y98735D01*
X176086Y98754D01*
X175999Y98781D01*
X175914Y98815D01*
X175873Y98819D01*
X175851Y98826D01*
X175819Y98825D01*
X175747Y98833D01*
X171792Y98833D01*
X171537Y99088D01*
X171498Y99116D01*
X171465Y99152D01*
X171399Y99188D01*
X171337Y99232D01*
X171291Y99246D01*
X171249Y99269D01*
X171174Y99282D01*
X171102Y99304D01*
X171054Y99303D01*
X171007Y99311D01*
X170932Y99300D01*
X170856Y99298D01*
X170811Y99281D01*
X170764Y99274D01*
X170696Y99240D01*
X170625Y99213D01*
X170588Y99184D01*
X170545Y99162D01*
X170492Y99107D01*
X170433Y99060D01*
X170407Y99019D01*
X170374Y98985D01*
X170341Y98917D01*
X170300Y98853D01*
X170288Y98806D01*
X170268Y98763D01*
X170258Y98688D01*
X170240Y98614D01*
X170244Y98567D01*
X170238Y98519D01*
X170257Y98392D01*
X170259Y98369D01*
X170262Y98363D01*
X170263Y98353D01*
X170414Y97790D01*
X170414Y93979D01*
X163896Y93979D01*
X163896Y99997D01*
X168208Y99997D01*
X168770Y99846D01*
X168818Y99841D01*
X168864Y99827D01*
X168940Y99829D01*
X169015Y99822D01*
X169062Y99832D01*
X169110Y99833D01*
X169181Y99860D01*
X169255Y99876D01*
X169296Y99901D01*
X169341Y99918D01*
X169400Y99965D01*
X169465Y100005D01*
X169495Y100042D01*
X169533Y100072D01*
X169574Y100135D01*
X169622Y100194D01*
X169640Y100238D01*
X169666Y100279D01*
X169684Y100352D01*
X169712Y100423D01*
X169714Y100471D01*
X169726Y100517D01*
X169720Y100593D01*
X169724Y100668D01*
X169710Y100714D01*
X169707Y100762D01*
X169677Y100832D01*
X169656Y100905D01*
X169629Y100944D01*
X169610Y100989D01*
X169530Y101089D01*
X169517Y101108D01*
X169512Y101112D01*
X169506Y101120D01*
X168683Y101942D01*
X168683Y106338D01*
X169249Y106904D01*
X169291Y106962D01*
X169340Y107014D01*
X169362Y107061D01*
X169392Y107103D01*
X169414Y107172D01*
X169444Y107237D01*
X169449Y107289D01*
X169465Y107339D01*
X169463Y107410D01*
X169471Y107481D01*
X169460Y107532D01*
X169458Y107584D01*
X169434Y107652D01*
X169419Y107722D01*
X169392Y107767D01*
X169374Y107815D01*
X169329Y107871D01*
X169292Y107933D01*
X169253Y107967D01*
X169220Y108007D01*
X169160Y108046D01*
X169105Y108093D01*
X169057Y108112D01*
X169013Y108140D01*
X168944Y108158D01*
X168877Y108185D01*
X168806Y108193D01*
X168775Y108201D01*
X168752Y108199D01*
X168711Y108203D01*
X164670Y108203D01*
X164580Y108189D01*
X164489Y108181D01*
X164459Y108169D01*
X164427Y108164D01*
X164346Y108121D01*
X164262Y108085D01*
X164230Y108059D01*
X164210Y108048D01*
X164187Y108025D01*
X164131Y107980D01*
X157447Y101296D01*
X157406Y101238D01*
X157356Y101186D01*
X157334Y101139D01*
X157304Y101097D01*
X157283Y101028D01*
X157253Y100963D01*
X157247Y100911D01*
X157231Y100861D01*
X157233Y100790D01*
X157225Y100719D01*
X157236Y100668D01*
X157238Y100616D01*
X157262Y100548D01*
X157278Y100478D01*
X157304Y100433D01*
X157322Y100385D01*
X157367Y100329D01*
X157404Y100267D01*
X157443Y100233D01*
X157476Y100193D01*
X157536Y100154D01*
X157591Y100107D01*
X157639Y100088D01*
X157683Y100060D01*
X157752Y100042D01*
X157819Y100015D01*
X157890Y100007D01*
X157921Y99999D01*
X157945Y100001D01*
X157986Y99997D01*
X160850Y99997D01*
X160850Y93979D01*
X154332Y93979D01*
X154332Y96344D01*
X154321Y96414D01*
X154319Y96486D01*
X154301Y96535D01*
X154293Y96586D01*
X154259Y96650D01*
X154235Y96717D01*
X154202Y96758D01*
X154178Y96804D01*
X154126Y96853D01*
X154081Y96909D01*
X154037Y96937D01*
X153999Y96973D01*
X153934Y97003D01*
X153874Y97042D01*
X153823Y97055D01*
X153776Y97077D01*
X153705Y97085D01*
X153635Y97102D01*
X153583Y97098D01*
X153532Y97104D01*
X153462Y97089D01*
X153390Y97083D01*
X153342Y97063D01*
X153291Y97052D01*
X153230Y97015D01*
X153164Y96987D01*
X153108Y96942D01*
X153080Y96925D01*
X153065Y96908D01*
X153033Y96882D01*
X152621Y96470D01*
X152568Y96396D01*
X152508Y96326D01*
X152496Y96296D01*
X152477Y96270D01*
X152451Y96183D01*
X152416Y96098D01*
X152412Y96057D01*
X152405Y96035D01*
X152406Y96003D01*
X152398Y95931D01*
X152398Y86824D01*
X151505Y85931D01*
X139242Y85931D01*
X138348Y86824D01*
X138348Y98088D01*
X139083Y98822D01*
X139095Y98838D01*
X139110Y98851D01*
X139166Y98938D01*
X139227Y99022D01*
X139232Y99041D01*
X139243Y99058D01*
X139269Y99158D01*
X139299Y99257D01*
X139298Y99277D01*
X139303Y99296D01*
X139295Y99399D01*
X139293Y99503D01*
X139286Y99522D01*
X139284Y99541D01*
X139244Y99636D01*
X139208Y99734D01*
X139196Y99750D01*
X139188Y99768D01*
X139083Y99899D01*
X137313Y101669D01*
X137313Y102070D01*
X137302Y102141D01*
X137300Y102212D01*
X137282Y102261D01*
X137273Y102313D01*
X137240Y102376D01*
X137215Y102443D01*
X137183Y102484D01*
X137158Y102530D01*
X137106Y102579D01*
X137062Y102635D01*
X137018Y102664D01*
X136980Y102699D01*
X136915Y102730D01*
X136855Y102768D01*
X136804Y102781D01*
X136757Y102803D01*
X136686Y102811D01*
X136616Y102828D01*
X136564Y102824D01*
X136512Y102830D01*
X136442Y102815D01*
X136371Y102809D01*
X136323Y102789D01*
X136272Y102778D01*
X136210Y102741D01*
X136145Y102713D01*
X136089Y102668D01*
X136061Y102652D01*
X136046Y102634D01*
X136014Y102608D01*
X132050Y98644D01*
X131997Y98570D01*
X131937Y98501D01*
X131925Y98471D01*
X131906Y98445D01*
X131879Y98357D01*
X131845Y98273D01*
X131841Y98232D01*
X131834Y98209D01*
X131835Y98177D01*
X131827Y98106D01*
X131827Y46266D01*
X131830Y46246D01*
X131828Y46227D01*
X131850Y46125D01*
X131866Y46023D01*
X131876Y46006D01*
X131880Y45986D01*
X131933Y45897D01*
X131982Y45806D01*
X131996Y45792D01*
X132006Y45775D01*
X132085Y45708D01*
X132160Y45636D01*
X132178Y45628D01*
X132193Y45615D01*
X132289Y45576D01*
X132383Y45533D01*
X132403Y45531D01*
X132421Y45523D01*
X132588Y45505D01*
X135672Y45505D01*
X136565Y44612D01*
X136565Y42028D01*
X136568Y42008D01*
X136566Y41989D01*
X136588Y41887D01*
X136604Y41785D01*
X136614Y41768D01*
X136618Y41748D01*
X136671Y41659D01*
X136720Y41568D01*
X136734Y41554D01*
X136744Y41537D01*
X136823Y41470D01*
X136898Y41398D01*
X136916Y41390D01*
X136931Y41377D01*
X137027Y41338D01*
X137121Y41295D01*
X137141Y41293D01*
X137159Y41285D01*
X137326Y41267D01*
X143556Y41267D01*
X143575Y41270D01*
X143595Y41268D01*
X143696Y41290D01*
X143798Y41306D01*
X143816Y41316D01*
X143835Y41320D01*
X143924Y41373D01*
X144016Y41422D01*
X144029Y41436D01*
X144046Y41446D01*
X144114Y41525D01*
X144185Y41600D01*
X144193Y41618D01*
X144206Y41633D01*
X144245Y41729D01*
X144289Y41823D01*
X144291Y41843D01*
X144298Y41861D01*
X144317Y42028D01*
X144317Y42936D01*
X146089Y44708D01*
X165294Y44708D01*
X167066Y42936D01*
X167066Y37430D01*
X165294Y35658D01*
X146089Y35658D01*
X145276Y36470D01*
X145203Y36523D01*
X145133Y36583D01*
X145103Y36595D01*
X145077Y36614D01*
X144990Y36641D01*
X144905Y36675D01*
X144864Y36679D01*
X144842Y36686D01*
X144809Y36685D01*
X144738Y36693D01*
X137326Y36693D01*
X137306Y36690D01*
X137287Y36692D01*
X137185Y36670D01*
X137083Y36654D01*
X137066Y36644D01*
X137046Y36640D01*
X136957Y36587D01*
X136866Y36538D01*
X136852Y36524D01*
X136835Y36514D01*
X136768Y36435D01*
X136696Y36360D01*
X136688Y36342D01*
X136675Y36327D01*
X136636Y36231D01*
X136593Y36137D01*
X136591Y36117D01*
X136583Y36099D01*
X136565Y35932D01*
X136565Y33348D01*
X136069Y32852D01*
X136027Y32794D01*
X135977Y32742D01*
X135955Y32695D01*
X135925Y32653D01*
X135904Y32584D01*
X135874Y32519D01*
X135868Y32467D01*
X135853Y32417D01*
X135855Y32346D01*
X135847Y32275D01*
X135858Y32224D01*
X135859Y32172D01*
X135884Y32104D01*
X135899Y32034D01*
X135926Y31989D01*
X135943Y31941D01*
X135988Y31885D01*
X136025Y31823D01*
X136065Y31789D01*
X136097Y31749D01*
X136157Y31710D01*
X136212Y31663D01*
X136260Y31644D01*
X136304Y31616D01*
X136374Y31598D01*
X136440Y31571D01*
X136511Y31563D01*
X136543Y31555D01*
X136566Y31557D01*
X136607Y31553D01*
X136934Y31553D01*
X138494Y29993D01*
X138568Y29939D01*
X138638Y29880D01*
X138668Y29868D01*
X138694Y29849D01*
X138781Y29822D01*
X138866Y29788D01*
X138907Y29784D01*
X138929Y29777D01*
X138961Y29777D01*
X139033Y29770D01*
X143556Y29770D01*
X143575Y29773D01*
X143595Y29771D01*
X143696Y29793D01*
X143798Y29809D01*
X143816Y29819D01*
X143835Y29823D01*
X143924Y29876D01*
X144016Y29924D01*
X144029Y29939D01*
X144046Y29949D01*
X144114Y30028D01*
X144185Y30103D01*
X144186Y30105D01*
X146089Y32008D01*
X165294Y32008D01*
X167066Y30236D01*
X167066Y24730D01*
X165294Y22958D01*
X146089Y22958D01*
X144173Y24873D01*
X144162Y24895D01*
X144148Y24909D01*
X144137Y24926D01*
X144059Y24993D01*
X143984Y25064D01*
X143966Y25073D01*
X143950Y25086D01*
X143854Y25124D01*
X143761Y25168D01*
X143741Y25170D01*
X143722Y25178D01*
X143556Y25196D01*
X137326Y25196D01*
X137306Y25193D01*
X137287Y25195D01*
X137185Y25173D01*
X137083Y25156D01*
X137066Y25147D01*
X137046Y25143D01*
X136957Y25090D01*
X136866Y25041D01*
X136852Y25027D01*
X136835Y25017D01*
X136768Y24938D01*
X136696Y24863D01*
X136688Y24845D01*
X136675Y24830D01*
X136636Y24734D01*
X136593Y24640D01*
X136591Y24620D01*
X136583Y24602D01*
X136565Y24435D01*
X136565Y16348D01*
X135672Y15455D01*
X132588Y15455D01*
X132568Y15452D01*
X132549Y15454D01*
X132447Y15432D01*
X132345Y15416D01*
X132328Y15406D01*
X132308Y15402D01*
X132219Y15349D01*
X132128Y15300D01*
X132114Y15286D01*
X132097Y15276D01*
X132030Y15197D01*
X131958Y15122D01*
X131950Y15104D01*
X131937Y15089D01*
X131898Y14993D01*
X131855Y14899D01*
X131853Y14879D01*
X131845Y14861D01*
X131827Y14694D01*
X131827Y5455D01*
X127697Y1325D01*
X127644Y1251D01*
X127585Y1182D01*
X127573Y1152D01*
X127554Y1126D01*
X127527Y1039D01*
X127493Y954D01*
X127488Y913D01*
X127481Y891D01*
X127482Y858D01*
X127474Y787D01*
X127474Y-5184D01*
X125995Y-6663D01*
X121904Y-6663D01*
X121238Y-5997D01*
X121222Y-5986D01*
X121209Y-5970D01*
X121122Y-5914D01*
X121038Y-5854D01*
X121019Y-5848D01*
X121002Y-5837D01*
X120902Y-5812D01*
X120803Y-5781D01*
X120783Y-5782D01*
X120764Y-5777D01*
X120661Y-5785D01*
X120557Y-5788D01*
X120538Y-5795D01*
X120519Y-5796D01*
X120424Y-5836D01*
X120326Y-5872D01*
X120311Y-5885D01*
X120292Y-5892D01*
X120161Y-5997D01*
X119495Y-6663D01*
X117621Y-6663D01*
X117531Y-6678D01*
X117440Y-6685D01*
X117410Y-6698D01*
X117378Y-6703D01*
X117298Y-6746D01*
X117214Y-6781D01*
X117182Y-6807D01*
X117161Y-6818D01*
X117139Y-6841D01*
X117083Y-6886D01*
X114258Y-9711D01*
X113631Y-9711D01*
X113560Y-9723D01*
X113488Y-9725D01*
X113439Y-9742D01*
X113388Y-9751D01*
X113325Y-9784D01*
X113257Y-9809D01*
X113216Y-9842D01*
X113170Y-9866D01*
X113121Y-9918D01*
X113065Y-9963D01*
X113037Y-10007D01*
X113001Y-10044D01*
X112971Y-10109D01*
X112932Y-10170D01*
X112919Y-10220D01*
X112897Y-10267D01*
X112890Y-10339D01*
X112872Y-10408D01*
X112876Y-10460D01*
X112870Y-10512D01*
X112886Y-10582D01*
X112891Y-10653D01*
X112912Y-10701D01*
X112923Y-10752D01*
X112959Y-10814D01*
X112988Y-10880D01*
X113032Y-10936D01*
X113049Y-10963D01*
X113067Y-10979D01*
X113092Y-11011D01*
X113661Y-11580D01*
X113677Y-11591D01*
X113690Y-11607D01*
X113777Y-11663D01*
X113861Y-11723D01*
X113880Y-11729D01*
X113897Y-11740D01*
X113997Y-11765D01*
X114096Y-11796D01*
X114116Y-11795D01*
X114135Y-11800D01*
X114238Y-11792D01*
X114342Y-11789D01*
X114361Y-11782D01*
X114381Y-11781D01*
X114475Y-11740D01*
X114573Y-11705D01*
X114589Y-11692D01*
X114607Y-11684D01*
X114738Y-11580D01*
X115404Y-10914D01*
X119511Y-10914D01*
X119559Y-10944D01*
X119643Y-11005D01*
X119662Y-11011D01*
X119678Y-11021D01*
X119779Y-11047D01*
X119878Y-11077D01*
X119898Y-11077D01*
X119917Y-11081D01*
X120020Y-11073D01*
X120124Y-11071D01*
X120142Y-11064D01*
X120162Y-11062D01*
X120257Y-11022D01*
X120355Y-10986D01*
X120370Y-10974D01*
X120389Y-10966D01*
X120519Y-10861D01*
X120775Y-10605D01*
X121583Y-10139D01*
X122483Y-9898D01*
X122950Y-9898D01*
X122950Y-18150D01*
X122954Y-18170D01*
X122951Y-18190D01*
X122973Y-18291D01*
X122990Y-18393D01*
X122991Y-18395D01*
X122978Y-18422D01*
X122976Y-18441D01*
X122969Y-18460D01*
X122950Y-18627D01*
X122950Y-26879D01*
X122483Y-26879D01*
X121515Y-26620D01*
X121396Y-26608D01*
X121279Y-26595D01*
X121274Y-26596D01*
X121270Y-26595D01*
X121155Y-26621D01*
X121038Y-26647D01*
X121035Y-26649D01*
X121031Y-26650D01*
X120929Y-26712D01*
X120827Y-26773D01*
X120824Y-26776D01*
X120821Y-26778D01*
X120745Y-26869D01*
X120667Y-26960D01*
X120666Y-26964D01*
X120663Y-26967D01*
X120620Y-27076D01*
X120575Y-27188D01*
X120575Y-27193D01*
X120573Y-27196D01*
X120573Y-27210D01*
X120557Y-27355D01*
X120557Y-27814D01*
X120560Y-27834D01*
X120558Y-27853D01*
X120580Y-27955D01*
X120596Y-28057D01*
X120606Y-28074D01*
X120610Y-28094D01*
X120663Y-28183D01*
X120712Y-28274D01*
X120726Y-28288D01*
X120736Y-28305D01*
X120815Y-28372D01*
X120890Y-28444D01*
X120908Y-28452D01*
X120923Y-28465D01*
X121019Y-28504D01*
X121113Y-28547D01*
X121133Y-28549D01*
X121151Y-28557D01*
X121318Y-28575D01*
X125402Y-28575D01*
X126295Y-29468D01*
X126295Y-42576D01*
X126309Y-42666D01*
X126317Y-42757D01*
X126329Y-42786D01*
X126334Y-42818D01*
X126377Y-42899D01*
X126413Y-42983D01*
X126439Y-43015D01*
X126450Y-43036D01*
X126473Y-43058D01*
X126518Y-43114D01*
X127930Y-44526D01*
X127988Y-44568D01*
X128040Y-44617D01*
X128087Y-44639D01*
X128129Y-44669D01*
X128198Y-44690D01*
X128263Y-44721D01*
X128315Y-44726D01*
X128365Y-44742D01*
X128436Y-44740D01*
X128507Y-44748D01*
X128558Y-44737D01*
X128610Y-44735D01*
X128678Y-44711D01*
X128748Y-44696D01*
X128792Y-44669D01*
X128841Y-44651D01*
X128897Y-44606D01*
X128959Y-44569D01*
X128993Y-44530D01*
X129033Y-44497D01*
X129072Y-44437D01*
X129119Y-44382D01*
X129138Y-44334D01*
X129166Y-44290D01*
X129184Y-44221D01*
X129211Y-44154D01*
X129219Y-44083D01*
X129227Y-44052D01*
X129225Y-44028D01*
X129229Y-43988D01*
X129229Y-39623D01*
X136747Y-39623D01*
X136747Y-48641D01*
X132469Y-48641D01*
X132449Y-48644D01*
X132429Y-48642D01*
X132328Y-48664D01*
X132226Y-48680D01*
X132208Y-48690D01*
X132189Y-48694D01*
X132100Y-48747D01*
X132009Y-48796D01*
X131995Y-48810D01*
X131978Y-48820D01*
X131910Y-48899D01*
X131839Y-48974D01*
X131831Y-48992D01*
X131818Y-49007D01*
X131779Y-49103D01*
X131736Y-49197D01*
X131733Y-49217D01*
X131726Y-49235D01*
X131708Y-49402D01*
X131708Y-62116D01*
X131711Y-62135D01*
X131709Y-62155D01*
X131731Y-62256D01*
X131747Y-62358D01*
X131757Y-62376D01*
X131761Y-62395D01*
X131814Y-62484D01*
X131862Y-62576D01*
X131877Y-62589D01*
X131887Y-62607D01*
X131966Y-62674D01*
X132041Y-62745D01*
X132059Y-62753D01*
X132074Y-62766D01*
X132170Y-62805D01*
X132264Y-62849D01*
X132284Y-62851D01*
X132302Y-62858D01*
X132469Y-62877D01*
X136752Y-62877D01*
X137646Y-63770D01*
X137646Y-64683D01*
X137657Y-64753D01*
X137659Y-64825D01*
X137677Y-64874D01*
X137685Y-64926D01*
X137719Y-64989D01*
X137743Y-65056D01*
X137776Y-65097D01*
X137800Y-65143D01*
X137852Y-65192D01*
X137897Y-65248D01*
X137941Y-65276D01*
X137979Y-65312D01*
X138044Y-65342D01*
X138104Y-65381D01*
X138155Y-65394D01*
X138202Y-65416D01*
X138273Y-65424D01*
X138343Y-65441D01*
X138394Y-65437D01*
X138446Y-65443D01*
X138516Y-65428D01*
X138588Y-65422D01*
X138636Y-65402D01*
X138687Y-65391D01*
X138748Y-65354D01*
X138814Y-65326D01*
X138870Y-65281D01*
X138898Y-65265D01*
X138913Y-65247D01*
X138945Y-65221D01*
X161282Y-42884D01*
X161335Y-42810D01*
X161395Y-42740D01*
X161407Y-42710D01*
X161426Y-42684D01*
X161453Y-42597D01*
X161487Y-42512D01*
X161491Y-42471D01*
X161498Y-42449D01*
X161497Y-42417D01*
X161505Y-42345D01*
X161505Y-33238D01*
X162398Y-32345D01*
X164982Y-32345D01*
X165002Y-32342D01*
X165021Y-32344D01*
X165123Y-32322D01*
X165225Y-32306D01*
X165242Y-32296D01*
X165262Y-32292D01*
X165351Y-32239D01*
X165442Y-32190D01*
X165456Y-32176D01*
X165473Y-32166D01*
X165540Y-32087D01*
X165612Y-32012D01*
X165620Y-31994D01*
X165633Y-31979D01*
X165672Y-31883D01*
X165715Y-31789D01*
X165717Y-31769D01*
X165725Y-31751D01*
X165743Y-31584D01*
X165743Y-30216D01*
X165740Y-30196D01*
X165742Y-30177D01*
X165720Y-30075D01*
X165704Y-29973D01*
X165694Y-29956D01*
X165690Y-29936D01*
X165637Y-29847D01*
X165588Y-29756D01*
X165574Y-29742D01*
X165564Y-29725D01*
X165485Y-29658D01*
X165410Y-29586D01*
X165392Y-29578D01*
X165377Y-29565D01*
X165281Y-29526D01*
X165187Y-29483D01*
X165167Y-29481D01*
X165149Y-29473D01*
X164982Y-29455D01*
X161514Y-29455D01*
X161424Y-29469D01*
X161333Y-29477D01*
X161303Y-29489D01*
X161271Y-29494D01*
X161190Y-29537D01*
X161106Y-29573D01*
X161074Y-29599D01*
X161054Y-29610D01*
X161031Y-29633D01*
X160975Y-29678D01*
X160690Y-29963D01*
X160111Y-30298D01*
X159464Y-30471D01*
X152653Y-30471D01*
X152653Y-22192D01*
X152650Y-22172D01*
X152652Y-22153D01*
X152630Y-22051D01*
X152613Y-21949D01*
X152604Y-21932D01*
X152600Y-21912D01*
X152547Y-21823D01*
X152498Y-21732D01*
X152484Y-21718D01*
X152474Y-21701D01*
X152395Y-21634D01*
X152320Y-21563D01*
X152302Y-21554D01*
X152287Y-21541D01*
X152191Y-21502D01*
X152097Y-21459D01*
X152077Y-21457D01*
X152059Y-21449D01*
X151892Y-21431D01*
X151129Y-21431D01*
X151129Y-21429D01*
X151892Y-21429D01*
X151912Y-21426D01*
X151931Y-21428D01*
X152033Y-21406D01*
X152135Y-21389D01*
X152152Y-21380D01*
X152172Y-21376D01*
X152261Y-21323D01*
X152352Y-21274D01*
X152366Y-21260D01*
X152383Y-21250D01*
X152450Y-21171D01*
X152521Y-21096D01*
X152530Y-21078D01*
X152543Y-21063D01*
X152582Y-20967D01*
X152625Y-20873D01*
X152627Y-20853D01*
X152635Y-20835D01*
X152653Y-20668D01*
X152653Y-12389D01*
X156068Y-12389D01*
X156138Y-12378D01*
X156210Y-12376D01*
X156259Y-12358D01*
X156310Y-12350D01*
X156374Y-12316D01*
X156441Y-12291D01*
X156482Y-12259D01*
X156528Y-12234D01*
X156577Y-12182D01*
X156633Y-12138D01*
X156661Y-12094D01*
X156697Y-12056D01*
X156727Y-11991D01*
X156766Y-11931D01*
X156779Y-11880D01*
X156801Y-11833D01*
X156809Y-11762D01*
X156826Y-11692D01*
X156822Y-11640D01*
X156828Y-11589D01*
X156813Y-11518D01*
X156807Y-11447D01*
X156787Y-11399D01*
X156776Y-11348D01*
X156739Y-11287D01*
X156711Y-11221D01*
X156666Y-11165D01*
X156649Y-11137D01*
X156632Y-11122D01*
X156606Y-11090D01*
X155194Y-9678D01*
X155120Y-9625D01*
X155050Y-9565D01*
X155020Y-9553D01*
X154994Y-9534D01*
X154907Y-9507D01*
X154822Y-9473D01*
X154781Y-9469D01*
X154759Y-9462D01*
X154727Y-9463D01*
X154655Y-9455D01*
X142498Y-9455D01*
X141605Y-8562D01*
X141605Y5702D01*
X142498Y6595D01*
X148082Y6595D01*
X148102Y6598D01*
X148121Y6596D01*
X148223Y6618D01*
X148325Y6634D01*
X148342Y6644D01*
X148362Y6648D01*
X148451Y6701D01*
X148542Y6750D01*
X148556Y6764D01*
X148573Y6774D01*
X148640Y6853D01*
X148712Y6928D01*
X148720Y6946D01*
X148733Y6961D01*
X148772Y7057D01*
X148815Y7151D01*
X148817Y7171D01*
X148825Y7189D01*
X148843Y7356D01*
X148843Y9497D01*
X148840Y9517D01*
X148842Y9536D01*
X148820Y9638D01*
X148804Y9740D01*
X148794Y9757D01*
X148790Y9777D01*
X148737Y9866D01*
X148688Y9957D01*
X148674Y9971D01*
X148664Y9988D01*
X148585Y10055D01*
X148510Y10126D01*
X148492Y10135D01*
X148477Y10148D01*
X148381Y10186D01*
X148287Y10230D01*
X148267Y10232D01*
X148249Y10240D01*
X148082Y10258D01*
X146089Y10258D01*
X144317Y12030D01*
X144317Y17536D01*
X146089Y19308D01*
X165294Y19308D01*
X167210Y17392D01*
X167221Y17371D01*
X167236Y17357D01*
X167246Y17340D01*
X167324Y17273D01*
X167399Y17201D01*
X167417Y17193D01*
X167433Y17180D01*
X167529Y17141D01*
X167623Y17098D01*
X167642Y17096D01*
X167661Y17088D01*
X167828Y17070D01*
X169730Y17070D01*
X169820Y17084D01*
X169911Y17091D01*
X169941Y17104D01*
X169973Y17109D01*
X170054Y17152D01*
X170138Y17188D01*
X170170Y17213D01*
X170190Y17224D01*
X170213Y17248D01*
X170269Y17293D01*
X171480Y18504D01*
X171533Y18578D01*
X171593Y18648D01*
X171605Y18678D01*
X171624Y18704D01*
X171651Y18791D01*
X171685Y18876D01*
X171689Y18917D01*
X171696Y18939D01*
X171695Y18971D01*
X171703Y19043D01*
X171703Y48526D01*
X171702Y48535D01*
X171702Y48539D01*
X171698Y48559D01*
X171689Y48616D01*
X171681Y48707D01*
X171669Y48737D01*
X171664Y48769D01*
X171621Y48849D01*
X171585Y48933D01*
X171559Y48965D01*
X171548Y48986D01*
X171525Y49008D01*
X171480Y49064D01*
X168366Y52179D01*
X168308Y52221D01*
X168256Y52270D01*
X168208Y52292D01*
X168166Y52322D01*
X168098Y52343D01*
X168033Y52374D01*
X167981Y52379D01*
X167931Y52395D01*
X167859Y52393D01*
X167788Y52401D01*
X167737Y52390D01*
X167685Y52388D01*
X167618Y52364D01*
X167548Y52348D01*
X167503Y52322D01*
X167454Y52304D01*
X167398Y52259D01*
X167337Y52222D01*
X167303Y52183D01*
X167262Y52150D01*
X167223Y52090D01*
X167177Y52035D01*
X167157Y51987D01*
X167129Y51943D01*
X167112Y51874D01*
X167085Y51807D01*
X167077Y51736D01*
X167069Y51705D01*
X167071Y51681D01*
X167066Y51641D01*
X167066Y50130D01*
X165294Y48358D01*
X146089Y48358D01*
X144317Y50130D01*
X144317Y55636D01*
X146089Y57408D01*
X146095Y57408D01*
X146166Y57419D01*
X146238Y57421D01*
X146286Y57439D01*
X146338Y57447D01*
X146401Y57481D01*
X146469Y57505D01*
X146509Y57538D01*
X146555Y57562D01*
X146605Y57614D01*
X146661Y57659D01*
X146689Y57703D01*
X146725Y57741D01*
X146755Y57806D01*
X146794Y57866D01*
X146806Y57917D01*
X146828Y57964D01*
X146836Y58035D01*
X146854Y58105D01*
X146850Y58157D01*
X146855Y58208D01*
X146840Y58278D01*
X146834Y58350D01*
X146814Y58398D01*
X146803Y58449D01*
X146766Y58510D01*
X146738Y58576D01*
X146693Y58632D01*
X146677Y58660D01*
X146659Y58675D01*
X146633Y58707D01*
X139366Y65975D01*
X138928Y66412D01*
X138854Y66465D01*
X138785Y66525D01*
X138755Y66537D01*
X138728Y66556D01*
X138641Y66583D01*
X138557Y66617D01*
X138516Y66621D01*
X138493Y66628D01*
X138461Y66627D01*
X138390Y66635D01*
X134458Y66635D01*
X133565Y67528D01*
X133565Y79792D01*
X134458Y80685D01*
X145722Y80685D01*
X145896Y80510D01*
X145913Y80498D01*
X145925Y80483D01*
X146012Y80426D01*
X146096Y80366D01*
X146115Y80360D01*
X146132Y80350D01*
X146233Y80324D01*
X146331Y80294D01*
X146351Y80294D01*
X146371Y80290D01*
X146474Y80298D01*
X146577Y80300D01*
X146596Y80307D01*
X146616Y80309D01*
X146711Y80349D01*
X146808Y80385D01*
X146824Y80397D01*
X146842Y80405D01*
X146973Y80510D01*
X150196Y83733D01*
X155400Y83733D01*
X155447Y83740D01*
X155495Y83739D01*
X155568Y83760D01*
X155642Y83772D01*
X155685Y83795D01*
X155731Y83809D01*
X155793Y83852D01*
X155860Y83888D01*
X155893Y83922D01*
X155932Y83950D01*
X155977Y84011D01*
X156029Y84066D01*
X156049Y84109D01*
X156078Y84148D01*
X156101Y84220D01*
X156133Y84289D01*
X156138Y84337D01*
X156153Y84382D01*
X156152Y84458D01*
X156160Y84533D01*
X156150Y84580D01*
X156149Y84628D01*
X156124Y84700D01*
X156108Y84774D01*
X156083Y84815D01*
X156067Y84860D01*
X156020Y84920D01*
X155981Y84985D01*
X155945Y85016D01*
X155915Y85054D01*
X155812Y85130D01*
X155795Y85145D01*
X155788Y85147D01*
X155780Y85153D01*
X155313Y85423D01*
X154840Y85896D01*
X154506Y86475D01*
X154332Y87122D01*
X154332Y90933D01*
X161611Y90933D01*
X161631Y90936D01*
X161651Y90934D01*
X161752Y90956D01*
X161854Y90973D01*
X161871Y90982D01*
X161891Y90986D01*
X161980Y91039D01*
X162071Y91088D01*
X162085Y91102D01*
X162102Y91112D01*
X162169Y91191D01*
X162241Y91266D01*
X162249Y91284D01*
X162262Y91299D01*
X162301Y91395D01*
X162344Y91489D01*
X162346Y91509D01*
X162354Y91527D01*
X162372Y91694D01*
X162372Y92457D01*
X162374Y92457D01*
X162374Y91694D01*
X162377Y91674D01*
X162375Y91655D01*
X162397Y91553D01*
X162414Y91451D01*
X162423Y91434D01*
X162427Y91414D01*
X162481Y91325D01*
X162529Y91234D01*
X162543Y91220D01*
X162554Y91203D01*
X162632Y91136D01*
X162707Y91065D01*
X162725Y91056D01*
X162740Y91043D01*
X162837Y91004D01*
X162930Y90961D01*
X162950Y90959D01*
X162969Y90951D01*
X163135Y90933D01*
X170414Y90933D01*
X170414Y87121D01*
X170241Y86475D01*
X169906Y85896D01*
X169433Y85423D01*
X168854Y85088D01*
X168208Y84915D01*
X164639Y84915D01*
X164569Y84904D01*
X164497Y84902D01*
X164448Y84884D01*
X164397Y84876D01*
X164333Y84842D01*
X164266Y84817D01*
X164225Y84785D01*
X164179Y84760D01*
X164130Y84708D01*
X164074Y84664D01*
X164046Y84620D01*
X164010Y84582D01*
X163980Y84517D01*
X163941Y84457D01*
X163928Y84406D01*
X163906Y84359D01*
X163898Y84288D01*
X163881Y84218D01*
X163885Y84166D01*
X163879Y84115D01*
X163894Y84044D01*
X163900Y83973D01*
X163920Y83925D01*
X163931Y83874D01*
X163968Y83813D01*
X163996Y83747D01*
X164041Y83691D01*
X164058Y83663D01*
X164075Y83648D01*
X164101Y83616D01*
X166809Y80908D01*
X166883Y80855D01*
X166953Y80795D01*
X166983Y80783D01*
X167009Y80764D01*
X167096Y80737D01*
X167181Y80703D01*
X167222Y80699D01*
X167244Y80692D01*
X167276Y80693D01*
X167347Y80685D01*
X178742Y80685D01*
X179635Y79792D01*
X179635Y67528D01*
X178742Y66635D01*
X167478Y66635D01*
X166585Y67528D01*
X166585Y74348D01*
X166571Y74438D01*
X166563Y74529D01*
X166551Y74559D01*
X166546Y74591D01*
X166503Y74672D01*
X166467Y74756D01*
X166441Y74788D01*
X166430Y74808D01*
X166407Y74831D01*
X166362Y74887D01*
X164914Y76335D01*
X164856Y76377D01*
X164804Y76426D01*
X164757Y76448D01*
X164715Y76478D01*
X164646Y76499D01*
X164581Y76530D01*
X164529Y76535D01*
X164479Y76551D01*
X164408Y76549D01*
X164337Y76557D01*
X164286Y76546D01*
X164234Y76544D01*
X164166Y76520D01*
X164096Y76504D01*
X164051Y76478D01*
X164003Y76460D01*
X163947Y76415D01*
X163885Y76378D01*
X163851Y76339D01*
X163811Y76306D01*
X163772Y76246D01*
X163725Y76191D01*
X163706Y76143D01*
X163678Y76099D01*
X163660Y76030D01*
X163633Y75963D01*
X163625Y75892D01*
X163617Y75861D01*
X163619Y75837D01*
X163615Y75796D01*
X163615Y67528D01*
X162722Y66635D01*
X162215Y66635D01*
X162144Y66624D01*
X162073Y66622D01*
X162024Y66604D01*
X161972Y66596D01*
X161909Y66562D01*
X161842Y66537D01*
X161801Y66505D01*
X161755Y66480D01*
X161706Y66429D01*
X161649Y66384D01*
X161621Y66340D01*
X161585Y66302D01*
X161555Y66237D01*
X161516Y66177D01*
X161504Y66126D01*
X161482Y66079D01*
X161474Y66008D01*
X161456Y65938D01*
X161460Y65886D01*
X161455Y65835D01*
X161470Y65764D01*
X161476Y65693D01*
X161496Y65645D01*
X161507Y65594D01*
X161544Y65533D01*
X161572Y65467D01*
X161617Y65411D01*
X161633Y65383D01*
X161651Y65368D01*
X161677Y65336D01*
X174714Y52298D01*
X176277Y50736D01*
X176277Y16833D01*
X171940Y12496D01*
X167828Y12496D01*
X167808Y12493D01*
X167788Y12495D01*
X167687Y12473D01*
X167585Y12456D01*
X167567Y12447D01*
X167548Y12443D01*
X167459Y12390D01*
X167367Y12341D01*
X167354Y12327D01*
X167337Y12317D01*
X167269Y12238D01*
X167198Y12163D01*
X167197Y12161D01*
X165294Y10258D01*
X154716Y10258D01*
X154626Y10243D01*
X154535Y10236D01*
X154505Y10224D01*
X154473Y10218D01*
X154393Y10176D01*
X154309Y10140D01*
X154277Y10114D01*
X154256Y10103D01*
X154234Y10080D01*
X154178Y10035D01*
X153640Y9497D01*
X153587Y9423D01*
X153527Y9354D01*
X153515Y9324D01*
X153496Y9297D01*
X153469Y9210D01*
X153435Y9126D01*
X153431Y9085D01*
X153424Y9062D01*
X153425Y9030D01*
X153417Y8959D01*
X153417Y7356D01*
X153420Y7336D01*
X153418Y7317D01*
X153440Y7215D01*
X153456Y7113D01*
X153466Y7096D01*
X153470Y7076D01*
X153523Y6987D01*
X153572Y6896D01*
X153586Y6882D01*
X153596Y6865D01*
X153675Y6798D01*
X153750Y6726D01*
X153768Y6718D01*
X153783Y6705D01*
X153879Y6666D01*
X153973Y6623D01*
X153993Y6621D01*
X154011Y6613D01*
X154178Y6595D01*
X159796Y6595D01*
X159886Y6609D01*
X159977Y6617D01*
X160007Y6629D01*
X160039Y6634D01*
X160120Y6677D01*
X160204Y6713D01*
X160236Y6739D01*
X160256Y6750D01*
X160279Y6773D01*
X160335Y6818D01*
X160620Y7103D01*
X161199Y7438D01*
X161846Y7611D01*
X168657Y7611D01*
X168657Y-668D01*
X168660Y-688D01*
X168658Y-707D01*
X168680Y-809D01*
X168697Y-911D01*
X168706Y-928D01*
X168710Y-948D01*
X168763Y-1037D01*
X168812Y-1128D01*
X168826Y-1142D01*
X168836Y-1159D01*
X168915Y-1226D01*
X168990Y-1297D01*
X169008Y-1306D01*
X169023Y-1319D01*
X169119Y-1358D01*
X169213Y-1401D01*
X169233Y-1403D01*
X169251Y-1411D01*
X169418Y-1429D01*
X170181Y-1429D01*
X170181Y-1431D01*
X169418Y-1431D01*
X169398Y-1434D01*
X169379Y-1432D01*
X169277Y-1454D01*
X169175Y-1471D01*
X169158Y-1480D01*
X169138Y-1484D01*
X169049Y-1537D01*
X168958Y-1586D01*
X168944Y-1600D01*
X168927Y-1610D01*
X168860Y-1689D01*
X168789Y-1764D01*
X168780Y-1782D01*
X168767Y-1797D01*
X168728Y-1893D01*
X168685Y-1987D01*
X168683Y-2007D01*
X168675Y-2025D01*
X168657Y-2192D01*
X168657Y-10471D01*
X164292Y-10471D01*
X164222Y-10482D01*
X164150Y-10484D01*
X164101Y-10502D01*
X164050Y-10510D01*
X163986Y-10544D01*
X163919Y-10569D01*
X163878Y-10601D01*
X163832Y-10626D01*
X163783Y-10678D01*
X163727Y-10722D01*
X163699Y-10766D01*
X163663Y-10804D01*
X163633Y-10869D01*
X163594Y-10929D01*
X163581Y-10980D01*
X163559Y-11027D01*
X163551Y-11098D01*
X163534Y-11168D01*
X163538Y-11220D01*
X163532Y-11271D01*
X163547Y-11342D01*
X163553Y-11413D01*
X163573Y-11461D01*
X163584Y-11512D01*
X163621Y-11573D01*
X163649Y-11639D01*
X163694Y-11695D01*
X163711Y-11723D01*
X163728Y-11738D01*
X163754Y-11770D01*
X165166Y-13182D01*
X165240Y-13235D01*
X165310Y-13295D01*
X165340Y-13307D01*
X165366Y-13326D01*
X165453Y-13353D01*
X165538Y-13387D01*
X165579Y-13391D01*
X165601Y-13398D01*
X165633Y-13397D01*
X165705Y-13405D01*
X178812Y-13405D01*
X179705Y-14298D01*
X179705Y-28562D01*
X178812Y-29455D01*
X171078Y-29455D01*
X171058Y-29458D01*
X171039Y-29456D01*
X170937Y-29478D01*
X170835Y-29494D01*
X170818Y-29504D01*
X170798Y-29508D01*
X170709Y-29561D01*
X170618Y-29610D01*
X170604Y-29624D01*
X170587Y-29634D01*
X170520Y-29713D01*
X170448Y-29788D01*
X170440Y-29806D01*
X170427Y-29821D01*
X170388Y-29917D01*
X170345Y-30011D01*
X170343Y-30031D01*
X170335Y-30049D01*
X170317Y-30216D01*
X170317Y-31584D01*
X170320Y-31604D01*
X170318Y-31623D01*
X170340Y-31725D01*
X170356Y-31827D01*
X170366Y-31844D01*
X170370Y-31864D01*
X170423Y-31953D01*
X170472Y-32044D01*
X170486Y-32058D01*
X170496Y-32075D01*
X170575Y-32142D01*
X170650Y-32214D01*
X170668Y-32222D01*
X170683Y-32235D01*
X170779Y-32274D01*
X170873Y-32317D01*
X170893Y-32319D01*
X170911Y-32327D01*
X171078Y-32345D01*
X173662Y-32345D01*
X174555Y-33238D01*
X174555Y-45502D01*
X173662Y-46395D01*
X164555Y-46395D01*
X164464Y-46409D01*
X164374Y-46417D01*
X164344Y-46429D01*
X164312Y-46434D01*
X164231Y-46477D01*
X164147Y-46513D01*
X164115Y-46539D01*
X164094Y-46550D01*
X164072Y-46573D01*
X164016Y-46618D01*
X140916Y-69717D01*
X140875Y-69776D01*
X140825Y-69827D01*
X140817Y-69845D01*
X140804Y-69861D01*
X140792Y-69891D01*
X140773Y-69917D01*
X140752Y-69987D01*
X140722Y-70051D01*
X140720Y-70070D01*
X140712Y-70089D01*
X140707Y-70130D01*
X140701Y-70152D01*
X140701Y-70184D01*
X140693Y-70256D01*
X140693Y-70696D01*
X137868Y-73521D01*
X137818Y-73591D01*
X137777Y-73634D01*
X137772Y-73646D01*
X137756Y-73664D01*
X137744Y-73694D01*
X137725Y-73720D01*
X137701Y-73797D01*
X137674Y-73857D01*
X137672Y-73873D01*
X137664Y-73892D01*
X137659Y-73933D01*
X137653Y-73955D01*
X137653Y-73988D01*
X137646Y-74059D01*
X137646Y-75937D01*
X137630Y-75999D01*
X137599Y-76098D01*
X137600Y-76118D01*
X137595Y-76137D01*
X137603Y-76240D01*
X137606Y-76344D01*
X137613Y-76363D01*
X137614Y-76383D01*
X137646Y-76456D01*
X137646Y-78344D01*
X137660Y-78434D01*
X137667Y-78525D01*
X137680Y-78555D01*
X137685Y-78587D01*
X137728Y-78668D01*
X137764Y-78752D01*
X137789Y-78784D01*
X137800Y-78804D01*
X137824Y-78827D01*
X137868Y-78883D01*
X183858Y-124872D01*
X183932Y-124925D01*
X184002Y-124985D01*
X184032Y-124997D01*
X184058Y-125016D01*
X184145Y-125043D01*
X184230Y-125077D01*
X184271Y-125081D01*
X184293Y-125088D01*
X184325Y-125087D01*
X184397Y-125095D01*
X197792Y-125095D01*
X198685Y-125988D01*
X198685Y-143252D01*
X197638Y-144299D01*
X197585Y-144373D01*
X197525Y-144442D01*
X197513Y-144472D01*
X197494Y-144498D01*
X197467Y-144585D01*
X197433Y-144670D01*
X197429Y-144711D01*
X197422Y-144733D01*
X197423Y-144766D01*
X197415Y-144837D01*
X197415Y-162302D01*
X196522Y-163195D01*
X182258Y-163195D01*
X181365Y-162302D01*
X181365Y-156718D01*
X181362Y-156698D01*
X181364Y-156679D01*
X181342Y-156577D01*
X181326Y-156475D01*
X181316Y-156458D01*
X181312Y-156438D01*
X181259Y-156349D01*
X181210Y-156258D01*
X181196Y-156244D01*
X181186Y-156227D01*
X181107Y-156160D01*
X181032Y-156088D01*
X181014Y-156080D01*
X180999Y-156067D01*
X180903Y-156028D01*
X180809Y-155985D01*
X180789Y-155983D01*
X180771Y-155975D01*
X180604Y-155957D01*
X179196Y-155957D01*
X179176Y-155960D01*
X179157Y-155958D01*
X179055Y-155980D01*
X178953Y-155996D01*
X178936Y-156006D01*
X178916Y-156010D01*
X178827Y-156063D01*
X178736Y-156112D01*
X178722Y-156126D01*
X178705Y-156136D01*
X178638Y-156215D01*
X178566Y-156290D01*
X178558Y-156308D01*
X178545Y-156323D01*
X178506Y-156419D01*
X178463Y-156513D01*
X178461Y-156533D01*
X178453Y-156551D01*
X178435Y-156718D01*
X178435Y-164065D01*
X178454Y-164182D01*
X178472Y-164300D01*
X178474Y-164304D01*
X178474Y-164308D01*
X178530Y-164412D01*
X178585Y-164519D01*
X178588Y-164521D01*
X178590Y-164525D01*
X178676Y-164607D01*
X178761Y-164690D01*
X178765Y-164692D01*
X178768Y-164695D01*
X178875Y-164744D01*
X178983Y-164796D01*
X178987Y-164796D01*
X178991Y-164798D01*
X179107Y-164811D01*
X179227Y-164826D01*
X179232Y-164825D01*
X179235Y-164825D01*
X179249Y-164822D01*
X179393Y-164800D01*
X179696Y-164719D01*
X185007Y-164719D01*
X185007Y-173737D01*
X177489Y-173737D01*
X177489Y-166926D01*
X177656Y-166303D01*
X177668Y-166184D01*
X177681Y-166067D01*
X177680Y-166062D01*
X177681Y-166058D01*
X177654Y-165943D01*
X177629Y-165826D01*
X177627Y-165823D01*
X177626Y-165819D01*
X177564Y-165717D01*
X177503Y-165615D01*
X177499Y-165612D01*
X177497Y-165609D01*
X177407Y-165533D01*
X177316Y-165455D01*
X177312Y-165454D01*
X177309Y-165451D01*
X177200Y-165408D01*
X177087Y-165363D01*
X177082Y-165363D01*
X177079Y-165361D01*
X177066Y-165361D01*
X176921Y-165345D01*
X175109Y-165345D01*
X175038Y-165356D01*
X174966Y-165358D01*
X174917Y-165376D01*
X174866Y-165384D01*
X174803Y-165418D01*
X174735Y-165443D01*
X174695Y-165475D01*
X174649Y-165500D01*
X174599Y-165551D01*
X174543Y-165596D01*
X174515Y-165640D01*
X174479Y-165678D01*
X174449Y-165743D01*
X174410Y-165803D01*
X174398Y-165854D01*
X174376Y-165901D01*
X174368Y-165972D01*
X174350Y-166042D01*
X174354Y-166094D01*
X174349Y-166145D01*
X174364Y-166216D01*
X174369Y-166287D01*
X174390Y-166335D01*
X174401Y-166386D01*
X174438Y-166447D01*
X174466Y-166513D01*
X174511Y-166569D01*
X174527Y-166597D01*
X174545Y-166612D01*
X174555Y-166625D01*
X174555Y-183892D01*
X173662Y-184785D01*
X159398Y-184785D01*
X158505Y-183892D01*
X158505Y-166628D01*
X159495Y-165638D01*
X159507Y-165622D01*
X159523Y-165610D01*
X159579Y-165522D01*
X159639Y-165439D01*
X159645Y-165420D01*
X159656Y-165403D01*
X159681Y-165302D01*
X159711Y-165203D01*
X159711Y-165184D01*
X159716Y-165164D01*
X159708Y-165061D01*
X159705Y-164958D01*
X159698Y-164939D01*
X159697Y-164919D01*
X159656Y-164824D01*
X159621Y-164727D01*
X159608Y-164711D01*
X159600Y-164693D01*
X159495Y-164562D01*
X159385Y-164452D01*
X159385Y-158800D01*
X159382Y-158781D01*
X159384Y-158761D01*
X159362Y-158660D01*
X159346Y-158558D01*
X159336Y-158540D01*
X159332Y-158521D01*
X159279Y-158432D01*
X159230Y-158340D01*
X159216Y-158327D01*
X159206Y-158309D01*
X159127Y-158242D01*
X159052Y-158171D01*
X159034Y-158163D01*
X159019Y-158150D01*
X158923Y-158111D01*
X158829Y-158067D01*
X158809Y-158065D01*
X158791Y-158058D01*
X158624Y-158039D01*
X157327Y-158039D01*
X157237Y-158054D01*
X157146Y-158061D01*
X157116Y-158074D01*
X157084Y-158079D01*
X157003Y-158122D01*
X156920Y-158157D01*
X156887Y-158183D01*
X156867Y-158194D01*
X156845Y-158217D01*
X156789Y-158262D01*
X154824Y-160227D01*
X143888Y-160227D01*
X142886Y-159225D01*
X142828Y-159183D01*
X142776Y-159134D01*
X142729Y-159112D01*
X142687Y-159081D01*
X142618Y-159060D01*
X142553Y-159030D01*
X142501Y-159024D01*
X142451Y-159009D01*
X142380Y-159011D01*
X142309Y-159003D01*
X142258Y-159014D01*
X142206Y-159015D01*
X142138Y-159040D01*
X142068Y-159055D01*
X142023Y-159082D01*
X141975Y-159100D01*
X141919Y-159145D01*
X141857Y-159181D01*
X141823Y-159221D01*
X141783Y-159254D01*
X141744Y-159314D01*
X141697Y-159368D01*
X141678Y-159417D01*
X141650Y-159460D01*
X141632Y-159530D01*
X141605Y-159596D01*
X141597Y-159668D01*
X141589Y-159699D01*
X141591Y-159722D01*
X141587Y-159763D01*
X141587Y-170742D01*
X141590Y-170761D01*
X141588Y-170780D01*
X141599Y-170831D01*
X141600Y-170884D01*
X141618Y-170933D01*
X141626Y-170984D01*
X141636Y-171003D01*
X141640Y-171020D01*
X141666Y-171063D01*
X141685Y-171115D01*
X141717Y-171156D01*
X141742Y-171202D01*
X141758Y-171217D01*
X141766Y-171231D01*
X141803Y-171263D01*
X141838Y-171307D01*
X141882Y-171335D01*
X141920Y-171371D01*
X141941Y-171381D01*
X141953Y-171391D01*
X141997Y-171409D01*
X142045Y-171440D01*
X142096Y-171453D01*
X142143Y-171475D01*
X142167Y-171477D01*
X142181Y-171483D01*
X142245Y-171490D01*
X142284Y-171500D01*
X142313Y-171498D01*
X142348Y-171502D01*
X142349Y-171502D01*
X142364Y-171499D01*
X142387Y-171502D01*
X142458Y-171487D01*
X142529Y-171481D01*
X142562Y-171467D01*
X142592Y-171462D01*
X142607Y-171454D01*
X142628Y-171450D01*
X142689Y-171413D01*
X142755Y-171385D01*
X142789Y-171357D01*
X142809Y-171347D01*
X142822Y-171334D01*
X142839Y-171323D01*
X142854Y-171306D01*
X142886Y-171280D01*
X143888Y-170278D01*
X154824Y-170278D01*
X156581Y-172035D01*
X156581Y-177470D01*
X154824Y-179227D01*
X143888Y-179227D01*
X142886Y-178225D01*
X142828Y-178183D01*
X142776Y-178134D01*
X142729Y-178112D01*
X142687Y-178081D01*
X142618Y-178060D01*
X142553Y-178030D01*
X142501Y-178024D01*
X142451Y-178009D01*
X142380Y-178011D01*
X142309Y-178003D01*
X142258Y-178014D01*
X142206Y-178015D01*
X142138Y-178040D01*
X142068Y-178055D01*
X142023Y-178082D01*
X141975Y-178100D01*
X141919Y-178145D01*
X141857Y-178181D01*
X141823Y-178221D01*
X141783Y-178254D01*
X141744Y-178314D01*
X141697Y-178368D01*
X141678Y-178417D01*
X141650Y-178460D01*
X141632Y-178530D01*
X141605Y-178596D01*
X141597Y-178668D01*
X141589Y-178699D01*
X141591Y-178722D01*
X141587Y-178763D01*
X141587Y-181217D01*
X141601Y-181308D01*
X141609Y-181398D01*
X141621Y-181428D01*
X141626Y-181460D01*
X141669Y-181541D01*
X141705Y-181625D01*
X141731Y-181657D01*
X141742Y-181678D01*
X141765Y-181700D01*
X141810Y-181756D01*
X153471Y-193417D01*
X153508Y-193444D01*
X153539Y-193477D01*
X153607Y-193515D01*
X153670Y-193560D01*
X153714Y-193574D01*
X153755Y-193596D01*
X153831Y-193610D01*
X153905Y-193633D01*
X153951Y-193631D01*
X153997Y-193640D01*
X154074Y-193628D01*
X154151Y-193626D01*
X154194Y-193611D01*
X154240Y-193604D01*
X154309Y-193569D01*
X154382Y-193542D01*
X154418Y-193513D01*
X154459Y-193492D01*
X154514Y-193437D01*
X154574Y-193388D01*
X154599Y-193349D01*
X154631Y-193317D01*
X154697Y-193197D01*
X154707Y-193181D01*
X154709Y-193176D01*
X154712Y-193170D01*
X154807Y-192940D01*
X157380Y-190367D01*
X160741Y-188975D01*
X164379Y-188975D01*
X167740Y-190367D01*
X170313Y-192940D01*
X171705Y-196301D01*
X171705Y-215179D01*
X170313Y-218540D01*
X167740Y-221113D01*
X164379Y-222505D01*
X160741Y-222505D01*
X157380Y-221113D01*
X154807Y-218540D01*
X153415Y-215179D01*
X153415Y-200144D01*
X153401Y-200054D01*
X153393Y-199963D01*
X153381Y-199934D01*
X153376Y-199902D01*
X153333Y-199821D01*
X153297Y-199737D01*
X153271Y-199705D01*
X153260Y-199684D01*
X153237Y-199662D01*
X153192Y-199606D01*
X146478Y-192892D01*
X146399Y-192835D01*
X146324Y-192773D01*
X146299Y-192763D01*
X146278Y-192748D01*
X146185Y-192720D01*
X146094Y-192685D01*
X146068Y-192683D01*
X146043Y-192676D01*
X145946Y-192678D01*
X145848Y-192674D01*
X145823Y-192681D01*
X145797Y-192682D01*
X145705Y-192716D01*
X145612Y-192743D01*
X145591Y-192758D01*
X145566Y-192767D01*
X145490Y-192827D01*
X145410Y-192883D01*
X145394Y-192904D01*
X145374Y-192920D01*
X145321Y-193002D01*
X145263Y-193080D01*
X145255Y-193105D01*
X145241Y-193127D01*
X145217Y-193222D01*
X145187Y-193314D01*
X145187Y-193340D01*
X145181Y-193366D01*
X145189Y-193463D01*
X145189Y-193560D01*
X145199Y-193592D01*
X145200Y-193611D01*
X145213Y-193641D01*
X145236Y-193721D01*
X146305Y-196301D01*
X146305Y-215179D01*
X144913Y-218540D01*
X142340Y-221113D01*
X138979Y-222505D01*
X135341Y-222505D01*
X131980Y-221113D01*
X129407Y-218540D01*
X128015Y-215179D01*
X128015Y-196301D01*
X129407Y-192940D01*
X131980Y-190367D01*
X133495Y-189740D01*
X133595Y-189678D01*
X133695Y-189618D01*
X133699Y-189613D01*
X133704Y-189610D01*
X133779Y-189521D01*
X133855Y-189431D01*
X133857Y-189425D01*
X133861Y-189421D01*
X133903Y-189313D01*
X133947Y-189203D01*
X133948Y-189196D01*
X133949Y-189191D01*
X133950Y-189173D01*
X133965Y-189036D01*
X133965Y-171834D01*
X133954Y-171763D01*
X133952Y-171691D01*
X133934Y-171642D01*
X133926Y-171591D01*
X133892Y-171528D01*
X133867Y-171460D01*
X133835Y-171420D01*
X133810Y-171374D01*
X133759Y-171324D01*
X133714Y-171268D01*
X133670Y-171240D01*
X133632Y-171204D01*
X133567Y-171174D01*
X133507Y-171135D01*
X133456Y-171123D01*
X133409Y-171101D01*
X133338Y-171093D01*
X133268Y-171075D01*
X133216Y-171079D01*
X133165Y-171073D01*
X133094Y-171089D01*
X133023Y-171094D01*
X132975Y-171115D01*
X132924Y-171126D01*
X132863Y-171163D01*
X132797Y-171191D01*
X132741Y-171235D01*
X132713Y-171252D01*
X132698Y-171270D01*
X132666Y-171295D01*
X131904Y-172057D01*
X131851Y-172131D01*
X131791Y-172201D01*
X131779Y-172231D01*
X131760Y-172257D01*
X131733Y-172344D01*
X131699Y-172429D01*
X131695Y-172470D01*
X131688Y-172492D01*
X131689Y-172524D01*
X131681Y-172596D01*
X131681Y-177470D01*
X129924Y-179227D01*
X118988Y-179227D01*
X117231Y-177470D01*
X117231Y-172035D01*
X118053Y-171213D01*
X118122Y-171118D01*
X118193Y-171021D01*
X118194Y-171017D01*
X118196Y-171014D01*
X118231Y-170901D01*
X118268Y-170787D01*
X118268Y-170782D01*
X118269Y-170779D01*
X118266Y-170660D01*
X118264Y-170541D01*
X118262Y-170537D01*
X118262Y-170533D01*
X118222Y-170421D01*
X118182Y-170309D01*
X118179Y-170306D01*
X118178Y-170302D01*
X118103Y-170208D01*
X118030Y-170115D01*
X118026Y-170112D01*
X118024Y-170110D01*
X118013Y-170102D01*
X117895Y-170016D01*
X117765Y-169941D01*
X117018Y-169193D01*
X116489Y-168277D01*
X116215Y-167256D01*
X116215Y-166727D01*
X123743Y-166727D01*
X123763Y-166723D01*
X123782Y-166726D01*
X123884Y-166704D01*
X123986Y-166687D01*
X124003Y-166678D01*
X124023Y-166673D01*
X124112Y-166620D01*
X124203Y-166572D01*
X124217Y-166557D01*
X124234Y-166547D01*
X124301Y-166468D01*
X124372Y-166393D01*
X124381Y-166375D01*
X124394Y-166360D01*
X124432Y-166264D01*
X124476Y-166170D01*
X124478Y-166151D01*
X124486Y-166132D01*
X124504Y-165965D01*
X124504Y-164539D01*
X124501Y-164520D01*
X124503Y-164500D01*
X124481Y-164399D01*
X124464Y-164297D01*
X124455Y-164279D01*
X124451Y-164260D01*
X124398Y-164171D01*
X124349Y-164079D01*
X124335Y-164066D01*
X124325Y-164048D01*
X124246Y-163981D01*
X124171Y-163910D01*
X124153Y-163901D01*
X124138Y-163889D01*
X124042Y-163850D01*
X123948Y-163806D01*
X123928Y-163804D01*
X123910Y-163797D01*
X123743Y-163778D01*
X116215Y-163778D01*
X116215Y-163249D01*
X116489Y-162227D01*
X117018Y-161312D01*
X117765Y-160564D01*
X117895Y-160489D01*
X117988Y-160413D01*
X118080Y-160339D01*
X118082Y-160336D01*
X118086Y-160333D01*
X118149Y-160232D01*
X118213Y-160132D01*
X118214Y-160128D01*
X118216Y-160125D01*
X118244Y-160010D01*
X118273Y-159894D01*
X118273Y-159890D01*
X118274Y-159886D01*
X118263Y-159767D01*
X118254Y-159649D01*
X118252Y-159645D01*
X118252Y-159641D01*
X118204Y-159531D01*
X118158Y-159422D01*
X118155Y-159419D01*
X118153Y-159415D01*
X118144Y-159405D01*
X118053Y-159291D01*
X117023Y-158262D01*
X116949Y-158209D01*
X116880Y-158150D01*
X116850Y-158137D01*
X116824Y-158119D01*
X116737Y-158092D01*
X116652Y-158058D01*
X116611Y-158053D01*
X116589Y-158046D01*
X116556Y-158047D01*
X116485Y-158039D01*
X114036Y-158039D01*
X114016Y-158042D01*
X113997Y-158040D01*
X113895Y-158062D01*
X113793Y-158079D01*
X113776Y-158088D01*
X113756Y-158092D01*
X113667Y-158146D01*
X113576Y-158194D01*
X113562Y-158208D01*
X113545Y-158219D01*
X113478Y-158297D01*
X113406Y-158372D01*
X113398Y-158390D01*
X113385Y-158406D01*
X113346Y-158502D01*
X113303Y-158595D01*
X113301Y-158615D01*
X113293Y-158634D01*
X113275Y-158800D01*
X113275Y-166112D01*
X112920Y-166467D01*
X112908Y-166483D01*
X112892Y-166495D01*
X112836Y-166583D01*
X112776Y-166666D01*
X112770Y-166685D01*
X112759Y-166702D01*
X112734Y-166803D01*
X112704Y-166902D01*
X112704Y-166921D01*
X112699Y-166941D01*
X112707Y-167044D01*
X112710Y-167147D01*
X112717Y-167166D01*
X112718Y-167186D01*
X112759Y-167281D01*
X112794Y-167378D01*
X112807Y-167394D01*
X112815Y-167412D01*
X112920Y-167543D01*
X113275Y-167898D01*
X113275Y-185162D01*
X112382Y-186055D01*
X108298Y-186055D01*
X108278Y-186058D01*
X108259Y-186056D01*
X108157Y-186078D01*
X108055Y-186094D01*
X108038Y-186104D01*
X108018Y-186108D01*
X107929Y-186161D01*
X107838Y-186210D01*
X107824Y-186224D01*
X107807Y-186234D01*
X107740Y-186313D01*
X107668Y-186388D01*
X107660Y-186406D01*
X107647Y-186421D01*
X107608Y-186517D01*
X107565Y-186611D01*
X107563Y-186631D01*
X107555Y-186649D01*
X107537Y-186816D01*
X107537Y-187761D01*
X107539Y-187777D01*
X107537Y-187792D01*
X107559Y-187898D01*
X107576Y-188004D01*
X107584Y-188018D01*
X107587Y-188033D01*
X107641Y-188126D01*
X107692Y-188221D01*
X107703Y-188232D01*
X107711Y-188246D01*
X107792Y-188317D01*
X107870Y-188390D01*
X107884Y-188397D01*
X107896Y-188408D01*
X107996Y-188449D01*
X108093Y-188494D01*
X108109Y-188496D01*
X108124Y-188502D01*
X108231Y-188509D01*
X108337Y-188521D01*
X108353Y-188518D01*
X108369Y-188519D01*
X108533Y-188485D01*
X109381Y-188209D01*
X110237Y-188074D01*
X110237Y-204217D01*
X101599Y-204217D01*
X101599Y-197320D01*
X101849Y-195741D01*
X101956Y-195414D01*
X101966Y-195347D01*
X101986Y-195282D01*
X101984Y-195226D01*
X101993Y-195171D01*
X101981Y-195104D01*
X101979Y-195036D01*
X101960Y-194984D01*
X101951Y-194929D01*
X101918Y-194869D01*
X101895Y-194805D01*
X101860Y-194762D01*
X101833Y-194713D01*
X101784Y-194666D01*
X101741Y-194613D01*
X101694Y-194583D01*
X101653Y-194545D01*
X101591Y-194517D01*
X101534Y-194480D01*
X101480Y-194467D01*
X101429Y-194444D01*
X101361Y-194437D01*
X101296Y-194420D01*
X101240Y-194425D01*
X101184Y-194419D01*
X101118Y-194434D01*
X101051Y-194439D01*
X100999Y-194461D01*
X100944Y-194474D01*
X100887Y-194509D01*
X100824Y-194536D01*
X100763Y-194585D01*
X100735Y-194602D01*
X100721Y-194618D01*
X100693Y-194641D01*
X95728Y-199606D01*
X95675Y-199680D01*
X95615Y-199750D01*
X95603Y-199780D01*
X95584Y-199806D01*
X95557Y-199893D01*
X95523Y-199978D01*
X95519Y-200019D01*
X95512Y-200041D01*
X95513Y-200073D01*
X95505Y-200144D01*
X95505Y-215179D01*
X94113Y-218540D01*
X91540Y-221113D01*
X88179Y-222505D01*
X84541Y-222505D01*
X81180Y-221113D01*
X78607Y-218540D01*
X77215Y-215179D01*
X77215Y-196301D01*
X78607Y-192940D01*
X81180Y-190367D01*
X84541Y-188975D01*
X88179Y-188975D01*
X91540Y-190367D01*
X94113Y-192940D01*
X94208Y-193170D01*
X94232Y-193209D01*
X94248Y-193252D01*
X94296Y-193313D01*
X94337Y-193379D01*
X94373Y-193408D01*
X94401Y-193444D01*
X94467Y-193486D01*
X94527Y-193536D01*
X94570Y-193552D01*
X94608Y-193577D01*
X94684Y-193596D01*
X94756Y-193624D01*
X94802Y-193626D01*
X94847Y-193637D01*
X94924Y-193631D01*
X95002Y-193634D01*
X95046Y-193621D01*
X95092Y-193618D01*
X95164Y-193587D01*
X95238Y-193566D01*
X95276Y-193540D01*
X95318Y-193522D01*
X95425Y-193436D01*
X95440Y-193425D01*
X95443Y-193421D01*
X95449Y-193417D01*
X101512Y-187354D01*
X101554Y-187296D01*
X101603Y-187244D01*
X101625Y-187197D01*
X101655Y-187155D01*
X101676Y-187086D01*
X101707Y-187021D01*
X101712Y-186969D01*
X101728Y-186919D01*
X101726Y-186848D01*
X101734Y-186777D01*
X101723Y-186726D01*
X101721Y-186674D01*
X101697Y-186606D01*
X101682Y-186536D01*
X101655Y-186492D01*
X101637Y-186443D01*
X101592Y-186387D01*
X101555Y-186325D01*
X101516Y-186291D01*
X101483Y-186251D01*
X101423Y-186212D01*
X101368Y-186165D01*
X101320Y-186146D01*
X101276Y-186118D01*
X101207Y-186100D01*
X101140Y-186073D01*
X101069Y-186065D01*
X101038Y-186057D01*
X101014Y-186059D01*
X100974Y-186055D01*
X98118Y-186055D01*
X97225Y-185162D01*
X97225Y-167898D01*
X97580Y-167543D01*
X97592Y-167527D01*
X97608Y-167515D01*
X97664Y-167428D01*
X97724Y-167344D01*
X97730Y-167325D01*
X97741Y-167308D01*
X97766Y-167207D01*
X97796Y-167108D01*
X97796Y-167089D01*
X97801Y-167069D01*
X97793Y-166966D01*
X97790Y-166863D01*
X97783Y-166844D01*
X97782Y-166824D01*
X97741Y-166729D01*
X97706Y-166632D01*
X97693Y-166616D01*
X97685Y-166598D01*
X97580Y-166467D01*
X97225Y-166112D01*
X97225Y-148848D01*
X98118Y-147955D01*
X102202Y-147955D01*
X102222Y-147952D01*
X102241Y-147954D01*
X102343Y-147932D01*
X102445Y-147916D01*
X102462Y-147906D01*
X102482Y-147902D01*
X102571Y-147849D01*
X102662Y-147800D01*
X102676Y-147786D01*
X102693Y-147776D01*
X102760Y-147697D01*
X102832Y-147622D01*
X102840Y-147604D01*
X102853Y-147589D01*
X102892Y-147493D01*
X102935Y-147399D01*
X102937Y-147379D01*
X102945Y-147361D01*
X102963Y-147194D01*
X102963Y-127126D01*
X102960Y-127106D01*
X102962Y-127087D01*
X102940Y-126985D01*
X102924Y-126883D01*
X102914Y-126866D01*
X102910Y-126846D01*
X102857Y-126757D01*
X102808Y-126666D01*
X102794Y-126652D01*
X102784Y-126635D01*
X102705Y-126568D01*
X102630Y-126496D01*
X102612Y-126488D01*
X102597Y-126475D01*
X102501Y-126436D01*
X102407Y-126393D01*
X102387Y-126391D01*
X102369Y-126383D01*
X102202Y-126365D01*
X99388Y-126365D01*
X98495Y-125472D01*
X98495Y-108208D01*
X99485Y-107218D01*
X99497Y-107202D01*
X99513Y-107190D01*
X99569Y-107102D01*
X99629Y-107019D01*
X99635Y-107000D01*
X99646Y-106983D01*
X99671Y-106882D01*
X99701Y-106783D01*
X99701Y-106764D01*
X99706Y-106744D01*
X99698Y-106641D01*
X99695Y-106538D01*
X99688Y-106519D01*
X99687Y-106499D01*
X99646Y-106404D01*
X99611Y-106307D01*
X99598Y-106291D01*
X99590Y-106273D01*
X99485Y-106142D01*
X98495Y-105152D01*
X98495Y-87888D01*
X99388Y-86995D01*
X103472Y-86995D01*
X103492Y-86992D01*
X103511Y-86994D01*
X103613Y-86972D01*
X103715Y-86956D01*
X103732Y-86946D01*
X103752Y-86942D01*
X103841Y-86889D01*
X103932Y-86840D01*
X103946Y-86826D01*
X103963Y-86816D01*
X104030Y-86737D01*
X104102Y-86662D01*
X104110Y-86644D01*
X104123Y-86629D01*
X104162Y-86533D01*
X104205Y-86439D01*
X104207Y-86419D01*
X104215Y-86401D01*
X104233Y-86234D01*
X104233Y-82909D01*
X104222Y-82839D01*
X104220Y-82767D01*
X104202Y-82718D01*
X104194Y-82667D01*
X104160Y-82603D01*
X104135Y-82536D01*
X104103Y-82495D01*
X104078Y-82449D01*
X104026Y-82400D01*
X103982Y-82344D01*
X103938Y-82316D01*
X103900Y-82280D01*
X103835Y-82250D01*
X103775Y-82211D01*
X103724Y-82198D01*
X103677Y-82176D01*
X103606Y-82168D01*
X103536Y-82151D01*
X103484Y-82155D01*
X103433Y-82149D01*
X103362Y-82164D01*
X103291Y-82170D01*
X103243Y-82190D01*
X103192Y-82201D01*
X103131Y-82238D01*
X103065Y-82266D01*
X103009Y-82311D01*
X102981Y-82328D01*
X102966Y-82345D01*
X102934Y-82371D01*
X99988Y-85317D01*
X95592Y-85317D01*
X92483Y-82208D01*
X92483Y-77812D01*
X94617Y-75678D01*
X94629Y-75662D01*
X94645Y-75649D01*
X94701Y-75562D01*
X94761Y-75478D01*
X94767Y-75459D01*
X94778Y-75442D01*
X94803Y-75342D01*
X94833Y-75243D01*
X94833Y-75223D01*
X94838Y-75204D01*
X94830Y-75101D01*
X94827Y-74997D01*
X94820Y-74978D01*
X94818Y-74959D01*
X94778Y-74864D01*
X94742Y-74766D01*
X94730Y-74750D01*
X94722Y-74732D01*
X94617Y-74601D01*
X90764Y-70748D01*
X90690Y-70695D01*
X90620Y-70635D01*
X90590Y-70623D01*
X90564Y-70604D01*
X90477Y-70577D01*
X90392Y-70543D01*
X90351Y-70539D01*
X90329Y-70532D01*
X90297Y-70533D01*
X90225Y-70525D01*
X81118Y-70525D01*
X80225Y-69632D01*
X80225Y-57368D01*
X81118Y-56475D01*
X92382Y-56475D01*
X93275Y-57368D01*
X93275Y-66475D01*
X93276Y-66485D01*
X93276Y-66489D01*
X93280Y-66510D01*
X93289Y-66566D01*
X93297Y-66656D01*
X93309Y-66686D01*
X93314Y-66718D01*
X93357Y-66799D01*
X93393Y-66883D01*
X93419Y-66915D01*
X93430Y-66936D01*
X93453Y-66958D01*
X93498Y-67014D01*
X95926Y-69442D01*
X95984Y-69484D01*
X96036Y-69533D01*
X96083Y-69555D01*
X96125Y-69585D01*
X96194Y-69606D01*
X96259Y-69637D01*
X96311Y-69642D01*
X96361Y-69658D01*
X96432Y-69656D01*
X96503Y-69664D01*
X96554Y-69653D01*
X96606Y-69651D01*
X96674Y-69627D01*
X96744Y-69612D01*
X96789Y-69585D01*
X96837Y-69567D01*
X96893Y-69522D01*
X96955Y-69485D01*
X96989Y-69446D01*
X97029Y-69413D01*
X97068Y-69353D01*
X97115Y-69298D01*
X97134Y-69250D01*
X97162Y-69206D01*
X97180Y-69137D01*
X97207Y-69070D01*
X97215Y-68999D01*
X97223Y-68968D01*
X97221Y-68944D01*
X97225Y-68904D01*
X97225Y-57368D01*
X98118Y-56475D01*
X100702Y-56475D01*
X100722Y-56472D01*
X100741Y-56474D01*
X100843Y-56452D01*
X100945Y-56436D01*
X100962Y-56426D01*
X100982Y-56422D01*
X101071Y-56369D01*
X101162Y-56320D01*
X101176Y-56306D01*
X101193Y-56296D01*
X101260Y-56217D01*
X101332Y-56142D01*
X101340Y-56124D01*
X101353Y-56109D01*
X101392Y-56013D01*
X101435Y-55919D01*
X101437Y-55899D01*
X101445Y-55881D01*
X101463Y-55714D01*
X101463Y-49696D01*
X101460Y-49679D01*
X101462Y-49662D01*
X101462Y-49660D01*
X101462Y-49657D01*
X101440Y-49555D01*
X101424Y-49453D01*
X101414Y-49436D01*
X101410Y-49416D01*
X101357Y-49327D01*
X101308Y-49236D01*
X101294Y-49222D01*
X101284Y-49205D01*
X101205Y-49138D01*
X101130Y-49066D01*
X101112Y-49058D01*
X101097Y-49045D01*
X101001Y-49006D01*
X100907Y-48963D01*
X100887Y-48961D01*
X100869Y-48953D01*
X100702Y-48935D01*
X98118Y-48935D01*
X97225Y-48042D01*
X97225Y-35778D01*
X98118Y-34885D01*
X109484Y-34885D01*
X109504Y-34882D01*
X109523Y-34884D01*
X109625Y-34862D01*
X109727Y-34846D01*
X109744Y-34836D01*
X109764Y-34832D01*
X109853Y-34779D01*
X109944Y-34730D01*
X109958Y-34716D01*
X109975Y-34706D01*
X110042Y-34627D01*
X110114Y-34552D01*
X110122Y-34534D01*
X110135Y-34519D01*
X110174Y-34423D01*
X110217Y-34329D01*
X110219Y-34309D01*
X110227Y-34291D01*
X110245Y-34124D01*
X110245Y-33624D01*
X110231Y-33534D01*
X110223Y-33443D01*
X110211Y-33414D01*
X110206Y-33382D01*
X110163Y-33301D01*
X110127Y-33217D01*
X110101Y-33185D01*
X110090Y-33164D01*
X110067Y-33142D01*
X110022Y-33086D01*
X106935Y-29998D01*
X106918Y-29987D01*
X106906Y-29971D01*
X106819Y-29915D01*
X106735Y-29855D01*
X106716Y-29849D01*
X106699Y-29838D01*
X106598Y-29813D01*
X106500Y-29783D01*
X106480Y-29783D01*
X106460Y-29778D01*
X106357Y-29786D01*
X106254Y-29789D01*
X106235Y-29796D01*
X106215Y-29797D01*
X106120Y-29838D01*
X106023Y-29873D01*
X106007Y-29886D01*
X105989Y-29894D01*
X105858Y-29998D01*
X104474Y-31382D01*
X100078Y-31382D01*
X96969Y-28274D01*
X96969Y-26844D01*
X96967Y-26832D01*
X96968Y-26825D01*
X96960Y-26787D01*
X96957Y-26773D01*
X96956Y-26701D01*
X96938Y-26652D01*
X96929Y-26601D01*
X96896Y-26538D01*
X96871Y-26470D01*
X96839Y-26430D01*
X96814Y-26384D01*
X96762Y-26334D01*
X96717Y-26278D01*
X96674Y-26250D01*
X96636Y-26214D01*
X96571Y-26184D01*
X96511Y-26145D01*
X96460Y-26132D01*
X96413Y-26111D01*
X96342Y-26103D01*
X96272Y-26085D01*
X96220Y-26089D01*
X96168Y-26083D01*
X96098Y-26099D01*
X96027Y-26104D01*
X95979Y-26125D01*
X95928Y-26136D01*
X95866Y-26173D01*
X95800Y-26201D01*
X95745Y-26245D01*
X95717Y-26262D01*
X95702Y-26280D01*
X95669Y-26305D01*
X89260Y-32715D01*
X89207Y-32789D01*
X89147Y-32859D01*
X89135Y-32889D01*
X89116Y-32915D01*
X89089Y-33002D01*
X89055Y-33087D01*
X89051Y-33128D01*
X89044Y-33150D01*
X89045Y-33182D01*
X89037Y-33253D01*
X89037Y-34124D01*
X89040Y-34144D01*
X89038Y-34163D01*
X89060Y-34265D01*
X89076Y-34367D01*
X89086Y-34384D01*
X89090Y-34404D01*
X89143Y-34493D01*
X89192Y-34584D01*
X89206Y-34598D01*
X89216Y-34615D01*
X89295Y-34682D01*
X89370Y-34754D01*
X89388Y-34762D01*
X89403Y-34775D01*
X89499Y-34814D01*
X89593Y-34857D01*
X89613Y-34859D01*
X89631Y-34867D01*
X89798Y-34885D01*
X92382Y-34885D01*
X93275Y-35778D01*
X93275Y-48042D01*
X92382Y-48935D01*
X81118Y-48935D01*
X80225Y-48042D01*
X80225Y-35778D01*
X81118Y-34885D01*
X83702Y-34885D01*
X83722Y-34882D01*
X83741Y-34884D01*
X83843Y-34862D01*
X83945Y-34846D01*
X83962Y-34836D01*
X83982Y-34832D01*
X84071Y-34779D01*
X84162Y-34730D01*
X84176Y-34716D01*
X84193Y-34706D01*
X84260Y-34627D01*
X84332Y-34552D01*
X84340Y-34534D01*
X84353Y-34519D01*
X84392Y-34423D01*
X84435Y-34329D01*
X84437Y-34309D01*
X84445Y-34291D01*
X84463Y-34124D01*
X84463Y-31044D01*
X105939Y-9568D01*
X108336Y-7171D01*
X108347Y-7155D01*
X108363Y-7143D01*
X108419Y-7056D01*
X108479Y-6972D01*
X108485Y-6953D01*
X108496Y-6936D01*
X108521Y-6835D01*
X108551Y-6737D01*
X108551Y-6717D01*
X108556Y-6697D01*
X108548Y-6594D01*
X108545Y-6491D01*
X108538Y-6472D01*
X108537Y-6452D01*
X108496Y-6357D01*
X108461Y-6260D01*
X108448Y-6244D01*
X108440Y-6226D01*
X108336Y-6095D01*
X107425Y-5184D01*
X107425Y787D01*
X107410Y877D01*
X107403Y968D01*
X107390Y998D01*
X107385Y1030D01*
X107342Y1111D01*
X107307Y1194D01*
X107281Y1227D01*
X107270Y1247D01*
X107247Y1269D01*
X107202Y1325D01*
X103123Y5404D01*
X103123Y14694D01*
X103120Y14714D01*
X103122Y14733D01*
X103100Y14835D01*
X103084Y14937D01*
X103074Y14954D01*
X103070Y14974D01*
X103017Y15063D01*
X102968Y15154D01*
X102954Y15168D01*
X102944Y15185D01*
X102865Y15252D01*
X102790Y15324D01*
X102772Y15332D01*
X102757Y15345D01*
X102661Y15384D01*
X102567Y15427D01*
X102547Y15429D01*
X102529Y15437D01*
X102362Y15455D01*
X100672Y15455D01*
X100652Y15452D01*
X100633Y15454D01*
X100531Y15432D01*
X100429Y15416D01*
X100412Y15406D01*
X100392Y15402D01*
X100303Y15349D01*
X100212Y15300D01*
X100198Y15286D01*
X100181Y15276D01*
X100114Y15197D01*
X100042Y15122D01*
X100034Y15104D01*
X100021Y15089D01*
X99982Y14993D01*
X99939Y14899D01*
X99937Y14879D01*
X99929Y14861D01*
X99911Y14694D01*
X99911Y-4461D01*
X99925Y-4551D01*
X99933Y-4642D01*
X99945Y-4671D01*
X99950Y-4703D01*
X99993Y-4784D01*
X100029Y-4868D01*
X100055Y-4900D01*
X100066Y-4921D01*
X100089Y-4943D01*
X100134Y-4999D01*
X101827Y-6692D01*
X101827Y-11088D01*
X98718Y-14197D01*
X94322Y-14197D01*
X91213Y-11088D01*
X91213Y-6692D01*
X94322Y-3583D01*
X94576Y-3583D01*
X94596Y-3580D01*
X94615Y-3582D01*
X94717Y-3560D01*
X94819Y-3544D01*
X94836Y-3534D01*
X94856Y-3530D01*
X94945Y-3477D01*
X95036Y-3428D01*
X95050Y-3414D01*
X95067Y-3404D01*
X95134Y-3325D01*
X95206Y-3250D01*
X95214Y-3232D01*
X95227Y-3217D01*
X95266Y-3121D01*
X95309Y-3027D01*
X95311Y-3007D01*
X95319Y-2989D01*
X95337Y-2822D01*
X95337Y45874D01*
X114254Y64791D01*
X114307Y64865D01*
X114367Y64934D01*
X114379Y64964D01*
X114398Y64991D01*
X114424Y65078D01*
X114459Y65162D01*
X114463Y65203D01*
X114470Y65226D01*
X114469Y65258D01*
X114477Y65329D01*
X114477Y85830D01*
X114476Y85838D01*
X114476Y85840D01*
X114474Y85851D01*
X114462Y85920D01*
X114455Y86011D01*
X114443Y86041D01*
X114437Y86073D01*
X114395Y86154D01*
X114359Y86238D01*
X114333Y86270D01*
X114322Y86290D01*
X114299Y86313D01*
X114254Y86369D01*
X111457Y89166D01*
X111457Y93121D01*
X111442Y93211D01*
X111435Y93302D01*
X111423Y93332D01*
X111417Y93364D01*
X111375Y93445D01*
X111339Y93529D01*
X111313Y93561D01*
X111302Y93581D01*
X111279Y93604D01*
X111234Y93660D01*
X106313Y98581D01*
X106313Y101540D01*
X106298Y101630D01*
X106291Y101721D01*
X106278Y101751D01*
X106273Y101783D01*
X106230Y101864D01*
X106195Y101948D01*
X106169Y101980D01*
X106158Y102001D01*
X106135Y102023D01*
X106090Y102079D01*
X105875Y102294D01*
X105875Y112557D01*
X106090Y112772D01*
X106143Y112846D01*
X106202Y112915D01*
X106215Y112945D01*
X106233Y112972D01*
X106260Y113059D01*
X106294Y113143D01*
X106299Y113184D01*
X106306Y113207D01*
X106305Y113239D01*
X106313Y113310D01*
X106313Y113740D01*
X106298Y113830D01*
X106291Y113921D01*
X106278Y113951D01*
X106273Y113983D01*
X106230Y114064D01*
X106195Y114148D01*
X106169Y114180D01*
X106158Y114201D01*
X106135Y114223D01*
X106090Y114279D01*
X105424Y114945D01*
X105366Y114987D01*
X105314Y115036D01*
X105266Y115058D01*
X105224Y115088D01*
X105156Y115109D01*
X105091Y115140D01*
X105039Y115145D01*
X104989Y115161D01*
X104917Y115159D01*
X104846Y115167D01*
X104795Y115156D01*
X104743Y115154D01*
X104676Y115130D01*
X104606Y115114D01*
X104561Y115088D01*
X104512Y115070D01*
X104456Y115025D01*
X104395Y114988D01*
X104361Y114949D01*
X104320Y114916D01*
X104281Y114856D01*
X104235Y114801D01*
X104215Y114753D01*
X104187Y114709D01*
X104170Y114640D01*
X104143Y114573D01*
X104135Y114502D01*
X104127Y114471D01*
X104129Y114447D01*
X104124Y114406D01*
X104124Y111094D01*
X103231Y110201D01*
X98924Y110201D01*
X98834Y110186D01*
X98743Y110179D01*
X98713Y110166D01*
X98681Y110161D01*
X98601Y110118D01*
X98517Y110082D01*
X98485Y110057D01*
X98464Y110046D01*
X98442Y110022D01*
X98386Y109978D01*
X96285Y107877D01*
X96273Y107860D01*
X96258Y107848D01*
X96202Y107761D01*
X96141Y107677D01*
X96135Y107658D01*
X96125Y107641D01*
X96099Y107541D01*
X96069Y107442D01*
X96069Y107422D01*
X96065Y107403D01*
X96073Y107300D01*
X96075Y107196D01*
X96082Y107177D01*
X96084Y107157D01*
X96124Y107062D01*
X96160Y106965D01*
X96172Y106949D01*
X96180Y106931D01*
X96285Y106800D01*
X96747Y106338D01*
X96747Y101942D01*
X93638Y98833D01*
X89242Y98833D01*
X86133Y101942D01*
X86133Y106338D01*
X89242Y109447D01*
X91072Y109447D01*
X91162Y109461D01*
X91253Y109469D01*
X91283Y109481D01*
X91315Y109486D01*
X91395Y109529D01*
X91479Y109565D01*
X91511Y109591D01*
X91532Y109602D01*
X91554Y109625D01*
X91610Y109670D01*
X92016Y110076D01*
X92028Y110092D01*
X92043Y110104D01*
X92099Y110192D01*
X92160Y110276D01*
X92166Y110295D01*
X92176Y110311D01*
X92202Y110412D01*
X92232Y110511D01*
X92232Y110531D01*
X92236Y110550D01*
X92228Y110653D01*
X92226Y110757D01*
X92219Y110775D01*
X92217Y110795D01*
X92177Y110890D01*
X92141Y110988D01*
X92129Y111003D01*
X92121Y111021D01*
X92075Y111079D01*
X92075Y114757D01*
X92205Y114887D01*
X92217Y114903D01*
X92232Y114916D01*
X92288Y115003D01*
X92349Y115087D01*
X92354Y115106D01*
X92365Y115123D01*
X92390Y115223D01*
X92421Y115322D01*
X92420Y115342D01*
X92425Y115361D01*
X92417Y115464D01*
X92415Y115568D01*
X92408Y115586D01*
X92406Y115606D01*
X92366Y115701D01*
X92330Y115799D01*
X92318Y115814D01*
X92310Y115833D01*
X92205Y115964D01*
X92075Y116094D01*
X92075Y116468D01*
X92060Y116558D01*
X92053Y116649D01*
X92040Y116679D01*
X92035Y116711D01*
X91992Y116791D01*
X91957Y116875D01*
X91931Y116907D01*
X91920Y116928D01*
X91897Y116950D01*
X91852Y117006D01*
X77186Y131672D01*
X77186Y150417D01*
X97524Y170755D01*
X97535Y170771D01*
X97551Y170784D01*
X97607Y170871D01*
X97667Y170955D01*
X97673Y170974D01*
X97684Y170991D01*
X97709Y171091D01*
X97739Y171190D01*
X97739Y171210D01*
X97744Y171229D01*
X97736Y171332D01*
X97733Y171436D01*
X97726Y171455D01*
X97725Y171474D01*
X97684Y171569D01*
X97649Y171667D01*
X97636Y171682D01*
X97628Y171701D01*
X97524Y171832D01*
X95989Y173366D01*
X95989Y177762D01*
X99098Y180871D01*
X103494Y180871D01*
X106603Y177762D01*
X106603Y177361D01*
X106614Y177290D01*
X106616Y177219D01*
X106634Y177170D01*
X106642Y177118D01*
X106676Y177055D01*
X106700Y176988D01*
X106733Y176947D01*
X106757Y176901D01*
X106809Y176852D01*
X106854Y176796D01*
X106898Y176768D01*
X106936Y176732D01*
X107001Y176701D01*
X107061Y176663D01*
X107112Y176650D01*
X107159Y176628D01*
X107230Y176620D01*
X107300Y176603D01*
X107351Y176607D01*
X107403Y176601D01*
X107473Y176616D01*
X107545Y176622D01*
X107593Y176642D01*
X107644Y176653D01*
X107705Y176690D01*
X107771Y176718D01*
X107827Y176763D01*
X107855Y176779D01*
X107870Y176797D01*
X107902Y176823D01*
X108770Y177691D01*
X108823Y177765D01*
X108883Y177835D01*
X108895Y177865D01*
X108914Y177891D01*
X108941Y177978D01*
X108975Y178063D01*
X108979Y178104D01*
X108986Y178126D01*
X108985Y178158D01*
X108993Y178229D01*
X108993Y180704D01*
X112102Y183813D01*
X116498Y183813D01*
X119607Y180704D01*
X119607Y177938D01*
X119618Y177868D01*
X119620Y177796D01*
X119638Y177747D01*
X119646Y177696D01*
X119680Y177632D01*
X119705Y177565D01*
X119737Y177524D01*
X119762Y177478D01*
X119813Y177429D01*
X119858Y177373D01*
X119902Y177345D01*
X119940Y177309D01*
X120005Y177279D01*
X120065Y177240D01*
X120116Y177227D01*
X120163Y177205D01*
X120234Y177197D01*
X120304Y177180D01*
X120356Y177184D01*
X120407Y177178D01*
X120478Y177193D01*
X120549Y177199D01*
X120597Y177219D01*
X120648Y177230D01*
X120709Y177267D01*
X120775Y177295D01*
X120831Y177340D01*
X120859Y177357D01*
X120874Y177374D01*
X120906Y177400D01*
X124352Y180846D01*
X124405Y180920D01*
X124465Y180990D01*
X124477Y181020D01*
X124496Y181046D01*
X124523Y181133D01*
X124557Y181218D01*
X124561Y181259D01*
X124568Y181281D01*
X124567Y181313D01*
X124575Y181384D01*
X124575Y187992D01*
X124767Y188184D01*
X124809Y188242D01*
X124859Y188294D01*
X124881Y188341D01*
X124911Y188383D01*
X124932Y188452D01*
X124962Y188517D01*
X124968Y188569D01*
X124983Y188619D01*
X124981Y188690D01*
X124989Y188761D01*
X124978Y188812D01*
X124977Y188864D01*
X124952Y188932D01*
X124937Y189002D01*
X124910Y189047D01*
X124893Y189095D01*
X124848Y189151D01*
X124811Y189213D01*
X124771Y189247D01*
X124739Y189287D01*
X124679Y189326D01*
X124624Y189373D01*
X124576Y189392D01*
X124532Y189420D01*
X124463Y189438D01*
X124396Y189465D01*
X124325Y189473D01*
X124293Y189481D01*
X124270Y189479D01*
X124229Y189483D01*
X104325Y189483D01*
X104234Y189469D01*
X104144Y189461D01*
X104114Y189449D01*
X104082Y189444D01*
X104001Y189401D01*
X103917Y189365D01*
X103885Y189339D01*
X103864Y189328D01*
X103842Y189305D01*
X103786Y189260D01*
X94131Y179605D01*
X89182Y179605D01*
X89162Y179602D01*
X89143Y179604D01*
X89041Y179582D01*
X88939Y179566D01*
X88922Y179556D01*
X88902Y179552D01*
X88813Y179499D01*
X88722Y179450D01*
X88708Y179436D01*
X88691Y179426D01*
X88624Y179347D01*
X88552Y179272D01*
X88544Y179254D01*
X88531Y179239D01*
X88492Y179143D01*
X88449Y179049D01*
X88447Y179029D01*
X88439Y179011D01*
X88421Y178844D01*
X88421Y175602D01*
X85312Y172493D01*
X80916Y172493D01*
X77807Y175602D01*
X77807Y179998D01*
X80916Y183107D01*
X84693Y183107D01*
X84763Y183118D01*
X84835Y183120D01*
X84884Y183138D01*
X84935Y183146D01*
X84999Y183180D01*
X85066Y183205D01*
X85107Y183237D01*
X85153Y183262D01*
X85202Y183314D01*
X85258Y183358D01*
X85286Y183402D01*
X85322Y183440D01*
X85352Y183505D01*
X85391Y183565D01*
X85404Y183616D01*
X85426Y183663D01*
X85434Y183734D01*
X85451Y183804D01*
X85447Y183856D01*
X85453Y183907D01*
X85438Y183978D01*
X85432Y184049D01*
X85412Y184097D01*
X85401Y184148D01*
X85364Y184209D01*
X85336Y184275D01*
X85291Y184331D01*
X85274Y184359D01*
X85257Y184374D01*
X85231Y184406D01*
X83875Y185762D01*
X83875Y190158D01*
X86984Y193267D01*
X89491Y193267D01*
X89561Y193278D01*
X89633Y193280D01*
X89682Y193298D01*
X89733Y193306D01*
X89797Y193340D01*
X89864Y193365D01*
X89905Y193397D01*
X89951Y193422D01*
X90000Y193473D01*
X90056Y193518D01*
X90084Y193562D01*
X90120Y193600D01*
X90150Y193665D01*
X90189Y193725D01*
X90202Y193776D01*
X90224Y193823D01*
X90232Y193894D01*
X90249Y193964D01*
X90245Y194016D01*
X90251Y194067D01*
X90236Y194138D01*
X90230Y194209D01*
X90210Y194257D01*
X90199Y194308D01*
X90162Y194369D01*
X90134Y194435D01*
X90089Y194491D01*
X90072Y194519D01*
X90055Y194534D01*
X90029Y194566D01*
X89943Y194652D01*
X89943Y199048D01*
X93052Y202157D01*
X97314Y202157D01*
X97334Y202160D01*
X97353Y202158D01*
X97455Y202180D01*
X97557Y202196D01*
X97574Y202206D01*
X97594Y202210D01*
X97683Y202263D01*
X97774Y202312D01*
X97788Y202326D01*
X97805Y202336D01*
X97872Y202415D01*
X97944Y202490D01*
X97952Y202508D01*
X97965Y202523D01*
X98004Y202619D01*
X98047Y202713D01*
X98049Y202733D01*
X98057Y202751D01*
X98075Y202918D01*
X98075Y224992D01*
X98968Y225885D01*
X118232Y225885D01*
X119125Y224992D01*
X119125Y201728D01*
X118849Y201452D01*
X118807Y201394D01*
X118757Y201342D01*
X118735Y201295D01*
X118705Y201253D01*
X118684Y201184D01*
X118654Y201119D01*
X118648Y201067D01*
X118633Y201017D01*
X118635Y200946D01*
X118627Y200875D01*
X118638Y200824D01*
X118639Y200772D01*
X118664Y200704D01*
X118679Y200634D01*
X118706Y200589D01*
X118723Y200541D01*
X118768Y200485D01*
X118805Y200423D01*
X118845Y200389D01*
X118877Y200349D01*
X118937Y200310D01*
X118992Y200263D01*
X119040Y200244D01*
X119084Y200216D01*
X119153Y200198D01*
X119220Y200171D01*
X119291Y200163D01*
X119323Y200155D01*
X119346Y200157D01*
X119387Y200153D01*
X210813Y200153D01*
X210884Y200164D01*
X210956Y200166D01*
X211005Y200184D01*
X211056Y200192D01*
X211119Y200226D01*
X211187Y200251D01*
X211227Y200283D01*
X211273Y200308D01*
X211323Y200360D01*
X211379Y200404D01*
X211407Y200448D01*
X211443Y200486D01*
X211473Y200551D01*
X211512Y200611D01*
X211524Y200662D01*
X211546Y200709D01*
X211554Y200780D01*
X211572Y200850D01*
X211568Y200902D01*
X211573Y200953D01*
X211558Y201024D01*
X211553Y201095D01*
X211532Y201143D01*
X211521Y201194D01*
X211484Y201255D01*
X211456Y201321D01*
X211411Y201377D01*
X211395Y201405D01*
X211377Y201420D01*
X211351Y201452D01*
X211075Y201728D01*
X211075Y224992D01*
X211968Y225885D01*
X231232Y225885D01*
X232125Y224992D01*
X232125Y201728D01*
X231232Y200835D01*
X221812Y200835D01*
X221742Y200824D01*
X221670Y200822D01*
X221621Y200804D01*
X221570Y200796D01*
X221506Y200762D01*
X221439Y200737D01*
X221398Y200705D01*
X221352Y200680D01*
X221303Y200628D01*
X221247Y200584D01*
X221219Y200540D01*
X221183Y200502D01*
X221153Y200437D01*
X221114Y200377D01*
X221101Y200326D01*
X221079Y200279D01*
X221071Y200208D01*
X221054Y200138D01*
X221058Y200086D01*
X221052Y200035D01*
X221067Y199964D01*
X221073Y199893D01*
X221093Y199845D01*
X221104Y199794D01*
X221141Y199733D01*
X221169Y199667D01*
X221214Y199611D01*
X221231Y199583D01*
X221248Y199568D01*
X221274Y199536D01*
X222220Y198590D01*
X229416Y191394D01*
X229490Y191341D01*
X229559Y191282D01*
X229589Y191269D01*
X229616Y191251D01*
X229702Y191224D01*
X229787Y191190D01*
X229828Y191185D01*
X229851Y191178D01*
X229883Y191179D01*
X229954Y191171D01*
X232782Y191171D01*
X232872Y191186D01*
X232963Y191193D01*
X232993Y191206D01*
X233025Y191211D01*
X233106Y191254D01*
X233189Y191289D01*
X233222Y191315D01*
X233242Y191326D01*
X233264Y191349D01*
X233320Y191394D01*
X236117Y194191D01*
X240514Y194191D01*
X243622Y191083D01*
X243622Y186686D01*
X240514Y183578D01*
X237951Y183578D01*
X237880Y183566D01*
X237808Y183564D01*
X237759Y183546D01*
X237708Y183538D01*
X237645Y183504D01*
X237577Y183480D01*
X237537Y183447D01*
X237491Y183423D01*
X237442Y183371D01*
X237385Y183326D01*
X237357Y183282D01*
X237321Y183245D01*
X237291Y183179D01*
X237252Y183119D01*
X237240Y183069D01*
X237218Y183021D01*
X237210Y182950D01*
X237192Y182881D01*
X237196Y182829D01*
X237191Y182777D01*
X237206Y182707D01*
X237212Y182635D01*
X237232Y182588D01*
X237243Y182537D01*
X237280Y182475D01*
X237308Y182409D01*
X237353Y182353D01*
X237369Y182326D01*
X237387Y182310D01*
X237413Y182278D01*
X237554Y182137D01*
X237554Y177740D01*
X237271Y177457D01*
X237229Y177398D01*
X237179Y177346D01*
X237158Y177299D01*
X237127Y177257D01*
X237106Y177188D01*
X237076Y177123D01*
X237070Y177072D01*
X237055Y177022D01*
X237057Y176950D01*
X237049Y176879D01*
X237060Y176828D01*
X237061Y176776D01*
X237086Y176709D01*
X237101Y176639D01*
X237128Y176594D01*
X237146Y176545D01*
X237190Y176489D01*
X237227Y176427D01*
X237267Y176394D01*
X237299Y176353D01*
X237360Y176314D01*
X237414Y176268D01*
X237463Y176248D01*
X237506Y176220D01*
X237576Y176203D01*
X237642Y176176D01*
X237714Y176168D01*
X237745Y176160D01*
X237768Y176162D01*
X237809Y176157D01*
X240327Y176157D01*
X241890Y174595D01*
X250914Y165570D01*
X251230Y165255D01*
X251288Y165213D01*
X251340Y165164D01*
X251387Y165142D01*
X251429Y165111D01*
X251498Y165090D01*
X251563Y165060D01*
X251615Y165054D01*
X251665Y165039D01*
X251736Y165041D01*
X251807Y165033D01*
X251858Y165044D01*
X251910Y165045D01*
X251978Y165070D01*
X252048Y165085D01*
X252093Y165112D01*
X252141Y165130D01*
X252197Y165174D01*
X252259Y165211D01*
X252293Y165251D01*
X252333Y165283D01*
X252372Y165344D01*
X252419Y165398D01*
X252438Y165447D01*
X252466Y165490D01*
X252484Y165560D01*
X252511Y165626D01*
X252519Y165698D01*
X252527Y165729D01*
X252525Y165752D01*
X252529Y165793D01*
X252529Y226875D01*
X252526Y226895D01*
X252528Y226914D01*
X252506Y227016D01*
X252490Y227118D01*
X252480Y227135D01*
X252476Y227155D01*
X252423Y227244D01*
X252374Y227335D01*
X252360Y227349D01*
X252350Y227366D01*
X252271Y227433D01*
X252196Y227504D01*
X252178Y227513D01*
X252163Y227526D01*
X252067Y227564D01*
X251973Y227608D01*
X251953Y227610D01*
X251935Y227618D01*
X251768Y227636D01*
X76200Y227636D01*
X76180Y227633D01*
X76161Y227635D01*
X76059Y227613D01*
X75957Y227596D01*
X75940Y227587D01*
X75920Y227583D01*
X75831Y227530D01*
X75740Y227481D01*
X75726Y227467D01*
X75709Y227457D01*
X75642Y227378D01*
X75570Y227303D01*
X75562Y227285D01*
X75549Y227270D01*
X75510Y227173D01*
X75467Y227080D01*
X75465Y227060D01*
X75457Y227042D01*
X75439Y226875D01*
X75439Y-147360D01*
X75450Y-147431D01*
X75452Y-147503D01*
X75470Y-147552D01*
X75478Y-147603D01*
X75512Y-147666D01*
X75537Y-147734D01*
X75569Y-147774D01*
X75594Y-147820D01*
X75646Y-147870D01*
X75690Y-147926D01*
X75734Y-147954D01*
X75772Y-147990D01*
X75837Y-148020D01*
X75897Y-148059D01*
X75948Y-148072D01*
X75995Y-148093D01*
X76066Y-148101D01*
X76136Y-148119D01*
X76188Y-148115D01*
X76239Y-148121D01*
X76310Y-148105D01*
X76381Y-148100D01*
X76429Y-148079D01*
X76480Y-148068D01*
X76541Y-148031D01*
X76607Y-148003D01*
X76663Y-147959D01*
X76691Y-147942D01*
X76706Y-147924D01*
X76738Y-147899D01*
X77190Y-147447D01*
X77769Y-147112D01*
X78416Y-146939D01*
X83727Y-146939D01*
X83727Y-156718D01*
X83730Y-156738D01*
X83728Y-156757D01*
X83750Y-156859D01*
X83767Y-156961D01*
X83776Y-156978D01*
X83780Y-156998D01*
X83833Y-157087D01*
X83882Y-157178D01*
X83896Y-157192D01*
X83906Y-157209D01*
X83985Y-157276D01*
X84060Y-157347D01*
X84078Y-157356D01*
X84093Y-157369D01*
X84189Y-157408D01*
X84283Y-157451D01*
X84303Y-157453D01*
X84321Y-157461D01*
X84488Y-157479D01*
X85251Y-157479D01*
X85251Y-157481D01*
X84488Y-157481D01*
X84468Y-157484D01*
X84449Y-157482D01*
X84347Y-157504D01*
X84245Y-157521D01*
X84228Y-157530D01*
X84208Y-157534D01*
X84119Y-157587D01*
X84028Y-157636D01*
X84014Y-157650D01*
X83997Y-157660D01*
X83930Y-157739D01*
X83859Y-157814D01*
X83850Y-157832D01*
X83837Y-157847D01*
X83798Y-157943D01*
X83755Y-158037D01*
X83753Y-158057D01*
X83745Y-158075D01*
X83727Y-158242D01*
X83727Y-175768D01*
X83730Y-175788D01*
X83728Y-175807D01*
X83750Y-175909D01*
X83767Y-176011D01*
X83776Y-176028D01*
X83780Y-176048D01*
X83833Y-176137D01*
X83882Y-176228D01*
X83896Y-176242D01*
X83906Y-176259D01*
X83985Y-176326D01*
X84060Y-176397D01*
X84078Y-176406D01*
X84093Y-176419D01*
X84189Y-176458D01*
X84283Y-176501D01*
X84303Y-176503D01*
X84321Y-176511D01*
X84488Y-176529D01*
X85251Y-176529D01*
X85251Y-176531D01*
X84488Y-176531D01*
X84468Y-176534D01*
X84449Y-176532D01*
X84347Y-176554D01*
X84245Y-176571D01*
X84228Y-176580D01*
X84208Y-176584D01*
X84119Y-176637D01*
X84028Y-176686D01*
X84014Y-176700D01*
X83997Y-176710D01*
X83930Y-176789D01*
X83859Y-176864D01*
X83850Y-176882D01*
X83837Y-176897D01*
X83798Y-176993D01*
X83755Y-177087D01*
X83753Y-177107D01*
X83745Y-177125D01*
X83727Y-177292D01*
X83727Y-187071D01*
X78416Y-187071D01*
X77769Y-186898D01*
X77190Y-186563D01*
X76738Y-186111D01*
X76680Y-186069D01*
X76628Y-186020D01*
X76581Y-185998D01*
X76539Y-185968D01*
X76470Y-185947D01*
X76405Y-185917D01*
X76353Y-185911D01*
X76303Y-185895D01*
X76232Y-185897D01*
X76161Y-185889D01*
X76110Y-185901D01*
X76058Y-185902D01*
X75990Y-185926D01*
X75920Y-185942D01*
X75875Y-185968D01*
X75827Y-185986D01*
X75771Y-186031D01*
X75709Y-186068D01*
X75675Y-186107D01*
X75635Y-186140D01*
X75596Y-186200D01*
X75549Y-186255D01*
X75530Y-186303D01*
X75502Y-186347D01*
X75484Y-186416D01*
X75457Y-186483D01*
X75449Y-186554D01*
X75441Y-186585D01*
X75443Y-186609D01*
X75439Y-186650D01*
X75439Y-224028D01*
X75442Y-224048D01*
X75440Y-224067D01*
X75462Y-224169D01*
X75478Y-224271D01*
X75488Y-224288D01*
X75492Y-224308D01*
X75545Y-224397D01*
X75594Y-224488D01*
X75608Y-224502D01*
X75618Y-224519D01*
X75697Y-224586D01*
X75772Y-224658D01*
X75790Y-224666D01*
X75805Y-224679D01*
X75901Y-224718D01*
X75995Y-224761D01*
X76015Y-224763D01*
X76033Y-224771D01*
X76200Y-224789D01*
X109297Y-224789D01*
X109360Y-224779D01*
G37*
G36*
X141460Y-153776D02*
X141460Y-153776D01*
X141512Y-153774D01*
X141580Y-153750D01*
X141650Y-153735D01*
X141695Y-153708D01*
X141743Y-153690D01*
X141800Y-153645D01*
X141861Y-153608D01*
X141895Y-153569D01*
X141936Y-153536D01*
X141974Y-153476D01*
X142021Y-153421D01*
X142040Y-153373D01*
X142069Y-153329D01*
X142086Y-153260D01*
X142113Y-153193D01*
X142121Y-153122D01*
X142129Y-153091D01*
X142127Y-153068D01*
X142130Y-153036D01*
X143888Y-151278D01*
X154824Y-151278D01*
X156789Y-153243D01*
X156863Y-153296D01*
X156932Y-153355D01*
X156962Y-153367D01*
X156988Y-153386D01*
X157075Y-153413D01*
X157160Y-153447D01*
X157201Y-153452D01*
X157223Y-153459D01*
X157256Y-153458D01*
X157327Y-153466D01*
X158624Y-153466D01*
X158644Y-153462D01*
X158663Y-153465D01*
X158765Y-153443D01*
X158867Y-153426D01*
X158884Y-153417D01*
X158904Y-153412D01*
X158993Y-153359D01*
X159084Y-153311D01*
X159098Y-153296D01*
X159115Y-153286D01*
X159182Y-153207D01*
X159254Y-153132D01*
X159262Y-153114D01*
X159275Y-153099D01*
X159314Y-153003D01*
X159357Y-152909D01*
X159359Y-152890D01*
X159367Y-152871D01*
X159385Y-152704D01*
X159385Y-150188D01*
X160278Y-149295D01*
X177542Y-149295D01*
X178435Y-150188D01*
X178435Y-150622D01*
X178438Y-150642D01*
X178436Y-150661D01*
X178458Y-150763D01*
X178474Y-150865D01*
X178484Y-150882D01*
X178488Y-150902D01*
X178541Y-150991D01*
X178590Y-151082D01*
X178604Y-151096D01*
X178614Y-151113D01*
X178693Y-151180D01*
X178768Y-151252D01*
X178786Y-151260D01*
X178801Y-151273D01*
X178897Y-151312D01*
X178991Y-151355D01*
X179011Y-151357D01*
X179029Y-151365D01*
X179196Y-151383D01*
X180604Y-151383D01*
X180624Y-151380D01*
X180643Y-151382D01*
X180745Y-151360D01*
X180847Y-151344D01*
X180864Y-151334D01*
X180884Y-151330D01*
X180973Y-151277D01*
X181064Y-151228D01*
X181078Y-151214D01*
X181095Y-151204D01*
X181162Y-151125D01*
X181234Y-151050D01*
X181242Y-151032D01*
X181255Y-151017D01*
X181294Y-150921D01*
X181337Y-150827D01*
X181339Y-150807D01*
X181347Y-150789D01*
X181365Y-150622D01*
X181365Y-145038D01*
X182412Y-143991D01*
X182465Y-143917D01*
X182525Y-143848D01*
X182537Y-143818D01*
X182556Y-143792D01*
X182583Y-143705D01*
X182617Y-143620D01*
X182621Y-143579D01*
X182628Y-143557D01*
X182627Y-143524D01*
X182635Y-143453D01*
X182635Y-130433D01*
X182621Y-130342D01*
X182613Y-130252D01*
X182601Y-130222D01*
X182596Y-130190D01*
X182553Y-130109D01*
X182517Y-130025D01*
X182491Y-129993D01*
X182480Y-129972D01*
X182457Y-129950D01*
X182412Y-129894D01*
X139961Y-87443D01*
X139903Y-87401D01*
X139851Y-87352D01*
X139804Y-87330D01*
X139761Y-87299D01*
X139693Y-87278D01*
X139628Y-87248D01*
X139576Y-87242D01*
X139526Y-87227D01*
X139454Y-87229D01*
X139383Y-87221D01*
X139332Y-87232D01*
X139280Y-87233D01*
X139213Y-87258D01*
X139143Y-87273D01*
X139098Y-87300D01*
X139049Y-87318D01*
X138993Y-87363D01*
X138932Y-87399D01*
X138898Y-87439D01*
X138857Y-87472D01*
X138819Y-87532D01*
X138772Y-87586D01*
X138752Y-87635D01*
X138724Y-87678D01*
X138707Y-87748D01*
X138680Y-87815D01*
X138672Y-87886D01*
X138664Y-87917D01*
X138666Y-87940D01*
X138662Y-87981D01*
X138662Y-88336D01*
X138488Y-88982D01*
X138154Y-89562D01*
X137868Y-89847D01*
X137815Y-89921D01*
X137756Y-89990D01*
X137744Y-90021D01*
X137725Y-90047D01*
X137698Y-90134D01*
X137664Y-90219D01*
X137659Y-90260D01*
X137653Y-90282D01*
X137653Y-90314D01*
X137646Y-90385D01*
X137646Y-94018D01*
X137660Y-94108D01*
X137667Y-94199D01*
X137680Y-94229D01*
X137685Y-94261D01*
X137728Y-94341D01*
X137764Y-94425D01*
X137789Y-94457D01*
X137800Y-94478D01*
X137824Y-94500D01*
X137868Y-94556D01*
X138154Y-94842D01*
X138488Y-95421D01*
X138662Y-96067D01*
X138662Y-97502D01*
X129759Y-97502D01*
X129739Y-97506D01*
X129720Y-97503D01*
X129618Y-97525D01*
X129516Y-97542D01*
X129499Y-97551D01*
X129479Y-97556D01*
X129421Y-97590D01*
X129381Y-97574D01*
X129288Y-97530D01*
X129268Y-97528D01*
X129249Y-97521D01*
X129083Y-97502D01*
X120180Y-97502D01*
X120180Y-96067D01*
X120353Y-95421D01*
X120688Y-94842D01*
X120973Y-94556D01*
X121026Y-94482D01*
X121086Y-94413D01*
X121098Y-94383D01*
X121117Y-94356D01*
X121143Y-94269D01*
X121178Y-94185D01*
X121182Y-94144D01*
X121189Y-94121D01*
X121188Y-94089D01*
X121196Y-94018D01*
X121196Y-90385D01*
X121181Y-90295D01*
X121174Y-90204D01*
X121162Y-90175D01*
X121156Y-90143D01*
X121114Y-90062D01*
X121078Y-89978D01*
X121052Y-89946D01*
X121041Y-89925D01*
X121018Y-89903D01*
X120973Y-89847D01*
X120688Y-89562D01*
X120353Y-88982D01*
X120180Y-88336D01*
X120180Y-86901D01*
X129083Y-86901D01*
X129102Y-86898D01*
X129122Y-86900D01*
X129223Y-86878D01*
X129325Y-86861D01*
X129343Y-86852D01*
X129362Y-86848D01*
X129451Y-86794D01*
X129543Y-86746D01*
X129556Y-86732D01*
X129574Y-86721D01*
X129641Y-86643D01*
X129712Y-86568D01*
X129720Y-86550D01*
X129733Y-86534D01*
X129772Y-86438D01*
X129816Y-86345D01*
X129818Y-86325D01*
X129825Y-86306D01*
X129844Y-86140D01*
X129844Y-85464D01*
X129842Y-85451D01*
X129843Y-85441D01*
X129842Y-85435D01*
X129843Y-85424D01*
X129821Y-85323D01*
X129804Y-85221D01*
X129795Y-85203D01*
X129791Y-85184D01*
X129737Y-85095D01*
X129689Y-85003D01*
X129675Y-84990D01*
X129664Y-84973D01*
X129586Y-84905D01*
X129511Y-84834D01*
X129493Y-84826D01*
X129477Y-84813D01*
X129381Y-84774D01*
X129288Y-84730D01*
X129268Y-84728D01*
X129249Y-84721D01*
X129083Y-84702D01*
X120180Y-84702D01*
X120180Y-83267D01*
X120353Y-82621D01*
X120688Y-82042D01*
X120973Y-81756D01*
X121026Y-81682D01*
X121086Y-81613D01*
X121098Y-81583D01*
X121117Y-81556D01*
X121143Y-81469D01*
X121178Y-81385D01*
X121182Y-81344D01*
X121189Y-81321D01*
X121188Y-81289D01*
X121196Y-81218D01*
X121196Y-76466D01*
X121212Y-76404D01*
X121242Y-76305D01*
X121242Y-76285D01*
X121246Y-76266D01*
X121238Y-76162D01*
X121236Y-76059D01*
X121229Y-76040D01*
X121227Y-76020D01*
X121196Y-75947D01*
X121196Y-74165D01*
X121184Y-74095D01*
X121183Y-74023D01*
X121165Y-73974D01*
X121156Y-73922D01*
X121123Y-73859D01*
X121098Y-73792D01*
X121066Y-73751D01*
X121041Y-73705D01*
X120989Y-73656D01*
X120944Y-73600D01*
X120901Y-73572D01*
X120863Y-73536D01*
X120798Y-73506D01*
X120738Y-73467D01*
X120687Y-73454D01*
X120640Y-73432D01*
X120569Y-73424D01*
X120499Y-73407D01*
X120447Y-73411D01*
X120395Y-73405D01*
X120325Y-73420D01*
X120254Y-73426D01*
X120206Y-73446D01*
X120155Y-73457D01*
X120093Y-73494D01*
X120027Y-73522D01*
X119972Y-73567D01*
X119944Y-73583D01*
X119929Y-73601D01*
X119897Y-73627D01*
X109030Y-84494D01*
X108977Y-84568D01*
X108917Y-84637D01*
X108905Y-84667D01*
X108886Y-84694D01*
X108859Y-84780D01*
X108825Y-84865D01*
X108821Y-84906D01*
X108814Y-84929D01*
X108815Y-84961D01*
X108807Y-85032D01*
X108807Y-86234D01*
X108810Y-86254D01*
X108808Y-86273D01*
X108830Y-86375D01*
X108846Y-86477D01*
X108856Y-86494D01*
X108860Y-86514D01*
X108913Y-86603D01*
X108962Y-86694D01*
X108976Y-86708D01*
X108986Y-86725D01*
X109065Y-86792D01*
X109140Y-86864D01*
X109158Y-86872D01*
X109173Y-86885D01*
X109269Y-86924D01*
X109363Y-86967D01*
X109383Y-86969D01*
X109401Y-86977D01*
X109568Y-86995D01*
X113652Y-86995D01*
X114545Y-87888D01*
X114545Y-105152D01*
X113555Y-106142D01*
X113543Y-106158D01*
X113527Y-106170D01*
X113471Y-106258D01*
X113411Y-106341D01*
X113405Y-106360D01*
X113394Y-106377D01*
X113369Y-106478D01*
X113339Y-106577D01*
X113339Y-106596D01*
X113334Y-106616D01*
X113342Y-106719D01*
X113345Y-106822D01*
X113352Y-106841D01*
X113353Y-106861D01*
X113394Y-106956D01*
X113429Y-107053D01*
X113442Y-107069D01*
X113450Y-107087D01*
X113555Y-107218D01*
X114545Y-108208D01*
X114545Y-125472D01*
X113652Y-126365D01*
X108298Y-126365D01*
X108278Y-126368D01*
X108259Y-126366D01*
X108157Y-126388D01*
X108055Y-126404D01*
X108038Y-126414D01*
X108018Y-126418D01*
X107929Y-126471D01*
X107838Y-126520D01*
X107824Y-126534D01*
X107807Y-126544D01*
X107740Y-126623D01*
X107668Y-126698D01*
X107660Y-126716D01*
X107647Y-126731D01*
X107608Y-126827D01*
X107565Y-126921D01*
X107563Y-126941D01*
X107555Y-126959D01*
X107537Y-127126D01*
X107537Y-147194D01*
X107540Y-147214D01*
X107538Y-147233D01*
X107560Y-147335D01*
X107576Y-147437D01*
X107586Y-147454D01*
X107590Y-147474D01*
X107643Y-147563D01*
X107692Y-147654D01*
X107706Y-147668D01*
X107716Y-147685D01*
X107795Y-147752D01*
X107870Y-147824D01*
X107888Y-147832D01*
X107903Y-147845D01*
X107999Y-147884D01*
X108093Y-147927D01*
X108113Y-147929D01*
X108131Y-147937D01*
X108298Y-147955D01*
X112382Y-147955D01*
X113275Y-148848D01*
X113275Y-152704D01*
X113278Y-152724D01*
X113276Y-152744D01*
X113298Y-152846D01*
X113314Y-152947D01*
X113324Y-152965D01*
X113328Y-152984D01*
X113381Y-153073D01*
X113430Y-153165D01*
X113444Y-153178D01*
X113454Y-153195D01*
X113533Y-153263D01*
X113608Y-153334D01*
X113626Y-153342D01*
X113641Y-153355D01*
X113737Y-153394D01*
X113831Y-153438D01*
X113851Y-153440D01*
X113869Y-153447D01*
X114036Y-153466D01*
X116485Y-153466D01*
X116575Y-153451D01*
X116666Y-153444D01*
X116696Y-153431D01*
X116728Y-153426D01*
X116809Y-153383D01*
X116892Y-153348D01*
X116925Y-153322D01*
X116945Y-153311D01*
X116967Y-153287D01*
X117023Y-153243D01*
X118988Y-151278D01*
X125928Y-151278D01*
X125999Y-151266D01*
X126071Y-151264D01*
X126120Y-151246D01*
X126171Y-151238D01*
X126234Y-151204D01*
X126302Y-151180D01*
X126342Y-151147D01*
X126389Y-151123D01*
X126438Y-151071D01*
X126494Y-151026D01*
X126522Y-150982D01*
X126558Y-150944D01*
X126588Y-150880D01*
X126627Y-150819D01*
X126640Y-150769D01*
X126662Y-150721D01*
X126669Y-150650D01*
X126687Y-150581D01*
X126683Y-150529D01*
X126689Y-150477D01*
X126673Y-150407D01*
X126668Y-150335D01*
X126647Y-150288D01*
X126636Y-150237D01*
X126600Y-150175D01*
X126571Y-150109D01*
X126527Y-150053D01*
X126510Y-150025D01*
X126492Y-150010D01*
X126467Y-149978D01*
X123736Y-147247D01*
X122173Y-145685D01*
X122173Y-119836D01*
X122159Y-119746D01*
X122151Y-119655D01*
X122139Y-119625D01*
X122134Y-119593D01*
X122091Y-119513D01*
X122055Y-119429D01*
X122029Y-119397D01*
X122018Y-119376D01*
X121995Y-119354D01*
X121950Y-119298D01*
X118148Y-115496D01*
X118148Y-107308D01*
X120973Y-104483D01*
X121026Y-104409D01*
X121086Y-104339D01*
X121098Y-104309D01*
X121117Y-104283D01*
X121143Y-104196D01*
X121178Y-104111D01*
X121182Y-104070D01*
X121189Y-104048D01*
X121188Y-104016D01*
X121196Y-103944D01*
X121196Y-103185D01*
X121181Y-103095D01*
X121174Y-103004D01*
X121162Y-102975D01*
X121156Y-102943D01*
X121114Y-102862D01*
X121078Y-102778D01*
X121052Y-102746D01*
X121041Y-102725D01*
X121018Y-102703D01*
X120973Y-102647D01*
X120688Y-102362D01*
X120353Y-101782D01*
X120180Y-101136D01*
X120180Y-99701D01*
X129083Y-99701D01*
X129102Y-99698D01*
X129122Y-99700D01*
X129223Y-99678D01*
X129325Y-99661D01*
X129343Y-99652D01*
X129362Y-99648D01*
X129420Y-99613D01*
X129460Y-99629D01*
X129554Y-99673D01*
X129574Y-99675D01*
X129592Y-99682D01*
X129759Y-99701D01*
X138661Y-99701D01*
X138662Y-101136D01*
X138488Y-101782D01*
X138154Y-102362D01*
X137868Y-102647D01*
X137815Y-102721D01*
X137756Y-102790D01*
X137744Y-102821D01*
X137725Y-102847D01*
X137698Y-102934D01*
X137664Y-103019D01*
X137659Y-103060D01*
X137653Y-103082D01*
X137653Y-103114D01*
X137646Y-103185D01*
X137646Y-107937D01*
X137630Y-107999D01*
X137599Y-108098D01*
X137600Y-108118D01*
X137595Y-108137D01*
X137603Y-108240D01*
X137606Y-108344D01*
X137613Y-108363D01*
X137614Y-108383D01*
X137646Y-108456D01*
X137646Y-114233D01*
X136752Y-115126D01*
X132469Y-115126D01*
X132449Y-115130D01*
X132429Y-115127D01*
X132328Y-115149D01*
X132226Y-115166D01*
X132208Y-115175D01*
X132189Y-115180D01*
X132100Y-115233D01*
X132009Y-115281D01*
X131995Y-115296D01*
X131978Y-115306D01*
X131910Y-115385D01*
X131839Y-115460D01*
X131831Y-115478D01*
X131818Y-115493D01*
X131779Y-115589D01*
X131736Y-115683D01*
X131733Y-115702D01*
X131726Y-115721D01*
X131708Y-115888D01*
X131708Y-144125D01*
X131709Y-144133D01*
X131709Y-144136D01*
X131712Y-144150D01*
X131722Y-144215D01*
X131729Y-144306D01*
X131742Y-144336D01*
X131747Y-144368D01*
X131790Y-144449D01*
X131826Y-144533D01*
X131851Y-144565D01*
X131862Y-144585D01*
X131886Y-144608D01*
X131930Y-144664D01*
X140832Y-153565D01*
X140890Y-153607D01*
X140942Y-153656D01*
X140989Y-153678D01*
X141031Y-153708D01*
X141100Y-153729D01*
X141165Y-153760D01*
X141217Y-153765D01*
X141267Y-153781D01*
X141338Y-153779D01*
X141410Y-153787D01*
X141460Y-153776D01*
G37*
%LPC*%
G36*
X196089Y-115126D02*
X196089Y-115126D01*
X195196Y-114233D01*
X195196Y-108466D01*
X195212Y-108404D01*
X195242Y-108305D01*
X195242Y-108285D01*
X195246Y-108266D01*
X195238Y-108163D01*
X195236Y-108059D01*
X195229Y-108040D01*
X195227Y-108020D01*
X195196Y-107947D01*
X195196Y-102066D01*
X195212Y-102004D01*
X195242Y-101905D01*
X195242Y-101885D01*
X195246Y-101866D01*
X195238Y-101762D01*
X195236Y-101659D01*
X195229Y-101640D01*
X195227Y-101620D01*
X195196Y-101547D01*
X195196Y-95666D01*
X195212Y-95604D01*
X195242Y-95505D01*
X195242Y-95485D01*
X195246Y-95466D01*
X195238Y-95362D01*
X195236Y-95259D01*
X195229Y-95240D01*
X195227Y-95220D01*
X195187Y-95125D01*
X195167Y-95070D01*
X195156Y-95007D01*
X195147Y-94989D01*
X195143Y-94970D01*
X195090Y-94881D01*
X195041Y-94789D01*
X195027Y-94776D01*
X195017Y-94759D01*
X194938Y-94691D01*
X194863Y-94620D01*
X194845Y-94612D01*
X194830Y-94599D01*
X194733Y-94560D01*
X194640Y-94516D01*
X194620Y-94514D01*
X194602Y-94507D01*
X194435Y-94488D01*
X162374Y-94488D01*
X155966Y-88080D01*
X155892Y-88027D01*
X155822Y-87967D01*
X155792Y-87955D01*
X155766Y-87936D01*
X155679Y-87909D01*
X155594Y-87875D01*
X155553Y-87871D01*
X155531Y-87864D01*
X155499Y-87865D01*
X155427Y-87857D01*
X151472Y-87857D01*
X148363Y-84748D01*
X148363Y-80352D01*
X151472Y-77243D01*
X155868Y-77243D01*
X158977Y-80352D01*
X158977Y-84307D01*
X158991Y-84398D01*
X158999Y-84488D01*
X159011Y-84518D01*
X159016Y-84550D01*
X159059Y-84631D01*
X159095Y-84715D01*
X159121Y-84747D01*
X159132Y-84768D01*
X159155Y-84790D01*
X159200Y-84846D01*
X164046Y-89692D01*
X164120Y-89745D01*
X164189Y-89804D01*
X164219Y-89817D01*
X164246Y-89835D01*
X164333Y-89862D01*
X164417Y-89896D01*
X164458Y-89901D01*
X164481Y-89908D01*
X164513Y-89907D01*
X164584Y-89915D01*
X194435Y-89915D01*
X194454Y-89912D01*
X194474Y-89914D01*
X194576Y-89892D01*
X194678Y-89875D01*
X194695Y-89866D01*
X194715Y-89862D01*
X194804Y-89808D01*
X194895Y-89760D01*
X194909Y-89746D01*
X194926Y-89735D01*
X194993Y-89657D01*
X195064Y-89582D01*
X195073Y-89564D01*
X195086Y-89548D01*
X195124Y-89452D01*
X195168Y-89359D01*
X195170Y-89339D01*
X195178Y-89320D01*
X195178Y-89318D01*
X195186Y-89304D01*
X195212Y-89204D01*
X195242Y-89105D01*
X195242Y-89085D01*
X195246Y-89066D01*
X195238Y-88963D01*
X195236Y-88859D01*
X195229Y-88841D01*
X195227Y-88821D01*
X195187Y-88726D01*
X195167Y-88670D01*
X195156Y-88607D01*
X195147Y-88589D01*
X195143Y-88570D01*
X195090Y-88481D01*
X195041Y-88389D01*
X195027Y-88376D01*
X195017Y-88359D01*
X194938Y-88291D01*
X194863Y-88220D01*
X194845Y-88212D01*
X194830Y-88199D01*
X194733Y-88160D01*
X194640Y-88116D01*
X194620Y-88114D01*
X194602Y-88107D01*
X194435Y-88088D01*
X171214Y-88088D01*
X155966Y-72840D01*
X155892Y-72787D01*
X155822Y-72727D01*
X155792Y-72715D01*
X155766Y-72696D01*
X155679Y-72669D01*
X155594Y-72635D01*
X155553Y-72631D01*
X155531Y-72624D01*
X155499Y-72625D01*
X155427Y-72617D01*
X151472Y-72617D01*
X148363Y-69508D01*
X148363Y-65112D01*
X151472Y-62003D01*
X155868Y-62003D01*
X158977Y-65112D01*
X158977Y-69067D01*
X158991Y-69158D01*
X158999Y-69248D01*
X159011Y-69278D01*
X159016Y-69310D01*
X159059Y-69391D01*
X159095Y-69475D01*
X159121Y-69507D01*
X159132Y-69528D01*
X159155Y-69550D01*
X159200Y-69606D01*
X172886Y-83292D01*
X172960Y-83345D01*
X173029Y-83404D01*
X173059Y-83417D01*
X173086Y-83435D01*
X173173Y-83462D01*
X173257Y-83496D01*
X173298Y-83501D01*
X173321Y-83508D01*
X173353Y-83507D01*
X173424Y-83515D01*
X194435Y-83515D01*
X194454Y-83512D01*
X194474Y-83514D01*
X194576Y-83492D01*
X194678Y-83475D01*
X194695Y-83466D01*
X194715Y-83462D01*
X194804Y-83408D01*
X194895Y-83360D01*
X194909Y-83346D01*
X194926Y-83335D01*
X194993Y-83257D01*
X195064Y-83182D01*
X195073Y-83164D01*
X195086Y-83148D01*
X195124Y-83052D01*
X195168Y-82959D01*
X195170Y-82939D01*
X195178Y-82920D01*
X195178Y-82918D01*
X195186Y-82904D01*
X195212Y-82804D01*
X195242Y-82705D01*
X195242Y-82685D01*
X195246Y-82666D01*
X195238Y-82563D01*
X195236Y-82459D01*
X195229Y-82441D01*
X195227Y-82421D01*
X195196Y-82347D01*
X195196Y-76466D01*
X195212Y-76404D01*
X195242Y-76305D01*
X195242Y-76285D01*
X195246Y-76266D01*
X195238Y-76163D01*
X195236Y-76059D01*
X195229Y-76041D01*
X195227Y-76021D01*
X195196Y-75947D01*
X195196Y-70066D01*
X195212Y-70004D01*
X195242Y-69905D01*
X195242Y-69885D01*
X195246Y-69866D01*
X195238Y-69763D01*
X195236Y-69659D01*
X195229Y-69641D01*
X195227Y-69621D01*
X195196Y-69547D01*
X195196Y-63770D01*
X196089Y-62877D01*
X207825Y-62877D01*
X207896Y-62865D01*
X207968Y-62863D01*
X208016Y-62846D01*
X208068Y-62837D01*
X208131Y-62804D01*
X208199Y-62779D01*
X208239Y-62746D01*
X208285Y-62722D01*
X208335Y-62670D01*
X208391Y-62625D01*
X208419Y-62581D01*
X208455Y-62544D01*
X208485Y-62479D01*
X208524Y-62418D01*
X208536Y-62368D01*
X208558Y-62321D01*
X208566Y-62249D01*
X208584Y-62180D01*
X208580Y-62128D01*
X208585Y-62076D01*
X208570Y-62006D01*
X208565Y-61935D01*
X208544Y-61887D01*
X208533Y-61836D01*
X208496Y-61774D01*
X208468Y-61708D01*
X208423Y-61652D01*
X208407Y-61625D01*
X208389Y-61609D01*
X208363Y-61577D01*
X208214Y-61428D01*
X208140Y-61374D01*
X208070Y-61315D01*
X208040Y-61303D01*
X208014Y-61284D01*
X207927Y-61257D01*
X207842Y-61223D01*
X207801Y-61219D01*
X207779Y-61212D01*
X207747Y-61213D01*
X207675Y-61205D01*
X194568Y-61205D01*
X193675Y-60312D01*
X193675Y-46048D01*
X194568Y-45155D01*
X211832Y-45155D01*
X212725Y-46048D01*
X212725Y-59155D01*
X212739Y-59246D01*
X212747Y-59336D01*
X212759Y-59366D01*
X212764Y-59398D01*
X212807Y-59479D01*
X212843Y-59563D01*
X212869Y-59595D01*
X212880Y-59616D01*
X212903Y-59638D01*
X212948Y-59694D01*
X214693Y-61440D01*
X214693Y-77096D01*
X213131Y-78658D01*
X211868Y-79921D01*
X211815Y-79995D01*
X211756Y-80064D01*
X211744Y-80094D01*
X211725Y-80120D01*
X211698Y-80207D01*
X211664Y-80292D01*
X211659Y-80333D01*
X211653Y-80355D01*
X211653Y-80388D01*
X211646Y-80459D01*
X211646Y-82337D01*
X211630Y-82400D01*
X211599Y-82498D01*
X211600Y-82518D01*
X211595Y-82538D01*
X211603Y-82641D01*
X211606Y-82744D01*
X211613Y-82763D01*
X211614Y-82783D01*
X211646Y-82856D01*
X211646Y-88737D01*
X211630Y-88800D01*
X211599Y-88898D01*
X211600Y-88918D01*
X211595Y-88938D01*
X211603Y-89041D01*
X211606Y-89144D01*
X211613Y-89163D01*
X211614Y-89183D01*
X211646Y-89256D01*
X211646Y-95137D01*
X211630Y-95199D01*
X211599Y-95298D01*
X211600Y-95318D01*
X211595Y-95337D01*
X211603Y-95440D01*
X211606Y-95544D01*
X211613Y-95563D01*
X211614Y-95583D01*
X211646Y-95656D01*
X211646Y-101537D01*
X211630Y-101599D01*
X211599Y-101698D01*
X211600Y-101718D01*
X211595Y-101737D01*
X211603Y-101840D01*
X211606Y-101944D01*
X211613Y-101963D01*
X211614Y-101983D01*
X211646Y-102056D01*
X211646Y-107937D01*
X211630Y-107999D01*
X211599Y-108098D01*
X211600Y-108118D01*
X211595Y-108137D01*
X211603Y-108240D01*
X211606Y-108344D01*
X211613Y-108363D01*
X211614Y-108383D01*
X211646Y-108456D01*
X211646Y-114233D01*
X210752Y-115126D01*
X196089Y-115126D01*
G37*
%LPD*%
G36*
X118211Y140115D02*
X118211Y140115D01*
X118283Y140121D01*
X118330Y140141D01*
X118381Y140152D01*
X118443Y140189D01*
X118509Y140217D01*
X118565Y140262D01*
X118593Y140278D01*
X118608Y140296D01*
X118640Y140322D01*
X118968Y140650D01*
X126867Y140650D01*
X126938Y140662D01*
X127010Y140663D01*
X127059Y140681D01*
X127110Y140690D01*
X127173Y140723D01*
X127241Y140748D01*
X127281Y140780D01*
X127327Y140805D01*
X127377Y140857D01*
X127433Y140902D01*
X127461Y140945D01*
X127497Y140983D01*
X127527Y141048D01*
X127566Y141109D01*
X127579Y141159D01*
X127600Y141206D01*
X127608Y141277D01*
X127626Y141347D01*
X127622Y141399D01*
X127628Y141451D01*
X127612Y141521D01*
X127607Y141592D01*
X127586Y141640D01*
X127575Y141691D01*
X127539Y141753D01*
X127510Y141819D01*
X127466Y141875D01*
X127449Y141902D01*
X127431Y141917D01*
X127406Y141950D01*
X126773Y142582D01*
X126773Y146978D01*
X127946Y148151D01*
X127957Y148167D01*
X127973Y148179D01*
X128029Y148267D01*
X128089Y148350D01*
X128095Y148369D01*
X128106Y148386D01*
X128131Y148487D01*
X128162Y148586D01*
X128161Y148605D01*
X128166Y148625D01*
X128158Y148728D01*
X128155Y148831D01*
X128149Y148850D01*
X128147Y148870D01*
X128107Y148965D01*
X128071Y149062D01*
X128058Y149078D01*
X128051Y149096D01*
X127946Y149227D01*
X125503Y151670D01*
X125503Y156066D01*
X126676Y157239D01*
X126687Y157255D01*
X126703Y157267D01*
X126759Y157355D01*
X126819Y157438D01*
X126825Y157457D01*
X126836Y157474D01*
X126861Y157575D01*
X126892Y157674D01*
X126891Y157693D01*
X126896Y157713D01*
X126888Y157816D01*
X126885Y157919D01*
X126879Y157938D01*
X126877Y157958D01*
X126837Y158053D01*
X126801Y158150D01*
X126788Y158166D01*
X126781Y158184D01*
X126676Y158315D01*
X124233Y160758D01*
X124233Y160809D01*
X124222Y160879D01*
X124220Y160951D01*
X124202Y161000D01*
X124194Y161051D01*
X124160Y161115D01*
X124135Y161182D01*
X124103Y161223D01*
X124078Y161269D01*
X124026Y161318D01*
X123982Y161374D01*
X123938Y161402D01*
X123900Y161438D01*
X123835Y161468D01*
X123775Y161507D01*
X123724Y161520D01*
X123677Y161542D01*
X123606Y161550D01*
X123536Y161567D01*
X123484Y161563D01*
X123433Y161569D01*
X123362Y161554D01*
X123291Y161548D01*
X123243Y161528D01*
X123192Y161517D01*
X123131Y161480D01*
X123065Y161452D01*
X123009Y161407D01*
X122981Y161390D01*
X122966Y161373D01*
X122934Y161347D01*
X122650Y161063D01*
X118254Y161063D01*
X115145Y164172D01*
X115145Y168568D01*
X115429Y168852D01*
X115471Y168910D01*
X115520Y168962D01*
X115542Y169009D01*
X115572Y169051D01*
X115594Y169120D01*
X115624Y169185D01*
X115629Y169237D01*
X115645Y169287D01*
X115643Y169358D01*
X115651Y169429D01*
X115640Y169480D01*
X115638Y169532D01*
X115614Y169600D01*
X115599Y169670D01*
X115572Y169715D01*
X115554Y169763D01*
X115509Y169819D01*
X115472Y169881D01*
X115433Y169915D01*
X115400Y169955D01*
X115340Y169994D01*
X115285Y170041D01*
X115237Y170060D01*
X115193Y170088D01*
X115124Y170106D01*
X115057Y170133D01*
X114986Y170141D01*
X114955Y170149D01*
X114932Y170147D01*
X114891Y170151D01*
X112324Y170151D01*
X112234Y170137D01*
X112143Y170129D01*
X112113Y170117D01*
X112081Y170112D01*
X112001Y170069D01*
X111917Y170033D01*
X111885Y170007D01*
X111864Y169996D01*
X111842Y169973D01*
X111786Y169928D01*
X98324Y156466D01*
X98282Y156408D01*
X98233Y156356D01*
X98211Y156309D01*
X98180Y156267D01*
X98159Y156198D01*
X98129Y156133D01*
X98123Y156081D01*
X98108Y156031D01*
X98110Y155960D01*
X98102Y155889D01*
X98113Y155838D01*
X98114Y155786D01*
X98139Y155718D01*
X98154Y155648D01*
X98181Y155603D01*
X98199Y155555D01*
X98244Y155499D01*
X98280Y155437D01*
X98320Y155403D01*
X98352Y155363D01*
X98413Y155324D01*
X98467Y155277D01*
X98516Y155258D01*
X98559Y155230D01*
X98629Y155212D01*
X98695Y155185D01*
X98767Y155177D01*
X98798Y155169D01*
X98821Y155171D01*
X98862Y155167D01*
X101258Y155167D01*
X102614Y153811D01*
X102672Y153769D01*
X102724Y153720D01*
X102771Y153698D01*
X102813Y153668D01*
X102882Y153646D01*
X102947Y153616D01*
X102999Y153611D01*
X103049Y153595D01*
X103120Y153597D01*
X103191Y153589D01*
X103242Y153600D01*
X103294Y153602D01*
X103362Y153626D01*
X103432Y153641D01*
X103477Y153668D01*
X103525Y153686D01*
X103581Y153731D01*
X103643Y153768D01*
X103677Y153807D01*
X103717Y153840D01*
X103756Y153900D01*
X103803Y153955D01*
X103822Y154003D01*
X103850Y154047D01*
X103868Y154116D01*
X103895Y154183D01*
X103903Y154254D01*
X103911Y154285D01*
X103909Y154308D01*
X103913Y154349D01*
X103913Y155868D01*
X107022Y158977D01*
X111418Y158977D01*
X114527Y155868D01*
X114527Y151213D01*
X114534Y151170D01*
X114532Y151126D01*
X114554Y151049D01*
X114566Y150970D01*
X114587Y150931D01*
X114599Y150889D01*
X114644Y150823D01*
X114682Y150753D01*
X114713Y150723D01*
X114738Y150686D01*
X114802Y150638D01*
X114860Y150583D01*
X114900Y150565D01*
X114935Y150539D01*
X115070Y150486D01*
X115083Y150480D01*
X115086Y150479D01*
X115091Y150478D01*
X115780Y150293D01*
X116360Y149958D01*
X116833Y149485D01*
X117167Y148906D01*
X117340Y148260D01*
X117340Y144187D01*
X113600Y144187D01*
X113580Y144183D01*
X113560Y144186D01*
X113459Y144164D01*
X113357Y144147D01*
X113340Y144138D01*
X113320Y144133D01*
X113231Y144080D01*
X113140Y144032D01*
X113126Y144017D01*
X113109Y144007D01*
X113042Y143928D01*
X112970Y143853D01*
X112962Y143835D01*
X112949Y143820D01*
X112910Y143724D01*
X112867Y143630D01*
X112865Y143611D01*
X112857Y143592D01*
X112839Y143425D01*
X112842Y143406D01*
X112840Y143386D01*
X112862Y143284D01*
X112878Y143182D01*
X112888Y143165D01*
X112892Y143145D01*
X112945Y143056D01*
X112993Y142965D01*
X113008Y142951D01*
X113018Y142934D01*
X113097Y142867D01*
X113172Y142796D01*
X113190Y142787D01*
X113205Y142774D01*
X113301Y142735D01*
X113395Y142692D01*
X113415Y142690D01*
X113433Y142682D01*
X113600Y142664D01*
X117340Y142664D01*
X117340Y140860D01*
X117352Y140789D01*
X117354Y140718D01*
X117372Y140669D01*
X117380Y140617D01*
X117414Y140554D01*
X117438Y140487D01*
X117471Y140446D01*
X117495Y140400D01*
X117547Y140351D01*
X117592Y140295D01*
X117636Y140266D01*
X117674Y140231D01*
X117739Y140200D01*
X117799Y140162D01*
X117849Y140149D01*
X117897Y140127D01*
X117968Y140119D01*
X118037Y140102D01*
X118089Y140106D01*
X118141Y140100D01*
X118211Y140115D01*
G37*
%LPC*%
G36*
X88043Y-115317D02*
X88043Y-115317D01*
X88043Y-98043D01*
X95561Y-98043D01*
X95561Y-104854D01*
X95388Y-105501D01*
X95053Y-106080D01*
X94991Y-106142D01*
X94980Y-106158D01*
X94964Y-106170D01*
X94908Y-106258D01*
X94848Y-106341D01*
X94842Y-106360D01*
X94831Y-106377D01*
X94806Y-106477D01*
X94776Y-106576D01*
X94776Y-106596D01*
X94771Y-106616D01*
X94779Y-106719D01*
X94782Y-106822D01*
X94789Y-106841D01*
X94790Y-106861D01*
X94831Y-106956D01*
X94866Y-107053D01*
X94879Y-107069D01*
X94887Y-107087D01*
X94991Y-107218D01*
X95053Y-107280D01*
X95388Y-107859D01*
X95561Y-108506D01*
X95561Y-115317D01*
X88043Y-115317D01*
G37*
%LPD*%
%LPC*%
G36*
X77479Y-115317D02*
X77479Y-115317D01*
X77479Y-108506D01*
X77652Y-107859D01*
X77987Y-107280D01*
X78049Y-107218D01*
X78060Y-107202D01*
X78076Y-107190D01*
X78132Y-107102D01*
X78192Y-107019D01*
X78198Y-106999D01*
X78209Y-106983D01*
X78234Y-106882D01*
X78264Y-106783D01*
X78264Y-106763D01*
X78269Y-106744D01*
X78261Y-106641D01*
X78258Y-106538D01*
X78251Y-106519D01*
X78250Y-106499D01*
X78209Y-106404D01*
X78174Y-106307D01*
X78161Y-106291D01*
X78153Y-106273D01*
X78049Y-106142D01*
X77987Y-106080D01*
X77652Y-105501D01*
X77479Y-104854D01*
X77479Y-98043D01*
X84997Y-98043D01*
X84997Y-115317D01*
X77479Y-115317D01*
G37*
%LPD*%
%LPC*%
G36*
X210913Y-152147D02*
X210913Y-152147D01*
X210913Y-143129D01*
X211422Y-143129D01*
X211442Y-143126D01*
X211461Y-143128D01*
X211563Y-143106D01*
X211665Y-143090D01*
X211682Y-143080D01*
X211702Y-143076D01*
X211791Y-143023D01*
X211882Y-142974D01*
X211896Y-142960D01*
X211913Y-142950D01*
X211980Y-142871D01*
X212051Y-142796D01*
X212060Y-142778D01*
X212073Y-142763D01*
X212112Y-142667D01*
X212155Y-142573D01*
X212157Y-142553D01*
X212165Y-142535D01*
X212183Y-142368D01*
X212183Y-136143D01*
X219701Y-136143D01*
X219701Y-142954D01*
X219528Y-143601D01*
X219193Y-144180D01*
X218654Y-144719D01*
X218600Y-144794D01*
X218541Y-144863D01*
X218529Y-144893D01*
X218510Y-144919D01*
X218483Y-145006D01*
X218449Y-145091D01*
X218445Y-145132D01*
X218438Y-145154D01*
X218439Y-145186D01*
X218431Y-145258D01*
X218431Y-152147D01*
X210913Y-152147D01*
G37*
%LPD*%
%LPC*%
G36*
X200349Y-152147D02*
X200349Y-152147D01*
X200349Y-145336D01*
X200522Y-144689D01*
X200857Y-144110D01*
X201396Y-143571D01*
X201449Y-143497D01*
X201509Y-143427D01*
X201521Y-143397D01*
X201540Y-143371D01*
X201567Y-143284D01*
X201601Y-143199D01*
X201605Y-143158D01*
X201612Y-143136D01*
X201611Y-143104D01*
X201619Y-143032D01*
X201619Y-136143D01*
X209137Y-136143D01*
X209137Y-145161D01*
X208628Y-145161D01*
X208608Y-145164D01*
X208589Y-145162D01*
X208487Y-145184D01*
X208385Y-145200D01*
X208368Y-145210D01*
X208348Y-145214D01*
X208259Y-145267D01*
X208168Y-145316D01*
X208154Y-145330D01*
X208137Y-145340D01*
X208070Y-145419D01*
X207999Y-145494D01*
X207990Y-145512D01*
X207977Y-145527D01*
X207938Y-145623D01*
X207895Y-145717D01*
X207893Y-145737D01*
X207885Y-145755D01*
X207867Y-145922D01*
X207867Y-152147D01*
X200349Y-152147D01*
G37*
%LPD*%
%LPC*%
G36*
X86773Y-175007D02*
X86773Y-175007D01*
X86773Y-159003D01*
X94291Y-159003D01*
X94291Y-165814D01*
X94118Y-166461D01*
X94023Y-166624D01*
X93999Y-166688D01*
X93966Y-166747D01*
X93956Y-166802D01*
X93936Y-166854D01*
X93934Y-166922D01*
X93921Y-166989D01*
X93929Y-167044D01*
X93927Y-167100D01*
X93946Y-167165D01*
X93956Y-167232D01*
X93987Y-167304D01*
X93997Y-167336D01*
X94009Y-167353D01*
X94023Y-167386D01*
X94118Y-167549D01*
X94291Y-168196D01*
X94291Y-175007D01*
X86773Y-175007D01*
G37*
%LPD*%
%LPC*%
G36*
X113283Y-204217D02*
X113283Y-204217D01*
X113283Y-188074D01*
X114139Y-188209D01*
X115660Y-188704D01*
X117085Y-189430D01*
X118379Y-190370D01*
X119510Y-191501D01*
X120450Y-192795D01*
X121176Y-194220D01*
X121671Y-195741D01*
X121921Y-197320D01*
X121921Y-204217D01*
X113283Y-204217D01*
G37*
%LPD*%
%LPC*%
G36*
X139793Y-36577D02*
X139793Y-36577D01*
X139793Y-27559D01*
X139828Y-27559D01*
X139848Y-27556D01*
X139867Y-27558D01*
X139969Y-27536D01*
X140071Y-27520D01*
X140088Y-27510D01*
X140108Y-27506D01*
X140197Y-27453D01*
X140288Y-27404D01*
X140302Y-27390D01*
X140319Y-27380D01*
X140386Y-27301D01*
X140458Y-27226D01*
X140466Y-27208D01*
X140479Y-27193D01*
X140518Y-27097D01*
X140561Y-27003D01*
X140563Y-26983D01*
X140571Y-26965D01*
X140589Y-26798D01*
X140589Y-22953D01*
X149607Y-22953D01*
X149607Y-30471D01*
X148072Y-30471D01*
X148052Y-30474D01*
X148033Y-30472D01*
X147931Y-30494D01*
X147829Y-30510D01*
X147812Y-30520D01*
X147792Y-30524D01*
X147703Y-30577D01*
X147612Y-30626D01*
X147598Y-30640D01*
X147581Y-30650D01*
X147514Y-30729D01*
X147442Y-30804D01*
X147434Y-30822D01*
X147421Y-30837D01*
X147382Y-30933D01*
X147339Y-31027D01*
X147337Y-31047D01*
X147329Y-31065D01*
X147311Y-31232D01*
X147311Y-36577D01*
X139793Y-36577D01*
G37*
%LPD*%
%LPC*%
G36*
X86773Y-187071D02*
X86773Y-187071D01*
X86773Y-178053D01*
X94291Y-178053D01*
X94291Y-184864D01*
X94118Y-185511D01*
X93783Y-186090D01*
X93310Y-186563D01*
X92731Y-186898D01*
X92084Y-187071D01*
X86773Y-187071D01*
G37*
%LPD*%
%LPC*%
G36*
X171703Y-10471D02*
X171703Y-10471D01*
X171703Y-2953D01*
X180721Y-2953D01*
X180721Y-8264D01*
X180548Y-8911D01*
X180213Y-9490D01*
X179740Y-9963D01*
X179161Y-10298D01*
X178514Y-10471D01*
X171703Y-10471D01*
G37*
%LPD*%
%LPC*%
G36*
X188053Y-185801D02*
X188053Y-185801D01*
X188053Y-176783D01*
X195571Y-176783D01*
X195571Y-183594D01*
X195398Y-184241D01*
X195063Y-184820D01*
X194590Y-185293D01*
X194011Y-185628D01*
X193364Y-185801D01*
X188053Y-185801D01*
G37*
%LPD*%
%LPC*%
G36*
X88043Y-127381D02*
X88043Y-127381D01*
X88043Y-118363D01*
X95561Y-118363D01*
X95561Y-125174D01*
X95388Y-125821D01*
X95053Y-126400D01*
X94580Y-126873D01*
X94001Y-127208D01*
X93354Y-127381D01*
X88043Y-127381D01*
G37*
%LPD*%
%LPC*%
G36*
X170433Y-146361D02*
X170433Y-146361D01*
X170433Y-138843D01*
X179451Y-138843D01*
X179451Y-144154D01*
X179278Y-144801D01*
X178943Y-145380D01*
X178470Y-145853D01*
X177891Y-146188D01*
X177244Y-146361D01*
X170433Y-146361D01*
G37*
%LPD*%
%LPC*%
G36*
X139793Y-48641D02*
X139793Y-48641D01*
X139793Y-39623D01*
X147311Y-39623D01*
X147311Y-46434D01*
X147138Y-47081D01*
X146803Y-47660D01*
X146330Y-48133D01*
X145751Y-48468D01*
X145104Y-48641D01*
X139793Y-48641D01*
G37*
%LPD*%
%LPC*%
G36*
X210913Y-164211D02*
X210913Y-164211D01*
X210913Y-155193D01*
X218431Y-155193D01*
X218431Y-162004D01*
X218258Y-162651D01*
X217923Y-163230D01*
X217450Y-163703D01*
X216871Y-164038D01*
X216224Y-164211D01*
X210913Y-164211D01*
G37*
%LPD*%
%LPC*%
G36*
X88043Y-94997D02*
X88043Y-94997D01*
X88043Y-85979D01*
X93354Y-85979D01*
X94001Y-86152D01*
X94580Y-86487D01*
X95053Y-86960D01*
X95388Y-87539D01*
X95561Y-88186D01*
X95561Y-94997D01*
X88043Y-94997D01*
G37*
%LPD*%
%LPC*%
G36*
X86773Y-155957D02*
X86773Y-155957D01*
X86773Y-146939D01*
X92084Y-146939D01*
X92731Y-147112D01*
X93310Y-147447D01*
X93783Y-147920D01*
X94118Y-148499D01*
X94291Y-149146D01*
X94291Y-155957D01*
X86773Y-155957D01*
G37*
%LPD*%
%LPC*%
G36*
X212183Y-133097D02*
X212183Y-133097D01*
X212183Y-124079D01*
X217494Y-124079D01*
X218141Y-124252D01*
X218720Y-124587D01*
X219193Y-125060D01*
X219528Y-125639D01*
X219701Y-126286D01*
X219701Y-133097D01*
X212183Y-133097D01*
G37*
%LPD*%
%LPC*%
G36*
X160576Y-146361D02*
X160576Y-146361D01*
X159929Y-146188D01*
X159350Y-145853D01*
X158877Y-145380D01*
X158542Y-144801D01*
X158369Y-144154D01*
X158369Y-138843D01*
X167387Y-138843D01*
X167387Y-146361D01*
X160576Y-146361D01*
G37*
%LPD*%
%LPC*%
G36*
X188053Y-173737D02*
X188053Y-173737D01*
X188053Y-164719D01*
X193364Y-164719D01*
X194011Y-164892D01*
X194590Y-165227D01*
X195063Y-165700D01*
X195398Y-166279D01*
X195571Y-166926D01*
X195571Y-173737D01*
X188053Y-173737D01*
G37*
%LPD*%
%LPC*%
G36*
X79686Y-127381D02*
X79686Y-127381D01*
X79039Y-127208D01*
X78460Y-126873D01*
X77987Y-126400D01*
X77652Y-125821D01*
X77479Y-125174D01*
X77479Y-118363D01*
X84997Y-118363D01*
X84997Y-127381D01*
X79686Y-127381D01*
G37*
%LPD*%
%LPC*%
G36*
X179696Y-185801D02*
X179696Y-185801D01*
X179049Y-185628D01*
X178470Y-185293D01*
X177997Y-184820D01*
X177662Y-184241D01*
X177489Y-183594D01*
X177489Y-176783D01*
X185007Y-176783D01*
X185007Y-185801D01*
X179696Y-185801D01*
G37*
%LPD*%
%LPC*%
G36*
X202556Y-164211D02*
X202556Y-164211D01*
X201909Y-164038D01*
X201330Y-163703D01*
X200857Y-163230D01*
X200522Y-162651D01*
X200349Y-162004D01*
X200349Y-155193D01*
X207867Y-155193D01*
X207867Y-164211D01*
X202556Y-164211D01*
G37*
%LPD*%
%LPC*%
G36*
X170433Y-135797D02*
X170433Y-135797D01*
X170433Y-128279D01*
X177244Y-128279D01*
X177891Y-128452D01*
X178470Y-128787D01*
X178943Y-129260D01*
X179278Y-129839D01*
X179451Y-130486D01*
X179451Y-135797D01*
X170433Y-135797D01*
G37*
%LPD*%
%LPC*%
G36*
X77479Y-94997D02*
X77479Y-94997D01*
X77479Y-88186D01*
X77652Y-87539D01*
X77987Y-86960D01*
X78460Y-86487D01*
X79039Y-86152D01*
X79686Y-85979D01*
X84997Y-85979D01*
X84997Y-94997D01*
X77479Y-94997D01*
G37*
%LPD*%
%LPC*%
G36*
X140589Y-19907D02*
X140589Y-19907D01*
X140589Y-14596D01*
X140762Y-13949D01*
X141097Y-13370D01*
X141570Y-12897D01*
X142149Y-12562D01*
X142796Y-12389D01*
X149607Y-12389D01*
X149607Y-19907D01*
X140589Y-19907D01*
G37*
%LPD*%
%LPC*%
G36*
X129229Y-36577D02*
X129229Y-36577D01*
X129229Y-29766D01*
X129402Y-29119D01*
X129737Y-28540D01*
X130210Y-28067D01*
X130789Y-27732D01*
X131436Y-27559D01*
X136747Y-27559D01*
X136747Y-36577D01*
X129229Y-36577D01*
G37*
%LPD*%
%LPC*%
G36*
X201619Y-133097D02*
X201619Y-133097D01*
X201619Y-126286D01*
X201792Y-125639D01*
X202127Y-125060D01*
X202600Y-124587D01*
X203179Y-124252D01*
X203826Y-124079D01*
X209137Y-124079D01*
X209137Y-133097D01*
X201619Y-133097D01*
G37*
%LPD*%
%LPC*%
G36*
X158369Y-135797D02*
X158369Y-135797D01*
X158369Y-130486D01*
X158542Y-129839D01*
X158877Y-129260D01*
X159350Y-128787D01*
X159929Y-128452D01*
X160576Y-128279D01*
X167387Y-128279D01*
X167387Y-135797D01*
X158369Y-135797D01*
G37*
%LPD*%
%LPC*%
G36*
X171703Y93D02*
X171703Y93D01*
X171703Y7611D01*
X178514Y7611D01*
X179161Y7438D01*
X179740Y7103D01*
X180213Y6630D01*
X180548Y6051D01*
X180721Y5404D01*
X180721Y93D01*
X171703Y93D01*
G37*
%LPD*%
%LPC*%
G36*
X192801Y54382D02*
X192801Y54382D01*
X192801Y54915D01*
X193076Y55943D01*
X193608Y56864D01*
X194360Y57616D01*
X195282Y58148D01*
X196310Y58424D01*
X203692Y58424D01*
X203692Y54382D01*
X192801Y54382D01*
G37*
%LPD*%
%LPC*%
G36*
X196310Y47342D02*
X196310Y47342D01*
X195282Y47617D01*
X194360Y48149D01*
X193608Y48902D01*
X193076Y49823D01*
X192801Y50851D01*
X192801Y51384D01*
X203692Y51384D01*
X203692Y47342D01*
X196310Y47342D01*
G37*
%LPD*%
%LPC*%
G36*
X226313Y-23171D02*
X226313Y-23171D01*
X226313Y-17153D01*
X232831Y-17153D01*
X232831Y-20964D01*
X232658Y-21611D01*
X232323Y-22190D01*
X231850Y-22663D01*
X231271Y-22998D01*
X230624Y-23171D01*
X226313Y-23171D01*
G37*
%LPD*%
%LPC*%
G36*
X191633Y75183D02*
X191633Y75183D01*
X191633Y81701D01*
X195444Y81701D01*
X196091Y81528D01*
X196670Y81193D01*
X197143Y80720D01*
X197478Y80141D01*
X197651Y79494D01*
X197651Y75183D01*
X191633Y75183D01*
G37*
%LPD*%
%LPC*%
G36*
X191633Y65619D02*
X191633Y65619D01*
X191633Y72137D01*
X197651Y72137D01*
X197651Y67826D01*
X197478Y67179D01*
X197143Y66600D01*
X196670Y66127D01*
X196091Y65792D01*
X195444Y65619D01*
X191633Y65619D01*
G37*
%LPD*%
%LPC*%
G36*
X201247Y75878D02*
X201247Y75878D01*
X201247Y80189D01*
X201420Y80836D01*
X201755Y81415D01*
X202228Y81888D01*
X202807Y82222D01*
X203454Y82396D01*
X207265Y82396D01*
X207265Y75878D01*
X201247Y75878D01*
G37*
%LPD*%
%LPC*%
G36*
X226313Y-14107D02*
X226313Y-14107D01*
X226313Y-8089D01*
X230624Y-8089D01*
X231271Y-8262D01*
X231850Y-8597D01*
X232323Y-9070D01*
X232658Y-9649D01*
X232831Y-10296D01*
X232831Y-14107D01*
X226313Y-14107D01*
G37*
%LPD*%
%LPC*%
G36*
X182569Y75183D02*
X182569Y75183D01*
X182569Y79494D01*
X182742Y80141D01*
X183077Y80720D01*
X183550Y81193D01*
X184129Y81528D01*
X184776Y81701D01*
X188587Y81701D01*
X188587Y75183D01*
X182569Y75183D01*
G37*
%LPD*%
%LPC*%
G36*
X218309Y-22998D02*
X218309Y-22998D01*
X217730Y-22663D01*
X217257Y-22190D01*
X216922Y-21611D01*
X216749Y-20964D01*
X216749Y-17153D01*
X223267Y-17153D01*
X223267Y-23171D01*
X218955Y-23171D01*
X218309Y-22998D01*
G37*
%LPD*%
%LPC*%
G36*
X216749Y-14107D02*
X216749Y-14107D01*
X216749Y-10296D01*
X216922Y-9649D01*
X217257Y-9070D01*
X217730Y-8597D01*
X218309Y-8262D01*
X218956Y-8089D01*
X223267Y-8089D01*
X223267Y-14107D01*
X216749Y-14107D01*
G37*
%LPD*%
%LPC*%
G36*
X203454Y66314D02*
X203454Y66314D01*
X202807Y66487D01*
X202228Y66822D01*
X201755Y67295D01*
X201420Y67874D01*
X201247Y68520D01*
X201247Y72832D01*
X207265Y72832D01*
X207265Y66314D01*
X203454Y66314D01*
G37*
%LPD*%
%LPC*%
G36*
X184776Y65619D02*
X184776Y65619D01*
X184129Y65792D01*
X183550Y66127D01*
X183077Y66600D01*
X182742Y67179D01*
X182569Y67826D01*
X182569Y72137D01*
X188587Y72137D01*
X188587Y65619D01*
X184776Y65619D01*
G37*
%LPD*%
%LPC*%
G36*
X124949Y-26879D02*
X124949Y-26879D01*
X124949Y-19388D01*
X128490Y-19388D01*
X128490Y-23805D01*
X128249Y-24705D01*
X127783Y-25513D01*
X127124Y-26172D01*
X126316Y-26638D01*
X125416Y-26879D01*
X124949Y-26879D01*
G37*
%LPD*%
%LPC*%
G36*
X124949Y-17389D02*
X124949Y-17389D01*
X124949Y-9898D01*
X125416Y-9898D01*
X126316Y-10139D01*
X127124Y-10605D01*
X127783Y-11264D01*
X128249Y-12072D01*
X128490Y-12972D01*
X128490Y-17389D01*
X124949Y-17389D01*
G37*
%LPD*%
%LPC*%
G36*
X209389Y-153671D02*
X209389Y-153671D01*
X209389Y-153669D01*
X209391Y-153669D01*
X209391Y-153671D01*
X209389Y-153671D01*
G37*
%LPD*%
%LPC*%
G36*
X210659Y-134621D02*
X210659Y-134621D01*
X210659Y-134619D01*
X210661Y-134619D01*
X210661Y-134621D01*
X210659Y-134621D01*
G37*
%LPD*%
%LPC*%
G36*
X190109Y73659D02*
X190109Y73659D01*
X190109Y73661D01*
X190111Y73661D01*
X190111Y73659D01*
X190109Y73659D01*
G37*
%LPD*%
%LPC*%
G36*
X138269Y-38101D02*
X138269Y-38101D01*
X138269Y-38099D01*
X138271Y-38099D01*
X138271Y-38101D01*
X138269Y-38101D01*
G37*
%LPD*%
%LPC*%
G36*
X186529Y-175261D02*
X186529Y-175261D01*
X186529Y-175259D01*
X186531Y-175259D01*
X186531Y-175261D01*
X186529Y-175261D01*
G37*
%LPD*%
%LPC*%
G36*
X86519Y-96521D02*
X86519Y-96521D01*
X86519Y-96519D01*
X86521Y-96519D01*
X86521Y-96521D01*
X86519Y-96521D01*
G37*
%LPD*%
%LPC*%
G36*
X224789Y-15631D02*
X224789Y-15631D01*
X224789Y-15629D01*
X224791Y-15629D01*
X224791Y-15631D01*
X224789Y-15631D01*
G37*
%LPD*%
%LPC*%
G36*
X168909Y-137321D02*
X168909Y-137321D01*
X168909Y-137319D01*
X168911Y-137319D01*
X168911Y-137321D01*
X168909Y-137321D01*
G37*
%LPD*%
%LPC*%
G36*
X86519Y-116841D02*
X86519Y-116841D01*
X86519Y-116839D01*
X86521Y-116839D01*
X86521Y-116841D01*
X86519Y-116841D01*
G37*
%LPD*%
D10*
X279200Y324157D02*
X367480Y324157D01*
X367480Y-237490D02*
X279200Y-237490D01*
X347980Y-236840D02*
X347980Y323507D01*
X344788Y298157D01*
X351172Y298157D01*
X347980Y323507D01*
X346680Y298157D01*
X349280Y298157D02*
X347980Y323507D01*
X345380Y298157D01*
X350580Y298157D02*
X347980Y323507D01*
X344788Y-211490D02*
X347980Y-236840D01*
X344788Y-211490D02*
X351172Y-211490D01*
X347980Y-236840D01*
X346680Y-211490D01*
X349280Y-211490D02*
X347980Y-236840D01*
X345380Y-211490D01*
X350580Y-211490D02*
X347980Y-236840D01*
D11*
X341473Y12275D02*
X341473Y17693D01*
X341471Y17811D01*
X341465Y17929D01*
X341456Y18047D01*
X341442Y18164D01*
X341425Y18281D01*
X341404Y18398D01*
X341379Y18513D01*
X341350Y18628D01*
X341317Y18742D01*
X341281Y18854D01*
X341241Y18965D01*
X341198Y19075D01*
X341151Y19184D01*
X341101Y19291D01*
X341046Y19396D01*
X340989Y19499D01*
X340928Y19600D01*
X340864Y19700D01*
X340797Y19797D01*
X340727Y19892D01*
X340653Y19984D01*
X340577Y20075D01*
X340497Y20162D01*
X340415Y20247D01*
X340330Y20329D01*
X340243Y20409D01*
X340152Y20485D01*
X340060Y20559D01*
X339965Y20629D01*
X339868Y20696D01*
X339768Y20760D01*
X339667Y20821D01*
X339564Y20878D01*
X339459Y20933D01*
X339352Y20983D01*
X339243Y21030D01*
X339133Y21073D01*
X339022Y21113D01*
X338910Y21149D01*
X338796Y21182D01*
X338681Y21211D01*
X338566Y21236D01*
X338449Y21257D01*
X338332Y21274D01*
X338215Y21288D01*
X338097Y21297D01*
X337979Y21303D01*
X337861Y21305D01*
X337861Y21306D02*
X336054Y21306D01*
X336054Y21305D02*
X335936Y21303D01*
X335818Y21297D01*
X335700Y21288D01*
X335583Y21274D01*
X335466Y21257D01*
X335349Y21236D01*
X335234Y21211D01*
X335119Y21182D01*
X335005Y21149D01*
X334893Y21113D01*
X334782Y21073D01*
X334672Y21030D01*
X334563Y20983D01*
X334456Y20933D01*
X334351Y20878D01*
X334248Y20821D01*
X334147Y20760D01*
X334047Y20696D01*
X333950Y20629D01*
X333855Y20559D01*
X333763Y20485D01*
X333672Y20409D01*
X333585Y20329D01*
X333500Y20247D01*
X333418Y20162D01*
X333338Y20075D01*
X333262Y19984D01*
X333188Y19892D01*
X333118Y19797D01*
X333051Y19700D01*
X332987Y19600D01*
X332926Y19499D01*
X332869Y19396D01*
X332814Y19291D01*
X332764Y19184D01*
X332717Y19075D01*
X332674Y18965D01*
X332634Y18854D01*
X332598Y18742D01*
X332565Y18628D01*
X332536Y18513D01*
X332511Y18398D01*
X332490Y18281D01*
X332473Y18164D01*
X332459Y18047D01*
X332450Y17929D01*
X332444Y17811D01*
X332442Y17693D01*
X332442Y12275D01*
X325217Y12275D01*
X325217Y21306D01*
X332442Y27906D02*
X332442Y33325D01*
X332444Y33443D01*
X332450Y33561D01*
X332459Y33679D01*
X332473Y33796D01*
X332490Y33913D01*
X332511Y34030D01*
X332536Y34145D01*
X332565Y34260D01*
X332598Y34374D01*
X332634Y34486D01*
X332674Y34597D01*
X332717Y34707D01*
X332764Y34816D01*
X332814Y34923D01*
X332869Y35028D01*
X332926Y35131D01*
X332987Y35232D01*
X333051Y35332D01*
X333118Y35429D01*
X333188Y35524D01*
X333262Y35616D01*
X333338Y35707D01*
X333418Y35794D01*
X333500Y35879D01*
X333585Y35961D01*
X333672Y36041D01*
X333763Y36117D01*
X333855Y36191D01*
X333950Y36261D01*
X334047Y36328D01*
X334147Y36392D01*
X334248Y36453D01*
X334351Y36510D01*
X334456Y36565D01*
X334563Y36615D01*
X334672Y36662D01*
X334782Y36705D01*
X334893Y36745D01*
X335005Y36781D01*
X335119Y36814D01*
X335234Y36843D01*
X335349Y36868D01*
X335466Y36889D01*
X335583Y36906D01*
X335700Y36920D01*
X335818Y36929D01*
X335936Y36935D01*
X336054Y36937D01*
X336957Y36937D01*
X337090Y36935D01*
X337222Y36929D01*
X337354Y36919D01*
X337486Y36906D01*
X337618Y36888D01*
X337748Y36867D01*
X337879Y36842D01*
X338008Y36813D01*
X338136Y36780D01*
X338264Y36744D01*
X338390Y36704D01*
X338515Y36660D01*
X338639Y36612D01*
X338761Y36561D01*
X338882Y36506D01*
X339001Y36448D01*
X339119Y36386D01*
X339234Y36321D01*
X339348Y36252D01*
X339459Y36181D01*
X339568Y36105D01*
X339675Y36027D01*
X339780Y35946D01*
X339882Y35861D01*
X339982Y35774D01*
X340079Y35684D01*
X340174Y35591D01*
X340265Y35495D01*
X340354Y35397D01*
X340440Y35296D01*
X340523Y35192D01*
X340603Y35086D01*
X340679Y34978D01*
X340753Y34868D01*
X340823Y34755D01*
X340890Y34641D01*
X340953Y34524D01*
X341013Y34406D01*
X341070Y34286D01*
X341123Y34164D01*
X341172Y34041D01*
X341218Y33917D01*
X341260Y33791D01*
X341298Y33664D01*
X341333Y33536D01*
X341364Y33407D01*
X341391Y33278D01*
X341414Y33147D01*
X341434Y33016D01*
X341449Y32884D01*
X341461Y32752D01*
X341469Y32620D01*
X341473Y32487D01*
X341473Y32355D01*
X341469Y32222D01*
X341461Y32090D01*
X341449Y31958D01*
X341434Y31826D01*
X341414Y31695D01*
X341391Y31564D01*
X341364Y31435D01*
X341333Y31306D01*
X341298Y31178D01*
X341260Y31051D01*
X341218Y30925D01*
X341172Y30801D01*
X341123Y30678D01*
X341070Y30556D01*
X341013Y30436D01*
X340953Y30318D01*
X340890Y30201D01*
X340823Y30087D01*
X340753Y29974D01*
X340679Y29864D01*
X340603Y29756D01*
X340523Y29650D01*
X340440Y29546D01*
X340354Y29445D01*
X340265Y29347D01*
X340174Y29251D01*
X340079Y29158D01*
X339982Y29068D01*
X339882Y28981D01*
X339780Y28896D01*
X339675Y28815D01*
X339568Y28737D01*
X339459Y28661D01*
X339348Y28590D01*
X339234Y28521D01*
X339119Y28456D01*
X339001Y28394D01*
X338882Y28336D01*
X338761Y28281D01*
X338639Y28230D01*
X338515Y28182D01*
X338390Y28138D01*
X338264Y28098D01*
X338136Y28062D01*
X338008Y28029D01*
X337879Y28000D01*
X337748Y27975D01*
X337618Y27954D01*
X337486Y27936D01*
X337354Y27923D01*
X337222Y27913D01*
X337090Y27907D01*
X336957Y27905D01*
X336957Y27906D02*
X332442Y27906D01*
X332265Y27908D01*
X332087Y27915D01*
X331910Y27926D01*
X331734Y27941D01*
X331558Y27960D01*
X331382Y27984D01*
X331207Y28012D01*
X331032Y28045D01*
X330859Y28082D01*
X330686Y28123D01*
X330515Y28168D01*
X330345Y28217D01*
X330176Y28271D01*
X330008Y28328D01*
X329842Y28390D01*
X329677Y28456D01*
X329514Y28526D01*
X329353Y28600D01*
X329194Y28677D01*
X329036Y28759D01*
X328881Y28845D01*
X328728Y28934D01*
X328577Y29027D01*
X328428Y29124D01*
X328282Y29224D01*
X328138Y29328D01*
X327997Y29435D01*
X327859Y29546D01*
X327723Y29660D01*
X327590Y29778D01*
X327460Y29898D01*
X327333Y30022D01*
X327209Y30149D01*
X327089Y30279D01*
X326971Y30412D01*
X326857Y30547D01*
X326746Y30686D01*
X326639Y30827D01*
X326535Y30971D01*
X326435Y31117D01*
X326338Y31266D01*
X326245Y31417D01*
X326156Y31570D01*
X326070Y31725D01*
X325988Y31883D01*
X325911Y32042D01*
X325837Y32203D01*
X325767Y32366D01*
X325701Y32531D01*
X325639Y32697D01*
X325582Y32865D01*
X325528Y33034D01*
X325479Y33204D01*
X325434Y33375D01*
X325393Y33548D01*
X325356Y33721D01*
X325323Y33896D01*
X325295Y34071D01*
X325271Y34247D01*
X325252Y34423D01*
X325237Y34599D01*
X325226Y34776D01*
X325219Y34954D01*
X325217Y35131D01*
X340570Y42912D02*
X341473Y42912D01*
X340570Y42912D02*
X340570Y43815D01*
X341473Y43815D01*
X341473Y42912D01*
X328829Y49790D02*
X325217Y54305D01*
X341473Y54305D01*
X341473Y49790D02*
X341473Y58821D01*
X332442Y65421D02*
X332442Y70839D01*
X332444Y70957D01*
X332450Y71075D01*
X332459Y71193D01*
X332473Y71310D01*
X332490Y71427D01*
X332511Y71544D01*
X332536Y71659D01*
X332565Y71774D01*
X332598Y71888D01*
X332634Y72000D01*
X332674Y72111D01*
X332717Y72221D01*
X332764Y72330D01*
X332814Y72437D01*
X332869Y72542D01*
X332926Y72645D01*
X332987Y72746D01*
X333051Y72846D01*
X333118Y72943D01*
X333188Y73038D01*
X333262Y73130D01*
X333338Y73221D01*
X333418Y73308D01*
X333500Y73393D01*
X333585Y73475D01*
X333672Y73555D01*
X333763Y73631D01*
X333855Y73705D01*
X333950Y73775D01*
X334047Y73842D01*
X334147Y73906D01*
X334248Y73967D01*
X334351Y74024D01*
X334456Y74079D01*
X334563Y74129D01*
X334672Y74176D01*
X334782Y74219D01*
X334893Y74259D01*
X335005Y74295D01*
X335119Y74328D01*
X335234Y74357D01*
X335349Y74382D01*
X335466Y74403D01*
X335583Y74420D01*
X335700Y74434D01*
X335818Y74443D01*
X335936Y74449D01*
X336054Y74451D01*
X336054Y74452D02*
X336957Y74452D01*
X337090Y74450D01*
X337222Y74444D01*
X337354Y74434D01*
X337486Y74421D01*
X337618Y74403D01*
X337748Y74382D01*
X337879Y74357D01*
X338008Y74328D01*
X338136Y74295D01*
X338264Y74259D01*
X338390Y74219D01*
X338515Y74175D01*
X338639Y74127D01*
X338761Y74076D01*
X338882Y74021D01*
X339001Y73963D01*
X339119Y73901D01*
X339234Y73836D01*
X339348Y73767D01*
X339459Y73696D01*
X339568Y73620D01*
X339675Y73542D01*
X339780Y73461D01*
X339882Y73376D01*
X339982Y73289D01*
X340079Y73199D01*
X340174Y73106D01*
X340265Y73010D01*
X340354Y72912D01*
X340440Y72811D01*
X340523Y72707D01*
X340603Y72601D01*
X340679Y72493D01*
X340753Y72383D01*
X340823Y72270D01*
X340890Y72156D01*
X340953Y72039D01*
X341013Y71921D01*
X341070Y71801D01*
X341123Y71679D01*
X341172Y71556D01*
X341218Y71432D01*
X341260Y71306D01*
X341298Y71179D01*
X341333Y71051D01*
X341364Y70922D01*
X341391Y70793D01*
X341414Y70662D01*
X341434Y70531D01*
X341449Y70399D01*
X341461Y70267D01*
X341469Y70135D01*
X341473Y70002D01*
X341473Y69870D01*
X341469Y69737D01*
X341461Y69605D01*
X341449Y69473D01*
X341434Y69341D01*
X341414Y69210D01*
X341391Y69079D01*
X341364Y68950D01*
X341333Y68821D01*
X341298Y68693D01*
X341260Y68566D01*
X341218Y68440D01*
X341172Y68316D01*
X341123Y68193D01*
X341070Y68071D01*
X341013Y67951D01*
X340953Y67833D01*
X340890Y67716D01*
X340823Y67602D01*
X340753Y67489D01*
X340679Y67379D01*
X340603Y67271D01*
X340523Y67165D01*
X340440Y67061D01*
X340354Y66960D01*
X340265Y66862D01*
X340174Y66766D01*
X340079Y66673D01*
X339982Y66583D01*
X339882Y66496D01*
X339780Y66411D01*
X339675Y66330D01*
X339568Y66252D01*
X339459Y66176D01*
X339348Y66105D01*
X339234Y66036D01*
X339119Y65971D01*
X339001Y65909D01*
X338882Y65851D01*
X338761Y65796D01*
X338639Y65745D01*
X338515Y65697D01*
X338390Y65653D01*
X338264Y65613D01*
X338136Y65577D01*
X338008Y65544D01*
X337879Y65515D01*
X337748Y65490D01*
X337618Y65469D01*
X337486Y65451D01*
X337354Y65438D01*
X337222Y65428D01*
X337090Y65422D01*
X336957Y65420D01*
X336957Y65421D02*
X332442Y65421D01*
X332265Y65423D01*
X332087Y65430D01*
X331910Y65441D01*
X331734Y65456D01*
X331558Y65475D01*
X331382Y65499D01*
X331207Y65527D01*
X331032Y65560D01*
X330859Y65597D01*
X330686Y65638D01*
X330515Y65683D01*
X330345Y65732D01*
X330176Y65786D01*
X330008Y65843D01*
X329842Y65905D01*
X329677Y65971D01*
X329514Y66041D01*
X329353Y66115D01*
X329194Y66192D01*
X329036Y66274D01*
X328881Y66360D01*
X328728Y66449D01*
X328577Y66542D01*
X328428Y66639D01*
X328282Y66739D01*
X328138Y66843D01*
X327997Y66950D01*
X327859Y67061D01*
X327723Y67175D01*
X327590Y67293D01*
X327460Y67413D01*
X327333Y67537D01*
X327209Y67664D01*
X327089Y67794D01*
X326971Y67927D01*
X326857Y68062D01*
X326746Y68201D01*
X326639Y68342D01*
X326535Y68486D01*
X326435Y68632D01*
X326338Y68781D01*
X326245Y68932D01*
X326156Y69085D01*
X326070Y69240D01*
X325988Y69398D01*
X325911Y69557D01*
X325837Y69718D01*
X325767Y69881D01*
X325701Y70046D01*
X325639Y70212D01*
X325582Y70380D01*
X325528Y70549D01*
X325479Y70719D01*
X325434Y70890D01*
X325393Y71063D01*
X325356Y71236D01*
X325323Y71411D01*
X325295Y71586D01*
X325271Y71762D01*
X325252Y71938D01*
X325237Y72114D01*
X325226Y72291D01*
X325219Y72469D01*
X325217Y72646D01*
D12*
X145373Y92456D03*
X162373Y92456D03*
D13*
X208788Y91355D03*
X208788Y74355D03*
D14*
X173643Y119634D03*
X155643Y119634D03*
D15*
X111950Y-13438D02*
X111950Y-23338D01*
X109950Y-23338D01*
X109950Y-13438D01*
X111950Y-13438D01*
X111950Y-21438D02*
X109950Y-21438D01*
X109950Y-19538D02*
X111950Y-19538D01*
X111950Y-17638D02*
X109950Y-17638D01*
X109950Y-15738D02*
X111950Y-15738D01*
X111950Y-13838D02*
X109950Y-13838D01*
X118450Y-13438D02*
X118450Y-23338D01*
X116450Y-23338D01*
X116450Y-13438D01*
X118450Y-13438D01*
X118450Y-21438D02*
X116450Y-21438D01*
X116450Y-19538D02*
X118450Y-19538D01*
X118450Y-17638D02*
X116450Y-17638D01*
X116450Y-15738D02*
X118450Y-15738D01*
X118450Y-13838D02*
X116450Y-13838D01*
X124950Y-13438D02*
X124950Y-23338D01*
X122950Y-23338D01*
X122950Y-13438D01*
X124950Y-13438D01*
X124950Y-21438D02*
X122950Y-21438D01*
X122950Y-19538D02*
X124950Y-19538D01*
X124950Y-17638D02*
X122950Y-17638D01*
X122950Y-15738D02*
X124950Y-15738D01*
X124950Y-13838D02*
X122950Y-13838D01*
X122950Y-4138D02*
X122950Y5762D01*
X124950Y5762D01*
X124950Y-4138D01*
X122950Y-4138D01*
X122950Y-2238D02*
X124950Y-2238D01*
X124950Y-338D02*
X122950Y-338D01*
X122950Y1562D02*
X124950Y1562D01*
X124950Y3462D02*
X122950Y3462D01*
X122950Y5362D02*
X124950Y5362D01*
X116450Y5762D02*
X116450Y-4138D01*
X116450Y5762D02*
X118450Y5762D01*
X118450Y-4138D01*
X116450Y-4138D01*
X116450Y-2238D02*
X118450Y-2238D01*
X118450Y-338D02*
X116450Y-338D01*
X116450Y1562D02*
X118450Y1562D01*
X118450Y3462D02*
X116450Y3462D01*
X116450Y5362D02*
X118450Y5362D01*
X109950Y5762D02*
X109950Y-4138D01*
X109950Y5762D02*
X111950Y5762D01*
X111950Y-4138D01*
X109950Y-4138D01*
X109950Y-2238D02*
X111950Y-2238D01*
X111950Y-338D02*
X109950Y-338D01*
X109950Y1562D02*
X111950Y1562D01*
X111950Y3462D02*
X109950Y3462D01*
X109950Y5362D02*
X111950Y5362D01*
D16*
X200846Y141061D03*
D17*
X206346Y130561D03*
X211346Y130561D03*
X216346Y130561D03*
X221346Y130561D03*
X226346Y130561D03*
X231346Y130561D03*
D16*
X236846Y141061D03*
X236846Y146061D03*
D17*
X231346Y156561D03*
X226346Y156561D03*
X221346Y156561D03*
X216346Y156561D03*
X211346Y156561D03*
X206346Y156561D03*
D16*
X200846Y146061D03*
D18*
X218846Y143561D03*
D17*
X113600Y107425D03*
D16*
X124100Y112925D03*
X124100Y117925D03*
X124100Y122925D03*
X124100Y127925D03*
X124100Y132925D03*
X124100Y137925D03*
D17*
X113600Y143425D03*
X108600Y143425D03*
D16*
X98100Y137925D03*
X98100Y132925D03*
X98100Y127925D03*
X98100Y122925D03*
X98100Y117925D03*
X98100Y112925D03*
D17*
X108600Y107425D03*
D19*
X111100Y125425D03*
D20*
X203421Y-92202D03*
X203421Y-85802D03*
X203421Y-98602D03*
X203421Y-105002D03*
X203421Y-111402D03*
X203421Y-79402D03*
X203421Y-73002D03*
X203421Y-66602D03*
X129421Y-92202D03*
X129421Y-98602D03*
X129421Y-105002D03*
X129421Y-111402D03*
X129421Y-85802D03*
X129421Y-79402D03*
X129421Y-73002D03*
X129421Y-66602D03*
D21*
X196842Y16283D02*
X213542Y16283D01*
X213542Y13283D01*
X196842Y13283D01*
X196842Y16283D01*
X196842Y16133D02*
X213542Y16133D01*
X213542Y28983D02*
X196842Y28983D01*
X213542Y28983D02*
X213542Y25983D01*
X196842Y25983D01*
X196842Y28983D01*
X196842Y28833D02*
X213542Y28833D01*
X213542Y41683D02*
X196842Y41683D01*
X213542Y41683D02*
X213542Y38683D01*
X196842Y38683D01*
X196842Y41683D01*
X196842Y41533D02*
X213542Y41533D01*
X213542Y54383D02*
X196842Y54383D01*
X213542Y54383D02*
X213542Y51383D01*
X196842Y51383D01*
X196842Y54383D01*
X196842Y54233D02*
X213542Y54233D01*
X164042Y54383D02*
X147342Y54383D01*
X164042Y54383D02*
X164042Y51383D01*
X147342Y51383D01*
X147342Y54383D01*
X147342Y54233D02*
X164042Y54233D01*
X164042Y41683D02*
X147342Y41683D01*
X164042Y41683D02*
X164042Y38683D01*
X147342Y38683D01*
X147342Y41683D01*
X147342Y41533D02*
X164042Y41533D01*
X164042Y28983D02*
X147342Y28983D01*
X164042Y28983D02*
X164042Y25983D01*
X147342Y25983D01*
X147342Y28983D01*
X147342Y28833D02*
X164042Y28833D01*
X164042Y16283D02*
X147342Y16283D01*
X164042Y16283D02*
X164042Y13283D01*
X147342Y13283D01*
X147342Y16283D01*
X147342Y16133D02*
X164042Y16133D01*
D22*
X128681Y-157227D02*
X120231Y-157227D01*
X120231Y-154277D01*
X128681Y-154277D01*
X128681Y-157227D01*
X128681Y-154425D02*
X120231Y-154425D01*
X120231Y-166727D02*
X128681Y-166727D01*
X120231Y-166727D02*
X120231Y-163777D01*
X128681Y-163777D01*
X128681Y-166727D01*
X128681Y-163925D02*
X120231Y-163925D01*
X120231Y-176227D02*
X128681Y-176227D01*
X120231Y-176227D02*
X120231Y-173277D01*
X128681Y-173277D01*
X128681Y-176227D01*
X128681Y-173425D02*
X120231Y-173425D01*
X145131Y-173277D02*
X153581Y-173277D01*
X153581Y-176227D01*
X145131Y-176227D01*
X145131Y-173277D01*
X145131Y-173425D02*
X153581Y-173425D01*
X153581Y-154277D02*
X145131Y-154277D01*
X153581Y-154277D02*
X153581Y-157227D01*
X145131Y-157227D01*
X145131Y-154277D01*
X145131Y-154425D02*
X153581Y-154425D01*
D23*
X189390Y-153670D03*
X209390Y-153670D03*
X166530Y-175260D03*
X186530Y-175260D03*
D24*
X168910Y-157320D03*
X168910Y-137320D03*
D23*
X105250Y-176530D03*
X85250Y-176530D03*
D24*
X203200Y-53180D03*
X203200Y-33180D03*
X151130Y-1430D03*
X151130Y-21430D03*
D23*
X138270Y-38100D03*
X118270Y-38100D03*
D24*
X170180Y-21430D03*
X170180Y-1430D03*
D23*
X105250Y-157480D03*
X85250Y-157480D03*
X190660Y-134620D03*
X210660Y-134620D03*
X106520Y-96520D03*
X86520Y-96520D03*
X106520Y-116840D03*
X86520Y-116840D03*
D12*
X224790Y-32630D03*
X224790Y-15630D03*
D13*
X168030Y-39370D03*
X185030Y-39370D03*
X140090Y73660D03*
X157090Y73660D03*
X190110Y73660D03*
X173110Y73660D03*
D12*
X105410Y38980D03*
X105410Y21980D03*
D13*
X86750Y-41910D03*
X103750Y-41910D03*
D12*
X129540Y38980D03*
X129540Y21980D03*
D13*
X103750Y-63500D03*
X86750Y-63500D03*
D25*
X202600Y180860D03*
X197600Y180860D03*
X192600Y180860D03*
X187600Y180860D03*
X182600Y180860D03*
X177600Y180860D03*
X172600Y180860D03*
X167600Y180860D03*
X162600Y180860D03*
X157600Y180860D03*
X152600Y180860D03*
X147600Y180860D03*
X142600Y180860D03*
X137600Y180860D03*
X132600Y180860D03*
X127600Y180860D03*
D26*
X108600Y213360D03*
X221600Y213360D03*
D27*
X238760Y-198120D02*
X238760Y-213360D01*
X213360Y-213360D02*
X213360Y-198120D01*
X187960Y-198120D02*
X187960Y-213360D01*
X162560Y-213360D02*
X162560Y-198120D01*
X137160Y-198120D02*
X137160Y-213360D01*
X111760Y-213360D02*
X111760Y-198120D01*
X86360Y-198120D02*
X86360Y-213360D01*
D11*
X105250Y-176530D02*
X105250Y-157480D01*
X106978Y-155752D01*
X124456Y-155752D01*
X105250Y-118110D02*
X106520Y-116840D01*
X105250Y-118110D02*
X105250Y-157480D01*
X106520Y-116840D02*
X106520Y-96520D01*
X105250Y-186850D02*
X86360Y-205740D01*
X105250Y-186850D02*
X105250Y-176530D01*
X118270Y-19209D02*
X117450Y-18388D01*
X118270Y-19209D02*
X118270Y-38100D01*
X129421Y-49251D01*
X129421Y-66602D01*
X127507Y-68516D01*
X121774Y-68516D01*
X106520Y-83770D01*
X106520Y-96520D01*
X145373Y92456D02*
X163407Y110490D01*
X212632Y137347D02*
X217983Y142697D01*
X218846Y143561D01*
X212632Y137347D02*
X204200Y137347D01*
X200846Y146061D02*
X214619Y146061D01*
X217983Y142697D01*
X108600Y122925D02*
X108600Y107425D01*
X108600Y122925D02*
X111100Y125425D01*
X108600Y107425D02*
X108600Y99528D01*
X116764Y91364D01*
D28*
X116764Y91364D03*
X142620Y103867D03*
D11*
X145373Y101114D01*
X145373Y92456D01*
D28*
X96520Y-8890D03*
D11*
X116764Y64067D02*
X116764Y91364D01*
X97624Y-7786D02*
X96520Y-8890D01*
X97624Y44927D02*
X116764Y64067D01*
X97624Y44927D02*
X97624Y-7786D01*
D28*
X102276Y-26076D03*
D11*
X106246Y-26076D01*
X118270Y-38100D01*
X128720Y-170488D02*
X124456Y-174752D01*
X128720Y-170488D02*
X130239Y-170488D01*
X128720Y-160016D02*
X124456Y-155752D01*
X128720Y-160016D02*
X130239Y-160016D01*
X132442Y-162220D01*
X132442Y-168285D01*
X130239Y-170488D01*
X191488Y124635D02*
X204200Y137347D01*
X191488Y115795D02*
X186184Y110490D01*
X191488Y115795D02*
X191488Y124635D01*
X186184Y110490D02*
X163407Y110490D01*
X120650Y150476D02*
X113600Y143425D01*
X120650Y150476D02*
X120650Y151130D01*
D28*
X120650Y151130D03*
D11*
X152560Y-137320D02*
X168910Y-137320D01*
X152560Y-137320D02*
X148590Y-133350D01*
D28*
X148590Y-133350D03*
D11*
X205192Y14783D02*
X205192Y27483D01*
X212606Y34897D01*
X215110Y34897D01*
X218440Y38227D01*
X218440Y101600D02*
X209550Y110490D01*
X209550Y124832D01*
X209832Y125114D01*
X209832Y129047D01*
X211346Y130561D01*
X218440Y101600D02*
X218440Y38227D01*
X172600Y139820D02*
X172600Y180860D01*
X172600Y139820D02*
X185420Y127000D01*
D28*
X185420Y127000D03*
X217414Y114300D03*
D11*
X216346Y115368D01*
X216346Y130561D01*
X177600Y143710D02*
X177600Y180860D01*
X177600Y143710D02*
X184150Y137160D01*
D28*
X184150Y137160D03*
X200660Y123190D03*
D11*
X200660Y124874D01*
X206346Y130561D01*
X168814Y179646D02*
X167600Y180860D01*
X173643Y133197D02*
X173643Y119634D01*
X168814Y138025D02*
X168814Y179646D01*
X168814Y138025D02*
X173643Y133197D01*
X173643Y119634D02*
X176437Y116840D01*
X183952Y116840D01*
D28*
X183952Y116840D03*
X227330Y114300D03*
D11*
X221346Y120284D01*
X221346Y130561D01*
X199332Y142575D02*
X195400Y142575D01*
X199332Y142575D02*
X200846Y141061D01*
X182600Y155374D02*
X182600Y180860D01*
X182600Y155374D02*
X195400Y142575D01*
X202600Y180860D02*
X215380Y180860D01*
X221346Y174894D02*
X221346Y156561D01*
X221346Y174894D02*
X215380Y180860D01*
X206346Y156561D02*
X190833Y172074D01*
X190153Y172074D01*
X187600Y174627D01*
X187600Y180860D01*
X209832Y158075D02*
X211346Y156561D01*
X209832Y158075D02*
X209832Y162008D01*
X208493Y163347D01*
X204470Y163347D01*
X195743Y172074D01*
X195153Y172074D01*
X192600Y174627D01*
X192600Y180860D01*
X214832Y158075D02*
X216346Y156561D01*
X214832Y158075D02*
X214832Y162008D01*
X204766Y172074D01*
X200153Y172074D01*
X197600Y174627D01*
X197600Y180860D01*
X243632Y-150068D02*
X187960Y-205740D01*
X238360Y144547D02*
X236846Y146061D01*
X108600Y143425D02*
X108600Y153050D01*
X109220Y153670D01*
D28*
X109220Y153670D03*
D11*
X238360Y144547D02*
X242293Y144547D01*
X236846Y146061D02*
X236846Y155566D01*
X238760Y157480D01*
D28*
X238760Y157480D03*
X238316Y188884D03*
D11*
X242293Y144547D02*
X243632Y143208D01*
X243632Y-150068D01*
X238316Y188884D02*
X228692Y188884D01*
X219710Y197866D01*
D28*
X95250Y196850D03*
D11*
X96266Y197866D01*
X219710Y197866D01*
D28*
X91636Y144431D03*
D11*
X91314Y135778D02*
X92653Y134439D01*
X91314Y135778D02*
X91314Y140072D01*
X96586Y134439D02*
X98100Y132925D01*
X96586Y134439D02*
X92653Y134439D01*
X91314Y140072D02*
X91636Y140395D01*
X91636Y144431D01*
X224790Y162050D02*
X224832Y162008D01*
X224832Y158075D01*
X226346Y156561D01*
X224394Y166695D02*
X224394Y176156D01*
X208781Y191770D01*
X224394Y166695D02*
X224790Y166299D01*
X224790Y162050D01*
X224394Y176156D02*
X227448Y176156D01*
X229734Y173870D01*
X239380Y173870D01*
X250063Y-174618D02*
X238760Y-185921D01*
X250063Y-158877D02*
X250190Y-158750D01*
X250063Y-158877D02*
X250063Y-174618D01*
X250190Y-158750D02*
X250190Y163061D01*
X238760Y-185921D02*
X238760Y-205740D01*
X250190Y163061D02*
X239380Y173870D01*
D28*
X83114Y177800D03*
D11*
X87206Y181892D01*
X93184Y181892D02*
X103062Y191770D01*
X93184Y181892D02*
X87206Y181892D01*
X103062Y191770D02*
X208781Y191770D01*
X247015Y-172085D02*
X213360Y-205740D01*
X98100Y137925D02*
X98100Y148900D01*
X99060Y149860D01*
D28*
X99060Y149860D03*
D11*
X231346Y156561D02*
X231346Y165100D01*
X231346Y166259D01*
X231458Y166370D01*
D28*
X231458Y166370D03*
X232248Y179938D03*
D11*
X231346Y165100D02*
X243840Y165100D01*
X247015Y161925D01*
X247015Y-172085D01*
X232248Y179938D02*
X217368Y194818D01*
D28*
X89182Y187960D03*
D11*
X92004Y190782D01*
X97764Y190782D02*
X101800Y194818D01*
X97764Y190782D02*
X92004Y190782D01*
X101800Y194818D02*
X217368Y194818D01*
D28*
X132080Y144780D03*
D11*
X125614Y134439D02*
X124100Y132925D01*
X125614Y134439D02*
X129546Y134439D01*
X132080Y136973D01*
X132080Y144780D01*
X186775Y91355D02*
X208788Y91355D01*
X186775Y91355D02*
X173990Y104140D01*
D28*
X173990Y104140D03*
D11*
X226346Y126628D02*
X235026Y117948D01*
X226346Y126628D02*
X226346Y130561D01*
X235026Y117948D02*
X235026Y110566D01*
X228600Y104140D01*
D28*
X228600Y104140D03*
D11*
X129540Y38980D02*
X105410Y38980D01*
X154489Y38980D02*
X155692Y40183D01*
X154489Y38980D02*
X129540Y38980D01*
X132107Y119098D02*
X137134Y119098D01*
X140688Y115544D01*
X140688Y110517D01*
X130934Y117925D02*
X124100Y117925D01*
X130934Y117925D02*
X132107Y119098D01*
X129540Y99369D02*
X129540Y38980D01*
X129540Y99369D02*
X140688Y110517D01*
X140705Y122925D02*
X124100Y122925D01*
X157600Y139820D02*
X157600Y180860D01*
X157600Y139820D02*
X140705Y122925D01*
X134515Y112925D02*
X124100Y112925D01*
X134515Y112925D02*
X134620Y113030D01*
D28*
X134620Y113030D03*
X151532Y143510D03*
D11*
X152600Y144578D01*
X152600Y180860D01*
X162600Y126591D02*
X155643Y119634D01*
X162600Y126591D02*
X162600Y180860D01*
D28*
X140845Y149986D03*
D11*
X138148Y147289D01*
X125614Y129439D02*
X124100Y127925D01*
X125614Y129439D02*
X129546Y129439D01*
X138148Y138041D01*
X138148Y147289D01*
D28*
X151708Y107372D03*
D11*
X155643Y111307D01*
X155643Y119634D01*
X113600Y107425D02*
X113600Y107380D01*
X120650Y100330D01*
D28*
X120650Y100330D03*
X143664Y134466D03*
D11*
X145464Y146024D02*
X147600Y148160D01*
X145464Y136266D02*
X143664Y134466D01*
X145464Y136266D02*
X145464Y146024D01*
X147600Y148160D02*
X147600Y180860D01*
X96586Y129439D02*
X98100Y127925D01*
X96586Y129439D02*
X92653Y129439D01*
X85568Y136524D01*
X85568Y146945D01*
X119178Y172438D02*
X127600Y180860D01*
X119178Y172438D02*
X111062Y172438D01*
X85568Y146945D01*
X130810Y153868D02*
X142600Y165658D01*
D28*
X130810Y153868D03*
X91440Y104140D03*
D11*
X91440Y106266D01*
X98100Y112925D01*
X142600Y165658D02*
X142600Y180860D01*
X137600Y180860D02*
X137160Y180420D01*
X137160Y167640D01*
X96586Y119439D02*
X98100Y117925D01*
X96586Y119439D02*
X92653Y119439D01*
X79472Y132620D01*
X79472Y149470D01*
X132476Y162956D02*
X137160Y167640D01*
X132476Y162956D02*
X129540Y162956D01*
D28*
X129540Y162956D03*
D11*
X101296Y171293D02*
X101296Y175564D01*
D28*
X101296Y175564D03*
D11*
X101296Y171293D02*
X79472Y149470D01*
X96586Y124439D02*
X98100Y122925D01*
X96586Y124439D02*
X92653Y124439D01*
X82520Y134572D01*
X82520Y148207D01*
D28*
X120452Y166370D03*
D11*
X126156Y172074D02*
X130047Y172074D01*
X126156Y172074D02*
X120452Y166370D01*
X132600Y174627D02*
X132600Y180860D01*
X132600Y174627D02*
X130047Y172074D01*
D28*
X114300Y178506D03*
D11*
X111280Y175486D01*
X109799Y175486D01*
X82520Y148207D01*
X212407Y-76148D02*
X211068Y-77488D01*
X205335Y-77488D01*
X203421Y-79402D01*
X212407Y-62387D02*
X203200Y-53180D01*
X212407Y-62387D02*
X212407Y-76148D01*
X167342Y-155752D02*
X149356Y-155752D01*
X167342Y-155752D02*
X168910Y-157320D01*
X166530Y-159700D02*
X166530Y-175260D01*
X166530Y-159700D02*
X168910Y-157320D01*
X172560Y-153670D01*
X189390Y-153670D01*
X189390Y-135890D01*
X190660Y-134620D01*
X131335Y-81316D02*
X129421Y-79402D01*
X131335Y-81316D02*
X137068Y-81316D01*
X190372Y-134620D02*
X190660Y-134620D01*
X190372Y-134620D02*
X137068Y-81316D01*
X129421Y-79402D02*
X129421Y-73002D01*
X170180Y-21430D02*
X151130Y-2380D01*
X151130Y-1430D01*
X151130Y10221D01*
X155692Y14783D01*
X168030Y-23580D02*
X168030Y-39370D01*
X168030Y-23580D02*
X170180Y-21430D01*
X131335Y-71088D02*
X129421Y-73002D01*
X131335Y-71088D02*
X137068Y-71088D01*
X138407Y-69748D01*
X138407Y-68993D01*
X168030Y-39370D01*
X157090Y66689D02*
X157090Y73660D01*
X155692Y14783D02*
X170993Y14783D01*
X173990Y49789D02*
X157090Y66689D01*
X173990Y49789D02*
X173990Y17780D01*
X170993Y14783D01*
X163322Y-92202D02*
X203421Y-92202D01*
X163322Y-92202D02*
X153670Y-82550D01*
D28*
X153670Y-82550D03*
D11*
X97790Y-74540D02*
X86750Y-63500D01*
X97790Y-74540D02*
X97790Y-80010D01*
D28*
X97790Y-80010D03*
D11*
X103750Y-63500D02*
X107560Y-59690D01*
X115570Y-59690D01*
D28*
X115570Y-59690D03*
D11*
X172162Y-85802D02*
X203421Y-85802D01*
X172162Y-85802D02*
X153670Y-67310D01*
D28*
X153670Y-67310D03*
D11*
X103750Y-63500D02*
X103750Y-41910D01*
X139300Y-182480D02*
X162560Y-205740D01*
X139300Y-182480D02*
X139300Y-155267D01*
X129421Y-145388D02*
X129421Y-111402D01*
X129421Y-145388D02*
X139300Y-155267D01*
X120435Y-108255D02*
X121774Y-106916D01*
X120435Y-108255D02*
X120435Y-114548D01*
X127507Y-106916D02*
X129421Y-105002D01*
X127507Y-106916D02*
X121774Y-106916D01*
X120435Y-114548D02*
X124460Y-118574D01*
X124460Y-144738D02*
X136252Y-156530D01*
X136252Y-204832D01*
X137160Y-205740D01*
X124460Y-144738D02*
X124460Y-118574D01*
X105410Y6351D02*
X105410Y21980D01*
X105410Y6351D02*
X110950Y812D01*
X129540Y6402D02*
X129540Y21980D01*
X129540Y6402D02*
X123950Y812D01*
X123093Y29266D02*
X135987Y29266D01*
X119664Y3026D02*
X117450Y812D01*
X137770Y27483D02*
X135987Y29266D01*
X137770Y27483D02*
X155692Y27483D01*
X123093Y29266D02*
X119664Y25837D01*
X119664Y3026D01*
X106995Y-11745D02*
X106664Y-12077D01*
X106995Y-11745D02*
X111317Y-7424D01*
X113311Y-7424D01*
X117450Y-3285D01*
X117450Y812D01*
X86750Y-31991D02*
X86750Y-41910D01*
X86750Y-31991D02*
X106664Y-12077D01*
X185030Y-39370D02*
X191220Y-33180D01*
X203200Y-33180D01*
X224240Y-33180D01*
X224790Y-32630D01*
X203200Y-33180D02*
X187960Y-17940D01*
X187960Y35560D01*
X192583Y40183D01*
X205192Y40183D01*
X155692Y52883D02*
X140090Y68484D01*
X140090Y73660D01*
X151143Y81446D02*
X163037Y81446D01*
X143357Y73660D02*
X140090Y73660D01*
X170823Y73660D02*
X173110Y73660D01*
X151143Y81446D02*
X143357Y73660D01*
X163037Y81446D02*
X170823Y73660D01*
M02*
