G04 EAGLE Gerber RS-274X export*
G75*
%MOMM*%
%FSLAX34Y34*%
%LPD*%
%INSilkscreen Top*%
%IPPOS*%
%AMOC8*
5,1,8,0,0,1.08239X$1,22.5*%
G01*
%ADD10C,0.127000*%
%ADD11C,0.200000*%
%ADD12C,0.101600*%
%ADD13C,0.508000*%
%ADD14C,0.203200*%
%ADD15C,0.152400*%
%ADD16C,0.050800*%
%ADD17C,0.300000*%
%ADD18C,0.076200*%
%ADD19C,0.762000*%
%ADD20R,0.762000X0.508000*%
%ADD21R,0.762000X1.016000*%

G36*
X204608Y234346D02*
X204608Y234346D01*
X204617Y234345D01*
X204749Y234366D01*
X204882Y234385D01*
X204889Y234388D01*
X204898Y234389D01*
X205019Y234446D01*
X205141Y234501D01*
X205147Y234506D01*
X205155Y234510D01*
X205256Y234598D01*
X205358Y234685D01*
X205363Y234692D01*
X205369Y234697D01*
X205441Y234810D01*
X205516Y234921D01*
X205518Y234929D01*
X205523Y234936D01*
X205561Y235065D01*
X205601Y235192D01*
X205602Y235201D01*
X205604Y235209D01*
X205605Y235343D01*
X205609Y235476D01*
X205606Y235485D01*
X205607Y235493D01*
X205591Y235544D01*
X205537Y235751D01*
X205517Y235784D01*
X205508Y235814D01*
X203508Y239814D01*
X203451Y239896D01*
X203402Y239983D01*
X203371Y240013D01*
X203347Y240048D01*
X203269Y240111D01*
X203198Y240181D01*
X203160Y240201D01*
X203127Y240228D01*
X203035Y240267D01*
X202947Y240314D01*
X202905Y240323D01*
X202865Y240340D01*
X202766Y240352D01*
X202669Y240373D01*
X202626Y240370D01*
X202583Y240375D01*
X202485Y240360D01*
X202385Y240352D01*
X202345Y240337D01*
X202302Y240331D01*
X202212Y240288D01*
X202119Y240254D01*
X202084Y240228D01*
X202045Y240210D01*
X201970Y240144D01*
X201890Y240085D01*
X201867Y240054D01*
X201831Y240023D01*
X201734Y239871D01*
X201692Y239814D01*
X199692Y235814D01*
X199689Y235806D01*
X199685Y235799D01*
X199644Y235671D01*
X199602Y235544D01*
X199601Y235536D01*
X199599Y235528D01*
X199595Y235393D01*
X199590Y235260D01*
X199592Y235252D01*
X199591Y235244D01*
X199625Y235114D01*
X199657Y234984D01*
X199661Y234977D01*
X199663Y234969D01*
X199731Y234854D01*
X199798Y234737D01*
X199804Y234732D01*
X199809Y234724D01*
X199906Y234632D01*
X200002Y234540D01*
X200010Y234536D01*
X200016Y234530D01*
X200135Y234469D01*
X200253Y234406D01*
X200261Y234404D01*
X200269Y234400D01*
X200321Y234392D01*
X200531Y234347D01*
X200569Y234350D01*
X200600Y234345D01*
X204600Y234345D01*
X204608Y234346D01*
G37*
D10*
X140896Y100711D02*
X139824Y100711D01*
X139759Y100713D01*
X139695Y100719D01*
X139631Y100729D01*
X139567Y100742D01*
X139505Y100760D01*
X139444Y100781D01*
X139384Y100805D01*
X139326Y100834D01*
X139269Y100866D01*
X139215Y100901D01*
X139163Y100939D01*
X139113Y100981D01*
X139066Y101025D01*
X139022Y101072D01*
X138980Y101122D01*
X138942Y101174D01*
X138907Y101228D01*
X138875Y101285D01*
X138846Y101343D01*
X138822Y101403D01*
X138801Y101464D01*
X138783Y101526D01*
X138770Y101590D01*
X138760Y101654D01*
X138754Y101718D01*
X138752Y101783D01*
X138752Y104465D01*
X138754Y104530D01*
X138760Y104594D01*
X138770Y104658D01*
X138783Y104722D01*
X138801Y104784D01*
X138822Y104845D01*
X138846Y104905D01*
X138875Y104963D01*
X138907Y105020D01*
X138942Y105074D01*
X138980Y105126D01*
X139022Y105176D01*
X139066Y105223D01*
X139113Y105267D01*
X139163Y105309D01*
X139215Y105347D01*
X139269Y105382D01*
X139326Y105414D01*
X139384Y105443D01*
X139444Y105467D01*
X139505Y105488D01*
X139567Y105506D01*
X139631Y105519D01*
X139695Y105529D01*
X139759Y105535D01*
X139824Y105537D01*
X140896Y105537D01*
X143352Y104465D02*
X144693Y105537D01*
X144693Y100711D01*
X146033Y100711D02*
X143352Y100711D01*
X217043Y73063D02*
X221869Y73063D01*
X217043Y73063D02*
X217043Y74403D01*
X217045Y74474D01*
X217051Y74546D01*
X217060Y74616D01*
X217073Y74686D01*
X217090Y74756D01*
X217111Y74824D01*
X217135Y74891D01*
X217163Y74957D01*
X217194Y75021D01*
X217229Y75084D01*
X217267Y75144D01*
X217308Y75203D01*
X217352Y75259D01*
X217399Y75313D01*
X217448Y75364D01*
X217501Y75412D01*
X217556Y75458D01*
X217613Y75500D01*
X217673Y75540D01*
X217734Y75576D01*
X217798Y75609D01*
X217863Y75638D01*
X217929Y75664D01*
X217997Y75687D01*
X218066Y75706D01*
X218136Y75721D01*
X218206Y75732D01*
X218277Y75740D01*
X218348Y75744D01*
X218420Y75744D01*
X218491Y75740D01*
X218562Y75732D01*
X218632Y75721D01*
X218702Y75706D01*
X218771Y75687D01*
X218839Y75664D01*
X218905Y75638D01*
X218970Y75609D01*
X219034Y75576D01*
X219095Y75540D01*
X219155Y75500D01*
X219212Y75458D01*
X219267Y75412D01*
X219320Y75364D01*
X219369Y75313D01*
X219416Y75259D01*
X219460Y75203D01*
X219501Y75144D01*
X219539Y75084D01*
X219574Y75021D01*
X219605Y74957D01*
X219633Y74891D01*
X219657Y74824D01*
X219678Y74756D01*
X219695Y74686D01*
X219708Y74616D01*
X219717Y74546D01*
X219723Y74474D01*
X219725Y74403D01*
X219724Y74403D02*
X219724Y73063D01*
X219724Y74671D02*
X221869Y75744D01*
X218116Y78485D02*
X217043Y79826D01*
X221869Y79826D01*
X221869Y81166D02*
X221869Y78485D01*
X157848Y105283D02*
X157848Y110109D01*
X159188Y110109D01*
X159259Y110107D01*
X159331Y110101D01*
X159401Y110092D01*
X159471Y110079D01*
X159541Y110062D01*
X159609Y110041D01*
X159676Y110017D01*
X159742Y109989D01*
X159806Y109958D01*
X159869Y109923D01*
X159929Y109885D01*
X159988Y109844D01*
X160044Y109800D01*
X160098Y109753D01*
X160149Y109704D01*
X160197Y109651D01*
X160243Y109596D01*
X160285Y109539D01*
X160325Y109479D01*
X160361Y109418D01*
X160394Y109354D01*
X160423Y109289D01*
X160449Y109223D01*
X160472Y109155D01*
X160491Y109086D01*
X160506Y109016D01*
X160517Y108946D01*
X160525Y108875D01*
X160529Y108804D01*
X160529Y108732D01*
X160525Y108661D01*
X160517Y108590D01*
X160506Y108520D01*
X160491Y108450D01*
X160472Y108381D01*
X160449Y108313D01*
X160423Y108247D01*
X160394Y108182D01*
X160361Y108118D01*
X160325Y108057D01*
X160285Y107997D01*
X160243Y107940D01*
X160197Y107885D01*
X160149Y107832D01*
X160098Y107783D01*
X160044Y107736D01*
X159988Y107692D01*
X159929Y107651D01*
X159869Y107613D01*
X159806Y107578D01*
X159742Y107547D01*
X159676Y107519D01*
X159609Y107495D01*
X159541Y107474D01*
X159471Y107457D01*
X159401Y107444D01*
X159331Y107435D01*
X159259Y107429D01*
X159188Y107427D01*
X159188Y107428D02*
X157848Y107428D01*
X159456Y107428D02*
X160529Y105283D01*
X163270Y109037D02*
X164611Y110109D01*
X164611Y105283D01*
X165951Y105283D02*
X163270Y105283D01*
X168757Y107696D02*
X168759Y107816D01*
X168764Y107936D01*
X168773Y108056D01*
X168786Y108176D01*
X168802Y108295D01*
X168822Y108414D01*
X168846Y108532D01*
X168873Y108649D01*
X168903Y108765D01*
X168937Y108880D01*
X168975Y108995D01*
X169016Y109108D01*
X169060Y109219D01*
X169108Y109330D01*
X169159Y109439D01*
X169180Y109496D01*
X169206Y109552D01*
X169234Y109607D01*
X169266Y109659D01*
X169302Y109710D01*
X169340Y109758D01*
X169381Y109804D01*
X169425Y109847D01*
X169471Y109887D01*
X169520Y109924D01*
X169572Y109958D01*
X169625Y109989D01*
X169680Y110017D01*
X169736Y110041D01*
X169794Y110062D01*
X169853Y110079D01*
X169913Y110092D01*
X169974Y110101D01*
X170036Y110107D01*
X170097Y110109D01*
X170158Y110107D01*
X170220Y110101D01*
X170281Y110092D01*
X170341Y110079D01*
X170400Y110062D01*
X170458Y110041D01*
X170514Y110017D01*
X170569Y109989D01*
X170622Y109958D01*
X170674Y109924D01*
X170723Y109887D01*
X170769Y109847D01*
X170813Y109804D01*
X170854Y109758D01*
X170892Y109710D01*
X170928Y109659D01*
X170960Y109607D01*
X170988Y109552D01*
X171014Y109496D01*
X171035Y109439D01*
X171036Y109439D02*
X171087Y109330D01*
X171135Y109219D01*
X171179Y109108D01*
X171220Y108995D01*
X171258Y108880D01*
X171292Y108765D01*
X171322Y108649D01*
X171349Y108532D01*
X171373Y108414D01*
X171393Y108295D01*
X171409Y108176D01*
X171422Y108056D01*
X171431Y107936D01*
X171436Y107816D01*
X171438Y107696D01*
X168757Y107696D02*
X168759Y107576D01*
X168764Y107456D01*
X168773Y107336D01*
X168786Y107216D01*
X168802Y107097D01*
X168822Y106978D01*
X168846Y106860D01*
X168873Y106743D01*
X168903Y106627D01*
X168937Y106512D01*
X168975Y106397D01*
X169016Y106284D01*
X169060Y106173D01*
X169108Y106062D01*
X169159Y105953D01*
X169180Y105896D01*
X169206Y105840D01*
X169234Y105785D01*
X169266Y105733D01*
X169302Y105682D01*
X169340Y105634D01*
X169381Y105588D01*
X169425Y105545D01*
X169471Y105505D01*
X169520Y105468D01*
X169572Y105434D01*
X169625Y105403D01*
X169680Y105375D01*
X169736Y105351D01*
X169794Y105330D01*
X169853Y105313D01*
X169913Y105300D01*
X169974Y105291D01*
X170036Y105285D01*
X170097Y105283D01*
X171036Y105953D02*
X171087Y106062D01*
X171135Y106173D01*
X171179Y106284D01*
X171220Y106397D01*
X171258Y106512D01*
X171292Y106627D01*
X171322Y106743D01*
X171349Y106860D01*
X171373Y106978D01*
X171393Y107097D01*
X171409Y107216D01*
X171422Y107336D01*
X171431Y107456D01*
X171436Y107576D01*
X171438Y107696D01*
X171035Y105953D02*
X171014Y105896D01*
X170988Y105840D01*
X170960Y105785D01*
X170928Y105733D01*
X170892Y105682D01*
X170854Y105634D01*
X170813Y105588D01*
X170769Y105545D01*
X170722Y105505D01*
X170674Y105468D01*
X170622Y105434D01*
X170569Y105403D01*
X170514Y105375D01*
X170458Y105351D01*
X170400Y105330D01*
X170341Y105313D01*
X170281Y105300D01*
X170220Y105291D01*
X170158Y105285D01*
X170097Y105283D01*
X169025Y106355D02*
X171170Y109037D01*
X106450Y-1988D02*
X106450Y-15588D01*
X128450Y-15588D02*
X128450Y-1988D01*
D11*
X103550Y-22488D02*
X103552Y-22425D01*
X103558Y-22363D01*
X103568Y-22301D01*
X103581Y-22239D01*
X103599Y-22179D01*
X103620Y-22120D01*
X103645Y-22062D01*
X103674Y-22006D01*
X103706Y-21952D01*
X103741Y-21900D01*
X103779Y-21851D01*
X103821Y-21803D01*
X103865Y-21759D01*
X103913Y-21717D01*
X103962Y-21679D01*
X104014Y-21644D01*
X104068Y-21612D01*
X104124Y-21583D01*
X104182Y-21558D01*
X104241Y-21537D01*
X104301Y-21519D01*
X104363Y-21506D01*
X104425Y-21496D01*
X104487Y-21490D01*
X104550Y-21488D01*
X104613Y-21490D01*
X104675Y-21496D01*
X104737Y-21506D01*
X104799Y-21519D01*
X104859Y-21537D01*
X104918Y-21558D01*
X104976Y-21583D01*
X105032Y-21612D01*
X105086Y-21644D01*
X105138Y-21679D01*
X105187Y-21717D01*
X105235Y-21759D01*
X105279Y-21803D01*
X105321Y-21851D01*
X105359Y-21900D01*
X105394Y-21952D01*
X105426Y-22006D01*
X105455Y-22062D01*
X105480Y-22120D01*
X105501Y-22179D01*
X105519Y-22239D01*
X105532Y-22301D01*
X105542Y-22363D01*
X105548Y-22425D01*
X105550Y-22488D01*
X105548Y-22551D01*
X105542Y-22613D01*
X105532Y-22675D01*
X105519Y-22737D01*
X105501Y-22797D01*
X105480Y-22856D01*
X105455Y-22914D01*
X105426Y-22970D01*
X105394Y-23024D01*
X105359Y-23076D01*
X105321Y-23125D01*
X105279Y-23173D01*
X105235Y-23217D01*
X105187Y-23259D01*
X105138Y-23297D01*
X105086Y-23332D01*
X105032Y-23364D01*
X104976Y-23393D01*
X104918Y-23418D01*
X104859Y-23439D01*
X104799Y-23457D01*
X104737Y-23470D01*
X104675Y-23480D01*
X104613Y-23486D01*
X104550Y-23488D01*
X104487Y-23486D01*
X104425Y-23480D01*
X104363Y-23470D01*
X104301Y-23457D01*
X104241Y-23439D01*
X104182Y-23418D01*
X104124Y-23393D01*
X104068Y-23364D01*
X104014Y-23332D01*
X103962Y-23297D01*
X103913Y-23259D01*
X103865Y-23217D01*
X103821Y-23173D01*
X103779Y-23125D01*
X103741Y-23076D01*
X103706Y-23024D01*
X103674Y-22970D01*
X103645Y-22914D01*
X103620Y-22856D01*
X103599Y-22797D01*
X103581Y-22737D01*
X103568Y-22675D01*
X103558Y-22613D01*
X103552Y-22551D01*
X103550Y-22488D01*
D12*
X-43347Y-60045D02*
X-51786Y-60045D01*
X-43347Y-60044D02*
X-43234Y-60042D01*
X-43121Y-60036D01*
X-43008Y-60026D01*
X-42895Y-60012D01*
X-42783Y-59995D01*
X-42672Y-59973D01*
X-42562Y-59948D01*
X-42452Y-59918D01*
X-42344Y-59885D01*
X-42237Y-59848D01*
X-42131Y-59808D01*
X-42027Y-59763D01*
X-41924Y-59715D01*
X-41823Y-59664D01*
X-41724Y-59609D01*
X-41627Y-59551D01*
X-41532Y-59489D01*
X-41439Y-59424D01*
X-41349Y-59356D01*
X-41261Y-59285D01*
X-41175Y-59210D01*
X-41092Y-59133D01*
X-41012Y-59053D01*
X-40935Y-58970D01*
X-40860Y-58884D01*
X-40789Y-58796D01*
X-40721Y-58706D01*
X-40656Y-58613D01*
X-40594Y-58518D01*
X-40536Y-58421D01*
X-40481Y-58322D01*
X-40430Y-58221D01*
X-40382Y-58118D01*
X-40337Y-58014D01*
X-40297Y-57908D01*
X-40260Y-57801D01*
X-40227Y-57693D01*
X-40197Y-57583D01*
X-40172Y-57473D01*
X-40150Y-57362D01*
X-40133Y-57250D01*
X-40119Y-57137D01*
X-40109Y-57024D01*
X-40103Y-56911D01*
X-40101Y-56798D01*
X-40103Y-56685D01*
X-40109Y-56572D01*
X-40119Y-56459D01*
X-40133Y-56346D01*
X-40150Y-56234D01*
X-40172Y-56123D01*
X-40197Y-56013D01*
X-40227Y-55903D01*
X-40260Y-55795D01*
X-40297Y-55688D01*
X-40337Y-55582D01*
X-40382Y-55478D01*
X-40430Y-55375D01*
X-40481Y-55274D01*
X-40536Y-55175D01*
X-40594Y-55078D01*
X-40656Y-54983D01*
X-40721Y-54890D01*
X-40789Y-54800D01*
X-40860Y-54712D01*
X-40935Y-54626D01*
X-41012Y-54543D01*
X-41092Y-54463D01*
X-41175Y-54386D01*
X-41261Y-54311D01*
X-41349Y-54240D01*
X-41439Y-54172D01*
X-41532Y-54107D01*
X-41627Y-54045D01*
X-41724Y-53987D01*
X-41823Y-53932D01*
X-41924Y-53881D01*
X-42027Y-53833D01*
X-42131Y-53788D01*
X-42237Y-53748D01*
X-42344Y-53711D01*
X-42452Y-53678D01*
X-42562Y-53648D01*
X-42672Y-53623D01*
X-42783Y-53601D01*
X-42895Y-53584D01*
X-43008Y-53570D01*
X-43121Y-53560D01*
X-43234Y-53554D01*
X-43347Y-53552D01*
X-51786Y-53552D01*
X-51786Y-45748D02*
X-40101Y-45748D01*
X-45943Y-45748D02*
X-46917Y-47371D01*
X-46964Y-47444D01*
X-47013Y-47515D01*
X-47066Y-47585D01*
X-47122Y-47651D01*
X-47181Y-47715D01*
X-47242Y-47777D01*
X-47306Y-47835D01*
X-47373Y-47891D01*
X-47442Y-47943D01*
X-47514Y-47993D01*
X-47588Y-48039D01*
X-47663Y-48082D01*
X-47741Y-48121D01*
X-47820Y-48157D01*
X-47901Y-48189D01*
X-47983Y-48218D01*
X-48066Y-48243D01*
X-48150Y-48264D01*
X-48235Y-48281D01*
X-48321Y-48295D01*
X-48407Y-48304D01*
X-48494Y-48310D01*
X-48581Y-48312D01*
X-48668Y-48310D01*
X-48755Y-48304D01*
X-48841Y-48294D01*
X-48927Y-48281D01*
X-49012Y-48263D01*
X-49096Y-48242D01*
X-49179Y-48217D01*
X-49262Y-48188D01*
X-49342Y-48156D01*
X-49421Y-48120D01*
X-49499Y-48081D01*
X-49574Y-48038D01*
X-49648Y-47991D01*
X-49719Y-47942D01*
X-49789Y-47889D01*
X-49855Y-47834D01*
X-49919Y-47775D01*
X-49981Y-47714D01*
X-50040Y-47650D01*
X-50095Y-47583D01*
X-50148Y-47514D01*
X-50198Y-47442D01*
X-50244Y-47369D01*
X-50287Y-47293D01*
X-50326Y-47216D01*
X-50362Y-47137D01*
X-50395Y-47056D01*
X-50423Y-46974D01*
X-50449Y-46891D01*
X-50470Y-46807D01*
X-50487Y-46722D01*
X-50487Y-46721D02*
X-50511Y-46581D01*
X-50531Y-46439D01*
X-50547Y-46298D01*
X-50558Y-46156D01*
X-50566Y-46013D01*
X-50570Y-45871D01*
X-50571Y-45728D01*
X-50567Y-45585D01*
X-50559Y-45443D01*
X-50547Y-45301D01*
X-50531Y-45159D01*
X-50512Y-45018D01*
X-50488Y-44877D01*
X-50461Y-44737D01*
X-50429Y-44598D01*
X-50394Y-44460D01*
X-50355Y-44322D01*
X-50312Y-44186D01*
X-50266Y-44051D01*
X-50215Y-43918D01*
X-50162Y-43786D01*
X-50104Y-43655D01*
X-50043Y-43527D01*
X-49978Y-43399D01*
X-49910Y-43274D01*
X-49838Y-43151D01*
X-45943Y-45748D02*
X-44970Y-44125D01*
X-44923Y-44052D01*
X-44874Y-43981D01*
X-44821Y-43911D01*
X-44765Y-43845D01*
X-44706Y-43781D01*
X-44645Y-43719D01*
X-44581Y-43661D01*
X-44514Y-43605D01*
X-44445Y-43553D01*
X-44373Y-43503D01*
X-44299Y-43457D01*
X-44224Y-43414D01*
X-44146Y-43375D01*
X-44067Y-43339D01*
X-43986Y-43307D01*
X-43904Y-43278D01*
X-43821Y-43253D01*
X-43737Y-43232D01*
X-43652Y-43215D01*
X-43566Y-43201D01*
X-43480Y-43192D01*
X-43393Y-43186D01*
X-43306Y-43184D01*
X-43219Y-43186D01*
X-43132Y-43192D01*
X-43046Y-43202D01*
X-42960Y-43215D01*
X-42875Y-43233D01*
X-42791Y-43254D01*
X-42708Y-43279D01*
X-42625Y-43308D01*
X-42545Y-43340D01*
X-42466Y-43376D01*
X-42388Y-43415D01*
X-42313Y-43458D01*
X-42239Y-43505D01*
X-42168Y-43554D01*
X-42098Y-43607D01*
X-42032Y-43662D01*
X-41968Y-43721D01*
X-41906Y-43782D01*
X-41847Y-43847D01*
X-41792Y-43913D01*
X-41739Y-43982D01*
X-41689Y-44054D01*
X-41643Y-44127D01*
X-41600Y-44203D01*
X-41561Y-44280D01*
X-41525Y-44359D01*
X-41492Y-44440D01*
X-41464Y-44522D01*
X-41438Y-44605D01*
X-41417Y-44689D01*
X-41400Y-44774D01*
X-41399Y-44775D02*
X-41375Y-44915D01*
X-41355Y-45057D01*
X-41339Y-45198D01*
X-41328Y-45340D01*
X-41320Y-45483D01*
X-41316Y-45625D01*
X-41315Y-45768D01*
X-41319Y-45911D01*
X-41327Y-46053D01*
X-41339Y-46195D01*
X-41355Y-46337D01*
X-41374Y-46478D01*
X-41398Y-46619D01*
X-41425Y-46759D01*
X-41457Y-46898D01*
X-41492Y-47036D01*
X-41531Y-47174D01*
X-41574Y-47310D01*
X-41620Y-47445D01*
X-41671Y-47578D01*
X-41725Y-47710D01*
X-41782Y-47841D01*
X-41843Y-47969D01*
X-41908Y-48097D01*
X-41976Y-48222D01*
X-42048Y-48345D01*
X-49189Y-38324D02*
X-51786Y-35078D01*
X-40101Y-35078D01*
X-40101Y-38324D02*
X-40101Y-31832D01*
D13*
X197536Y127251D03*
D14*
X200076Y129791D02*
X200076Y137773D01*
X200076Y149349D02*
X200076Y157331D01*
X203072Y157331D01*
X234620Y157331D02*
X237616Y157331D01*
X237616Y149349D01*
X237616Y137773D02*
X237616Y129791D01*
X203072Y129791D02*
X200076Y129791D01*
X234620Y129791D02*
X237616Y129791D01*
D12*
X192797Y139315D02*
X189128Y139315D01*
X192797Y139315D02*
X192871Y139317D01*
X192944Y139323D01*
X193018Y139332D01*
X193090Y139346D01*
X193162Y139363D01*
X193233Y139384D01*
X193303Y139409D01*
X193371Y139437D01*
X193438Y139469D01*
X193503Y139504D01*
X193565Y139543D01*
X193626Y139584D01*
X193685Y139629D01*
X193741Y139677D01*
X193795Y139728D01*
X193846Y139782D01*
X193894Y139838D01*
X193939Y139897D01*
X193980Y139958D01*
X194019Y140021D01*
X194054Y140085D01*
X194086Y140152D01*
X194114Y140220D01*
X194139Y140290D01*
X194160Y140361D01*
X194177Y140433D01*
X194191Y140505D01*
X194200Y140579D01*
X194206Y140652D01*
X194208Y140726D01*
X194206Y140800D01*
X194200Y140873D01*
X194191Y140947D01*
X194177Y141019D01*
X194160Y141091D01*
X194139Y141162D01*
X194114Y141232D01*
X194086Y141300D01*
X194054Y141367D01*
X194019Y141432D01*
X193980Y141494D01*
X193939Y141555D01*
X193894Y141614D01*
X193846Y141670D01*
X193795Y141724D01*
X193741Y141775D01*
X193685Y141823D01*
X193626Y141868D01*
X193565Y141909D01*
X193502Y141948D01*
X193438Y141983D01*
X193371Y142015D01*
X193303Y142043D01*
X193233Y142068D01*
X193162Y142089D01*
X193090Y142106D01*
X193018Y142120D01*
X192944Y142129D01*
X192871Y142135D01*
X192797Y142137D01*
X189128Y142137D01*
X190257Y144984D02*
X189128Y146395D01*
X194208Y146395D01*
X194208Y144984D02*
X194208Y147807D01*
D13*
X127410Y104115D03*
D14*
X124870Y106655D02*
X116888Y106655D01*
X105312Y106655D02*
X97330Y106655D01*
X97330Y109651D01*
X97330Y141199D02*
X97330Y144195D01*
X105312Y144195D01*
X116888Y144195D02*
X124870Y144195D01*
X124870Y109651D02*
X124870Y106655D01*
X124870Y141199D02*
X124870Y144195D01*
D12*
X106854Y100787D02*
X106854Y97118D01*
X106856Y97044D01*
X106862Y96971D01*
X106871Y96897D01*
X106885Y96825D01*
X106902Y96753D01*
X106923Y96682D01*
X106948Y96612D01*
X106976Y96544D01*
X107008Y96477D01*
X107043Y96413D01*
X107082Y96350D01*
X107123Y96289D01*
X107168Y96230D01*
X107216Y96174D01*
X107267Y96120D01*
X107321Y96069D01*
X107377Y96021D01*
X107436Y95976D01*
X107497Y95935D01*
X107560Y95896D01*
X107624Y95861D01*
X107691Y95829D01*
X107759Y95801D01*
X107829Y95776D01*
X107900Y95755D01*
X107972Y95738D01*
X108044Y95724D01*
X108118Y95715D01*
X108191Y95709D01*
X108265Y95707D01*
X108339Y95709D01*
X108412Y95715D01*
X108486Y95724D01*
X108558Y95738D01*
X108630Y95755D01*
X108701Y95776D01*
X108771Y95801D01*
X108839Y95829D01*
X108906Y95861D01*
X108971Y95896D01*
X109033Y95935D01*
X109094Y95976D01*
X109153Y96021D01*
X109209Y96069D01*
X109263Y96120D01*
X109314Y96174D01*
X109362Y96230D01*
X109407Y96289D01*
X109448Y96350D01*
X109487Y96413D01*
X109522Y96477D01*
X109554Y96544D01*
X109582Y96612D01*
X109607Y96682D01*
X109628Y96753D01*
X109645Y96825D01*
X109659Y96897D01*
X109668Y96971D01*
X109674Y97044D01*
X109676Y97118D01*
X109676Y100787D01*
X114075Y100787D02*
X114144Y100785D01*
X114212Y100780D01*
X114280Y100770D01*
X114348Y100757D01*
X114415Y100741D01*
X114481Y100721D01*
X114545Y100697D01*
X114608Y100670D01*
X114670Y100639D01*
X114730Y100605D01*
X114788Y100568D01*
X114844Y100528D01*
X114897Y100485D01*
X114948Y100439D01*
X114997Y100390D01*
X115043Y100339D01*
X115086Y100286D01*
X115126Y100230D01*
X115163Y100172D01*
X115197Y100112D01*
X115228Y100050D01*
X115255Y99987D01*
X115279Y99923D01*
X115299Y99857D01*
X115315Y99790D01*
X115328Y99722D01*
X115338Y99654D01*
X115343Y99586D01*
X115345Y99517D01*
X114075Y100788D02*
X113996Y100786D01*
X113917Y100780D01*
X113839Y100771D01*
X113761Y100758D01*
X113684Y100741D01*
X113608Y100720D01*
X113533Y100695D01*
X113459Y100667D01*
X113387Y100636D01*
X113316Y100601D01*
X113247Y100562D01*
X113180Y100521D01*
X113115Y100476D01*
X113052Y100428D01*
X112992Y100377D01*
X112934Y100323D01*
X112879Y100267D01*
X112827Y100208D01*
X112778Y100146D01*
X112731Y100082D01*
X112688Y100016D01*
X112648Y99948D01*
X112611Y99878D01*
X112578Y99806D01*
X112549Y99733D01*
X112522Y99659D01*
X114922Y98529D02*
X114970Y98578D01*
X115017Y98629D01*
X115060Y98683D01*
X115101Y98739D01*
X115139Y98796D01*
X115174Y98856D01*
X115206Y98917D01*
X115235Y98980D01*
X115260Y99044D01*
X115283Y99109D01*
X115302Y99176D01*
X115317Y99243D01*
X115329Y99311D01*
X115338Y99379D01*
X115343Y99448D01*
X115345Y99517D01*
X114922Y98529D02*
X112523Y95707D01*
X115345Y95707D01*
D15*
X191789Y-57506D02*
X191789Y-120498D01*
X191789Y-57506D02*
X141053Y-57506D01*
X141053Y-120498D01*
X191789Y-120498D01*
D16*
X189503Y-118212D02*
X189503Y-59792D01*
X143339Y-59792D01*
X143339Y-118212D01*
X189503Y-118212D01*
D15*
X177851Y-111608D02*
X177853Y-111473D01*
X177859Y-111338D01*
X177869Y-111204D01*
X177883Y-111070D01*
X177901Y-110936D01*
X177922Y-110803D01*
X177948Y-110671D01*
X177978Y-110539D01*
X178011Y-110408D01*
X178048Y-110279D01*
X178090Y-110150D01*
X178134Y-110023D01*
X178183Y-109897D01*
X178235Y-109773D01*
X178291Y-109650D01*
X178351Y-109529D01*
X178414Y-109410D01*
X178480Y-109293D01*
X178550Y-109178D01*
X178624Y-109064D01*
X178701Y-108953D01*
X178780Y-108845D01*
X178864Y-108739D01*
X178950Y-108635D01*
X179039Y-108534D01*
X179131Y-108435D01*
X179226Y-108340D01*
X179324Y-108247D01*
X179424Y-108157D01*
X179527Y-108070D01*
X179633Y-107986D01*
X179741Y-107905D01*
X179851Y-107828D01*
X179964Y-107754D01*
X180079Y-107683D01*
X180196Y-107615D01*
X180314Y-107551D01*
X180435Y-107491D01*
X180557Y-107434D01*
X180681Y-107381D01*
X180807Y-107331D01*
X180933Y-107285D01*
X181062Y-107243D01*
X181191Y-107205D01*
X181321Y-107171D01*
X181453Y-107140D01*
X181585Y-107113D01*
X181718Y-107091D01*
X181851Y-107072D01*
X181985Y-107057D01*
X182120Y-107046D01*
X182254Y-107039D01*
X182389Y-107036D01*
X182524Y-107037D01*
X182659Y-107042D01*
X182793Y-107051D01*
X182928Y-107064D01*
X183062Y-107081D01*
X183195Y-107102D01*
X183327Y-107126D01*
X183459Y-107155D01*
X183590Y-107187D01*
X183720Y-107224D01*
X183849Y-107264D01*
X183976Y-107308D01*
X184102Y-107356D01*
X184227Y-107407D01*
X184350Y-107462D01*
X184472Y-107521D01*
X184591Y-107583D01*
X184709Y-107649D01*
X184825Y-107718D01*
X184938Y-107790D01*
X185050Y-107866D01*
X185159Y-107945D01*
X185266Y-108027D01*
X185370Y-108113D01*
X185472Y-108201D01*
X185571Y-108293D01*
X185668Y-108387D01*
X185761Y-108484D01*
X185852Y-108584D01*
X185940Y-108686D01*
X186024Y-108791D01*
X186106Y-108899D01*
X186184Y-109009D01*
X186259Y-109121D01*
X186331Y-109235D01*
X186399Y-109351D01*
X186464Y-109470D01*
X186525Y-109590D01*
X186583Y-109712D01*
X186637Y-109835D01*
X186688Y-109960D01*
X186734Y-110087D01*
X186777Y-110214D01*
X186817Y-110343D01*
X186852Y-110474D01*
X186884Y-110605D01*
X186911Y-110737D01*
X186935Y-110869D01*
X186955Y-111003D01*
X186971Y-111137D01*
X186983Y-111271D01*
X186991Y-111406D01*
X186995Y-111541D01*
X186995Y-111675D01*
X186991Y-111810D01*
X186983Y-111945D01*
X186971Y-112079D01*
X186955Y-112213D01*
X186935Y-112347D01*
X186911Y-112479D01*
X186884Y-112611D01*
X186852Y-112742D01*
X186817Y-112873D01*
X186777Y-113002D01*
X186734Y-113129D01*
X186688Y-113256D01*
X186637Y-113381D01*
X186583Y-113504D01*
X186525Y-113626D01*
X186464Y-113746D01*
X186399Y-113865D01*
X186331Y-113981D01*
X186259Y-114095D01*
X186184Y-114207D01*
X186106Y-114317D01*
X186024Y-114425D01*
X185940Y-114530D01*
X185852Y-114632D01*
X185761Y-114732D01*
X185668Y-114829D01*
X185571Y-114923D01*
X185472Y-115015D01*
X185370Y-115103D01*
X185266Y-115189D01*
X185159Y-115271D01*
X185050Y-115350D01*
X184938Y-115426D01*
X184825Y-115498D01*
X184709Y-115567D01*
X184591Y-115633D01*
X184472Y-115695D01*
X184350Y-115754D01*
X184227Y-115809D01*
X184102Y-115860D01*
X183976Y-115908D01*
X183849Y-115952D01*
X183720Y-115992D01*
X183590Y-116029D01*
X183459Y-116061D01*
X183327Y-116090D01*
X183195Y-116114D01*
X183062Y-116135D01*
X182928Y-116152D01*
X182793Y-116165D01*
X182659Y-116174D01*
X182524Y-116179D01*
X182389Y-116180D01*
X182254Y-116177D01*
X182120Y-116170D01*
X181985Y-116159D01*
X181851Y-116144D01*
X181718Y-116125D01*
X181585Y-116103D01*
X181453Y-116076D01*
X181321Y-116045D01*
X181191Y-116011D01*
X181062Y-115973D01*
X180933Y-115931D01*
X180807Y-115885D01*
X180681Y-115835D01*
X180557Y-115782D01*
X180435Y-115725D01*
X180314Y-115665D01*
X180196Y-115601D01*
X180079Y-115533D01*
X179964Y-115462D01*
X179851Y-115388D01*
X179741Y-115311D01*
X179633Y-115230D01*
X179527Y-115146D01*
X179424Y-115059D01*
X179324Y-114969D01*
X179226Y-114876D01*
X179131Y-114781D01*
X179039Y-114682D01*
X178950Y-114581D01*
X178864Y-114477D01*
X178780Y-114371D01*
X178701Y-114263D01*
X178624Y-114152D01*
X178550Y-114038D01*
X178480Y-113923D01*
X178414Y-113806D01*
X178351Y-113687D01*
X178291Y-113566D01*
X178235Y-113443D01*
X178183Y-113319D01*
X178134Y-113193D01*
X178090Y-113066D01*
X178048Y-112937D01*
X178011Y-112808D01*
X177978Y-112677D01*
X177948Y-112545D01*
X177922Y-112413D01*
X177901Y-112280D01*
X177883Y-112146D01*
X177869Y-112012D01*
X177859Y-111878D01*
X177853Y-111743D01*
X177851Y-111608D01*
D10*
X166396Y-127097D02*
X166396Y-133402D01*
X166398Y-133500D01*
X166404Y-133597D01*
X166414Y-133694D01*
X166427Y-133791D01*
X166445Y-133887D01*
X166466Y-133982D01*
X166492Y-134077D01*
X166521Y-134170D01*
X166554Y-134262D01*
X166590Y-134353D01*
X166630Y-134442D01*
X166674Y-134529D01*
X166721Y-134615D01*
X166771Y-134698D01*
X166825Y-134780D01*
X166882Y-134859D01*
X166943Y-134936D01*
X167006Y-135010D01*
X167072Y-135082D01*
X167141Y-135151D01*
X167213Y-135217D01*
X167287Y-135280D01*
X167364Y-135341D01*
X167443Y-135398D01*
X167525Y-135452D01*
X167609Y-135502D01*
X167694Y-135549D01*
X167781Y-135593D01*
X167870Y-135633D01*
X167961Y-135669D01*
X168053Y-135702D01*
X168146Y-135731D01*
X168241Y-135757D01*
X168336Y-135778D01*
X168432Y-135796D01*
X168529Y-135809D01*
X168626Y-135819D01*
X168723Y-135825D01*
X168821Y-135827D01*
X168919Y-135825D01*
X169016Y-135819D01*
X169113Y-135809D01*
X169210Y-135796D01*
X169306Y-135778D01*
X169401Y-135757D01*
X169496Y-135731D01*
X169589Y-135702D01*
X169681Y-135669D01*
X169772Y-135633D01*
X169861Y-135593D01*
X169948Y-135549D01*
X170033Y-135502D01*
X170117Y-135452D01*
X170199Y-135398D01*
X170278Y-135341D01*
X170355Y-135280D01*
X170429Y-135217D01*
X170501Y-135151D01*
X170570Y-135082D01*
X170636Y-135010D01*
X170699Y-134936D01*
X170760Y-134859D01*
X170817Y-134780D01*
X170871Y-134698D01*
X170921Y-134615D01*
X170968Y-134529D01*
X171012Y-134442D01*
X171052Y-134353D01*
X171088Y-134262D01*
X171121Y-134170D01*
X171150Y-134077D01*
X171176Y-133982D01*
X171197Y-133887D01*
X171215Y-133791D01*
X171228Y-133694D01*
X171238Y-133597D01*
X171244Y-133500D01*
X171246Y-133402D01*
X171246Y-127097D01*
X175696Y-135827D02*
X178121Y-135827D01*
X178219Y-135825D01*
X178316Y-135819D01*
X178413Y-135809D01*
X178510Y-135796D01*
X178606Y-135778D01*
X178701Y-135757D01*
X178796Y-135731D01*
X178889Y-135702D01*
X178981Y-135669D01*
X179072Y-135633D01*
X179161Y-135593D01*
X179248Y-135549D01*
X179334Y-135502D01*
X179417Y-135452D01*
X179499Y-135398D01*
X179578Y-135341D01*
X179655Y-135280D01*
X179729Y-135217D01*
X179801Y-135151D01*
X179870Y-135082D01*
X179936Y-135010D01*
X179999Y-134936D01*
X180060Y-134859D01*
X180117Y-134780D01*
X180171Y-134698D01*
X180221Y-134615D01*
X180268Y-134529D01*
X180312Y-134442D01*
X180352Y-134353D01*
X180388Y-134262D01*
X180421Y-134170D01*
X180450Y-134077D01*
X180476Y-133982D01*
X180497Y-133887D01*
X180515Y-133791D01*
X180528Y-133694D01*
X180538Y-133597D01*
X180544Y-133500D01*
X180546Y-133402D01*
X180544Y-133304D01*
X180538Y-133207D01*
X180528Y-133110D01*
X180515Y-133013D01*
X180497Y-132917D01*
X180476Y-132822D01*
X180450Y-132727D01*
X180421Y-132634D01*
X180388Y-132542D01*
X180352Y-132451D01*
X180312Y-132362D01*
X180268Y-132275D01*
X180221Y-132190D01*
X180171Y-132106D01*
X180117Y-132024D01*
X180060Y-131945D01*
X179999Y-131868D01*
X179936Y-131794D01*
X179870Y-131722D01*
X179801Y-131653D01*
X179729Y-131587D01*
X179655Y-131524D01*
X179578Y-131463D01*
X179499Y-131406D01*
X179417Y-131352D01*
X179334Y-131302D01*
X179248Y-131255D01*
X179161Y-131211D01*
X179072Y-131171D01*
X178981Y-131135D01*
X178889Y-131102D01*
X178796Y-131073D01*
X178701Y-131047D01*
X178606Y-131026D01*
X178510Y-131008D01*
X178413Y-130995D01*
X178316Y-130985D01*
X178219Y-130979D01*
X178121Y-130977D01*
X178606Y-127097D02*
X175696Y-127097D01*
X178606Y-127097D02*
X178693Y-127099D01*
X178780Y-127105D01*
X178866Y-127115D01*
X178952Y-127128D01*
X179038Y-127146D01*
X179122Y-127167D01*
X179205Y-127192D01*
X179288Y-127221D01*
X179368Y-127253D01*
X179448Y-127289D01*
X179525Y-127329D01*
X179601Y-127372D01*
X179675Y-127418D01*
X179746Y-127468D01*
X179816Y-127520D01*
X179882Y-127576D01*
X179947Y-127635D01*
X180008Y-127696D01*
X180067Y-127761D01*
X180123Y-127827D01*
X180175Y-127897D01*
X180225Y-127968D01*
X180271Y-128042D01*
X180314Y-128118D01*
X180354Y-128195D01*
X180390Y-128275D01*
X180422Y-128355D01*
X180451Y-128438D01*
X180476Y-128521D01*
X180497Y-128605D01*
X180515Y-128691D01*
X180528Y-128777D01*
X180538Y-128863D01*
X180544Y-128950D01*
X180546Y-129037D01*
X180544Y-129124D01*
X180538Y-129211D01*
X180528Y-129297D01*
X180515Y-129383D01*
X180497Y-129469D01*
X180476Y-129553D01*
X180451Y-129636D01*
X180422Y-129719D01*
X180390Y-129799D01*
X180354Y-129879D01*
X180314Y-129956D01*
X180271Y-130032D01*
X180225Y-130106D01*
X180175Y-130177D01*
X180123Y-130247D01*
X180067Y-130313D01*
X180008Y-130378D01*
X179947Y-130439D01*
X179882Y-130498D01*
X179816Y-130554D01*
X179746Y-130606D01*
X179675Y-130656D01*
X179601Y-130702D01*
X179525Y-130745D01*
X179448Y-130785D01*
X179368Y-130821D01*
X179288Y-130853D01*
X179205Y-130882D01*
X179122Y-130907D01*
X179038Y-130928D01*
X178952Y-130946D01*
X178866Y-130959D01*
X178780Y-130969D01*
X178693Y-130975D01*
X178606Y-130977D01*
X176666Y-130977D01*
D17*
X219552Y14783D02*
X219554Y14860D01*
X219560Y14937D01*
X219570Y15014D01*
X219584Y15090D01*
X219601Y15165D01*
X219623Y15239D01*
X219648Y15312D01*
X219678Y15384D01*
X219710Y15454D01*
X219747Y15522D01*
X219786Y15588D01*
X219829Y15652D01*
X219876Y15714D01*
X219925Y15773D01*
X219978Y15830D01*
X220033Y15884D01*
X220091Y15935D01*
X220152Y15983D01*
X220215Y16028D01*
X220280Y16069D01*
X220347Y16107D01*
X220416Y16142D01*
X220487Y16172D01*
X220559Y16200D01*
X220633Y16223D01*
X220707Y16243D01*
X220783Y16259D01*
X220859Y16271D01*
X220936Y16279D01*
X221013Y16283D01*
X221091Y16283D01*
X221168Y16279D01*
X221245Y16271D01*
X221321Y16259D01*
X221397Y16243D01*
X221471Y16223D01*
X221545Y16200D01*
X221617Y16172D01*
X221688Y16142D01*
X221757Y16107D01*
X221824Y16069D01*
X221889Y16028D01*
X221952Y15983D01*
X222013Y15935D01*
X222071Y15884D01*
X222126Y15830D01*
X222179Y15773D01*
X222228Y15714D01*
X222275Y15652D01*
X222318Y15588D01*
X222357Y15522D01*
X222394Y15454D01*
X222426Y15384D01*
X222456Y15312D01*
X222481Y15239D01*
X222503Y15165D01*
X222520Y15090D01*
X222534Y15014D01*
X222544Y14937D01*
X222550Y14860D01*
X222552Y14783D01*
X222550Y14706D01*
X222544Y14629D01*
X222534Y14552D01*
X222520Y14476D01*
X222503Y14401D01*
X222481Y14327D01*
X222456Y14254D01*
X222426Y14182D01*
X222394Y14112D01*
X222357Y14044D01*
X222318Y13978D01*
X222275Y13914D01*
X222228Y13852D01*
X222179Y13793D01*
X222126Y13736D01*
X222071Y13682D01*
X222013Y13631D01*
X221952Y13583D01*
X221889Y13538D01*
X221824Y13497D01*
X221757Y13459D01*
X221688Y13424D01*
X221617Y13394D01*
X221545Y13366D01*
X221471Y13343D01*
X221397Y13323D01*
X221321Y13307D01*
X221245Y13295D01*
X221168Y13287D01*
X221091Y13283D01*
X221013Y13283D01*
X220936Y13287D01*
X220859Y13295D01*
X220783Y13307D01*
X220707Y13323D01*
X220633Y13343D01*
X220559Y13366D01*
X220487Y13394D01*
X220416Y13424D01*
X220347Y13459D01*
X220280Y13497D01*
X220215Y13538D01*
X220152Y13583D01*
X220091Y13631D01*
X220033Y13682D01*
X219978Y13736D01*
X219925Y13793D01*
X219876Y13852D01*
X219829Y13914D01*
X219786Y13978D01*
X219747Y14044D01*
X219710Y14112D01*
X219678Y14182D01*
X219648Y14254D01*
X219623Y14327D01*
X219601Y14401D01*
X219584Y14476D01*
X219570Y14552D01*
X219560Y14629D01*
X219554Y14706D01*
X219552Y14783D01*
D10*
X200442Y8833D02*
X160442Y8833D01*
X160442Y58833D02*
X200442Y58833D01*
X144906Y-150752D02*
X128906Y-150752D01*
X128906Y-179752D02*
X144906Y-179752D01*
X121906Y-149252D02*
X121908Y-149189D01*
X121914Y-149127D01*
X121924Y-149065D01*
X121937Y-149003D01*
X121955Y-148943D01*
X121976Y-148884D01*
X122001Y-148826D01*
X122030Y-148770D01*
X122062Y-148716D01*
X122097Y-148664D01*
X122135Y-148615D01*
X122177Y-148567D01*
X122221Y-148523D01*
X122269Y-148481D01*
X122318Y-148443D01*
X122370Y-148408D01*
X122424Y-148376D01*
X122480Y-148347D01*
X122538Y-148322D01*
X122597Y-148301D01*
X122657Y-148283D01*
X122719Y-148270D01*
X122781Y-148260D01*
X122843Y-148254D01*
X122906Y-148252D01*
X122969Y-148254D01*
X123031Y-148260D01*
X123093Y-148270D01*
X123155Y-148283D01*
X123215Y-148301D01*
X123274Y-148322D01*
X123332Y-148347D01*
X123388Y-148376D01*
X123442Y-148408D01*
X123494Y-148443D01*
X123543Y-148481D01*
X123591Y-148523D01*
X123635Y-148567D01*
X123677Y-148615D01*
X123715Y-148664D01*
X123750Y-148716D01*
X123782Y-148770D01*
X123811Y-148826D01*
X123836Y-148884D01*
X123857Y-148943D01*
X123875Y-149003D01*
X123888Y-149065D01*
X123898Y-149127D01*
X123904Y-149189D01*
X123906Y-149252D01*
X123904Y-149315D01*
X123898Y-149377D01*
X123888Y-149439D01*
X123875Y-149501D01*
X123857Y-149561D01*
X123836Y-149620D01*
X123811Y-149678D01*
X123782Y-149734D01*
X123750Y-149788D01*
X123715Y-149840D01*
X123677Y-149889D01*
X123635Y-149937D01*
X123591Y-149981D01*
X123543Y-150023D01*
X123494Y-150061D01*
X123442Y-150096D01*
X123388Y-150128D01*
X123332Y-150157D01*
X123274Y-150182D01*
X123215Y-150203D01*
X123155Y-150221D01*
X123093Y-150234D01*
X123031Y-150244D01*
X122969Y-150250D01*
X122906Y-150252D01*
X122843Y-150250D01*
X122781Y-150244D01*
X122719Y-150234D01*
X122657Y-150221D01*
X122597Y-150203D01*
X122538Y-150182D01*
X122480Y-150157D01*
X122424Y-150128D01*
X122370Y-150096D01*
X122318Y-150061D01*
X122269Y-150023D01*
X122221Y-149981D01*
X122177Y-149937D01*
X122135Y-149889D01*
X122097Y-149840D01*
X122062Y-149788D01*
X122030Y-149734D01*
X122001Y-149678D01*
X121976Y-149620D01*
X121955Y-149561D01*
X121937Y-149501D01*
X121924Y-149439D01*
X121914Y-149377D01*
X121908Y-149315D01*
X121906Y-149252D01*
D18*
X107774Y-160417D02*
X107774Y-165747D01*
X107776Y-165836D01*
X107782Y-165926D01*
X107792Y-166015D01*
X107805Y-166103D01*
X107823Y-166191D01*
X107844Y-166278D01*
X107869Y-166363D01*
X107898Y-166448D01*
X107930Y-166532D01*
X107966Y-166613D01*
X108006Y-166694D01*
X108049Y-166772D01*
X108095Y-166848D01*
X108145Y-166923D01*
X108198Y-166995D01*
X108254Y-167065D01*
X108313Y-167132D01*
X108374Y-167197D01*
X108439Y-167258D01*
X108506Y-167317D01*
X108576Y-167373D01*
X108648Y-167426D01*
X108723Y-167476D01*
X108799Y-167522D01*
X108877Y-167565D01*
X108958Y-167605D01*
X109039Y-167641D01*
X109123Y-167673D01*
X109208Y-167702D01*
X109293Y-167727D01*
X109380Y-167748D01*
X109468Y-167766D01*
X109556Y-167779D01*
X109645Y-167789D01*
X109735Y-167795D01*
X109824Y-167797D01*
X109913Y-167795D01*
X110003Y-167789D01*
X110092Y-167779D01*
X110180Y-167766D01*
X110268Y-167748D01*
X110355Y-167727D01*
X110440Y-167702D01*
X110525Y-167673D01*
X110609Y-167641D01*
X110690Y-167605D01*
X110771Y-167565D01*
X110849Y-167522D01*
X110925Y-167476D01*
X111000Y-167426D01*
X111072Y-167373D01*
X111142Y-167317D01*
X111209Y-167258D01*
X111274Y-167197D01*
X111335Y-167132D01*
X111394Y-167065D01*
X111450Y-166995D01*
X111503Y-166923D01*
X111553Y-166848D01*
X111599Y-166772D01*
X111642Y-166694D01*
X111682Y-166613D01*
X111718Y-166532D01*
X111750Y-166448D01*
X111779Y-166363D01*
X111804Y-166278D01*
X111825Y-166191D01*
X111843Y-166103D01*
X111856Y-166015D01*
X111866Y-165926D01*
X111872Y-165836D01*
X111874Y-165747D01*
X111874Y-160417D01*
X115346Y-167797D02*
X117807Y-167797D01*
X117885Y-167795D01*
X117963Y-167790D01*
X118040Y-167780D01*
X118117Y-167767D01*
X118194Y-167751D01*
X118269Y-167731D01*
X118343Y-167707D01*
X118417Y-167680D01*
X118488Y-167649D01*
X118558Y-167615D01*
X118627Y-167577D01*
X118694Y-167537D01*
X118758Y-167493D01*
X118821Y-167446D01*
X118881Y-167396D01*
X118939Y-167344D01*
X118994Y-167289D01*
X119046Y-167231D01*
X119096Y-167171D01*
X119143Y-167108D01*
X119187Y-167044D01*
X119227Y-166977D01*
X119265Y-166908D01*
X119299Y-166838D01*
X119330Y-166767D01*
X119357Y-166693D01*
X119381Y-166619D01*
X119401Y-166544D01*
X119417Y-166467D01*
X119430Y-166390D01*
X119440Y-166313D01*
X119445Y-166235D01*
X119447Y-166157D01*
X119447Y-165337D01*
X119445Y-165259D01*
X119440Y-165181D01*
X119430Y-165104D01*
X119417Y-165027D01*
X119401Y-164950D01*
X119381Y-164875D01*
X119357Y-164801D01*
X119330Y-164727D01*
X119299Y-164656D01*
X119265Y-164586D01*
X119227Y-164517D01*
X119187Y-164450D01*
X119143Y-164386D01*
X119096Y-164323D01*
X119046Y-164263D01*
X118994Y-164205D01*
X118939Y-164150D01*
X118881Y-164098D01*
X118821Y-164048D01*
X118758Y-164001D01*
X118694Y-163957D01*
X118627Y-163917D01*
X118558Y-163879D01*
X118488Y-163845D01*
X118417Y-163814D01*
X118343Y-163787D01*
X118269Y-163763D01*
X118194Y-163743D01*
X118117Y-163727D01*
X118040Y-163714D01*
X117963Y-163704D01*
X117885Y-163699D01*
X117807Y-163697D01*
X115346Y-163697D01*
X115346Y-160417D01*
X119447Y-160417D01*
X221069Y-155969D02*
X223158Y-155969D01*
X221069Y-155969D02*
X220980Y-155967D01*
X220892Y-155961D01*
X220804Y-155952D01*
X220716Y-155939D01*
X220629Y-155922D01*
X220543Y-155902D01*
X220458Y-155877D01*
X220373Y-155850D01*
X220290Y-155818D01*
X220209Y-155784D01*
X220129Y-155745D01*
X220051Y-155704D01*
X219974Y-155659D01*
X219900Y-155611D01*
X219827Y-155560D01*
X219757Y-155506D01*
X219690Y-155448D01*
X219624Y-155388D01*
X219562Y-155326D01*
X219502Y-155260D01*
X219444Y-155193D01*
X219390Y-155123D01*
X219339Y-155050D01*
X219291Y-154976D01*
X219246Y-154899D01*
X219205Y-154821D01*
X219166Y-154741D01*
X219132Y-154660D01*
X219100Y-154577D01*
X219073Y-154492D01*
X219048Y-154407D01*
X219028Y-154321D01*
X219011Y-154234D01*
X218998Y-154146D01*
X218989Y-154058D01*
X218983Y-153970D01*
X218981Y-153881D01*
X218981Y-148659D01*
X218983Y-148568D01*
X218989Y-148477D01*
X218999Y-148386D01*
X219013Y-148296D01*
X219031Y-148207D01*
X219052Y-148118D01*
X219078Y-148031D01*
X219107Y-147945D01*
X219140Y-147860D01*
X219177Y-147776D01*
X219217Y-147694D01*
X219261Y-147615D01*
X219308Y-147537D01*
X219359Y-147461D01*
X219413Y-147387D01*
X219470Y-147316D01*
X219530Y-147248D01*
X219593Y-147182D01*
X219659Y-147119D01*
X219727Y-147059D01*
X219798Y-147002D01*
X219872Y-146948D01*
X219948Y-146897D01*
X220025Y-146850D01*
X220105Y-146806D01*
X220187Y-146766D01*
X220271Y-146729D01*
X220355Y-146696D01*
X220442Y-146667D01*
X220529Y-146641D01*
X220618Y-146620D01*
X220707Y-146602D01*
X220797Y-146588D01*
X220888Y-146578D01*
X220979Y-146572D01*
X221070Y-146570D01*
X221069Y-146571D02*
X223158Y-146571D01*
X226627Y-148659D02*
X229237Y-146571D01*
X229237Y-155969D01*
X226627Y-155969D02*
X231848Y-155969D01*
X235771Y-155969D02*
X238903Y-155969D01*
X238992Y-155967D01*
X239080Y-155961D01*
X239168Y-155952D01*
X239256Y-155939D01*
X239343Y-155922D01*
X239429Y-155902D01*
X239514Y-155877D01*
X239599Y-155850D01*
X239682Y-155818D01*
X239763Y-155784D01*
X239843Y-155745D01*
X239921Y-155704D01*
X239998Y-155659D01*
X240072Y-155611D01*
X240145Y-155560D01*
X240215Y-155506D01*
X240282Y-155448D01*
X240348Y-155388D01*
X240410Y-155326D01*
X240470Y-155260D01*
X240528Y-155193D01*
X240582Y-155123D01*
X240633Y-155050D01*
X240681Y-154976D01*
X240726Y-154899D01*
X240767Y-154821D01*
X240806Y-154741D01*
X240840Y-154660D01*
X240872Y-154577D01*
X240899Y-154492D01*
X240924Y-154407D01*
X240944Y-154321D01*
X240961Y-154234D01*
X240974Y-154146D01*
X240983Y-154058D01*
X240989Y-153970D01*
X240991Y-153881D01*
X240992Y-153881D02*
X240992Y-152836D01*
X240991Y-152836D02*
X240989Y-152747D01*
X240983Y-152659D01*
X240974Y-152571D01*
X240961Y-152483D01*
X240944Y-152396D01*
X240924Y-152310D01*
X240899Y-152225D01*
X240872Y-152140D01*
X240840Y-152057D01*
X240806Y-151976D01*
X240767Y-151896D01*
X240726Y-151818D01*
X240681Y-151741D01*
X240633Y-151667D01*
X240582Y-151594D01*
X240528Y-151524D01*
X240470Y-151457D01*
X240410Y-151391D01*
X240348Y-151329D01*
X240282Y-151269D01*
X240215Y-151211D01*
X240145Y-151157D01*
X240072Y-151106D01*
X239998Y-151058D01*
X239921Y-151013D01*
X239843Y-150972D01*
X239763Y-150933D01*
X239682Y-150899D01*
X239599Y-150867D01*
X239514Y-150840D01*
X239429Y-150815D01*
X239343Y-150795D01*
X239256Y-150778D01*
X239168Y-150765D01*
X239080Y-150756D01*
X238992Y-150750D01*
X238903Y-150748D01*
X235771Y-150748D01*
X235771Y-146571D01*
X240992Y-146571D01*
X202838Y-176289D02*
X200749Y-176289D01*
X200660Y-176287D01*
X200572Y-176281D01*
X200484Y-176272D01*
X200396Y-176259D01*
X200309Y-176242D01*
X200223Y-176222D01*
X200138Y-176197D01*
X200053Y-176170D01*
X199970Y-176138D01*
X199889Y-176104D01*
X199809Y-176065D01*
X199731Y-176024D01*
X199654Y-175979D01*
X199580Y-175931D01*
X199507Y-175880D01*
X199437Y-175826D01*
X199370Y-175768D01*
X199304Y-175708D01*
X199242Y-175646D01*
X199182Y-175580D01*
X199124Y-175513D01*
X199070Y-175443D01*
X199019Y-175370D01*
X198971Y-175296D01*
X198926Y-175219D01*
X198885Y-175141D01*
X198846Y-175061D01*
X198812Y-174980D01*
X198780Y-174897D01*
X198753Y-174812D01*
X198728Y-174727D01*
X198708Y-174641D01*
X198691Y-174554D01*
X198678Y-174466D01*
X198669Y-174378D01*
X198663Y-174290D01*
X198661Y-174201D01*
X198661Y-168979D01*
X198663Y-168888D01*
X198669Y-168797D01*
X198679Y-168706D01*
X198693Y-168616D01*
X198711Y-168527D01*
X198732Y-168438D01*
X198758Y-168351D01*
X198787Y-168265D01*
X198820Y-168180D01*
X198857Y-168096D01*
X198897Y-168014D01*
X198941Y-167935D01*
X198988Y-167857D01*
X199039Y-167781D01*
X199093Y-167707D01*
X199150Y-167636D01*
X199210Y-167568D01*
X199273Y-167502D01*
X199339Y-167439D01*
X199407Y-167379D01*
X199478Y-167322D01*
X199552Y-167268D01*
X199628Y-167217D01*
X199705Y-167170D01*
X199785Y-167126D01*
X199867Y-167086D01*
X199951Y-167049D01*
X200035Y-167016D01*
X200122Y-166987D01*
X200209Y-166961D01*
X200298Y-166940D01*
X200387Y-166922D01*
X200477Y-166908D01*
X200568Y-166898D01*
X200659Y-166892D01*
X200750Y-166890D01*
X200749Y-166891D02*
X202838Y-166891D01*
X206307Y-168979D02*
X208917Y-166891D01*
X208917Y-176289D01*
X206307Y-176289D02*
X211528Y-176289D01*
X215451Y-171068D02*
X218583Y-171068D01*
X218672Y-171070D01*
X218760Y-171076D01*
X218848Y-171085D01*
X218936Y-171098D01*
X219023Y-171115D01*
X219109Y-171135D01*
X219194Y-171160D01*
X219279Y-171187D01*
X219362Y-171219D01*
X219443Y-171253D01*
X219523Y-171292D01*
X219601Y-171333D01*
X219678Y-171378D01*
X219752Y-171426D01*
X219825Y-171477D01*
X219895Y-171531D01*
X219962Y-171589D01*
X220028Y-171649D01*
X220090Y-171711D01*
X220150Y-171777D01*
X220208Y-171844D01*
X220262Y-171914D01*
X220313Y-171987D01*
X220361Y-172061D01*
X220406Y-172138D01*
X220447Y-172216D01*
X220486Y-172296D01*
X220520Y-172377D01*
X220552Y-172460D01*
X220579Y-172545D01*
X220604Y-172630D01*
X220624Y-172716D01*
X220641Y-172803D01*
X220654Y-172891D01*
X220663Y-172979D01*
X220669Y-173067D01*
X220671Y-173156D01*
X220672Y-173156D02*
X220672Y-173678D01*
X220670Y-173779D01*
X220664Y-173880D01*
X220654Y-173981D01*
X220641Y-174081D01*
X220623Y-174181D01*
X220602Y-174280D01*
X220576Y-174378D01*
X220547Y-174475D01*
X220515Y-174571D01*
X220478Y-174665D01*
X220438Y-174758D01*
X220394Y-174850D01*
X220347Y-174939D01*
X220296Y-175027D01*
X220242Y-175113D01*
X220185Y-175196D01*
X220125Y-175278D01*
X220061Y-175356D01*
X219995Y-175433D01*
X219925Y-175506D01*
X219853Y-175577D01*
X219778Y-175645D01*
X219700Y-175710D01*
X219620Y-175772D01*
X219538Y-175831D01*
X219453Y-175887D01*
X219366Y-175939D01*
X219278Y-175988D01*
X219187Y-176034D01*
X219095Y-176075D01*
X219001Y-176114D01*
X218906Y-176148D01*
X218810Y-176179D01*
X218712Y-176206D01*
X218614Y-176230D01*
X218514Y-176249D01*
X218414Y-176265D01*
X218314Y-176277D01*
X218213Y-176285D01*
X218112Y-176289D01*
X218010Y-176289D01*
X217909Y-176285D01*
X217808Y-176277D01*
X217708Y-176265D01*
X217608Y-176249D01*
X217508Y-176230D01*
X217410Y-176206D01*
X217312Y-176179D01*
X217216Y-176148D01*
X217121Y-176114D01*
X217027Y-176075D01*
X216935Y-176034D01*
X216844Y-175988D01*
X216756Y-175939D01*
X216669Y-175887D01*
X216584Y-175831D01*
X216502Y-175772D01*
X216422Y-175710D01*
X216344Y-175645D01*
X216269Y-175577D01*
X216197Y-175506D01*
X216127Y-175433D01*
X216061Y-175356D01*
X215997Y-175278D01*
X215937Y-175196D01*
X215880Y-175113D01*
X215826Y-175027D01*
X215775Y-174939D01*
X215728Y-174850D01*
X215684Y-174758D01*
X215644Y-174665D01*
X215607Y-174571D01*
X215575Y-174475D01*
X215546Y-174378D01*
X215520Y-174280D01*
X215499Y-174181D01*
X215481Y-174081D01*
X215468Y-173981D01*
X215458Y-173880D01*
X215452Y-173779D01*
X215450Y-173678D01*
X215451Y-173678D02*
X215451Y-171068D01*
X215453Y-170939D01*
X215459Y-170811D01*
X215469Y-170683D01*
X215483Y-170555D01*
X215500Y-170427D01*
X215522Y-170300D01*
X215548Y-170174D01*
X215577Y-170049D01*
X215610Y-169925D01*
X215648Y-169802D01*
X215688Y-169680D01*
X215733Y-169559D01*
X215781Y-169440D01*
X215833Y-169322D01*
X215889Y-169206D01*
X215948Y-169092D01*
X216011Y-168980D01*
X216077Y-168869D01*
X216146Y-168761D01*
X216219Y-168655D01*
X216295Y-168551D01*
X216374Y-168449D01*
X216456Y-168350D01*
X216541Y-168254D01*
X216629Y-168160D01*
X216720Y-168069D01*
X216814Y-167981D01*
X216910Y-167896D01*
X217009Y-167814D01*
X217111Y-167735D01*
X217215Y-167659D01*
X217321Y-167586D01*
X217429Y-167517D01*
X217539Y-167451D01*
X217652Y-167388D01*
X217766Y-167329D01*
X217882Y-167273D01*
X218000Y-167221D01*
X218119Y-167173D01*
X218240Y-167128D01*
X218362Y-167088D01*
X218485Y-167050D01*
X218609Y-167017D01*
X218734Y-166988D01*
X218860Y-166962D01*
X218987Y-166940D01*
X219115Y-166923D01*
X219243Y-166909D01*
X219371Y-166899D01*
X219499Y-166893D01*
X219628Y-166891D01*
X159779Y-142151D02*
X159779Y-140062D01*
X159779Y-142151D02*
X159777Y-142240D01*
X159771Y-142328D01*
X159762Y-142416D01*
X159749Y-142504D01*
X159732Y-142591D01*
X159712Y-142677D01*
X159687Y-142762D01*
X159660Y-142847D01*
X159628Y-142930D01*
X159594Y-143011D01*
X159555Y-143091D01*
X159514Y-143169D01*
X159469Y-143246D01*
X159421Y-143320D01*
X159370Y-143393D01*
X159316Y-143463D01*
X159258Y-143530D01*
X159198Y-143596D01*
X159136Y-143658D01*
X159070Y-143718D01*
X159003Y-143776D01*
X158933Y-143830D01*
X158860Y-143881D01*
X158786Y-143929D01*
X158709Y-143974D01*
X158631Y-144015D01*
X158551Y-144054D01*
X158470Y-144088D01*
X158387Y-144120D01*
X158302Y-144147D01*
X158217Y-144172D01*
X158131Y-144192D01*
X158044Y-144209D01*
X157956Y-144222D01*
X157868Y-144231D01*
X157780Y-144237D01*
X157691Y-144239D01*
X152469Y-144239D01*
X152469Y-144240D02*
X152378Y-144238D01*
X152287Y-144232D01*
X152196Y-144222D01*
X152106Y-144208D01*
X152017Y-144190D01*
X151928Y-144169D01*
X151841Y-144143D01*
X151755Y-144114D01*
X151670Y-144081D01*
X151586Y-144044D01*
X151504Y-144004D01*
X151425Y-143960D01*
X151347Y-143913D01*
X151271Y-143862D01*
X151197Y-143808D01*
X151126Y-143751D01*
X151058Y-143691D01*
X150992Y-143628D01*
X150929Y-143562D01*
X150869Y-143494D01*
X150812Y-143423D01*
X150758Y-143349D01*
X150707Y-143273D01*
X150660Y-143196D01*
X150616Y-143116D01*
X150576Y-143034D01*
X150539Y-142950D01*
X150506Y-142866D01*
X150477Y-142779D01*
X150451Y-142692D01*
X150430Y-142603D01*
X150412Y-142514D01*
X150398Y-142424D01*
X150388Y-142333D01*
X150382Y-142242D01*
X150380Y-142151D01*
X150381Y-142151D02*
X150381Y-140062D01*
X152469Y-136593D02*
X150381Y-133983D01*
X159779Y-133983D01*
X159779Y-136593D02*
X159779Y-131372D01*
X151425Y-127449D02*
X150381Y-127449D01*
X150381Y-122228D01*
X159779Y-124839D01*
X60365Y-181089D02*
X58277Y-181089D01*
X58188Y-181087D01*
X58100Y-181081D01*
X58012Y-181072D01*
X57924Y-181059D01*
X57837Y-181042D01*
X57751Y-181022D01*
X57666Y-180997D01*
X57581Y-180970D01*
X57498Y-180938D01*
X57417Y-180904D01*
X57337Y-180865D01*
X57259Y-180824D01*
X57182Y-180779D01*
X57108Y-180731D01*
X57035Y-180680D01*
X56965Y-180626D01*
X56898Y-180568D01*
X56832Y-180508D01*
X56770Y-180446D01*
X56710Y-180380D01*
X56652Y-180313D01*
X56598Y-180243D01*
X56547Y-180170D01*
X56499Y-180096D01*
X56454Y-180019D01*
X56413Y-179941D01*
X56374Y-179861D01*
X56340Y-179780D01*
X56308Y-179697D01*
X56281Y-179612D01*
X56256Y-179527D01*
X56236Y-179441D01*
X56219Y-179354D01*
X56206Y-179266D01*
X56197Y-179178D01*
X56191Y-179090D01*
X56189Y-179001D01*
X56188Y-179001D02*
X56188Y-173779D01*
X56190Y-173688D01*
X56196Y-173597D01*
X56206Y-173506D01*
X56220Y-173416D01*
X56238Y-173327D01*
X56259Y-173238D01*
X56285Y-173151D01*
X56314Y-173065D01*
X56347Y-172980D01*
X56384Y-172896D01*
X56424Y-172814D01*
X56468Y-172735D01*
X56515Y-172657D01*
X56566Y-172581D01*
X56620Y-172507D01*
X56677Y-172436D01*
X56737Y-172368D01*
X56800Y-172302D01*
X56866Y-172239D01*
X56934Y-172179D01*
X57005Y-172122D01*
X57079Y-172068D01*
X57155Y-172017D01*
X57232Y-171970D01*
X57312Y-171926D01*
X57394Y-171886D01*
X57478Y-171849D01*
X57562Y-171816D01*
X57649Y-171787D01*
X57736Y-171761D01*
X57825Y-171740D01*
X57914Y-171722D01*
X58004Y-171708D01*
X58095Y-171698D01*
X58186Y-171692D01*
X58277Y-171690D01*
X58277Y-171691D02*
X60365Y-171691D01*
X63834Y-173779D02*
X66444Y-171691D01*
X66444Y-181089D01*
X63834Y-181089D02*
X69055Y-181089D01*
X72977Y-178478D02*
X72979Y-178377D01*
X72985Y-178276D01*
X72995Y-178175D01*
X73008Y-178075D01*
X73026Y-177975D01*
X73047Y-177876D01*
X73073Y-177778D01*
X73102Y-177681D01*
X73134Y-177585D01*
X73171Y-177491D01*
X73211Y-177398D01*
X73255Y-177306D01*
X73302Y-177217D01*
X73353Y-177129D01*
X73407Y-177043D01*
X73464Y-176960D01*
X73524Y-176878D01*
X73588Y-176800D01*
X73654Y-176723D01*
X73724Y-176650D01*
X73796Y-176579D01*
X73871Y-176511D01*
X73949Y-176446D01*
X74029Y-176384D01*
X74111Y-176325D01*
X74196Y-176269D01*
X74283Y-176217D01*
X74371Y-176168D01*
X74462Y-176122D01*
X74554Y-176081D01*
X74648Y-176042D01*
X74743Y-176008D01*
X74839Y-175977D01*
X74937Y-175950D01*
X75035Y-175926D01*
X75135Y-175907D01*
X75235Y-175891D01*
X75335Y-175879D01*
X75436Y-175871D01*
X75537Y-175867D01*
X75639Y-175867D01*
X75740Y-175871D01*
X75841Y-175879D01*
X75941Y-175891D01*
X76041Y-175907D01*
X76141Y-175926D01*
X76239Y-175950D01*
X76337Y-175977D01*
X76433Y-176008D01*
X76528Y-176042D01*
X76622Y-176081D01*
X76714Y-176122D01*
X76805Y-176168D01*
X76894Y-176217D01*
X76980Y-176269D01*
X77065Y-176325D01*
X77147Y-176384D01*
X77227Y-176446D01*
X77305Y-176511D01*
X77380Y-176579D01*
X77452Y-176650D01*
X77522Y-176723D01*
X77588Y-176800D01*
X77652Y-176878D01*
X77712Y-176960D01*
X77769Y-177043D01*
X77823Y-177129D01*
X77874Y-177217D01*
X77921Y-177306D01*
X77965Y-177398D01*
X78005Y-177491D01*
X78042Y-177585D01*
X78074Y-177681D01*
X78103Y-177778D01*
X78129Y-177876D01*
X78150Y-177975D01*
X78168Y-178075D01*
X78181Y-178175D01*
X78191Y-178276D01*
X78197Y-178377D01*
X78199Y-178478D01*
X78197Y-178579D01*
X78191Y-178680D01*
X78181Y-178781D01*
X78168Y-178881D01*
X78150Y-178981D01*
X78129Y-179080D01*
X78103Y-179178D01*
X78074Y-179275D01*
X78042Y-179371D01*
X78005Y-179465D01*
X77965Y-179558D01*
X77921Y-179650D01*
X77874Y-179739D01*
X77823Y-179827D01*
X77769Y-179913D01*
X77712Y-179996D01*
X77652Y-180078D01*
X77588Y-180156D01*
X77522Y-180233D01*
X77452Y-180306D01*
X77380Y-180377D01*
X77305Y-180445D01*
X77227Y-180510D01*
X77147Y-180572D01*
X77065Y-180631D01*
X76980Y-180687D01*
X76893Y-180739D01*
X76805Y-180788D01*
X76714Y-180834D01*
X76622Y-180875D01*
X76528Y-180914D01*
X76433Y-180948D01*
X76337Y-180979D01*
X76239Y-181006D01*
X76141Y-181030D01*
X76041Y-181049D01*
X75941Y-181065D01*
X75841Y-181077D01*
X75740Y-181085D01*
X75639Y-181089D01*
X75537Y-181089D01*
X75436Y-181085D01*
X75335Y-181077D01*
X75235Y-181065D01*
X75135Y-181049D01*
X75035Y-181030D01*
X74937Y-181006D01*
X74839Y-180979D01*
X74743Y-180948D01*
X74648Y-180914D01*
X74554Y-180875D01*
X74462Y-180834D01*
X74371Y-180788D01*
X74283Y-180739D01*
X74196Y-180687D01*
X74111Y-180631D01*
X74029Y-180572D01*
X73949Y-180510D01*
X73871Y-180445D01*
X73796Y-180377D01*
X73724Y-180306D01*
X73654Y-180233D01*
X73588Y-180156D01*
X73524Y-180078D01*
X73464Y-179996D01*
X73407Y-179913D01*
X73353Y-179827D01*
X73302Y-179739D01*
X73255Y-179650D01*
X73211Y-179558D01*
X73171Y-179465D01*
X73134Y-179371D01*
X73102Y-179275D01*
X73073Y-179178D01*
X73047Y-179080D01*
X73026Y-178981D01*
X73008Y-178881D01*
X72995Y-178781D01*
X72985Y-178680D01*
X72979Y-178579D01*
X72977Y-178478D01*
X73500Y-173779D02*
X73502Y-173689D01*
X73508Y-173600D01*
X73517Y-173510D01*
X73531Y-173421D01*
X73548Y-173333D01*
X73569Y-173246D01*
X73594Y-173159D01*
X73623Y-173074D01*
X73655Y-172990D01*
X73690Y-172908D01*
X73730Y-172827D01*
X73772Y-172748D01*
X73818Y-172671D01*
X73868Y-172596D01*
X73920Y-172523D01*
X73976Y-172452D01*
X74034Y-172384D01*
X74096Y-172319D01*
X74160Y-172256D01*
X74227Y-172196D01*
X74296Y-172139D01*
X74368Y-172085D01*
X74442Y-172034D01*
X74518Y-171986D01*
X74596Y-171942D01*
X74676Y-171901D01*
X74758Y-171863D01*
X74841Y-171829D01*
X74926Y-171799D01*
X75012Y-171772D01*
X75098Y-171749D01*
X75186Y-171730D01*
X75275Y-171715D01*
X75364Y-171703D01*
X75453Y-171695D01*
X75543Y-171691D01*
X75633Y-171691D01*
X75723Y-171695D01*
X75812Y-171703D01*
X75901Y-171715D01*
X75990Y-171730D01*
X76078Y-171749D01*
X76164Y-171772D01*
X76250Y-171799D01*
X76335Y-171829D01*
X76418Y-171863D01*
X76500Y-171901D01*
X76580Y-171942D01*
X76658Y-171986D01*
X76734Y-172034D01*
X76808Y-172085D01*
X76880Y-172139D01*
X76949Y-172196D01*
X77016Y-172256D01*
X77080Y-172319D01*
X77142Y-172384D01*
X77200Y-172452D01*
X77256Y-172523D01*
X77308Y-172596D01*
X77358Y-172671D01*
X77404Y-172748D01*
X77446Y-172827D01*
X77486Y-172908D01*
X77521Y-172990D01*
X77553Y-173074D01*
X77582Y-173159D01*
X77607Y-173246D01*
X77628Y-173333D01*
X77645Y-173421D01*
X77659Y-173510D01*
X77668Y-173600D01*
X77674Y-173689D01*
X77676Y-173779D01*
X77674Y-173869D01*
X77668Y-173958D01*
X77659Y-174048D01*
X77645Y-174137D01*
X77628Y-174225D01*
X77607Y-174312D01*
X77582Y-174399D01*
X77553Y-174484D01*
X77521Y-174568D01*
X77486Y-174650D01*
X77446Y-174731D01*
X77404Y-174810D01*
X77358Y-174887D01*
X77308Y-174962D01*
X77256Y-175035D01*
X77200Y-175106D01*
X77142Y-175174D01*
X77080Y-175239D01*
X77016Y-175302D01*
X76949Y-175362D01*
X76880Y-175419D01*
X76808Y-175473D01*
X76734Y-175524D01*
X76658Y-175572D01*
X76580Y-175616D01*
X76500Y-175657D01*
X76418Y-175695D01*
X76335Y-175729D01*
X76250Y-175759D01*
X76164Y-175786D01*
X76078Y-175809D01*
X75990Y-175828D01*
X75901Y-175843D01*
X75812Y-175855D01*
X75723Y-175863D01*
X75633Y-175867D01*
X75543Y-175867D01*
X75453Y-175863D01*
X75364Y-175855D01*
X75275Y-175843D01*
X75186Y-175828D01*
X75098Y-175809D01*
X75012Y-175786D01*
X74926Y-175759D01*
X74841Y-175729D01*
X74758Y-175695D01*
X74676Y-175657D01*
X74596Y-175616D01*
X74518Y-175572D01*
X74442Y-175524D01*
X74368Y-175473D01*
X74296Y-175419D01*
X74227Y-175362D01*
X74160Y-175302D01*
X74096Y-175239D01*
X74034Y-175174D01*
X73976Y-175106D01*
X73920Y-175035D01*
X73868Y-174962D01*
X73818Y-174887D01*
X73772Y-174810D01*
X73730Y-174731D01*
X73690Y-174650D01*
X73655Y-174568D01*
X73623Y-174484D01*
X73594Y-174399D01*
X73569Y-174312D01*
X73548Y-174225D01*
X73531Y-174137D01*
X73517Y-174048D01*
X73508Y-173958D01*
X73502Y-173869D01*
X73500Y-173779D01*
X194069Y-50711D02*
X194069Y-48622D01*
X194069Y-50711D02*
X194067Y-50800D01*
X194061Y-50888D01*
X194052Y-50976D01*
X194039Y-51064D01*
X194022Y-51151D01*
X194002Y-51237D01*
X193977Y-51322D01*
X193950Y-51407D01*
X193918Y-51490D01*
X193884Y-51571D01*
X193845Y-51651D01*
X193804Y-51729D01*
X193759Y-51806D01*
X193711Y-51880D01*
X193660Y-51953D01*
X193606Y-52023D01*
X193548Y-52090D01*
X193488Y-52156D01*
X193426Y-52218D01*
X193360Y-52278D01*
X193293Y-52336D01*
X193223Y-52390D01*
X193150Y-52441D01*
X193076Y-52489D01*
X192999Y-52534D01*
X192921Y-52575D01*
X192841Y-52614D01*
X192760Y-52648D01*
X192677Y-52680D01*
X192592Y-52707D01*
X192507Y-52732D01*
X192421Y-52752D01*
X192334Y-52769D01*
X192246Y-52782D01*
X192158Y-52791D01*
X192070Y-52797D01*
X191981Y-52799D01*
X186759Y-52799D01*
X186759Y-52800D02*
X186668Y-52798D01*
X186577Y-52792D01*
X186486Y-52782D01*
X186396Y-52768D01*
X186307Y-52750D01*
X186218Y-52729D01*
X186131Y-52703D01*
X186045Y-52674D01*
X185960Y-52641D01*
X185876Y-52604D01*
X185794Y-52564D01*
X185715Y-52520D01*
X185637Y-52473D01*
X185561Y-52422D01*
X185487Y-52368D01*
X185416Y-52311D01*
X185348Y-52251D01*
X185282Y-52188D01*
X185219Y-52122D01*
X185159Y-52054D01*
X185102Y-51983D01*
X185048Y-51909D01*
X184997Y-51833D01*
X184950Y-51756D01*
X184906Y-51676D01*
X184866Y-51594D01*
X184829Y-51510D01*
X184796Y-51426D01*
X184767Y-51339D01*
X184741Y-51252D01*
X184720Y-51163D01*
X184702Y-51074D01*
X184688Y-50984D01*
X184678Y-50893D01*
X184672Y-50802D01*
X184670Y-50711D01*
X184671Y-50711D02*
X184671Y-48622D01*
X186759Y-45153D02*
X184671Y-42543D01*
X194069Y-42543D01*
X194069Y-45153D02*
X194069Y-39932D01*
X189892Y-33921D02*
X189892Y-30788D01*
X189892Y-33921D02*
X189890Y-34010D01*
X189884Y-34098D01*
X189875Y-34186D01*
X189862Y-34274D01*
X189845Y-34361D01*
X189825Y-34447D01*
X189800Y-34532D01*
X189773Y-34617D01*
X189741Y-34700D01*
X189707Y-34781D01*
X189668Y-34861D01*
X189627Y-34939D01*
X189582Y-35016D01*
X189534Y-35090D01*
X189483Y-35163D01*
X189429Y-35233D01*
X189371Y-35300D01*
X189311Y-35366D01*
X189249Y-35428D01*
X189183Y-35488D01*
X189116Y-35546D01*
X189046Y-35600D01*
X188973Y-35651D01*
X188899Y-35699D01*
X188822Y-35744D01*
X188744Y-35785D01*
X188664Y-35824D01*
X188583Y-35858D01*
X188500Y-35890D01*
X188415Y-35917D01*
X188330Y-35942D01*
X188244Y-35962D01*
X188157Y-35979D01*
X188069Y-35992D01*
X187981Y-36001D01*
X187893Y-36007D01*
X187804Y-36009D01*
X187282Y-36009D01*
X187282Y-36010D02*
X187181Y-36008D01*
X187080Y-36002D01*
X186979Y-35992D01*
X186879Y-35979D01*
X186779Y-35961D01*
X186680Y-35940D01*
X186582Y-35914D01*
X186485Y-35885D01*
X186389Y-35853D01*
X186295Y-35816D01*
X186202Y-35776D01*
X186110Y-35732D01*
X186021Y-35685D01*
X185933Y-35634D01*
X185847Y-35580D01*
X185764Y-35523D01*
X185682Y-35463D01*
X185604Y-35399D01*
X185527Y-35333D01*
X185454Y-35263D01*
X185383Y-35191D01*
X185315Y-35116D01*
X185250Y-35038D01*
X185188Y-34958D01*
X185129Y-34876D01*
X185073Y-34791D01*
X185021Y-34705D01*
X184972Y-34616D01*
X184926Y-34525D01*
X184885Y-34433D01*
X184846Y-34339D01*
X184812Y-34244D01*
X184781Y-34148D01*
X184754Y-34050D01*
X184730Y-33952D01*
X184711Y-33852D01*
X184695Y-33752D01*
X184683Y-33652D01*
X184675Y-33551D01*
X184671Y-33450D01*
X184671Y-33348D01*
X184675Y-33247D01*
X184683Y-33146D01*
X184695Y-33046D01*
X184711Y-32946D01*
X184730Y-32846D01*
X184754Y-32748D01*
X184781Y-32650D01*
X184812Y-32554D01*
X184846Y-32459D01*
X184885Y-32365D01*
X184926Y-32273D01*
X184972Y-32182D01*
X185021Y-32094D01*
X185073Y-32007D01*
X185129Y-31922D01*
X185188Y-31840D01*
X185250Y-31760D01*
X185315Y-31682D01*
X185383Y-31607D01*
X185454Y-31535D01*
X185527Y-31465D01*
X185604Y-31399D01*
X185682Y-31335D01*
X185764Y-31275D01*
X185847Y-31218D01*
X185933Y-31164D01*
X186021Y-31113D01*
X186110Y-31066D01*
X186202Y-31022D01*
X186295Y-30982D01*
X186389Y-30945D01*
X186485Y-30913D01*
X186582Y-30884D01*
X186680Y-30858D01*
X186779Y-30837D01*
X186879Y-30819D01*
X186979Y-30806D01*
X187080Y-30796D01*
X187181Y-30790D01*
X187282Y-30788D01*
X189892Y-30788D01*
X190018Y-30790D01*
X190144Y-30796D01*
X190270Y-30805D01*
X190395Y-30818D01*
X190520Y-30836D01*
X190645Y-30856D01*
X190769Y-30881D01*
X190892Y-30909D01*
X191014Y-30941D01*
X191135Y-30977D01*
X191255Y-31016D01*
X191373Y-31059D01*
X191490Y-31106D01*
X191606Y-31156D01*
X191721Y-31210D01*
X191833Y-31266D01*
X191944Y-31327D01*
X192053Y-31390D01*
X192160Y-31457D01*
X192265Y-31527D01*
X192368Y-31601D01*
X192468Y-31677D01*
X192566Y-31756D01*
X192662Y-31838D01*
X192755Y-31924D01*
X192846Y-32011D01*
X192933Y-32102D01*
X193019Y-32195D01*
X193101Y-32291D01*
X193180Y-32389D01*
X193256Y-32489D01*
X193330Y-32592D01*
X193400Y-32697D01*
X193467Y-32804D01*
X193530Y-32913D01*
X193591Y-33024D01*
X193647Y-33136D01*
X193701Y-33251D01*
X193751Y-33367D01*
X193798Y-33484D01*
X193841Y-33602D01*
X193880Y-33722D01*
X193916Y-33843D01*
X193948Y-33965D01*
X193976Y-34088D01*
X194001Y-34212D01*
X194021Y-34337D01*
X194039Y-34462D01*
X194052Y-34587D01*
X194061Y-34713D01*
X194067Y-34839D01*
X194069Y-34965D01*
X170929Y-34433D02*
X170929Y-32345D01*
X170929Y-34433D02*
X170927Y-34522D01*
X170921Y-34610D01*
X170912Y-34698D01*
X170899Y-34786D01*
X170882Y-34873D01*
X170862Y-34959D01*
X170837Y-35044D01*
X170810Y-35129D01*
X170778Y-35212D01*
X170744Y-35293D01*
X170705Y-35373D01*
X170664Y-35451D01*
X170619Y-35528D01*
X170571Y-35602D01*
X170520Y-35675D01*
X170466Y-35745D01*
X170408Y-35812D01*
X170348Y-35878D01*
X170286Y-35940D01*
X170220Y-36000D01*
X170153Y-36058D01*
X170083Y-36112D01*
X170010Y-36163D01*
X169936Y-36211D01*
X169859Y-36256D01*
X169781Y-36297D01*
X169701Y-36336D01*
X169620Y-36370D01*
X169537Y-36402D01*
X169452Y-36429D01*
X169367Y-36454D01*
X169281Y-36474D01*
X169194Y-36491D01*
X169106Y-36504D01*
X169018Y-36513D01*
X168930Y-36519D01*
X168841Y-36521D01*
X168841Y-36522D02*
X163619Y-36522D01*
X163528Y-36520D01*
X163437Y-36514D01*
X163346Y-36504D01*
X163256Y-36490D01*
X163167Y-36472D01*
X163078Y-36451D01*
X162991Y-36425D01*
X162905Y-36396D01*
X162820Y-36363D01*
X162736Y-36326D01*
X162654Y-36286D01*
X162575Y-36242D01*
X162497Y-36195D01*
X162421Y-36144D01*
X162347Y-36090D01*
X162276Y-36033D01*
X162208Y-35973D01*
X162142Y-35910D01*
X162079Y-35844D01*
X162019Y-35776D01*
X161962Y-35705D01*
X161908Y-35631D01*
X161857Y-35555D01*
X161810Y-35478D01*
X161766Y-35398D01*
X161726Y-35316D01*
X161689Y-35232D01*
X161656Y-35148D01*
X161627Y-35061D01*
X161601Y-34974D01*
X161580Y-34885D01*
X161562Y-34796D01*
X161548Y-34706D01*
X161538Y-34615D01*
X161532Y-34524D01*
X161530Y-34433D01*
X161531Y-34433D02*
X161531Y-32345D01*
X161531Y-26004D02*
X161533Y-25909D01*
X161539Y-25815D01*
X161548Y-25721D01*
X161561Y-25627D01*
X161578Y-25534D01*
X161599Y-25442D01*
X161624Y-25350D01*
X161652Y-25260D01*
X161684Y-25171D01*
X161719Y-25083D01*
X161758Y-24997D01*
X161800Y-24912D01*
X161846Y-24829D01*
X161895Y-24748D01*
X161947Y-24669D01*
X162002Y-24592D01*
X162061Y-24518D01*
X162122Y-24446D01*
X162186Y-24376D01*
X162253Y-24309D01*
X162323Y-24245D01*
X162395Y-24184D01*
X162469Y-24125D01*
X162546Y-24070D01*
X162625Y-24018D01*
X162706Y-23969D01*
X162789Y-23923D01*
X162874Y-23881D01*
X162960Y-23842D01*
X163048Y-23807D01*
X163137Y-23775D01*
X163227Y-23747D01*
X163319Y-23722D01*
X163411Y-23701D01*
X163504Y-23684D01*
X163598Y-23671D01*
X163692Y-23662D01*
X163786Y-23656D01*
X163881Y-23654D01*
X161531Y-26004D02*
X161533Y-26112D01*
X161539Y-26221D01*
X161549Y-26329D01*
X161562Y-26436D01*
X161580Y-26543D01*
X161601Y-26650D01*
X161626Y-26755D01*
X161655Y-26860D01*
X161687Y-26963D01*
X161724Y-27065D01*
X161764Y-27166D01*
X161807Y-27265D01*
X161854Y-27363D01*
X161905Y-27459D01*
X161959Y-27553D01*
X162016Y-27645D01*
X162077Y-27735D01*
X162141Y-27823D01*
X162207Y-27908D01*
X162277Y-27991D01*
X162350Y-28071D01*
X162426Y-28149D01*
X162504Y-28224D01*
X162585Y-28296D01*
X162669Y-28365D01*
X162755Y-28431D01*
X162843Y-28494D01*
X162934Y-28553D01*
X163027Y-28610D01*
X163121Y-28663D01*
X163218Y-28712D01*
X163316Y-28759D01*
X163415Y-28801D01*
X163517Y-28840D01*
X163619Y-28875D01*
X165709Y-24438D02*
X165640Y-24369D01*
X165569Y-24303D01*
X165496Y-24239D01*
X165420Y-24178D01*
X165341Y-24120D01*
X165261Y-24066D01*
X165178Y-24014D01*
X165094Y-23966D01*
X165008Y-23920D01*
X164920Y-23879D01*
X164830Y-23840D01*
X164739Y-23805D01*
X164647Y-23774D01*
X164554Y-23746D01*
X164460Y-23722D01*
X164365Y-23702D01*
X164269Y-23685D01*
X164172Y-23672D01*
X164075Y-23663D01*
X163978Y-23657D01*
X163881Y-23655D01*
X165708Y-24438D02*
X170929Y-28876D01*
X170929Y-23655D01*
X166230Y-19732D02*
X166045Y-19730D01*
X165860Y-19723D01*
X165676Y-19712D01*
X165492Y-19697D01*
X165308Y-19677D01*
X165124Y-19653D01*
X164942Y-19624D01*
X164760Y-19591D01*
X164579Y-19554D01*
X164399Y-19512D01*
X164219Y-19466D01*
X164041Y-19416D01*
X163865Y-19362D01*
X163689Y-19303D01*
X163515Y-19241D01*
X163343Y-19174D01*
X163172Y-19103D01*
X163003Y-19028D01*
X162836Y-18949D01*
X162836Y-18950D02*
X162756Y-18920D01*
X162677Y-18887D01*
X162600Y-18850D01*
X162524Y-18810D01*
X162450Y-18767D01*
X162378Y-18721D01*
X162309Y-18671D01*
X162241Y-18619D01*
X162176Y-18563D01*
X162113Y-18505D01*
X162054Y-18443D01*
X161996Y-18380D01*
X161942Y-18313D01*
X161891Y-18245D01*
X161843Y-18174D01*
X161798Y-18101D01*
X161756Y-18027D01*
X161718Y-17950D01*
X161683Y-17872D01*
X161651Y-17793D01*
X161623Y-17712D01*
X161599Y-17630D01*
X161578Y-17546D01*
X161561Y-17463D01*
X161548Y-17378D01*
X161539Y-17293D01*
X161533Y-17208D01*
X161531Y-17122D01*
X161533Y-17036D01*
X161539Y-16951D01*
X161548Y-16866D01*
X161561Y-16781D01*
X161578Y-16698D01*
X161599Y-16614D01*
X161623Y-16532D01*
X161651Y-16451D01*
X161683Y-16372D01*
X161718Y-16294D01*
X161756Y-16217D01*
X161798Y-16143D01*
X161843Y-16070D01*
X161891Y-15999D01*
X161942Y-15931D01*
X161996Y-15864D01*
X162054Y-15801D01*
X162113Y-15739D01*
X162176Y-15681D01*
X162241Y-15625D01*
X162309Y-15573D01*
X162378Y-15523D01*
X162450Y-15477D01*
X162524Y-15434D01*
X162600Y-15394D01*
X162677Y-15357D01*
X162756Y-15324D01*
X162836Y-15294D01*
X163003Y-15215D01*
X163172Y-15140D01*
X163343Y-15069D01*
X163515Y-15002D01*
X163689Y-14940D01*
X163865Y-14881D01*
X164041Y-14827D01*
X164219Y-14777D01*
X164399Y-14731D01*
X164579Y-14689D01*
X164760Y-14652D01*
X164942Y-14619D01*
X165124Y-14590D01*
X165308Y-14566D01*
X165492Y-14546D01*
X165676Y-14531D01*
X165860Y-14520D01*
X166045Y-14513D01*
X166230Y-14511D01*
X166230Y-19732D02*
X166415Y-19730D01*
X166600Y-19723D01*
X166784Y-19712D01*
X166968Y-19697D01*
X167152Y-19677D01*
X167336Y-19653D01*
X167518Y-19624D01*
X167700Y-19591D01*
X167881Y-19554D01*
X168061Y-19512D01*
X168241Y-19466D01*
X168419Y-19416D01*
X168595Y-19362D01*
X168771Y-19303D01*
X168945Y-19241D01*
X169117Y-19174D01*
X169288Y-19103D01*
X169457Y-19028D01*
X169624Y-18949D01*
X169624Y-18950D02*
X169704Y-18920D01*
X169783Y-18887D01*
X169860Y-18850D01*
X169936Y-18810D01*
X170010Y-18767D01*
X170082Y-18721D01*
X170151Y-18671D01*
X170219Y-18618D01*
X170284Y-18563D01*
X170347Y-18504D01*
X170406Y-18443D01*
X170464Y-18380D01*
X170518Y-18313D01*
X170569Y-18245D01*
X170617Y-18174D01*
X170662Y-18101D01*
X170704Y-18027D01*
X170742Y-17950D01*
X170777Y-17872D01*
X170809Y-17793D01*
X170837Y-17712D01*
X170861Y-17630D01*
X170882Y-17546D01*
X170899Y-17463D01*
X170912Y-17378D01*
X170921Y-17293D01*
X170927Y-17208D01*
X170929Y-17122D01*
X169624Y-15294D02*
X169457Y-15215D01*
X169288Y-15140D01*
X169117Y-15069D01*
X168945Y-15002D01*
X168771Y-14940D01*
X168595Y-14881D01*
X168419Y-14827D01*
X168241Y-14777D01*
X168061Y-14731D01*
X167881Y-14689D01*
X167700Y-14652D01*
X167518Y-14619D01*
X167336Y-14590D01*
X167152Y-14566D01*
X166968Y-14546D01*
X166784Y-14531D01*
X166600Y-14520D01*
X166415Y-14513D01*
X166230Y-14511D01*
X169624Y-15294D02*
X169704Y-15324D01*
X169783Y-15357D01*
X169860Y-15394D01*
X169936Y-15434D01*
X170010Y-15477D01*
X170082Y-15523D01*
X170151Y-15573D01*
X170219Y-15626D01*
X170284Y-15681D01*
X170347Y-15740D01*
X170406Y-15801D01*
X170464Y-15864D01*
X170518Y-15931D01*
X170569Y-15999D01*
X170617Y-16070D01*
X170662Y-16143D01*
X170704Y-16217D01*
X170742Y-16294D01*
X170777Y-16372D01*
X170809Y-16452D01*
X170837Y-16532D01*
X170861Y-16614D01*
X170882Y-16698D01*
X170899Y-16781D01*
X170912Y-16866D01*
X170921Y-16951D01*
X170927Y-17036D01*
X170929Y-17122D01*
X168841Y-19210D02*
X163619Y-15033D01*
X120055Y-56629D02*
X117967Y-56629D01*
X117878Y-56627D01*
X117790Y-56621D01*
X117702Y-56612D01*
X117614Y-56599D01*
X117527Y-56582D01*
X117441Y-56562D01*
X117356Y-56537D01*
X117271Y-56510D01*
X117188Y-56478D01*
X117107Y-56444D01*
X117027Y-56405D01*
X116949Y-56364D01*
X116872Y-56319D01*
X116798Y-56271D01*
X116725Y-56220D01*
X116655Y-56166D01*
X116588Y-56108D01*
X116522Y-56048D01*
X116460Y-55986D01*
X116400Y-55920D01*
X116342Y-55853D01*
X116288Y-55783D01*
X116237Y-55710D01*
X116189Y-55636D01*
X116144Y-55559D01*
X116103Y-55481D01*
X116064Y-55401D01*
X116030Y-55320D01*
X115998Y-55237D01*
X115971Y-55152D01*
X115946Y-55067D01*
X115926Y-54981D01*
X115909Y-54894D01*
X115896Y-54806D01*
X115887Y-54718D01*
X115881Y-54630D01*
X115879Y-54541D01*
X115878Y-54541D02*
X115878Y-49319D01*
X115880Y-49228D01*
X115886Y-49137D01*
X115896Y-49046D01*
X115910Y-48956D01*
X115928Y-48867D01*
X115949Y-48778D01*
X115975Y-48691D01*
X116004Y-48605D01*
X116037Y-48520D01*
X116074Y-48436D01*
X116114Y-48354D01*
X116158Y-48275D01*
X116205Y-48197D01*
X116256Y-48121D01*
X116310Y-48047D01*
X116367Y-47976D01*
X116427Y-47908D01*
X116490Y-47842D01*
X116556Y-47779D01*
X116624Y-47719D01*
X116695Y-47662D01*
X116769Y-47608D01*
X116845Y-47557D01*
X116922Y-47510D01*
X117002Y-47466D01*
X117084Y-47426D01*
X117168Y-47389D01*
X117252Y-47356D01*
X117339Y-47327D01*
X117426Y-47301D01*
X117515Y-47280D01*
X117604Y-47262D01*
X117694Y-47248D01*
X117785Y-47238D01*
X117876Y-47232D01*
X117967Y-47230D01*
X117967Y-47231D02*
X120055Y-47231D01*
X126396Y-47231D02*
X126491Y-47233D01*
X126585Y-47239D01*
X126679Y-47248D01*
X126773Y-47261D01*
X126866Y-47278D01*
X126958Y-47299D01*
X127050Y-47324D01*
X127140Y-47352D01*
X127229Y-47384D01*
X127317Y-47419D01*
X127403Y-47458D01*
X127488Y-47500D01*
X127571Y-47546D01*
X127652Y-47595D01*
X127731Y-47647D01*
X127808Y-47702D01*
X127882Y-47761D01*
X127954Y-47822D01*
X128024Y-47886D01*
X128091Y-47953D01*
X128155Y-48023D01*
X128216Y-48095D01*
X128275Y-48169D01*
X128330Y-48246D01*
X128382Y-48325D01*
X128431Y-48406D01*
X128477Y-48489D01*
X128519Y-48574D01*
X128558Y-48660D01*
X128593Y-48748D01*
X128625Y-48837D01*
X128653Y-48927D01*
X128678Y-49019D01*
X128699Y-49111D01*
X128716Y-49204D01*
X128729Y-49298D01*
X128738Y-49392D01*
X128744Y-49486D01*
X128746Y-49581D01*
X126396Y-47231D02*
X126288Y-47233D01*
X126179Y-47239D01*
X126071Y-47249D01*
X125964Y-47262D01*
X125857Y-47280D01*
X125750Y-47301D01*
X125645Y-47326D01*
X125540Y-47355D01*
X125437Y-47387D01*
X125335Y-47424D01*
X125234Y-47464D01*
X125135Y-47507D01*
X125037Y-47554D01*
X124941Y-47605D01*
X124847Y-47659D01*
X124755Y-47716D01*
X124665Y-47777D01*
X124577Y-47841D01*
X124492Y-47907D01*
X124409Y-47977D01*
X124329Y-48050D01*
X124251Y-48126D01*
X124176Y-48204D01*
X124104Y-48285D01*
X124035Y-48369D01*
X123969Y-48455D01*
X123906Y-48543D01*
X123847Y-48634D01*
X123790Y-48726D01*
X123737Y-48821D01*
X123688Y-48918D01*
X123642Y-49016D01*
X123599Y-49115D01*
X123560Y-49217D01*
X123525Y-49319D01*
X127962Y-51409D02*
X128031Y-51340D01*
X128097Y-51269D01*
X128161Y-51196D01*
X128222Y-51120D01*
X128280Y-51041D01*
X128334Y-50961D01*
X128386Y-50878D01*
X128434Y-50794D01*
X128480Y-50708D01*
X128521Y-50620D01*
X128560Y-50530D01*
X128595Y-50439D01*
X128626Y-50347D01*
X128654Y-50254D01*
X128678Y-50160D01*
X128698Y-50065D01*
X128715Y-49969D01*
X128728Y-49872D01*
X128737Y-49775D01*
X128743Y-49678D01*
X128745Y-49581D01*
X127962Y-51408D02*
X123524Y-56629D01*
X128745Y-56629D01*
X132668Y-56629D02*
X135278Y-56629D01*
X135379Y-56627D01*
X135480Y-56621D01*
X135581Y-56611D01*
X135681Y-56598D01*
X135781Y-56580D01*
X135880Y-56559D01*
X135978Y-56533D01*
X136075Y-56504D01*
X136171Y-56472D01*
X136265Y-56435D01*
X136358Y-56395D01*
X136450Y-56351D01*
X136539Y-56304D01*
X136627Y-56253D01*
X136713Y-56199D01*
X136796Y-56142D01*
X136878Y-56082D01*
X136956Y-56018D01*
X137033Y-55952D01*
X137106Y-55882D01*
X137177Y-55810D01*
X137245Y-55735D01*
X137310Y-55657D01*
X137372Y-55577D01*
X137431Y-55495D01*
X137487Y-55410D01*
X137539Y-55324D01*
X137588Y-55235D01*
X137634Y-55144D01*
X137675Y-55052D01*
X137714Y-54958D01*
X137748Y-54863D01*
X137779Y-54767D01*
X137806Y-54669D01*
X137830Y-54571D01*
X137849Y-54471D01*
X137865Y-54371D01*
X137877Y-54271D01*
X137885Y-54170D01*
X137889Y-54069D01*
X137889Y-53967D01*
X137885Y-53866D01*
X137877Y-53765D01*
X137865Y-53665D01*
X137849Y-53565D01*
X137830Y-53465D01*
X137806Y-53367D01*
X137779Y-53269D01*
X137748Y-53173D01*
X137714Y-53078D01*
X137675Y-52984D01*
X137634Y-52892D01*
X137588Y-52801D01*
X137539Y-52713D01*
X137487Y-52626D01*
X137431Y-52541D01*
X137372Y-52459D01*
X137310Y-52379D01*
X137245Y-52301D01*
X137177Y-52226D01*
X137106Y-52154D01*
X137033Y-52084D01*
X136956Y-52018D01*
X136878Y-51954D01*
X136796Y-51894D01*
X136713Y-51837D01*
X136627Y-51783D01*
X136539Y-51732D01*
X136450Y-51685D01*
X136358Y-51641D01*
X136265Y-51601D01*
X136171Y-51564D01*
X136075Y-51532D01*
X135978Y-51503D01*
X135880Y-51477D01*
X135781Y-51456D01*
X135681Y-51438D01*
X135581Y-51425D01*
X135480Y-51415D01*
X135379Y-51409D01*
X135278Y-51407D01*
X135801Y-47231D02*
X132668Y-47231D01*
X135801Y-47231D02*
X135891Y-47233D01*
X135980Y-47239D01*
X136070Y-47248D01*
X136159Y-47262D01*
X136247Y-47279D01*
X136334Y-47300D01*
X136421Y-47325D01*
X136506Y-47354D01*
X136590Y-47386D01*
X136672Y-47421D01*
X136753Y-47461D01*
X136832Y-47503D01*
X136909Y-47549D01*
X136984Y-47599D01*
X137057Y-47651D01*
X137128Y-47707D01*
X137196Y-47765D01*
X137261Y-47827D01*
X137324Y-47891D01*
X137384Y-47958D01*
X137441Y-48027D01*
X137495Y-48099D01*
X137546Y-48173D01*
X137594Y-48249D01*
X137638Y-48327D01*
X137679Y-48407D01*
X137717Y-48489D01*
X137751Y-48572D01*
X137781Y-48657D01*
X137808Y-48743D01*
X137831Y-48829D01*
X137850Y-48917D01*
X137865Y-49006D01*
X137877Y-49095D01*
X137885Y-49184D01*
X137889Y-49274D01*
X137889Y-49364D01*
X137885Y-49454D01*
X137877Y-49543D01*
X137865Y-49632D01*
X137850Y-49721D01*
X137831Y-49809D01*
X137808Y-49895D01*
X137781Y-49981D01*
X137751Y-50066D01*
X137717Y-50149D01*
X137679Y-50231D01*
X137638Y-50311D01*
X137594Y-50389D01*
X137546Y-50465D01*
X137495Y-50539D01*
X137441Y-50611D01*
X137384Y-50680D01*
X137324Y-50747D01*
X137261Y-50811D01*
X137196Y-50873D01*
X137128Y-50931D01*
X137057Y-50987D01*
X136984Y-51039D01*
X136909Y-51089D01*
X136832Y-51135D01*
X136753Y-51177D01*
X136672Y-51217D01*
X136590Y-51252D01*
X136506Y-51284D01*
X136421Y-51313D01*
X136334Y-51338D01*
X136247Y-51359D01*
X136159Y-51376D01*
X136070Y-51390D01*
X135980Y-51399D01*
X135891Y-51405D01*
X135801Y-51407D01*
X135801Y-51408D02*
X133712Y-51408D01*
X161049Y-18961D02*
X161049Y-16872D01*
X161049Y-18961D02*
X161047Y-19050D01*
X161041Y-19138D01*
X161032Y-19226D01*
X161019Y-19314D01*
X161002Y-19401D01*
X160982Y-19487D01*
X160957Y-19572D01*
X160930Y-19657D01*
X160898Y-19740D01*
X160864Y-19821D01*
X160825Y-19901D01*
X160784Y-19979D01*
X160739Y-20056D01*
X160691Y-20130D01*
X160640Y-20203D01*
X160586Y-20273D01*
X160528Y-20340D01*
X160468Y-20406D01*
X160406Y-20468D01*
X160340Y-20528D01*
X160273Y-20586D01*
X160203Y-20640D01*
X160130Y-20691D01*
X160056Y-20739D01*
X159979Y-20784D01*
X159901Y-20825D01*
X159821Y-20864D01*
X159740Y-20898D01*
X159657Y-20930D01*
X159572Y-20957D01*
X159487Y-20982D01*
X159401Y-21002D01*
X159314Y-21019D01*
X159226Y-21032D01*
X159138Y-21041D01*
X159050Y-21047D01*
X158961Y-21049D01*
X153739Y-21049D01*
X153739Y-21050D02*
X153648Y-21048D01*
X153557Y-21042D01*
X153466Y-21032D01*
X153376Y-21018D01*
X153287Y-21000D01*
X153198Y-20979D01*
X153111Y-20953D01*
X153025Y-20924D01*
X152940Y-20891D01*
X152856Y-20854D01*
X152774Y-20814D01*
X152695Y-20770D01*
X152617Y-20723D01*
X152541Y-20672D01*
X152467Y-20618D01*
X152396Y-20561D01*
X152328Y-20501D01*
X152262Y-20438D01*
X152199Y-20372D01*
X152139Y-20304D01*
X152082Y-20233D01*
X152028Y-20159D01*
X151977Y-20083D01*
X151930Y-20006D01*
X151886Y-19926D01*
X151846Y-19844D01*
X151809Y-19760D01*
X151776Y-19676D01*
X151747Y-19589D01*
X151721Y-19502D01*
X151700Y-19413D01*
X151682Y-19324D01*
X151668Y-19234D01*
X151658Y-19143D01*
X151652Y-19052D01*
X151650Y-18961D01*
X151651Y-18961D02*
X151651Y-16872D01*
X151651Y-10532D02*
X151653Y-10437D01*
X151659Y-10343D01*
X151668Y-10249D01*
X151681Y-10155D01*
X151698Y-10062D01*
X151719Y-9970D01*
X151744Y-9878D01*
X151772Y-9788D01*
X151804Y-9699D01*
X151839Y-9611D01*
X151878Y-9525D01*
X151920Y-9440D01*
X151966Y-9357D01*
X152015Y-9276D01*
X152067Y-9197D01*
X152122Y-9120D01*
X152181Y-9046D01*
X152242Y-8974D01*
X152306Y-8904D01*
X152373Y-8837D01*
X152443Y-8773D01*
X152515Y-8712D01*
X152589Y-8653D01*
X152666Y-8598D01*
X152745Y-8546D01*
X152826Y-8497D01*
X152909Y-8451D01*
X152994Y-8409D01*
X153080Y-8370D01*
X153168Y-8335D01*
X153257Y-8303D01*
X153347Y-8275D01*
X153439Y-8250D01*
X153531Y-8229D01*
X153624Y-8212D01*
X153718Y-8199D01*
X153812Y-8190D01*
X153906Y-8184D01*
X154001Y-8182D01*
X151651Y-10532D02*
X151653Y-10640D01*
X151659Y-10749D01*
X151669Y-10857D01*
X151682Y-10964D01*
X151700Y-11071D01*
X151721Y-11178D01*
X151746Y-11283D01*
X151775Y-11388D01*
X151807Y-11491D01*
X151844Y-11593D01*
X151884Y-11694D01*
X151927Y-11793D01*
X151974Y-11891D01*
X152025Y-11987D01*
X152079Y-12081D01*
X152136Y-12173D01*
X152197Y-12263D01*
X152261Y-12351D01*
X152327Y-12436D01*
X152397Y-12519D01*
X152470Y-12599D01*
X152546Y-12677D01*
X152624Y-12752D01*
X152705Y-12824D01*
X152789Y-12893D01*
X152875Y-12959D01*
X152963Y-13022D01*
X153054Y-13081D01*
X153147Y-13138D01*
X153241Y-13191D01*
X153338Y-13240D01*
X153436Y-13287D01*
X153535Y-13329D01*
X153637Y-13368D01*
X153739Y-13403D01*
X155829Y-8965D02*
X155760Y-8896D01*
X155689Y-8830D01*
X155616Y-8766D01*
X155540Y-8705D01*
X155461Y-8647D01*
X155381Y-8593D01*
X155298Y-8541D01*
X155214Y-8493D01*
X155128Y-8447D01*
X155040Y-8406D01*
X154950Y-8367D01*
X154859Y-8332D01*
X154767Y-8301D01*
X154674Y-8273D01*
X154580Y-8249D01*
X154485Y-8229D01*
X154389Y-8212D01*
X154292Y-8199D01*
X154195Y-8190D01*
X154098Y-8184D01*
X154001Y-8182D01*
X155828Y-8965D02*
X161049Y-13403D01*
X161049Y-8182D01*
X158961Y-4259D02*
X151651Y-2171D01*
X158961Y-4259D02*
X158961Y962D01*
X161049Y-605D02*
X156872Y-605D01*
X120055Y-162039D02*
X117967Y-162039D01*
X117878Y-162037D01*
X117790Y-162031D01*
X117702Y-162022D01*
X117614Y-162009D01*
X117527Y-161992D01*
X117441Y-161972D01*
X117356Y-161947D01*
X117271Y-161920D01*
X117188Y-161888D01*
X117107Y-161854D01*
X117027Y-161815D01*
X116949Y-161774D01*
X116872Y-161729D01*
X116798Y-161681D01*
X116725Y-161630D01*
X116655Y-161576D01*
X116588Y-161518D01*
X116522Y-161458D01*
X116460Y-161396D01*
X116400Y-161330D01*
X116342Y-161263D01*
X116288Y-161193D01*
X116237Y-161120D01*
X116189Y-161046D01*
X116144Y-160969D01*
X116103Y-160891D01*
X116064Y-160811D01*
X116030Y-160730D01*
X115998Y-160647D01*
X115971Y-160562D01*
X115946Y-160477D01*
X115926Y-160391D01*
X115909Y-160304D01*
X115896Y-160216D01*
X115887Y-160128D01*
X115881Y-160040D01*
X115879Y-159951D01*
X115878Y-159951D02*
X115878Y-154729D01*
X115880Y-154638D01*
X115886Y-154547D01*
X115896Y-154456D01*
X115910Y-154366D01*
X115928Y-154277D01*
X115949Y-154188D01*
X115975Y-154101D01*
X116004Y-154015D01*
X116037Y-153930D01*
X116074Y-153846D01*
X116114Y-153764D01*
X116158Y-153685D01*
X116205Y-153607D01*
X116256Y-153531D01*
X116310Y-153457D01*
X116367Y-153386D01*
X116427Y-153318D01*
X116490Y-153252D01*
X116556Y-153189D01*
X116624Y-153129D01*
X116695Y-153072D01*
X116769Y-153018D01*
X116845Y-152967D01*
X116922Y-152920D01*
X117002Y-152876D01*
X117084Y-152836D01*
X117168Y-152799D01*
X117252Y-152766D01*
X117339Y-152737D01*
X117426Y-152711D01*
X117515Y-152690D01*
X117604Y-152672D01*
X117694Y-152658D01*
X117785Y-152648D01*
X117876Y-152642D01*
X117967Y-152640D01*
X117967Y-152641D02*
X120055Y-152641D01*
X126396Y-152641D02*
X126491Y-152643D01*
X126585Y-152649D01*
X126679Y-152658D01*
X126773Y-152671D01*
X126866Y-152688D01*
X126958Y-152709D01*
X127050Y-152734D01*
X127140Y-152762D01*
X127229Y-152794D01*
X127317Y-152829D01*
X127403Y-152868D01*
X127488Y-152910D01*
X127571Y-152956D01*
X127652Y-153005D01*
X127731Y-153057D01*
X127808Y-153112D01*
X127882Y-153171D01*
X127954Y-153232D01*
X128024Y-153296D01*
X128091Y-153363D01*
X128155Y-153433D01*
X128216Y-153505D01*
X128275Y-153579D01*
X128330Y-153656D01*
X128382Y-153735D01*
X128431Y-153816D01*
X128477Y-153899D01*
X128519Y-153984D01*
X128558Y-154070D01*
X128593Y-154158D01*
X128625Y-154247D01*
X128653Y-154337D01*
X128678Y-154429D01*
X128699Y-154521D01*
X128716Y-154614D01*
X128729Y-154708D01*
X128738Y-154802D01*
X128744Y-154896D01*
X128746Y-154991D01*
X126396Y-152641D02*
X126288Y-152643D01*
X126179Y-152649D01*
X126071Y-152659D01*
X125964Y-152672D01*
X125857Y-152690D01*
X125750Y-152711D01*
X125645Y-152736D01*
X125540Y-152765D01*
X125437Y-152797D01*
X125335Y-152834D01*
X125234Y-152874D01*
X125135Y-152917D01*
X125037Y-152964D01*
X124941Y-153015D01*
X124847Y-153069D01*
X124755Y-153126D01*
X124665Y-153187D01*
X124577Y-153251D01*
X124492Y-153317D01*
X124409Y-153387D01*
X124329Y-153460D01*
X124251Y-153536D01*
X124176Y-153614D01*
X124104Y-153695D01*
X124035Y-153779D01*
X123969Y-153865D01*
X123906Y-153953D01*
X123847Y-154044D01*
X123790Y-154136D01*
X123737Y-154231D01*
X123688Y-154328D01*
X123642Y-154426D01*
X123599Y-154525D01*
X123560Y-154627D01*
X123525Y-154729D01*
X127962Y-156819D02*
X128031Y-156750D01*
X128097Y-156679D01*
X128161Y-156606D01*
X128222Y-156530D01*
X128280Y-156451D01*
X128334Y-156371D01*
X128386Y-156288D01*
X128434Y-156204D01*
X128480Y-156118D01*
X128521Y-156030D01*
X128560Y-155940D01*
X128595Y-155849D01*
X128626Y-155757D01*
X128654Y-155664D01*
X128678Y-155570D01*
X128698Y-155475D01*
X128715Y-155379D01*
X128728Y-155282D01*
X128737Y-155185D01*
X128743Y-155088D01*
X128745Y-154991D01*
X127962Y-156818D02*
X123524Y-162039D01*
X128745Y-162039D01*
X132668Y-162039D02*
X135801Y-162039D01*
X135890Y-162037D01*
X135978Y-162031D01*
X136066Y-162022D01*
X136154Y-162009D01*
X136241Y-161992D01*
X136327Y-161972D01*
X136412Y-161947D01*
X136497Y-161920D01*
X136580Y-161888D01*
X136661Y-161854D01*
X136741Y-161815D01*
X136819Y-161774D01*
X136896Y-161729D01*
X136970Y-161681D01*
X137043Y-161630D01*
X137113Y-161576D01*
X137180Y-161518D01*
X137246Y-161458D01*
X137308Y-161396D01*
X137368Y-161330D01*
X137426Y-161263D01*
X137480Y-161193D01*
X137531Y-161120D01*
X137579Y-161046D01*
X137624Y-160969D01*
X137665Y-160891D01*
X137704Y-160811D01*
X137738Y-160730D01*
X137770Y-160647D01*
X137797Y-160562D01*
X137822Y-160477D01*
X137842Y-160391D01*
X137859Y-160304D01*
X137872Y-160216D01*
X137881Y-160128D01*
X137887Y-160040D01*
X137889Y-159951D01*
X137889Y-158906D01*
X137887Y-158817D01*
X137881Y-158729D01*
X137872Y-158641D01*
X137859Y-158553D01*
X137842Y-158466D01*
X137822Y-158380D01*
X137797Y-158295D01*
X137770Y-158210D01*
X137738Y-158127D01*
X137704Y-158046D01*
X137665Y-157966D01*
X137624Y-157888D01*
X137579Y-157811D01*
X137531Y-157737D01*
X137480Y-157664D01*
X137426Y-157594D01*
X137368Y-157527D01*
X137308Y-157461D01*
X137246Y-157399D01*
X137180Y-157339D01*
X137113Y-157281D01*
X137043Y-157227D01*
X136970Y-157176D01*
X136896Y-157128D01*
X136819Y-157083D01*
X136741Y-157042D01*
X136661Y-157003D01*
X136580Y-156969D01*
X136497Y-156937D01*
X136412Y-156910D01*
X136327Y-156885D01*
X136241Y-156865D01*
X136154Y-156848D01*
X136066Y-156835D01*
X135978Y-156826D01*
X135890Y-156820D01*
X135801Y-156818D01*
X132668Y-156818D01*
X132668Y-152641D01*
X137889Y-152641D01*
X222339Y-136919D02*
X224428Y-136919D01*
X222339Y-136919D02*
X222250Y-136917D01*
X222162Y-136911D01*
X222074Y-136902D01*
X221986Y-136889D01*
X221899Y-136872D01*
X221813Y-136852D01*
X221728Y-136827D01*
X221643Y-136800D01*
X221560Y-136768D01*
X221479Y-136734D01*
X221399Y-136695D01*
X221321Y-136654D01*
X221244Y-136609D01*
X221170Y-136561D01*
X221097Y-136510D01*
X221027Y-136456D01*
X220960Y-136398D01*
X220894Y-136338D01*
X220832Y-136276D01*
X220772Y-136210D01*
X220714Y-136143D01*
X220660Y-136073D01*
X220609Y-136000D01*
X220561Y-135926D01*
X220516Y-135849D01*
X220475Y-135771D01*
X220436Y-135691D01*
X220402Y-135610D01*
X220370Y-135527D01*
X220343Y-135442D01*
X220318Y-135357D01*
X220298Y-135271D01*
X220281Y-135184D01*
X220268Y-135096D01*
X220259Y-135008D01*
X220253Y-134920D01*
X220251Y-134831D01*
X220251Y-129609D01*
X220253Y-129518D01*
X220259Y-129427D01*
X220269Y-129336D01*
X220283Y-129246D01*
X220301Y-129157D01*
X220322Y-129068D01*
X220348Y-128981D01*
X220377Y-128895D01*
X220410Y-128810D01*
X220447Y-128726D01*
X220487Y-128644D01*
X220531Y-128565D01*
X220578Y-128487D01*
X220629Y-128411D01*
X220683Y-128337D01*
X220740Y-128266D01*
X220800Y-128198D01*
X220863Y-128132D01*
X220929Y-128069D01*
X220997Y-128009D01*
X221068Y-127952D01*
X221142Y-127898D01*
X221218Y-127847D01*
X221295Y-127800D01*
X221375Y-127756D01*
X221457Y-127716D01*
X221541Y-127679D01*
X221625Y-127646D01*
X221712Y-127617D01*
X221799Y-127591D01*
X221888Y-127570D01*
X221977Y-127552D01*
X222067Y-127538D01*
X222158Y-127528D01*
X222249Y-127522D01*
X222340Y-127520D01*
X222339Y-127521D02*
X224428Y-127521D01*
X230768Y-127521D02*
X230863Y-127523D01*
X230957Y-127529D01*
X231051Y-127538D01*
X231145Y-127551D01*
X231238Y-127568D01*
X231330Y-127589D01*
X231422Y-127614D01*
X231512Y-127642D01*
X231601Y-127674D01*
X231689Y-127709D01*
X231775Y-127748D01*
X231860Y-127790D01*
X231943Y-127836D01*
X232024Y-127885D01*
X232103Y-127937D01*
X232180Y-127992D01*
X232254Y-128051D01*
X232326Y-128112D01*
X232396Y-128176D01*
X232463Y-128243D01*
X232527Y-128313D01*
X232588Y-128385D01*
X232647Y-128459D01*
X232702Y-128536D01*
X232754Y-128615D01*
X232803Y-128696D01*
X232849Y-128779D01*
X232891Y-128864D01*
X232930Y-128950D01*
X232965Y-129038D01*
X232997Y-129127D01*
X233025Y-129217D01*
X233050Y-129309D01*
X233071Y-129401D01*
X233088Y-129494D01*
X233101Y-129588D01*
X233110Y-129682D01*
X233116Y-129776D01*
X233118Y-129871D01*
X230768Y-127521D02*
X230660Y-127523D01*
X230551Y-127529D01*
X230443Y-127539D01*
X230336Y-127552D01*
X230229Y-127570D01*
X230122Y-127591D01*
X230017Y-127616D01*
X229912Y-127645D01*
X229809Y-127677D01*
X229707Y-127714D01*
X229606Y-127754D01*
X229507Y-127797D01*
X229409Y-127844D01*
X229313Y-127895D01*
X229219Y-127949D01*
X229127Y-128006D01*
X229037Y-128067D01*
X228949Y-128131D01*
X228864Y-128197D01*
X228781Y-128267D01*
X228701Y-128340D01*
X228623Y-128416D01*
X228548Y-128494D01*
X228476Y-128575D01*
X228407Y-128659D01*
X228341Y-128745D01*
X228278Y-128833D01*
X228219Y-128924D01*
X228162Y-129016D01*
X228109Y-129111D01*
X228060Y-129208D01*
X228014Y-129306D01*
X227971Y-129405D01*
X227932Y-129507D01*
X227897Y-129609D01*
X232335Y-131699D02*
X232404Y-131630D01*
X232470Y-131559D01*
X232534Y-131486D01*
X232595Y-131410D01*
X232653Y-131331D01*
X232707Y-131251D01*
X232759Y-131168D01*
X232807Y-131084D01*
X232853Y-130998D01*
X232894Y-130910D01*
X232933Y-130820D01*
X232968Y-130729D01*
X232999Y-130637D01*
X233027Y-130544D01*
X233051Y-130450D01*
X233071Y-130355D01*
X233088Y-130259D01*
X233101Y-130162D01*
X233110Y-130065D01*
X233116Y-129968D01*
X233118Y-129871D01*
X232335Y-131698D02*
X227897Y-136919D01*
X233118Y-136919D01*
X68239Y-103619D02*
X66151Y-103619D01*
X66062Y-103617D01*
X65974Y-103611D01*
X65886Y-103602D01*
X65798Y-103589D01*
X65711Y-103572D01*
X65625Y-103552D01*
X65540Y-103527D01*
X65455Y-103500D01*
X65372Y-103468D01*
X65291Y-103434D01*
X65211Y-103395D01*
X65133Y-103354D01*
X65056Y-103309D01*
X64982Y-103261D01*
X64909Y-103210D01*
X64839Y-103156D01*
X64772Y-103098D01*
X64706Y-103038D01*
X64644Y-102976D01*
X64584Y-102910D01*
X64526Y-102843D01*
X64472Y-102773D01*
X64421Y-102700D01*
X64373Y-102626D01*
X64328Y-102549D01*
X64287Y-102471D01*
X64248Y-102391D01*
X64214Y-102310D01*
X64182Y-102227D01*
X64155Y-102142D01*
X64130Y-102057D01*
X64110Y-101971D01*
X64093Y-101884D01*
X64080Y-101796D01*
X64071Y-101708D01*
X64065Y-101620D01*
X64063Y-101531D01*
X64062Y-101531D02*
X64062Y-96309D01*
X64064Y-96218D01*
X64070Y-96127D01*
X64080Y-96036D01*
X64094Y-95946D01*
X64112Y-95857D01*
X64133Y-95768D01*
X64159Y-95681D01*
X64188Y-95595D01*
X64221Y-95510D01*
X64258Y-95426D01*
X64298Y-95344D01*
X64342Y-95265D01*
X64389Y-95187D01*
X64440Y-95111D01*
X64494Y-95037D01*
X64551Y-94966D01*
X64611Y-94898D01*
X64674Y-94832D01*
X64740Y-94769D01*
X64808Y-94709D01*
X64879Y-94652D01*
X64953Y-94598D01*
X65029Y-94547D01*
X65106Y-94500D01*
X65186Y-94456D01*
X65268Y-94416D01*
X65352Y-94379D01*
X65436Y-94346D01*
X65523Y-94317D01*
X65610Y-94291D01*
X65699Y-94270D01*
X65788Y-94252D01*
X65878Y-94238D01*
X65969Y-94228D01*
X66060Y-94222D01*
X66151Y-94220D01*
X66151Y-94221D02*
X68239Y-94221D01*
X71708Y-103619D02*
X74318Y-103619D01*
X74419Y-103617D01*
X74520Y-103611D01*
X74621Y-103601D01*
X74721Y-103588D01*
X74821Y-103570D01*
X74920Y-103549D01*
X75018Y-103523D01*
X75115Y-103494D01*
X75211Y-103462D01*
X75305Y-103425D01*
X75398Y-103385D01*
X75490Y-103341D01*
X75579Y-103294D01*
X75667Y-103243D01*
X75753Y-103189D01*
X75836Y-103132D01*
X75918Y-103072D01*
X75996Y-103008D01*
X76073Y-102942D01*
X76146Y-102872D01*
X76217Y-102800D01*
X76285Y-102725D01*
X76350Y-102647D01*
X76412Y-102567D01*
X76471Y-102485D01*
X76527Y-102400D01*
X76579Y-102314D01*
X76628Y-102225D01*
X76674Y-102134D01*
X76715Y-102042D01*
X76754Y-101948D01*
X76788Y-101853D01*
X76819Y-101757D01*
X76846Y-101659D01*
X76870Y-101561D01*
X76889Y-101461D01*
X76905Y-101361D01*
X76917Y-101261D01*
X76925Y-101160D01*
X76929Y-101059D01*
X76929Y-100957D01*
X76925Y-100856D01*
X76917Y-100755D01*
X76905Y-100655D01*
X76889Y-100555D01*
X76870Y-100455D01*
X76846Y-100357D01*
X76819Y-100259D01*
X76788Y-100163D01*
X76754Y-100068D01*
X76715Y-99974D01*
X76674Y-99882D01*
X76628Y-99791D01*
X76579Y-99703D01*
X76527Y-99616D01*
X76471Y-99531D01*
X76412Y-99449D01*
X76350Y-99369D01*
X76285Y-99291D01*
X76217Y-99216D01*
X76146Y-99144D01*
X76073Y-99074D01*
X75996Y-99008D01*
X75918Y-98944D01*
X75836Y-98884D01*
X75753Y-98827D01*
X75667Y-98773D01*
X75579Y-98722D01*
X75490Y-98675D01*
X75398Y-98631D01*
X75305Y-98591D01*
X75211Y-98554D01*
X75115Y-98522D01*
X75018Y-98493D01*
X74920Y-98467D01*
X74821Y-98446D01*
X74721Y-98428D01*
X74621Y-98415D01*
X74520Y-98405D01*
X74419Y-98399D01*
X74318Y-98397D01*
X74841Y-94221D02*
X71708Y-94221D01*
X74841Y-94221D02*
X74931Y-94223D01*
X75020Y-94229D01*
X75110Y-94238D01*
X75199Y-94252D01*
X75287Y-94269D01*
X75374Y-94290D01*
X75461Y-94315D01*
X75546Y-94344D01*
X75630Y-94376D01*
X75712Y-94411D01*
X75793Y-94451D01*
X75872Y-94493D01*
X75949Y-94539D01*
X76024Y-94589D01*
X76097Y-94641D01*
X76168Y-94697D01*
X76236Y-94755D01*
X76301Y-94817D01*
X76364Y-94881D01*
X76424Y-94948D01*
X76481Y-95017D01*
X76535Y-95089D01*
X76586Y-95163D01*
X76634Y-95239D01*
X76678Y-95317D01*
X76719Y-95397D01*
X76757Y-95479D01*
X76791Y-95562D01*
X76821Y-95647D01*
X76848Y-95733D01*
X76871Y-95819D01*
X76890Y-95907D01*
X76905Y-95996D01*
X76917Y-96085D01*
X76925Y-96174D01*
X76929Y-96264D01*
X76929Y-96354D01*
X76925Y-96444D01*
X76917Y-96533D01*
X76905Y-96622D01*
X76890Y-96711D01*
X76871Y-96799D01*
X76848Y-96885D01*
X76821Y-96971D01*
X76791Y-97056D01*
X76757Y-97139D01*
X76719Y-97221D01*
X76678Y-97301D01*
X76634Y-97379D01*
X76586Y-97455D01*
X76535Y-97529D01*
X76481Y-97601D01*
X76424Y-97670D01*
X76364Y-97737D01*
X76301Y-97801D01*
X76236Y-97863D01*
X76168Y-97921D01*
X76097Y-97977D01*
X76024Y-98029D01*
X75949Y-98079D01*
X75872Y-98125D01*
X75793Y-98167D01*
X75712Y-98207D01*
X75630Y-98242D01*
X75546Y-98274D01*
X75461Y-98303D01*
X75374Y-98328D01*
X75287Y-98349D01*
X75199Y-98366D01*
X75110Y-98380D01*
X75020Y-98389D01*
X74931Y-98395D01*
X74841Y-98397D01*
X74841Y-98398D02*
X72752Y-98398D01*
X65699Y-122669D02*
X63611Y-122669D01*
X63522Y-122667D01*
X63434Y-122661D01*
X63346Y-122652D01*
X63258Y-122639D01*
X63171Y-122622D01*
X63085Y-122602D01*
X63000Y-122577D01*
X62915Y-122550D01*
X62832Y-122518D01*
X62751Y-122484D01*
X62671Y-122445D01*
X62593Y-122404D01*
X62516Y-122359D01*
X62442Y-122311D01*
X62369Y-122260D01*
X62299Y-122206D01*
X62232Y-122148D01*
X62166Y-122088D01*
X62104Y-122026D01*
X62044Y-121960D01*
X61986Y-121893D01*
X61932Y-121823D01*
X61881Y-121750D01*
X61833Y-121676D01*
X61788Y-121599D01*
X61747Y-121521D01*
X61708Y-121441D01*
X61674Y-121360D01*
X61642Y-121277D01*
X61615Y-121192D01*
X61590Y-121107D01*
X61570Y-121021D01*
X61553Y-120934D01*
X61540Y-120846D01*
X61531Y-120758D01*
X61525Y-120670D01*
X61523Y-120581D01*
X61522Y-120581D02*
X61522Y-115359D01*
X61524Y-115268D01*
X61530Y-115177D01*
X61540Y-115086D01*
X61554Y-114996D01*
X61572Y-114907D01*
X61593Y-114818D01*
X61619Y-114731D01*
X61648Y-114645D01*
X61681Y-114560D01*
X61718Y-114476D01*
X61758Y-114394D01*
X61802Y-114315D01*
X61849Y-114237D01*
X61900Y-114161D01*
X61954Y-114087D01*
X62011Y-114016D01*
X62071Y-113948D01*
X62134Y-113882D01*
X62200Y-113819D01*
X62268Y-113759D01*
X62339Y-113702D01*
X62413Y-113648D01*
X62489Y-113597D01*
X62566Y-113550D01*
X62646Y-113506D01*
X62728Y-113466D01*
X62812Y-113429D01*
X62896Y-113396D01*
X62983Y-113367D01*
X63070Y-113341D01*
X63159Y-113320D01*
X63248Y-113302D01*
X63338Y-113288D01*
X63429Y-113278D01*
X63520Y-113272D01*
X63611Y-113270D01*
X63611Y-113271D02*
X65699Y-113271D01*
X71256Y-113271D02*
X69168Y-120581D01*
X74389Y-120581D01*
X72823Y-118492D02*
X72823Y-122669D01*
D12*
X206248Y-29972D02*
X217932Y-29972D01*
X206248Y-29972D02*
X206248Y-26726D01*
X206250Y-26613D01*
X206256Y-26500D01*
X206266Y-26387D01*
X206280Y-26274D01*
X206297Y-26162D01*
X206319Y-26051D01*
X206344Y-25941D01*
X206374Y-25831D01*
X206407Y-25723D01*
X206444Y-25616D01*
X206484Y-25510D01*
X206529Y-25406D01*
X206577Y-25303D01*
X206628Y-25202D01*
X206683Y-25103D01*
X206741Y-25006D01*
X206803Y-24911D01*
X206868Y-24818D01*
X206936Y-24728D01*
X207007Y-24640D01*
X207082Y-24554D01*
X207159Y-24471D01*
X207239Y-24391D01*
X207322Y-24314D01*
X207408Y-24239D01*
X207496Y-24168D01*
X207586Y-24100D01*
X207679Y-24035D01*
X207774Y-23973D01*
X207871Y-23915D01*
X207970Y-23860D01*
X208071Y-23809D01*
X208174Y-23761D01*
X208278Y-23716D01*
X208384Y-23676D01*
X208491Y-23639D01*
X208599Y-23606D01*
X208709Y-23576D01*
X208819Y-23551D01*
X208930Y-23529D01*
X209042Y-23512D01*
X209155Y-23498D01*
X209268Y-23488D01*
X209381Y-23482D01*
X209494Y-23480D01*
X209607Y-23482D01*
X209720Y-23488D01*
X209833Y-23498D01*
X209946Y-23512D01*
X210058Y-23529D01*
X210169Y-23551D01*
X210279Y-23576D01*
X210389Y-23606D01*
X210497Y-23639D01*
X210604Y-23676D01*
X210710Y-23716D01*
X210814Y-23761D01*
X210917Y-23809D01*
X211018Y-23860D01*
X211117Y-23915D01*
X211214Y-23973D01*
X211309Y-24035D01*
X211402Y-24100D01*
X211492Y-24168D01*
X211580Y-24239D01*
X211666Y-24314D01*
X211749Y-24391D01*
X211829Y-24471D01*
X211906Y-24554D01*
X211981Y-24640D01*
X212052Y-24728D01*
X212120Y-24818D01*
X212185Y-24911D01*
X212247Y-25006D01*
X212305Y-25103D01*
X212360Y-25202D01*
X212411Y-25303D01*
X212459Y-25406D01*
X212504Y-25510D01*
X212544Y-25616D01*
X212581Y-25723D01*
X212614Y-25831D01*
X212644Y-25941D01*
X212669Y-26051D01*
X212691Y-26162D01*
X212708Y-26274D01*
X212722Y-26387D01*
X212732Y-26500D01*
X212738Y-26613D01*
X212740Y-26726D01*
X212739Y-26726D02*
X212739Y-29972D01*
X212739Y-26077D02*
X217932Y-23481D01*
X208844Y-18616D02*
X206248Y-15370D01*
X217932Y-15370D01*
X217932Y-12125D02*
X217932Y-18616D01*
X208844Y-7186D02*
X206248Y-3940D01*
X217932Y-3940D01*
X217932Y-695D02*
X217932Y-7186D01*
X170688Y-20828D02*
X170688Y-32512D01*
X170688Y-20828D02*
X173934Y-20828D01*
X174047Y-20830D01*
X174160Y-20836D01*
X174273Y-20846D01*
X174386Y-20860D01*
X174498Y-20877D01*
X174609Y-20899D01*
X174719Y-20924D01*
X174829Y-20954D01*
X174937Y-20987D01*
X175044Y-21024D01*
X175150Y-21064D01*
X175254Y-21109D01*
X175357Y-21157D01*
X175458Y-21208D01*
X175557Y-21263D01*
X175654Y-21321D01*
X175749Y-21383D01*
X175842Y-21448D01*
X175932Y-21516D01*
X176020Y-21587D01*
X176106Y-21662D01*
X176189Y-21739D01*
X176269Y-21819D01*
X176346Y-21902D01*
X176421Y-21988D01*
X176492Y-22076D01*
X176560Y-22166D01*
X176625Y-22259D01*
X176687Y-22354D01*
X176745Y-22451D01*
X176800Y-22550D01*
X176851Y-22651D01*
X176899Y-22754D01*
X176944Y-22858D01*
X176984Y-22964D01*
X177021Y-23071D01*
X177054Y-23179D01*
X177084Y-23289D01*
X177109Y-23399D01*
X177131Y-23510D01*
X177148Y-23622D01*
X177162Y-23735D01*
X177172Y-23848D01*
X177178Y-23961D01*
X177180Y-24074D01*
X177178Y-24187D01*
X177172Y-24300D01*
X177162Y-24413D01*
X177148Y-24526D01*
X177131Y-24638D01*
X177109Y-24749D01*
X177084Y-24859D01*
X177054Y-24969D01*
X177021Y-25077D01*
X176984Y-25184D01*
X176944Y-25290D01*
X176899Y-25394D01*
X176851Y-25497D01*
X176800Y-25598D01*
X176745Y-25697D01*
X176687Y-25794D01*
X176625Y-25889D01*
X176560Y-25982D01*
X176492Y-26072D01*
X176421Y-26160D01*
X176346Y-26246D01*
X176269Y-26329D01*
X176189Y-26409D01*
X176106Y-26486D01*
X176020Y-26561D01*
X175932Y-26632D01*
X175842Y-26700D01*
X175749Y-26765D01*
X175654Y-26827D01*
X175557Y-26885D01*
X175458Y-26940D01*
X175357Y-26991D01*
X175254Y-27039D01*
X175150Y-27084D01*
X175044Y-27124D01*
X174937Y-27161D01*
X174829Y-27194D01*
X174719Y-27224D01*
X174609Y-27249D01*
X174498Y-27271D01*
X174386Y-27288D01*
X174273Y-27302D01*
X174160Y-27312D01*
X174047Y-27318D01*
X173934Y-27320D01*
X173934Y-27319D02*
X170688Y-27319D01*
X174583Y-27319D02*
X177179Y-32512D01*
X182044Y-23424D02*
X185290Y-20828D01*
X185290Y-32512D01*
X188535Y-32512D02*
X182044Y-32512D01*
X197044Y-20828D02*
X197151Y-20830D01*
X197257Y-20836D01*
X197363Y-20846D01*
X197469Y-20859D01*
X197575Y-20877D01*
X197679Y-20898D01*
X197783Y-20923D01*
X197886Y-20952D01*
X197987Y-20984D01*
X198087Y-21021D01*
X198186Y-21061D01*
X198284Y-21104D01*
X198380Y-21151D01*
X198474Y-21202D01*
X198566Y-21256D01*
X198656Y-21313D01*
X198744Y-21373D01*
X198829Y-21437D01*
X198912Y-21504D01*
X198993Y-21574D01*
X199071Y-21646D01*
X199147Y-21722D01*
X199219Y-21800D01*
X199289Y-21881D01*
X199356Y-21964D01*
X199420Y-22049D01*
X199480Y-22137D01*
X199537Y-22227D01*
X199591Y-22319D01*
X199642Y-22413D01*
X199689Y-22509D01*
X199732Y-22607D01*
X199772Y-22706D01*
X199809Y-22806D01*
X199841Y-22907D01*
X199870Y-23010D01*
X199895Y-23114D01*
X199916Y-23218D01*
X199934Y-23324D01*
X199947Y-23430D01*
X199957Y-23536D01*
X199963Y-23642D01*
X199965Y-23749D01*
X197044Y-20828D02*
X196923Y-20830D01*
X196802Y-20836D01*
X196682Y-20846D01*
X196561Y-20859D01*
X196442Y-20877D01*
X196322Y-20898D01*
X196204Y-20923D01*
X196087Y-20952D01*
X195970Y-20985D01*
X195855Y-21021D01*
X195741Y-21062D01*
X195628Y-21105D01*
X195516Y-21153D01*
X195407Y-21204D01*
X195299Y-21259D01*
X195192Y-21317D01*
X195088Y-21378D01*
X194986Y-21443D01*
X194886Y-21511D01*
X194788Y-21582D01*
X194692Y-21656D01*
X194599Y-21733D01*
X194509Y-21814D01*
X194421Y-21897D01*
X194336Y-21983D01*
X194253Y-22072D01*
X194174Y-22163D01*
X194097Y-22257D01*
X194024Y-22353D01*
X193954Y-22451D01*
X193887Y-22552D01*
X193823Y-22655D01*
X193763Y-22760D01*
X193705Y-22867D01*
X193652Y-22975D01*
X193602Y-23085D01*
X193556Y-23197D01*
X193513Y-23310D01*
X193474Y-23425D01*
X198991Y-26021D02*
X199070Y-25943D01*
X199146Y-25863D01*
X199219Y-25780D01*
X199289Y-25694D01*
X199356Y-25607D01*
X199420Y-25516D01*
X199480Y-25424D01*
X199538Y-25330D01*
X199592Y-25233D01*
X199642Y-25135D01*
X199689Y-25035D01*
X199733Y-24934D01*
X199773Y-24831D01*
X199809Y-24726D01*
X199841Y-24621D01*
X199870Y-24514D01*
X199895Y-24407D01*
X199917Y-24298D01*
X199934Y-24189D01*
X199948Y-24080D01*
X199957Y-23970D01*
X199963Y-23859D01*
X199965Y-23749D01*
X198992Y-26021D02*
X193474Y-32512D01*
X199965Y-32512D01*
X142748Y80518D02*
X142748Y92202D01*
X145994Y92202D01*
X146107Y92200D01*
X146220Y92194D01*
X146333Y92184D01*
X146446Y92170D01*
X146558Y92153D01*
X146669Y92131D01*
X146779Y92106D01*
X146889Y92076D01*
X146997Y92043D01*
X147104Y92006D01*
X147210Y91966D01*
X147314Y91921D01*
X147417Y91873D01*
X147518Y91822D01*
X147617Y91767D01*
X147714Y91709D01*
X147809Y91647D01*
X147902Y91582D01*
X147992Y91514D01*
X148080Y91443D01*
X148166Y91368D01*
X148249Y91291D01*
X148329Y91211D01*
X148406Y91128D01*
X148481Y91042D01*
X148552Y90954D01*
X148620Y90864D01*
X148685Y90771D01*
X148747Y90676D01*
X148805Y90579D01*
X148860Y90480D01*
X148911Y90379D01*
X148959Y90276D01*
X149004Y90172D01*
X149044Y90066D01*
X149081Y89959D01*
X149114Y89851D01*
X149144Y89741D01*
X149169Y89631D01*
X149191Y89520D01*
X149208Y89408D01*
X149222Y89295D01*
X149232Y89182D01*
X149238Y89069D01*
X149240Y88956D01*
X149238Y88843D01*
X149232Y88730D01*
X149222Y88617D01*
X149208Y88504D01*
X149191Y88392D01*
X149169Y88281D01*
X149144Y88171D01*
X149114Y88061D01*
X149081Y87953D01*
X149044Y87846D01*
X149004Y87740D01*
X148959Y87636D01*
X148911Y87533D01*
X148860Y87432D01*
X148805Y87333D01*
X148747Y87236D01*
X148685Y87141D01*
X148620Y87048D01*
X148552Y86958D01*
X148481Y86870D01*
X148406Y86784D01*
X148329Y86701D01*
X148249Y86621D01*
X148166Y86544D01*
X148080Y86469D01*
X147992Y86398D01*
X147902Y86330D01*
X147809Y86265D01*
X147714Y86203D01*
X147617Y86145D01*
X147518Y86090D01*
X147417Y86039D01*
X147314Y85991D01*
X147210Y85946D01*
X147104Y85906D01*
X146997Y85869D01*
X146889Y85836D01*
X146779Y85806D01*
X146669Y85781D01*
X146558Y85759D01*
X146446Y85742D01*
X146333Y85728D01*
X146220Y85718D01*
X146107Y85712D01*
X145994Y85710D01*
X145994Y85711D02*
X142748Y85711D01*
X146643Y85711D02*
X149239Y80518D01*
X154104Y89606D02*
X157350Y92202D01*
X157350Y80518D01*
X160595Y80518D02*
X154104Y80518D01*
X165534Y80518D02*
X168780Y80518D01*
X168893Y80520D01*
X169006Y80526D01*
X169119Y80536D01*
X169232Y80550D01*
X169344Y80567D01*
X169455Y80589D01*
X169565Y80614D01*
X169675Y80644D01*
X169783Y80677D01*
X169890Y80714D01*
X169996Y80754D01*
X170100Y80799D01*
X170203Y80847D01*
X170304Y80898D01*
X170403Y80953D01*
X170500Y81011D01*
X170595Y81073D01*
X170688Y81138D01*
X170778Y81206D01*
X170866Y81277D01*
X170952Y81352D01*
X171035Y81429D01*
X171115Y81509D01*
X171192Y81592D01*
X171267Y81678D01*
X171338Y81766D01*
X171406Y81856D01*
X171471Y81949D01*
X171533Y82044D01*
X171591Y82141D01*
X171646Y82240D01*
X171697Y82341D01*
X171745Y82444D01*
X171790Y82548D01*
X171830Y82654D01*
X171867Y82761D01*
X171900Y82869D01*
X171930Y82979D01*
X171955Y83089D01*
X171977Y83200D01*
X171994Y83312D01*
X172008Y83425D01*
X172018Y83538D01*
X172024Y83651D01*
X172026Y83764D01*
X172024Y83877D01*
X172018Y83990D01*
X172008Y84103D01*
X171994Y84216D01*
X171977Y84328D01*
X171955Y84439D01*
X171930Y84549D01*
X171900Y84659D01*
X171867Y84767D01*
X171830Y84874D01*
X171790Y84980D01*
X171745Y85084D01*
X171697Y85187D01*
X171646Y85288D01*
X171591Y85387D01*
X171533Y85484D01*
X171471Y85579D01*
X171406Y85672D01*
X171338Y85762D01*
X171267Y85850D01*
X171192Y85936D01*
X171115Y86019D01*
X171035Y86099D01*
X170952Y86176D01*
X170866Y86251D01*
X170778Y86322D01*
X170688Y86390D01*
X170595Y86455D01*
X170500Y86517D01*
X170403Y86575D01*
X170304Y86630D01*
X170203Y86681D01*
X170100Y86729D01*
X169996Y86774D01*
X169890Y86814D01*
X169783Y86851D01*
X169675Y86884D01*
X169565Y86914D01*
X169455Y86939D01*
X169344Y86961D01*
X169232Y86978D01*
X169119Y86992D01*
X169006Y87002D01*
X168893Y87008D01*
X168780Y87010D01*
X169429Y92202D02*
X165534Y92202D01*
X169429Y92202D02*
X169530Y92200D01*
X169630Y92194D01*
X169730Y92184D01*
X169830Y92171D01*
X169929Y92153D01*
X170028Y92132D01*
X170125Y92107D01*
X170222Y92078D01*
X170317Y92045D01*
X170411Y92009D01*
X170503Y91969D01*
X170594Y91926D01*
X170683Y91879D01*
X170770Y91829D01*
X170856Y91775D01*
X170939Y91718D01*
X171019Y91658D01*
X171098Y91595D01*
X171174Y91528D01*
X171247Y91459D01*
X171317Y91387D01*
X171385Y91313D01*
X171450Y91236D01*
X171511Y91156D01*
X171570Y91074D01*
X171625Y90990D01*
X171677Y90904D01*
X171726Y90816D01*
X171771Y90726D01*
X171813Y90634D01*
X171851Y90541D01*
X171885Y90446D01*
X171916Y90351D01*
X171943Y90254D01*
X171966Y90156D01*
X171986Y90057D01*
X172001Y89957D01*
X172013Y89857D01*
X172021Y89757D01*
X172025Y89656D01*
X172025Y89556D01*
X172021Y89455D01*
X172013Y89355D01*
X172001Y89255D01*
X171986Y89155D01*
X171966Y89056D01*
X171943Y88958D01*
X171916Y88861D01*
X171885Y88766D01*
X171851Y88671D01*
X171813Y88578D01*
X171771Y88486D01*
X171726Y88396D01*
X171677Y88308D01*
X171625Y88222D01*
X171570Y88138D01*
X171511Y88056D01*
X171450Y87976D01*
X171385Y87899D01*
X171317Y87825D01*
X171247Y87753D01*
X171174Y87684D01*
X171098Y87617D01*
X171019Y87554D01*
X170939Y87494D01*
X170856Y87437D01*
X170770Y87383D01*
X170683Y87333D01*
X170594Y87286D01*
X170503Y87243D01*
X170411Y87203D01*
X170317Y87167D01*
X170222Y87134D01*
X170125Y87105D01*
X170028Y87080D01*
X169929Y87059D01*
X169830Y87041D01*
X169730Y87028D01*
X169630Y87018D01*
X169530Y87012D01*
X169429Y87010D01*
X169429Y87009D02*
X166833Y87009D01*
X158175Y66802D02*
X158175Y55118D01*
X158175Y66802D02*
X161420Y66802D01*
X161533Y66800D01*
X161646Y66794D01*
X161759Y66784D01*
X161872Y66770D01*
X161984Y66753D01*
X162095Y66731D01*
X162205Y66706D01*
X162315Y66676D01*
X162423Y66643D01*
X162530Y66606D01*
X162636Y66566D01*
X162740Y66521D01*
X162843Y66473D01*
X162944Y66422D01*
X163043Y66367D01*
X163140Y66309D01*
X163235Y66247D01*
X163328Y66182D01*
X163418Y66114D01*
X163506Y66043D01*
X163592Y65968D01*
X163675Y65891D01*
X163755Y65811D01*
X163832Y65728D01*
X163907Y65642D01*
X163978Y65554D01*
X164046Y65464D01*
X164111Y65371D01*
X164173Y65276D01*
X164231Y65179D01*
X164286Y65080D01*
X164337Y64979D01*
X164385Y64876D01*
X164430Y64772D01*
X164470Y64666D01*
X164507Y64559D01*
X164540Y64451D01*
X164570Y64341D01*
X164595Y64231D01*
X164617Y64120D01*
X164634Y64008D01*
X164648Y63895D01*
X164658Y63782D01*
X164664Y63669D01*
X164666Y63556D01*
X164664Y63443D01*
X164658Y63330D01*
X164648Y63217D01*
X164634Y63104D01*
X164617Y62992D01*
X164595Y62881D01*
X164570Y62771D01*
X164540Y62661D01*
X164507Y62553D01*
X164470Y62446D01*
X164430Y62340D01*
X164385Y62236D01*
X164337Y62133D01*
X164286Y62032D01*
X164231Y61933D01*
X164173Y61836D01*
X164111Y61741D01*
X164046Y61648D01*
X163978Y61558D01*
X163907Y61470D01*
X163832Y61384D01*
X163755Y61301D01*
X163675Y61221D01*
X163592Y61144D01*
X163506Y61069D01*
X163418Y60998D01*
X163328Y60930D01*
X163235Y60865D01*
X163140Y60803D01*
X163043Y60745D01*
X162944Y60690D01*
X162843Y60639D01*
X162740Y60591D01*
X162636Y60546D01*
X162530Y60506D01*
X162423Y60469D01*
X162315Y60436D01*
X162205Y60406D01*
X162095Y60381D01*
X161984Y60359D01*
X161872Y60342D01*
X161759Y60328D01*
X161646Y60318D01*
X161533Y60312D01*
X161420Y60310D01*
X161420Y60311D02*
X158175Y60311D01*
X162069Y60311D02*
X164666Y55118D01*
X169531Y64206D02*
X172776Y66802D01*
X172776Y55118D01*
X169531Y55118D02*
X176022Y55118D01*
X180961Y57714D02*
X183557Y66802D01*
X180961Y57714D02*
X187452Y57714D01*
X185505Y60311D02*
X185505Y55118D01*
X123952Y7045D02*
X112268Y7045D01*
X112268Y10290D01*
X112270Y10403D01*
X112276Y10516D01*
X112286Y10629D01*
X112300Y10742D01*
X112317Y10854D01*
X112339Y10965D01*
X112364Y11075D01*
X112394Y11185D01*
X112427Y11293D01*
X112464Y11400D01*
X112504Y11506D01*
X112549Y11610D01*
X112597Y11713D01*
X112648Y11814D01*
X112703Y11913D01*
X112761Y12010D01*
X112823Y12105D01*
X112888Y12198D01*
X112956Y12288D01*
X113027Y12376D01*
X113102Y12462D01*
X113179Y12545D01*
X113259Y12625D01*
X113342Y12702D01*
X113428Y12777D01*
X113516Y12848D01*
X113606Y12916D01*
X113699Y12981D01*
X113794Y13043D01*
X113891Y13101D01*
X113990Y13156D01*
X114091Y13207D01*
X114194Y13255D01*
X114298Y13300D01*
X114404Y13340D01*
X114511Y13377D01*
X114619Y13410D01*
X114729Y13440D01*
X114839Y13465D01*
X114950Y13487D01*
X115062Y13504D01*
X115175Y13518D01*
X115288Y13528D01*
X115401Y13534D01*
X115514Y13536D01*
X115627Y13534D01*
X115740Y13528D01*
X115853Y13518D01*
X115966Y13504D01*
X116078Y13487D01*
X116189Y13465D01*
X116299Y13440D01*
X116409Y13410D01*
X116517Y13377D01*
X116624Y13340D01*
X116730Y13300D01*
X116834Y13255D01*
X116937Y13207D01*
X117038Y13156D01*
X117137Y13101D01*
X117234Y13043D01*
X117329Y12981D01*
X117422Y12916D01*
X117512Y12848D01*
X117600Y12777D01*
X117686Y12702D01*
X117769Y12625D01*
X117849Y12545D01*
X117926Y12462D01*
X118001Y12376D01*
X118072Y12288D01*
X118140Y12198D01*
X118205Y12105D01*
X118267Y12010D01*
X118325Y11913D01*
X118380Y11814D01*
X118431Y11713D01*
X118479Y11610D01*
X118524Y11506D01*
X118564Y11400D01*
X118601Y11293D01*
X118634Y11185D01*
X118664Y11075D01*
X118689Y10965D01*
X118711Y10854D01*
X118728Y10742D01*
X118742Y10629D01*
X118752Y10516D01*
X118758Y10403D01*
X118760Y10290D01*
X118759Y10290D02*
X118759Y7045D01*
X118759Y10939D02*
X123952Y13536D01*
X114864Y18401D02*
X112268Y21646D01*
X123952Y21646D01*
X123952Y18401D02*
X123952Y24892D01*
X123952Y29831D02*
X123952Y33726D01*
X123950Y33825D01*
X123944Y33925D01*
X123935Y34024D01*
X123922Y34122D01*
X123905Y34220D01*
X123884Y34318D01*
X123859Y34414D01*
X123831Y34509D01*
X123799Y34603D01*
X123764Y34696D01*
X123725Y34788D01*
X123682Y34878D01*
X123637Y34966D01*
X123587Y35053D01*
X123535Y35137D01*
X123479Y35220D01*
X123421Y35300D01*
X123359Y35378D01*
X123294Y35453D01*
X123226Y35526D01*
X123156Y35596D01*
X123083Y35664D01*
X123008Y35729D01*
X122930Y35791D01*
X122850Y35849D01*
X122767Y35905D01*
X122683Y35957D01*
X122596Y36007D01*
X122508Y36052D01*
X122418Y36095D01*
X122326Y36134D01*
X122233Y36169D01*
X122139Y36201D01*
X122044Y36229D01*
X121948Y36254D01*
X121850Y36275D01*
X121752Y36292D01*
X121654Y36305D01*
X121555Y36314D01*
X121455Y36320D01*
X121356Y36322D01*
X120057Y36322D01*
X119958Y36320D01*
X119858Y36314D01*
X119759Y36305D01*
X119661Y36292D01*
X119563Y36275D01*
X119465Y36254D01*
X119369Y36229D01*
X119274Y36201D01*
X119180Y36169D01*
X119087Y36134D01*
X118995Y36095D01*
X118905Y36052D01*
X118817Y36007D01*
X118730Y35957D01*
X118646Y35905D01*
X118563Y35849D01*
X118483Y35791D01*
X118405Y35729D01*
X118330Y35664D01*
X118257Y35596D01*
X118187Y35526D01*
X118119Y35453D01*
X118054Y35378D01*
X117992Y35300D01*
X117934Y35220D01*
X117878Y35137D01*
X117826Y35053D01*
X117776Y34966D01*
X117731Y34878D01*
X117688Y34788D01*
X117649Y34696D01*
X117614Y34603D01*
X117582Y34509D01*
X117554Y34414D01*
X117529Y34318D01*
X117508Y34220D01*
X117491Y34122D01*
X117478Y34024D01*
X117469Y33925D01*
X117463Y33825D01*
X117461Y33726D01*
X117461Y29831D01*
X112268Y29831D01*
X112268Y36322D01*
X50038Y-36068D02*
X50038Y-47752D01*
X50038Y-36068D02*
X53284Y-36068D01*
X53397Y-36070D01*
X53510Y-36076D01*
X53623Y-36086D01*
X53736Y-36100D01*
X53848Y-36117D01*
X53959Y-36139D01*
X54069Y-36164D01*
X54179Y-36194D01*
X54287Y-36227D01*
X54394Y-36264D01*
X54500Y-36304D01*
X54604Y-36349D01*
X54707Y-36397D01*
X54808Y-36448D01*
X54907Y-36503D01*
X55004Y-36561D01*
X55099Y-36623D01*
X55192Y-36688D01*
X55282Y-36756D01*
X55370Y-36827D01*
X55456Y-36902D01*
X55539Y-36979D01*
X55619Y-37059D01*
X55696Y-37142D01*
X55771Y-37228D01*
X55842Y-37316D01*
X55910Y-37406D01*
X55975Y-37499D01*
X56037Y-37594D01*
X56095Y-37691D01*
X56150Y-37790D01*
X56201Y-37891D01*
X56249Y-37994D01*
X56294Y-38098D01*
X56334Y-38204D01*
X56371Y-38311D01*
X56404Y-38419D01*
X56434Y-38529D01*
X56459Y-38639D01*
X56481Y-38750D01*
X56498Y-38862D01*
X56512Y-38975D01*
X56522Y-39088D01*
X56528Y-39201D01*
X56530Y-39314D01*
X56528Y-39427D01*
X56522Y-39540D01*
X56512Y-39653D01*
X56498Y-39766D01*
X56481Y-39878D01*
X56459Y-39989D01*
X56434Y-40099D01*
X56404Y-40209D01*
X56371Y-40317D01*
X56334Y-40424D01*
X56294Y-40530D01*
X56249Y-40634D01*
X56201Y-40737D01*
X56150Y-40838D01*
X56095Y-40937D01*
X56037Y-41034D01*
X55975Y-41129D01*
X55910Y-41222D01*
X55842Y-41312D01*
X55771Y-41400D01*
X55696Y-41486D01*
X55619Y-41569D01*
X55539Y-41649D01*
X55456Y-41726D01*
X55370Y-41801D01*
X55282Y-41872D01*
X55192Y-41940D01*
X55099Y-42005D01*
X55004Y-42067D01*
X54907Y-42125D01*
X54808Y-42180D01*
X54707Y-42231D01*
X54604Y-42279D01*
X54500Y-42324D01*
X54394Y-42364D01*
X54287Y-42401D01*
X54179Y-42434D01*
X54069Y-42464D01*
X53959Y-42489D01*
X53848Y-42511D01*
X53736Y-42528D01*
X53623Y-42542D01*
X53510Y-42552D01*
X53397Y-42558D01*
X53284Y-42560D01*
X53284Y-42559D02*
X50038Y-42559D01*
X53933Y-42559D02*
X56529Y-47752D01*
X61394Y-38664D02*
X64640Y-36068D01*
X64640Y-47752D01*
X67885Y-47752D02*
X61394Y-47752D01*
X72824Y-41261D02*
X76719Y-41261D01*
X76818Y-41263D01*
X76918Y-41269D01*
X77017Y-41278D01*
X77115Y-41291D01*
X77213Y-41308D01*
X77311Y-41329D01*
X77407Y-41354D01*
X77502Y-41382D01*
X77596Y-41414D01*
X77689Y-41449D01*
X77781Y-41488D01*
X77871Y-41531D01*
X77959Y-41576D01*
X78046Y-41626D01*
X78130Y-41678D01*
X78213Y-41734D01*
X78293Y-41792D01*
X78371Y-41854D01*
X78446Y-41919D01*
X78519Y-41987D01*
X78589Y-42057D01*
X78657Y-42130D01*
X78722Y-42205D01*
X78784Y-42283D01*
X78842Y-42363D01*
X78898Y-42446D01*
X78950Y-42530D01*
X79000Y-42617D01*
X79045Y-42705D01*
X79088Y-42795D01*
X79127Y-42887D01*
X79162Y-42980D01*
X79194Y-43074D01*
X79222Y-43169D01*
X79247Y-43265D01*
X79268Y-43363D01*
X79285Y-43461D01*
X79298Y-43559D01*
X79307Y-43658D01*
X79313Y-43758D01*
X79315Y-43857D01*
X79315Y-44506D01*
X79316Y-44506D02*
X79314Y-44619D01*
X79308Y-44732D01*
X79298Y-44845D01*
X79284Y-44958D01*
X79267Y-45070D01*
X79245Y-45181D01*
X79220Y-45291D01*
X79190Y-45401D01*
X79157Y-45509D01*
X79120Y-45616D01*
X79080Y-45722D01*
X79035Y-45826D01*
X78987Y-45929D01*
X78936Y-46030D01*
X78881Y-46129D01*
X78823Y-46226D01*
X78761Y-46321D01*
X78696Y-46414D01*
X78628Y-46504D01*
X78557Y-46592D01*
X78482Y-46678D01*
X78405Y-46761D01*
X78325Y-46841D01*
X78242Y-46918D01*
X78156Y-46993D01*
X78068Y-47064D01*
X77978Y-47132D01*
X77885Y-47197D01*
X77790Y-47259D01*
X77693Y-47317D01*
X77594Y-47372D01*
X77493Y-47423D01*
X77390Y-47471D01*
X77286Y-47516D01*
X77180Y-47556D01*
X77073Y-47593D01*
X76965Y-47626D01*
X76855Y-47656D01*
X76745Y-47681D01*
X76634Y-47703D01*
X76522Y-47720D01*
X76409Y-47734D01*
X76296Y-47744D01*
X76183Y-47750D01*
X76070Y-47752D01*
X75957Y-47750D01*
X75844Y-47744D01*
X75731Y-47734D01*
X75618Y-47720D01*
X75506Y-47703D01*
X75395Y-47681D01*
X75285Y-47656D01*
X75175Y-47626D01*
X75067Y-47593D01*
X74960Y-47556D01*
X74854Y-47516D01*
X74750Y-47471D01*
X74647Y-47423D01*
X74546Y-47372D01*
X74447Y-47317D01*
X74350Y-47259D01*
X74255Y-47197D01*
X74162Y-47132D01*
X74072Y-47064D01*
X73984Y-46993D01*
X73898Y-46918D01*
X73815Y-46841D01*
X73735Y-46761D01*
X73658Y-46678D01*
X73583Y-46592D01*
X73512Y-46504D01*
X73444Y-46414D01*
X73379Y-46321D01*
X73317Y-46226D01*
X73259Y-46129D01*
X73204Y-46030D01*
X73153Y-45929D01*
X73105Y-45826D01*
X73060Y-45722D01*
X73020Y-45616D01*
X72983Y-45509D01*
X72950Y-45401D01*
X72920Y-45291D01*
X72895Y-45181D01*
X72873Y-45070D01*
X72856Y-44958D01*
X72842Y-44845D01*
X72832Y-44732D01*
X72826Y-44619D01*
X72824Y-44506D01*
X72824Y-41261D01*
X72826Y-41118D01*
X72832Y-40975D01*
X72842Y-40832D01*
X72856Y-40690D01*
X72873Y-40548D01*
X72895Y-40406D01*
X72920Y-40265D01*
X72950Y-40125D01*
X72983Y-39986D01*
X73020Y-39848D01*
X73061Y-39711D01*
X73105Y-39575D01*
X73154Y-39440D01*
X73206Y-39307D01*
X73261Y-39175D01*
X73321Y-39045D01*
X73384Y-38916D01*
X73450Y-38789D01*
X73520Y-38665D01*
X73593Y-38542D01*
X73670Y-38421D01*
X73749Y-38302D01*
X73833Y-38186D01*
X73919Y-38071D01*
X74008Y-37960D01*
X74101Y-37851D01*
X74196Y-37744D01*
X74295Y-37640D01*
X74396Y-37539D01*
X74500Y-37440D01*
X74606Y-37345D01*
X74716Y-37252D01*
X74827Y-37163D01*
X74941Y-37077D01*
X75058Y-36994D01*
X75177Y-36914D01*
X75298Y-36837D01*
X75420Y-36764D01*
X75545Y-36694D01*
X75672Y-36628D01*
X75801Y-36565D01*
X75931Y-36505D01*
X76063Y-36450D01*
X76196Y-36398D01*
X76331Y-36349D01*
X76467Y-36305D01*
X76604Y-36264D01*
X76742Y-36227D01*
X76881Y-36194D01*
X77021Y-36164D01*
X77162Y-36139D01*
X77304Y-36117D01*
X77446Y-36100D01*
X77588Y-36086D01*
X77731Y-36076D01*
X77874Y-36070D01*
X78017Y-36068D01*
X136398Y7045D02*
X148082Y7045D01*
X136398Y7045D02*
X136398Y10290D01*
X136400Y10403D01*
X136406Y10516D01*
X136416Y10629D01*
X136430Y10742D01*
X136447Y10854D01*
X136469Y10965D01*
X136494Y11075D01*
X136524Y11185D01*
X136557Y11293D01*
X136594Y11400D01*
X136634Y11506D01*
X136679Y11610D01*
X136727Y11713D01*
X136778Y11814D01*
X136833Y11913D01*
X136891Y12010D01*
X136953Y12105D01*
X137018Y12198D01*
X137086Y12288D01*
X137157Y12376D01*
X137232Y12462D01*
X137309Y12545D01*
X137389Y12625D01*
X137472Y12702D01*
X137558Y12777D01*
X137646Y12848D01*
X137736Y12916D01*
X137829Y12981D01*
X137924Y13043D01*
X138021Y13101D01*
X138120Y13156D01*
X138221Y13207D01*
X138324Y13255D01*
X138428Y13300D01*
X138534Y13340D01*
X138641Y13377D01*
X138749Y13410D01*
X138859Y13440D01*
X138969Y13465D01*
X139080Y13487D01*
X139192Y13504D01*
X139305Y13518D01*
X139418Y13528D01*
X139531Y13534D01*
X139644Y13536D01*
X139757Y13534D01*
X139870Y13528D01*
X139983Y13518D01*
X140096Y13504D01*
X140208Y13487D01*
X140319Y13465D01*
X140429Y13440D01*
X140539Y13410D01*
X140647Y13377D01*
X140754Y13340D01*
X140860Y13300D01*
X140964Y13255D01*
X141067Y13207D01*
X141168Y13156D01*
X141267Y13101D01*
X141364Y13043D01*
X141459Y12981D01*
X141552Y12916D01*
X141642Y12848D01*
X141730Y12777D01*
X141816Y12702D01*
X141899Y12625D01*
X141979Y12545D01*
X142056Y12462D01*
X142131Y12376D01*
X142202Y12288D01*
X142270Y12198D01*
X142335Y12105D01*
X142397Y12010D01*
X142455Y11913D01*
X142510Y11814D01*
X142561Y11713D01*
X142609Y11610D01*
X142654Y11506D01*
X142694Y11400D01*
X142731Y11293D01*
X142764Y11185D01*
X142794Y11075D01*
X142819Y10965D01*
X142841Y10854D01*
X142858Y10742D01*
X142872Y10629D01*
X142882Y10516D01*
X142888Y10403D01*
X142890Y10290D01*
X142889Y10290D02*
X142889Y7045D01*
X142889Y10939D02*
X148082Y13536D01*
X138994Y18401D02*
X136398Y21646D01*
X148082Y21646D01*
X148082Y18401D02*
X148082Y24892D01*
X137696Y29831D02*
X136398Y29831D01*
X136398Y36322D01*
X148082Y33076D01*
X50225Y-60198D02*
X50225Y-71882D01*
X50225Y-60198D02*
X53470Y-60198D01*
X53583Y-60200D01*
X53696Y-60206D01*
X53809Y-60216D01*
X53922Y-60230D01*
X54034Y-60247D01*
X54145Y-60269D01*
X54255Y-60294D01*
X54365Y-60324D01*
X54473Y-60357D01*
X54580Y-60394D01*
X54686Y-60434D01*
X54790Y-60479D01*
X54893Y-60527D01*
X54994Y-60578D01*
X55093Y-60633D01*
X55190Y-60691D01*
X55285Y-60753D01*
X55378Y-60818D01*
X55468Y-60886D01*
X55556Y-60957D01*
X55642Y-61032D01*
X55725Y-61109D01*
X55805Y-61189D01*
X55882Y-61272D01*
X55957Y-61358D01*
X56028Y-61446D01*
X56096Y-61536D01*
X56161Y-61629D01*
X56223Y-61724D01*
X56281Y-61821D01*
X56336Y-61920D01*
X56387Y-62021D01*
X56435Y-62124D01*
X56480Y-62228D01*
X56520Y-62334D01*
X56557Y-62441D01*
X56590Y-62549D01*
X56620Y-62659D01*
X56645Y-62769D01*
X56667Y-62880D01*
X56684Y-62992D01*
X56698Y-63105D01*
X56708Y-63218D01*
X56714Y-63331D01*
X56716Y-63444D01*
X56714Y-63557D01*
X56708Y-63670D01*
X56698Y-63783D01*
X56684Y-63896D01*
X56667Y-64008D01*
X56645Y-64119D01*
X56620Y-64229D01*
X56590Y-64339D01*
X56557Y-64447D01*
X56520Y-64554D01*
X56480Y-64660D01*
X56435Y-64764D01*
X56387Y-64867D01*
X56336Y-64968D01*
X56281Y-65067D01*
X56223Y-65164D01*
X56161Y-65259D01*
X56096Y-65352D01*
X56028Y-65442D01*
X55957Y-65530D01*
X55882Y-65616D01*
X55805Y-65699D01*
X55725Y-65779D01*
X55642Y-65856D01*
X55556Y-65931D01*
X55468Y-66002D01*
X55378Y-66070D01*
X55285Y-66135D01*
X55190Y-66197D01*
X55093Y-66255D01*
X54994Y-66310D01*
X54893Y-66361D01*
X54790Y-66409D01*
X54686Y-66454D01*
X54580Y-66494D01*
X54473Y-66531D01*
X54365Y-66564D01*
X54255Y-66594D01*
X54145Y-66619D01*
X54034Y-66641D01*
X53922Y-66658D01*
X53809Y-66672D01*
X53696Y-66682D01*
X53583Y-66688D01*
X53470Y-66690D01*
X53470Y-66689D02*
X50225Y-66689D01*
X54119Y-66689D02*
X56716Y-71882D01*
X61581Y-62794D02*
X64826Y-60198D01*
X64826Y-71882D01*
X61581Y-71882D02*
X68072Y-71882D01*
X73010Y-68636D02*
X73012Y-68523D01*
X73018Y-68410D01*
X73028Y-68297D01*
X73042Y-68184D01*
X73059Y-68072D01*
X73081Y-67961D01*
X73106Y-67851D01*
X73136Y-67741D01*
X73169Y-67633D01*
X73206Y-67526D01*
X73246Y-67420D01*
X73291Y-67316D01*
X73339Y-67213D01*
X73390Y-67112D01*
X73445Y-67013D01*
X73503Y-66916D01*
X73565Y-66821D01*
X73630Y-66728D01*
X73698Y-66638D01*
X73769Y-66550D01*
X73844Y-66464D01*
X73921Y-66381D01*
X74001Y-66301D01*
X74084Y-66224D01*
X74170Y-66149D01*
X74258Y-66078D01*
X74348Y-66010D01*
X74441Y-65945D01*
X74536Y-65883D01*
X74633Y-65825D01*
X74732Y-65770D01*
X74833Y-65719D01*
X74936Y-65671D01*
X75040Y-65626D01*
X75146Y-65586D01*
X75253Y-65549D01*
X75361Y-65516D01*
X75471Y-65486D01*
X75581Y-65461D01*
X75692Y-65439D01*
X75804Y-65422D01*
X75917Y-65408D01*
X76030Y-65398D01*
X76143Y-65392D01*
X76256Y-65390D01*
X76369Y-65392D01*
X76482Y-65398D01*
X76595Y-65408D01*
X76708Y-65422D01*
X76820Y-65439D01*
X76931Y-65461D01*
X77041Y-65486D01*
X77151Y-65516D01*
X77259Y-65549D01*
X77366Y-65586D01*
X77472Y-65626D01*
X77576Y-65671D01*
X77679Y-65719D01*
X77780Y-65770D01*
X77879Y-65825D01*
X77976Y-65883D01*
X78071Y-65945D01*
X78164Y-66010D01*
X78254Y-66078D01*
X78342Y-66149D01*
X78428Y-66224D01*
X78511Y-66301D01*
X78591Y-66381D01*
X78668Y-66464D01*
X78743Y-66550D01*
X78814Y-66638D01*
X78882Y-66728D01*
X78947Y-66821D01*
X79009Y-66916D01*
X79067Y-67013D01*
X79122Y-67112D01*
X79173Y-67213D01*
X79221Y-67316D01*
X79266Y-67420D01*
X79306Y-67526D01*
X79343Y-67633D01*
X79376Y-67741D01*
X79406Y-67851D01*
X79431Y-67961D01*
X79453Y-68072D01*
X79470Y-68184D01*
X79484Y-68297D01*
X79494Y-68410D01*
X79500Y-68523D01*
X79502Y-68636D01*
X79500Y-68749D01*
X79494Y-68862D01*
X79484Y-68975D01*
X79470Y-69088D01*
X79453Y-69200D01*
X79431Y-69311D01*
X79406Y-69421D01*
X79376Y-69531D01*
X79343Y-69639D01*
X79306Y-69746D01*
X79266Y-69852D01*
X79221Y-69956D01*
X79173Y-70059D01*
X79122Y-70160D01*
X79067Y-70259D01*
X79009Y-70356D01*
X78947Y-70451D01*
X78882Y-70544D01*
X78814Y-70634D01*
X78743Y-70722D01*
X78668Y-70808D01*
X78591Y-70891D01*
X78511Y-70971D01*
X78428Y-71048D01*
X78342Y-71123D01*
X78254Y-71194D01*
X78164Y-71262D01*
X78071Y-71327D01*
X77976Y-71389D01*
X77879Y-71447D01*
X77780Y-71502D01*
X77679Y-71553D01*
X77576Y-71601D01*
X77472Y-71646D01*
X77366Y-71686D01*
X77259Y-71723D01*
X77151Y-71756D01*
X77041Y-71786D01*
X76931Y-71811D01*
X76820Y-71833D01*
X76708Y-71850D01*
X76595Y-71864D01*
X76482Y-71874D01*
X76369Y-71880D01*
X76256Y-71882D01*
X76143Y-71880D01*
X76030Y-71874D01*
X75917Y-71864D01*
X75804Y-71850D01*
X75692Y-71833D01*
X75581Y-71811D01*
X75471Y-71786D01*
X75361Y-71756D01*
X75253Y-71723D01*
X75146Y-71686D01*
X75040Y-71646D01*
X74936Y-71601D01*
X74833Y-71553D01*
X74732Y-71502D01*
X74633Y-71447D01*
X74536Y-71389D01*
X74441Y-71327D01*
X74348Y-71262D01*
X74258Y-71194D01*
X74170Y-71123D01*
X74084Y-71048D01*
X74001Y-70971D01*
X73921Y-70891D01*
X73844Y-70808D01*
X73769Y-70722D01*
X73698Y-70634D01*
X73630Y-70544D01*
X73565Y-70451D01*
X73503Y-70356D01*
X73445Y-70259D01*
X73390Y-70160D01*
X73339Y-70059D01*
X73291Y-69956D01*
X73246Y-69852D01*
X73206Y-69746D01*
X73169Y-69639D01*
X73136Y-69531D01*
X73106Y-69421D01*
X73081Y-69311D01*
X73059Y-69200D01*
X73042Y-69088D01*
X73028Y-68975D01*
X73018Y-68862D01*
X73012Y-68749D01*
X73010Y-68636D01*
X73660Y-62794D02*
X73662Y-62693D01*
X73668Y-62593D01*
X73678Y-62493D01*
X73691Y-62393D01*
X73709Y-62294D01*
X73730Y-62195D01*
X73755Y-62098D01*
X73784Y-62001D01*
X73817Y-61906D01*
X73853Y-61812D01*
X73893Y-61720D01*
X73936Y-61629D01*
X73983Y-61540D01*
X74033Y-61453D01*
X74087Y-61367D01*
X74144Y-61284D01*
X74204Y-61204D01*
X74267Y-61125D01*
X74334Y-61049D01*
X74403Y-60976D01*
X74475Y-60906D01*
X74549Y-60838D01*
X74626Y-60773D01*
X74706Y-60712D01*
X74788Y-60653D01*
X74872Y-60598D01*
X74958Y-60546D01*
X75046Y-60497D01*
X75136Y-60452D01*
X75228Y-60410D01*
X75321Y-60372D01*
X75416Y-60338D01*
X75511Y-60307D01*
X75608Y-60280D01*
X75706Y-60257D01*
X75805Y-60237D01*
X75905Y-60222D01*
X76005Y-60210D01*
X76105Y-60202D01*
X76206Y-60198D01*
X76306Y-60198D01*
X76407Y-60202D01*
X76507Y-60210D01*
X76607Y-60222D01*
X76707Y-60237D01*
X76806Y-60257D01*
X76904Y-60280D01*
X77001Y-60307D01*
X77096Y-60338D01*
X77191Y-60372D01*
X77284Y-60410D01*
X77376Y-60452D01*
X77466Y-60497D01*
X77554Y-60546D01*
X77640Y-60598D01*
X77724Y-60653D01*
X77806Y-60712D01*
X77886Y-60773D01*
X77963Y-60838D01*
X78037Y-60906D01*
X78109Y-60976D01*
X78178Y-61049D01*
X78245Y-61125D01*
X78308Y-61204D01*
X78368Y-61284D01*
X78425Y-61367D01*
X78479Y-61453D01*
X78529Y-61540D01*
X78576Y-61629D01*
X78619Y-61720D01*
X78659Y-61812D01*
X78695Y-61906D01*
X78728Y-62001D01*
X78757Y-62098D01*
X78782Y-62195D01*
X78803Y-62294D01*
X78821Y-62393D01*
X78834Y-62493D01*
X78844Y-62593D01*
X78850Y-62693D01*
X78852Y-62794D01*
X78850Y-62895D01*
X78844Y-62995D01*
X78834Y-63095D01*
X78821Y-63195D01*
X78803Y-63294D01*
X78782Y-63393D01*
X78757Y-63490D01*
X78728Y-63587D01*
X78695Y-63682D01*
X78659Y-63776D01*
X78619Y-63868D01*
X78576Y-63959D01*
X78529Y-64048D01*
X78479Y-64135D01*
X78425Y-64221D01*
X78368Y-64304D01*
X78308Y-64384D01*
X78245Y-64463D01*
X78178Y-64539D01*
X78109Y-64612D01*
X78037Y-64682D01*
X77963Y-64750D01*
X77886Y-64815D01*
X77806Y-64876D01*
X77724Y-64935D01*
X77640Y-64990D01*
X77554Y-65042D01*
X77466Y-65091D01*
X77376Y-65136D01*
X77284Y-65178D01*
X77191Y-65216D01*
X77096Y-65250D01*
X77001Y-65281D01*
X76904Y-65308D01*
X76806Y-65331D01*
X76707Y-65351D01*
X76607Y-65366D01*
X76507Y-65378D01*
X76407Y-65386D01*
X76306Y-65390D01*
X76206Y-65390D01*
X76105Y-65386D01*
X76005Y-65378D01*
X75905Y-65366D01*
X75805Y-65351D01*
X75706Y-65331D01*
X75608Y-65308D01*
X75511Y-65281D01*
X75416Y-65250D01*
X75321Y-65216D01*
X75228Y-65178D01*
X75136Y-65136D01*
X75046Y-65091D01*
X74958Y-65042D01*
X74872Y-64990D01*
X74788Y-64935D01*
X74706Y-64876D01*
X74626Y-64815D01*
X74549Y-64750D01*
X74475Y-64682D01*
X74403Y-64612D01*
X74334Y-64539D01*
X74267Y-64463D01*
X74204Y-64384D01*
X74144Y-64304D01*
X74087Y-64221D01*
X74033Y-64135D01*
X73983Y-64048D01*
X73936Y-63959D01*
X73893Y-63868D01*
X73853Y-63776D01*
X73817Y-63682D01*
X73784Y-63587D01*
X73755Y-63490D01*
X73730Y-63393D01*
X73709Y-63294D01*
X73691Y-63195D01*
X73678Y-63095D01*
X73668Y-62995D01*
X73662Y-62895D01*
X73660Y-62794D01*
D14*
X216600Y232360D02*
X219600Y232360D01*
X216600Y232360D02*
X216600Y235360D01*
X219600Y235360D01*
X219600Y242360D01*
X110600Y242360D02*
X110600Y235360D01*
X113600Y235360D01*
X113600Y232360D01*
X110600Y232360D01*
X113600Y232360D02*
X216600Y232360D01*
X219600Y242360D02*
X110600Y242360D01*
X219600Y198360D02*
X219600Y188360D01*
X207600Y188360D01*
X110600Y188360D02*
X110600Y198360D01*
X110600Y188360D02*
X122600Y188360D01*
X219600Y228360D02*
X219600Y232360D01*
X110600Y232360D02*
X110600Y228360D01*
D15*
X226060Y-224790D02*
X251460Y-224790D01*
X226060Y-224790D02*
X226060Y-250190D01*
X251460Y-250190D01*
X251460Y-224790D01*
D19*
X238760Y-256540D02*
X238760Y-313690D01*
D15*
X226060Y-224790D02*
X200660Y-224790D01*
X200660Y-250190D01*
X226060Y-250190D01*
D19*
X213360Y-256540D02*
X213360Y-313690D01*
D15*
X200660Y-224790D02*
X175260Y-224790D01*
X175260Y-250190D01*
X200660Y-250190D01*
D19*
X187960Y-256540D02*
X187960Y-313690D01*
D15*
X175260Y-224790D02*
X149860Y-224790D01*
X149860Y-250190D01*
X175260Y-250190D01*
D19*
X162560Y-256540D02*
X162560Y-313690D01*
D15*
X149860Y-224790D02*
X124460Y-224790D01*
X124460Y-250190D01*
X149860Y-250190D01*
D19*
X137160Y-256540D02*
X137160Y-313690D01*
D15*
X124460Y-224790D02*
X99060Y-224790D01*
X99060Y-250190D01*
X124460Y-250190D01*
D19*
X111760Y-256540D02*
X111760Y-313690D01*
D15*
X99060Y-224790D02*
X73660Y-224790D01*
X73660Y-250190D01*
X99060Y-250190D01*
D19*
X86360Y-256540D02*
X86360Y-313690D01*
D20*
X238760Y-252730D03*
X213360Y-252730D03*
X187960Y-252730D03*
X162560Y-252730D03*
X137160Y-252730D03*
X111760Y-252730D03*
X86360Y-252730D03*
D21*
X238760Y-219710D03*
X213360Y-219710D03*
X187960Y-219710D03*
X162560Y-219710D03*
X137160Y-219710D03*
X111760Y-219710D03*
X86360Y-219710D03*
D10*
X258445Y-229564D02*
X267335Y-229564D01*
X267435Y-229566D01*
X267534Y-229572D01*
X267634Y-229582D01*
X267732Y-229595D01*
X267831Y-229613D01*
X267928Y-229634D01*
X268024Y-229659D01*
X268120Y-229688D01*
X268214Y-229721D01*
X268307Y-229757D01*
X268398Y-229797D01*
X268488Y-229841D01*
X268576Y-229888D01*
X268662Y-229938D01*
X268746Y-229992D01*
X268828Y-230049D01*
X268907Y-230109D01*
X268985Y-230173D01*
X269059Y-230239D01*
X269131Y-230308D01*
X269200Y-230380D01*
X269266Y-230454D01*
X269330Y-230532D01*
X269390Y-230611D01*
X269447Y-230693D01*
X269501Y-230777D01*
X269551Y-230863D01*
X269598Y-230951D01*
X269642Y-231041D01*
X269682Y-231132D01*
X269718Y-231225D01*
X269751Y-231319D01*
X269780Y-231415D01*
X269805Y-231511D01*
X269826Y-231608D01*
X269844Y-231707D01*
X269857Y-231805D01*
X269867Y-231905D01*
X269873Y-232004D01*
X269875Y-232104D01*
X269875Y-233374D01*
X269875Y-223584D02*
X258445Y-223584D01*
X258445Y-220409D01*
X258447Y-220298D01*
X258453Y-220188D01*
X258462Y-220077D01*
X258476Y-219967D01*
X258493Y-219858D01*
X258514Y-219749D01*
X258539Y-219641D01*
X258568Y-219534D01*
X258600Y-219428D01*
X258636Y-219323D01*
X258676Y-219220D01*
X258719Y-219118D01*
X258766Y-219017D01*
X258817Y-218918D01*
X258870Y-218822D01*
X258927Y-218727D01*
X258988Y-218634D01*
X259051Y-218543D01*
X259118Y-218454D01*
X259188Y-218368D01*
X259261Y-218285D01*
X259336Y-218203D01*
X259414Y-218125D01*
X259496Y-218050D01*
X259579Y-217977D01*
X259665Y-217907D01*
X259754Y-217840D01*
X259845Y-217777D01*
X259938Y-217716D01*
X260033Y-217659D01*
X260129Y-217606D01*
X260228Y-217555D01*
X260329Y-217508D01*
X260431Y-217465D01*
X260534Y-217425D01*
X260639Y-217389D01*
X260745Y-217357D01*
X260852Y-217328D01*
X260960Y-217303D01*
X261069Y-217282D01*
X261178Y-217265D01*
X261288Y-217251D01*
X261399Y-217242D01*
X261509Y-217236D01*
X261620Y-217234D01*
X261731Y-217236D01*
X261841Y-217242D01*
X261952Y-217251D01*
X262062Y-217265D01*
X262171Y-217282D01*
X262280Y-217303D01*
X262388Y-217328D01*
X262495Y-217357D01*
X262601Y-217389D01*
X262706Y-217425D01*
X262809Y-217465D01*
X262911Y-217508D01*
X263012Y-217555D01*
X263111Y-217606D01*
X263208Y-217659D01*
X263302Y-217716D01*
X263395Y-217777D01*
X263486Y-217840D01*
X263575Y-217907D01*
X263661Y-217977D01*
X263744Y-218050D01*
X263826Y-218125D01*
X263904Y-218203D01*
X263979Y-218285D01*
X264052Y-218368D01*
X264122Y-218454D01*
X264189Y-218543D01*
X264252Y-218634D01*
X264313Y-218727D01*
X264370Y-218822D01*
X264423Y-218918D01*
X264474Y-219017D01*
X264521Y-219118D01*
X264564Y-219220D01*
X264604Y-219323D01*
X264640Y-219428D01*
X264672Y-219534D01*
X264701Y-219641D01*
X264726Y-219749D01*
X264747Y-219858D01*
X264764Y-219967D01*
X264778Y-220077D01*
X264787Y-220188D01*
X264793Y-220298D01*
X264795Y-220409D01*
X264795Y-223584D01*
X260985Y-212725D02*
X258445Y-209550D01*
X269875Y-209550D01*
X269875Y-212725D02*
X269875Y-206375D01*
M02*
