G04 EAGLE Gerber RS-274X export*
G75*
%MOMM*%
%FSLAX34Y34*%
%LPD*%
%INSoldermask Top*%
%IPPOS*%
%AMOC8*
5,1,8,0,0,1.08239X$1,22.5*%
G01*
%ADD10R,1.303200X1.203200*%
%ADD11R,1.203200X1.303200*%
%ADD12R,1.003200X1.403200*%
%ADD13C,0.404144*%
%ADD14R,1.103200X0.443200*%
%ADD15R,0.443200X1.103200*%
%ADD16R,2.103200X1.103200*%
%ADD17R,1.103200X2.103200*%
%ADD18R,1.543200X0.643200*%
%ADD19C,0.506016*%
%ADD20C,0.499716*%
%ADD21R,1.503200X1.803200*%
%ADD22R,1.803200X1.503200*%
%ADD23R,0.400000X1.400000*%
%ADD24R,1.900000X2.350000*%
%ADD25C,1.727200*%
%ADD26C,0.959600*%


D10*
X145373Y92456D03*
X162373Y92456D03*
D11*
X208788Y91355D03*
X208788Y74355D03*
D12*
X173643Y119634D03*
X155643Y119634D03*
D13*
X111946Y-13442D02*
X111946Y-23334D01*
X109954Y-23334D01*
X109954Y-13442D01*
X111946Y-13442D01*
X111946Y-19495D02*
X109954Y-19495D01*
X109954Y-15656D02*
X111946Y-15656D01*
X118446Y-13442D02*
X118446Y-23334D01*
X116454Y-23334D01*
X116454Y-13442D01*
X118446Y-13442D01*
X118446Y-19495D02*
X116454Y-19495D01*
X116454Y-15656D02*
X118446Y-15656D01*
X124946Y-13442D02*
X124946Y-23334D01*
X122954Y-23334D01*
X122954Y-13442D01*
X124946Y-13442D01*
X124946Y-19495D02*
X122954Y-19495D01*
X122954Y-15656D02*
X124946Y-15656D01*
X122954Y-4134D02*
X122954Y5758D01*
X124946Y5758D01*
X124946Y-4134D01*
X122954Y-4134D01*
X122954Y-295D02*
X124946Y-295D01*
X124946Y3544D02*
X122954Y3544D01*
X116454Y5758D02*
X116454Y-4134D01*
X116454Y5758D02*
X118446Y5758D01*
X118446Y-4134D01*
X116454Y-4134D01*
X116454Y-295D02*
X118446Y-295D01*
X118446Y3544D02*
X116454Y3544D01*
X109954Y5758D02*
X109954Y-4134D01*
X109954Y5758D02*
X111946Y5758D01*
X111946Y-4134D01*
X109954Y-4134D01*
X109954Y-295D02*
X111946Y-295D01*
X111946Y3544D02*
X109954Y3544D01*
D14*
X200846Y141061D03*
D15*
X206346Y130561D03*
X211346Y130561D03*
X216346Y130561D03*
X221346Y130561D03*
X226346Y130561D03*
X231346Y130561D03*
D14*
X236846Y141061D03*
X236846Y146061D03*
D15*
X231346Y156561D03*
X226346Y156561D03*
X221346Y156561D03*
X216346Y156561D03*
X211346Y156561D03*
X206346Y156561D03*
D14*
X200846Y146061D03*
D16*
X218846Y143561D03*
D15*
X113600Y107425D03*
D14*
X124100Y112925D03*
X124100Y117925D03*
X124100Y122925D03*
X124100Y127925D03*
X124100Y132925D03*
X124100Y137925D03*
D15*
X113600Y143425D03*
X108600Y143425D03*
D14*
X98100Y137925D03*
X98100Y132925D03*
X98100Y127925D03*
X98100Y122925D03*
X98100Y117925D03*
X98100Y112925D03*
D15*
X108600Y107425D03*
D17*
X111100Y125425D03*
D18*
X203421Y-92202D03*
X203421Y-85802D03*
X203421Y-98602D03*
X203421Y-105002D03*
X203421Y-111402D03*
X203421Y-79402D03*
X203421Y-73002D03*
X203421Y-66602D03*
X129421Y-92202D03*
X129421Y-98602D03*
X129421Y-105002D03*
X129421Y-111402D03*
X129421Y-85802D03*
X129421Y-79402D03*
X129421Y-73002D03*
X129421Y-66602D03*
D19*
X196856Y16269D02*
X213528Y16269D01*
X213528Y13297D01*
X196856Y13297D01*
X196856Y16269D01*
X196856Y28969D02*
X213528Y28969D01*
X213528Y25997D01*
X196856Y25997D01*
X196856Y28969D01*
X196856Y41669D02*
X213528Y41669D01*
X213528Y38697D01*
X196856Y38697D01*
X196856Y41669D01*
X196856Y54369D02*
X213528Y54369D01*
X213528Y51397D01*
X196856Y51397D01*
X196856Y54369D01*
X164028Y54369D02*
X147356Y54369D01*
X164028Y54369D02*
X164028Y51397D01*
X147356Y51397D01*
X147356Y54369D01*
X147356Y41669D02*
X164028Y41669D01*
X164028Y38697D01*
X147356Y38697D01*
X147356Y41669D01*
X147356Y28969D02*
X164028Y28969D01*
X164028Y25997D01*
X147356Y25997D01*
X147356Y28969D01*
X147356Y16269D02*
X164028Y16269D01*
X164028Y13297D01*
X147356Y13297D01*
X147356Y16269D01*
D20*
X128674Y-157220D02*
X120238Y-157220D01*
X120238Y-154284D01*
X128674Y-154284D01*
X128674Y-157220D01*
X128674Y-166720D02*
X120238Y-166720D01*
X120238Y-163784D01*
X128674Y-163784D01*
X128674Y-166720D01*
X128674Y-176220D02*
X120238Y-176220D01*
X120238Y-173284D01*
X128674Y-173284D01*
X128674Y-176220D01*
X145138Y-173284D02*
X153574Y-173284D01*
X153574Y-176220D01*
X145138Y-176220D01*
X145138Y-173284D01*
X145138Y-154284D02*
X153574Y-154284D01*
X153574Y-157220D01*
X145138Y-157220D01*
X145138Y-154284D01*
D21*
X189390Y-153670D03*
X209390Y-153670D03*
X166530Y-175260D03*
X186530Y-175260D03*
D22*
X168910Y-157320D03*
X168910Y-137320D03*
D21*
X105250Y-176530D03*
X85250Y-176530D03*
D22*
X203200Y-53180D03*
X203200Y-33180D03*
X151130Y-1430D03*
X151130Y-21430D03*
D21*
X138270Y-38100D03*
X118270Y-38100D03*
D22*
X170180Y-21430D03*
X170180Y-1430D03*
D21*
X105250Y-157480D03*
X85250Y-157480D03*
X190660Y-134620D03*
X210660Y-134620D03*
X106520Y-96520D03*
X86520Y-96520D03*
X106520Y-116840D03*
X86520Y-116840D03*
D10*
X224790Y-32630D03*
X224790Y-15630D03*
D11*
X168030Y-39370D03*
X185030Y-39370D03*
X140090Y73660D03*
X157090Y73660D03*
X190110Y73660D03*
X173110Y73660D03*
D10*
X105410Y38980D03*
X105410Y21980D03*
D11*
X86750Y-41910D03*
X103750Y-41910D03*
D10*
X129540Y38980D03*
X129540Y21980D03*
D11*
X103750Y-63500D03*
X86750Y-63500D03*
D23*
X202600Y180860D03*
X197600Y180860D03*
X192600Y180860D03*
X187600Y180860D03*
X182600Y180860D03*
X177600Y180860D03*
X172600Y180860D03*
X167600Y180860D03*
X162600Y180860D03*
X157600Y180860D03*
X152600Y180860D03*
X147600Y180860D03*
X142600Y180860D03*
X137600Y180860D03*
X132600Y180860D03*
X127600Y180860D03*
D24*
X108600Y213360D03*
X221600Y213360D03*
D25*
X238760Y-198120D02*
X238760Y-213360D01*
X213360Y-213360D02*
X213360Y-198120D01*
X187960Y-198120D02*
X187960Y-213360D01*
X162560Y-213360D02*
X162560Y-198120D01*
X137160Y-198120D02*
X137160Y-213360D01*
X111760Y-213360D02*
X111760Y-198120D01*
X86360Y-198120D02*
X86360Y-213360D01*
D26*
X116764Y91364D03*
X142620Y103867D03*
X96520Y-8890D03*
X102276Y-26076D03*
X120650Y151130D03*
X148590Y-133350D03*
X185420Y127000D03*
X217414Y114300D03*
X184150Y137160D03*
X200660Y123190D03*
X183952Y116840D03*
X227330Y114300D03*
X109220Y153670D03*
X238760Y157480D03*
X238316Y188884D03*
X95250Y196850D03*
X91636Y144431D03*
X83114Y177800D03*
X99060Y149860D03*
X231458Y166370D03*
X232248Y179938D03*
X89182Y187960D03*
X132080Y144780D03*
X173990Y104140D03*
X228600Y104140D03*
X134620Y113030D03*
X151532Y143510D03*
X140845Y149986D03*
X151708Y107372D03*
X120650Y100330D03*
X143664Y134466D03*
X130810Y153868D03*
X91440Y104140D03*
X129540Y162956D03*
X101296Y175564D03*
X120452Y166370D03*
X114300Y178506D03*
X153670Y-82550D03*
X97790Y-80010D03*
X115570Y-59690D03*
X153670Y-67310D03*
M02*
