G04 EAGLE Gerber RS-274X export*
G75*
%MOMM*%
%FSLAX34Y34*%
%LPD*%
%INSolderpaste Top*%
%IPPOS*%
%AMOC8*
5,1,8,0,0,1.08239X$1,22.5*%
G01*
%ADD10R,1.100000X1.000000*%
%ADD11R,1.000000X1.100000*%
%ADD12R,0.800000X1.200000*%
%ADD13C,0.200000*%
%ADD14R,0.400000X0.400000*%
%ADD15R,0.850000X0.190000*%
%ADD16R,0.190000X0.850000*%
%ADD17R,1.340000X0.440000*%
%ADD18C,0.300000*%
%ADD19C,0.295000*%
%ADD20R,1.300000X1.600000*%
%ADD21R,1.600000X1.300000*%
%ADD22R,0.250000X1.250000*%
%ADD23R,1.650000X2.050000*%


D10*
X145373Y92456D03*
X162373Y92456D03*
D11*
X208788Y91355D03*
X208788Y74355D03*
D12*
X173643Y119634D03*
X155643Y119634D03*
D13*
X111950Y-13438D02*
X111950Y-23338D01*
X109950Y-23338D01*
X109950Y-13438D01*
X111950Y-13438D01*
X111950Y-21438D02*
X109950Y-21438D01*
X109950Y-19538D02*
X111950Y-19538D01*
X111950Y-17638D02*
X109950Y-17638D01*
X109950Y-15738D02*
X111950Y-15738D01*
X111950Y-13838D02*
X109950Y-13838D01*
X118450Y-13438D02*
X118450Y-23338D01*
X116450Y-23338D01*
X116450Y-13438D01*
X118450Y-13438D01*
X118450Y-21438D02*
X116450Y-21438D01*
X116450Y-19538D02*
X118450Y-19538D01*
X118450Y-17638D02*
X116450Y-17638D01*
X116450Y-15738D02*
X118450Y-15738D01*
X118450Y-13838D02*
X116450Y-13838D01*
X124950Y-13438D02*
X124950Y-23338D01*
X122950Y-23338D01*
X122950Y-13438D01*
X124950Y-13438D01*
X124950Y-21438D02*
X122950Y-21438D01*
X122950Y-19538D02*
X124950Y-19538D01*
X124950Y-17638D02*
X122950Y-17638D01*
X122950Y-15738D02*
X124950Y-15738D01*
X124950Y-13838D02*
X122950Y-13838D01*
X122950Y-4138D02*
X122950Y5762D01*
X124950Y5762D01*
X124950Y-4138D01*
X122950Y-4138D01*
X122950Y-2238D02*
X124950Y-2238D01*
X124950Y-338D02*
X122950Y-338D01*
X122950Y1562D02*
X124950Y1562D01*
X124950Y3462D02*
X122950Y3462D01*
X122950Y5362D02*
X124950Y5362D01*
X116450Y5762D02*
X116450Y-4138D01*
X116450Y5762D02*
X118450Y5762D01*
X118450Y-4138D01*
X116450Y-4138D01*
X116450Y-2238D02*
X118450Y-2238D01*
X118450Y-338D02*
X116450Y-338D01*
X116450Y1562D02*
X118450Y1562D01*
X118450Y3462D02*
X116450Y3462D01*
X116450Y5362D02*
X118450Y5362D01*
X109950Y5762D02*
X109950Y-4138D01*
X109950Y5762D02*
X111950Y5762D01*
X111950Y-4138D01*
X109950Y-4138D01*
X109950Y-2238D02*
X111950Y-2238D01*
X111950Y-338D02*
X109950Y-338D01*
X109950Y1562D02*
X111950Y1562D01*
X111950Y3462D02*
X109950Y3462D01*
X109950Y5362D02*
X111950Y5362D01*
D14*
X222346Y143561D03*
X215346Y143561D03*
D15*
X236846Y146061D03*
X236846Y141061D03*
D16*
X231346Y130561D03*
X226346Y130561D03*
X221346Y130561D03*
X216346Y130561D03*
X211346Y130561D03*
X206346Y130561D03*
D15*
X200846Y141061D03*
X200846Y146061D03*
D16*
X206346Y156561D03*
X211346Y156561D03*
X216346Y156561D03*
X221346Y156561D03*
X226346Y156561D03*
X231346Y156561D03*
D14*
X111100Y128925D03*
X111100Y121925D03*
D16*
X108600Y143425D03*
X113600Y143425D03*
D15*
X124100Y137925D03*
X124100Y132925D03*
X124100Y127925D03*
X124100Y122925D03*
X124100Y117925D03*
X124100Y112925D03*
D16*
X113600Y107425D03*
X108600Y107425D03*
D15*
X98100Y112925D03*
X98100Y117925D03*
X98100Y122925D03*
X98100Y127925D03*
X98100Y132925D03*
X98100Y137925D03*
D17*
X203421Y-92202D03*
X203421Y-85802D03*
X203421Y-98602D03*
X203421Y-105002D03*
X203421Y-111402D03*
X203421Y-79402D03*
X203421Y-73002D03*
X203421Y-66602D03*
X129421Y-92202D03*
X129421Y-98602D03*
X129421Y-105002D03*
X129421Y-111402D03*
X129421Y-85802D03*
X129421Y-79402D03*
X129421Y-73002D03*
X129421Y-66602D03*
D18*
X196842Y16283D02*
X213542Y16283D01*
X213542Y13283D01*
X196842Y13283D01*
X196842Y16283D01*
X196842Y16133D02*
X213542Y16133D01*
X213542Y28983D02*
X196842Y28983D01*
X213542Y28983D02*
X213542Y25983D01*
X196842Y25983D01*
X196842Y28983D01*
X196842Y28833D02*
X213542Y28833D01*
X213542Y41683D02*
X196842Y41683D01*
X213542Y41683D02*
X213542Y38683D01*
X196842Y38683D01*
X196842Y41683D01*
X196842Y41533D02*
X213542Y41533D01*
X213542Y54383D02*
X196842Y54383D01*
X213542Y54383D02*
X213542Y51383D01*
X196842Y51383D01*
X196842Y54383D01*
X196842Y54233D02*
X213542Y54233D01*
X164042Y54383D02*
X147342Y54383D01*
X164042Y54383D02*
X164042Y51383D01*
X147342Y51383D01*
X147342Y54383D01*
X147342Y54233D02*
X164042Y54233D01*
X164042Y41683D02*
X147342Y41683D01*
X164042Y41683D02*
X164042Y38683D01*
X147342Y38683D01*
X147342Y41683D01*
X147342Y41533D02*
X164042Y41533D01*
X164042Y28983D02*
X147342Y28983D01*
X164042Y28983D02*
X164042Y25983D01*
X147342Y25983D01*
X147342Y28983D01*
X147342Y28833D02*
X164042Y28833D01*
X164042Y16283D02*
X147342Y16283D01*
X164042Y16283D02*
X164042Y13283D01*
X147342Y13283D01*
X147342Y16283D01*
X147342Y16133D02*
X164042Y16133D01*
D19*
X128681Y-157227D02*
X120231Y-157227D01*
X120231Y-154277D01*
X128681Y-154277D01*
X128681Y-157227D01*
X128681Y-154425D02*
X120231Y-154425D01*
X120231Y-166727D02*
X128681Y-166727D01*
X120231Y-166727D02*
X120231Y-163777D01*
X128681Y-163777D01*
X128681Y-166727D01*
X128681Y-163925D02*
X120231Y-163925D01*
X120231Y-176227D02*
X128681Y-176227D01*
X120231Y-176227D02*
X120231Y-173277D01*
X128681Y-173277D01*
X128681Y-176227D01*
X128681Y-173425D02*
X120231Y-173425D01*
X145131Y-173277D02*
X153581Y-173277D01*
X153581Y-176227D01*
X145131Y-176227D01*
X145131Y-173277D01*
X145131Y-173425D02*
X153581Y-173425D01*
X153581Y-154277D02*
X145131Y-154277D01*
X153581Y-154277D02*
X153581Y-157227D01*
X145131Y-157227D01*
X145131Y-154277D01*
X145131Y-154425D02*
X153581Y-154425D01*
D20*
X189390Y-153670D03*
X209390Y-153670D03*
X166530Y-175260D03*
X186530Y-175260D03*
D21*
X168910Y-157320D03*
X168910Y-137320D03*
D20*
X105250Y-176530D03*
X85250Y-176530D03*
D21*
X203200Y-53180D03*
X203200Y-33180D03*
X151130Y-1430D03*
X151130Y-21430D03*
D20*
X138270Y-38100D03*
X118270Y-38100D03*
D21*
X170180Y-21430D03*
X170180Y-1430D03*
D20*
X105250Y-157480D03*
X85250Y-157480D03*
X190660Y-134620D03*
X210660Y-134620D03*
X106520Y-96520D03*
X86520Y-96520D03*
X106520Y-116840D03*
X86520Y-116840D03*
D10*
X224790Y-32630D03*
X224790Y-15630D03*
D11*
X168030Y-39370D03*
X185030Y-39370D03*
X140090Y73660D03*
X157090Y73660D03*
X190110Y73660D03*
X173110Y73660D03*
D10*
X105410Y38980D03*
X105410Y21980D03*
D11*
X86750Y-41910D03*
X103750Y-41910D03*
D10*
X129540Y38980D03*
X129540Y21980D03*
D11*
X103750Y-63500D03*
X86750Y-63500D03*
D22*
X202600Y180860D03*
X197600Y180860D03*
X192600Y180860D03*
X187600Y180860D03*
X182600Y180860D03*
X177600Y180860D03*
X172600Y180860D03*
X167600Y180860D03*
X162600Y180860D03*
X157600Y180860D03*
X152600Y180860D03*
X147600Y180860D03*
X142600Y180860D03*
X137600Y180860D03*
X132600Y180860D03*
X127600Y180860D03*
D23*
X108600Y213360D03*
X221600Y213360D03*
M02*
